<?xml version="1.0" encoding="UTF-8"?>
<svg xmlns="http://www.w3.org/2000/svg" width="445" height="378">
    <path
        d="M0 0 C1.75763672 0.47566406 1.75763672 0.47566406 3.55078125 0.9609375 C18.93089169 5.54086479 33.15465708 13.17381808 45 24 C46.25296875 25.04220703 46.25296875 25.04220703 47.53125 26.10546875 C65.83505917 41.61286263 80.53662024 67.33421924 82.75 91.3125 C82.84802067 92.87414741 82.93733606 94.43653464 83 96 C83.98613281 95.7834375 83.98613281 95.7834375 84.9921875 95.5625 C112.72841202 90.15055375 141.23857286 97.17083697 165 112 C172.7843544 117.41024045 178.26638701 124.54392914 180 134 C180.96676317 144.35180255 179.03623064 154.08472308 172.55078125 162.4375 C168.22346708 166.79751428 162.80546008 170.04341298 157 172 C155.68 172 154.36 172 153 172 C153.97810582 173.12592245 154.95758435 174.25065233 155.9375 175.375 C156.90042969 176.48488281 156.90042969 176.48488281 157.8828125 177.6171875 C159.2635132 179.17111265 160.67418533 180.69906301 162.1171875 182.1953125 C184.00186315 205.17032786 192.376215 234.73096309 192.37060547 265.83862305 C192.37499865 268.56166267 192.41150133 271.28310252 192.44921875 274.00585938 C192.53393571 286.93521381 191.76292035 298.3286325 182.28515625 308.08984375 C174.75689865 314.38269497 166.60306295 316.38503976 156.9765625 316.28125 C149.3934984 315.56474001 141.46784738 312.4131689 136 307 C130.88883187 300.61103983 127.79606214 294.48600645 127.69140625 286.17578125 C127.66868652 285.07387451 127.6459668 283.97196777 127.62255859 282.83666992 C127.60273926 281.67369385 127.58291992 280.51071777 127.5625 279.3125 C126.96830745 259.06789862 125.88445251 240.30796473 111.19921875 224.84375 C107.52280367 221.76156898 103.42034773 219.80255983 99 218 C99.53109375 218.89460937 100.0621875 219.78921875 100.609375 220.7109375 C113.85157573 243.25618348 118.63930401 267.96406418 112.0703125 293.6328125 C108.37775228 305.62726673 102.82321677 317.23853341 95.125 327.1875 C91.56763429 331.98221031 90.83578786 336.67845438 89.78515625 342.47265625 C87.55914622 352.47308935 82.16410712 360.838632 74 367 C61.48506954 374.64622572 48.90090865 377.08715428 34.4296875 374.31640625 C28.02651413 372.34304975 22.96018565 369.48016769 18 365 C17.34902344 364.41734375 16.69804687 363.8346875 16.02734375 363.234375 C12.55898481 359.958307 10.71180659 357.49176946 9 353 C-1.03203605 352.89880352 -11.06274667 352.85178855 -21.09531403 352.87302971 C-25.75458283 352.88121136 -30.41227965 352.87106773 -35.07128906 352.81835938 C-39.57186168 352.76812902 -44.07007376 352.76693124 -48.57078552 352.79904556 C-50.28353477 352.80278308 -51.99641677 352.78915746 -53.70887756 352.75750351 C-63.29676855 352.33659813 -63.29676855 352.33659813 -71.71240234 356.16998291 C-73.84140705 358.75199284 -73.84140705 358.75199284 -75.40734863 361.47610474 C-79.4787466 367.92810186 -87.58429725 372.00707349 -94.68359375 374.33984375 C-108.23900004 377.03815195 -120.84835859 375.50412735 -132.6875 368.3125 C-142.92808467 361.0030308 -149.15428739 351.54261617 -151.25 339.1875 C-152.42794945 333.01823935 -154.63391304 329.03170169 -158.37866211 324.03588867 C-173.34554788 303.92971634 -178.27474207 279.40525921 -174.6796875 254.85546875 C-172.34168972 241.59337791 -167.48288153 229.2243223 -160 218 C-172.89971622 223.83332755 -179.76844414 232.98154087 -185 246 C-187.4968313 254.45660451 -187.99477093 263.54046141 -188.17578125 272.3125 C-188.19962891 273.40820312 -188.22347656 274.50390625 -188.24804688 275.6328125 C-188.29101192 277.8774105 -188.32226447 280.1222633 -188.34179688 282.3671875 C-188.58540958 291.99838739 -190.57251254 300.28289122 -197.30078125 307.46875 C-205.41223828 314.77838485 -213.82435939 316.46156217 -224.5703125 316.234375 C-234.37945329 315.56404647 -240.51626487 311.36633782 -247 304 C-252.037544 296.21889657 -253.15594989 289.21725063 -253.203125 280.140625 C-253.21167511 278.84665802 -253.21167511 278.84665802 -253.22039795 277.52655029 C-253.2298306 275.69756283 -253.23637503 273.8685585 -253.24023438 272.03955078 C-253.24982222 269.30078357 -253.28081141 266.56280626 -253.3125 263.82421875 C-253.51206911 230.79085095 -242.52689736 203.45791683 -220.04296875 179.25390625 C-217.9207161 176.91253 -215.95057222 174.48533584 -214 172 C-214.67804688 171.81566406 -215.35609375 171.63132813 -216.0546875 171.44140625 C-225.77161118 168.41327906 -233.20611173 163.07783593 -238.125 154 C-241.40155413 145.62658388 -241.50159967 136.14750703 -238.99609375 127.55859375 C-232.07491242 112.11903539 -217.47518116 105.77836043 -202.53710938 100.05664062 C-183.10382902 92.97435905 -164.42608977 91.61579578 -144 95 C-143.8548999 94.38705078 -143.7097998 93.77410156 -143.56030273 93.14257812 C-137.73208599 68.85796327 -129.62833669 49.12931962 -112 31 C-111.30519531 30.24332031 -110.61039063 29.48664062 -109.89453125 28.70703125 C-96.56010872 14.59537462 -78.54452102 5.18069159 -60 0 C-58.93652344 -0.3196875 -57.87304688 -0.639375 -56.77734375 -0.96875 C-39.41362951 -5.35537255 -17.13948099 -5.13558139 0 0 Z M-105 255 C-109.55279744 264.73566953 -110.06910853 271.48721485 -106.94921875 281.73828125 C-105.88301927 284.27873187 -104.9264958 286.01747635 -103 288 C-100.36172873 288.94967523 -100.36172873 288.94967523 -97.375 289.4375 C-88.03184976 291.54252301 -80.57704575 296.00044596 -74 303 C-73.18804169 304.51907959 -73.18804169 304.51907959 -72.35968018 306.06884766 C-70.24370284 309.31575568 -70.24370284 309.31575568 -66.57366943 309.78881836 C-65.19012934 309.83650001 -63.80521299 309.85124333 -62.42089844 309.83984375 C-61.28349968 309.86525238 -61.28349968 309.86525238 -60.12312317 309.89117432 C-57.61785648 309.93794761 -55.11504519 309.93995832 -52.609375 309.9375 C-50.8630475 309.95170616 -49.11672933 309.9671046 -47.37042236 309.98364258 C-43.70843589 310.01054222 -40.04731155 310.01366869 -36.38525391 310.00195312 C-31.70543379 309.9901828 -27.02978008 310.05121647 -22.35076523 310.13218689 C-18.74216678 310.18406031 -15.13456225 310.18968551 -11.5256424 310.18240356 C-9.80167451 310.18577794 -8.07765873 310.20498787 -6.35405731 310.24069214 C3.30639904 310.66433319 3.30639904 310.66433319 11.78393555 306.77830505 C13.77973078 304.27503789 15.37712486 301.75193377 17 299 C23.59336164 293.54984219 31.30156777 289.78307204 39.75 288.375 C43.47548891 286.79883162 43.76920547 286.16005845 45.375 282.625 C48.21793437 275.23337064 49.33982177 268.12343891 46.625 260.5 C45.41830258 256.94959846 45.41830258 256.94959846 43 256 C42.62230469 256.72703125 42.24460937 257.4540625 41.85546875 258.203125 C30.94391859 278.13523068 13.40507832 291.9711745 -8.375 298.4375 C-31.22676357 303.84975979 -54.66229428 300.52543899 -74.7109375 288.1640625 C-87.2305674 279.9266813 -95.43501613 270.32710066 -102.65234375 257.2734375 C-103.09707031 256.52320313 -103.54179687 255.77296875 -104 255 C-104.33 255 -104.66 255 -105 255 Z "
        fill="#292B37" transform="translate(253,3)"/>
    <path
        d="M0 0 C1.75763672 0.47566406 1.75763672 0.47566406 3.55078125 0.9609375 C18.93089169 5.54086479 33.15465708 13.17381808 45 24 C46.25296875 25.04220703 46.25296875 25.04220703 47.53125 26.10546875 C65.83505917 41.61286263 80.53662024 67.33421924 82.75 91.3125 C82.84802067 92.87414741 82.93733606 94.43653464 83 96 C83.98613281 95.7834375 83.98613281 95.7834375 84.9921875 95.5625 C112.72841202 90.15055375 141.23857286 97.17083697 165 112 C172.7843544 117.41024045 178.26638701 124.54392914 180 134 C180.96676317 144.35180255 179.03623064 154.08472308 172.55078125 162.4375 C168.22346708 166.79751428 162.80546008 170.04341298 157 172 C155.68 172 154.36 172 153 172 C153.97810582 173.12592245 154.95758435 174.25065233 155.9375 175.375 C156.90042969 176.48488281 156.90042969 176.48488281 157.8828125 177.6171875 C159.2635132 179.17111265 160.67418533 180.69906301 162.1171875 182.1953125 C184.00186315 205.17032786 192.376215 234.73096309 192.37060547 265.83862305 C192.37499865 268.56166267 192.41150133 271.28310252 192.44921875 274.00585938 C192.53393571 286.93521381 191.76292035 298.3286325 182.28515625 308.08984375 C174.75689865 314.38269497 166.60306295 316.38503976 156.9765625 316.28125 C149.3934984 315.56474001 141.46784738 312.4131689 136 307 C130.88883187 300.61103983 127.79606214 294.48600645 127.69140625 286.17578125 C127.66868652 285.07387451 127.6459668 283.97196777 127.62255859 282.83666992 C127.60273926 281.67369385 127.58291992 280.51071777 127.5625 279.3125 C126.96830745 259.06789862 125.88445251 240.30796473 111.19921875 224.84375 C107.52280367 221.76156898 103.42034773 219.80255983 99 218 C99.53109375 218.89460937 100.0621875 219.78921875 100.609375 220.7109375 C113.85157573 243.25618348 118.63930401 267.96406418 112.0703125 293.6328125 C108.37775228 305.62726673 102.82321677 317.23853341 95.125 327.1875 C91.56763429 331.98221031 90.83578786 336.67845438 89.78515625 342.47265625 C87.55914622 352.47308935 82.16410712 360.838632 74 367 C61.48506954 374.64622572 48.90090865 377.08715428 34.4296875 374.31640625 C28.02651413 372.34304975 22.96018565 369.48016769 18 365 C17.34902344 364.41734375 16.69804687 363.8346875 16.02734375 363.234375 C12.55898481 359.958307 10.71180659 357.49176946 9 353 C-1.03203605 352.89880352 -11.06274667 352.85178855 -21.09531403 352.87302971 C-25.75458283 352.88121136 -30.41227965 352.87106773 -35.07128906 352.81835938 C-39.57186168 352.76812902 -44.07007376 352.76693124 -48.57078552 352.79904556 C-50.28353477 352.80278308 -51.99641677 352.78915746 -53.70887756 352.75750351 C-63.29676855 352.33659813 -63.29676855 352.33659813 -71.71240234 356.16998291 C-73.84140705 358.75199284 -73.84140705 358.75199284 -75.40734863 361.47610474 C-79.4787466 367.92810186 -87.58429725 372.00707349 -94.68359375 374.33984375 C-108.23900004 377.03815195 -120.84835859 375.50412735 -132.6875 368.3125 C-142.92808467 361.0030308 -149.15428739 351.54261617 -151.25 339.1875 C-152.42794945 333.01823935 -154.63391304 329.03170169 -158.37866211 324.03588867 C-173.34554788 303.92971634 -178.27474207 279.40525921 -174.6796875 254.85546875 C-172.34168972 241.59337791 -167.48288153 229.2243223 -160 218 C-172.89971622 223.83332755 -179.76844414 232.98154087 -185 246 C-187.4968313 254.45660451 -187.99477093 263.54046141 -188.17578125 272.3125 C-188.19962891 273.40820312 -188.22347656 274.50390625 -188.24804688 275.6328125 C-188.29101192 277.8774105 -188.32226447 280.1222633 -188.34179688 282.3671875 C-188.58540958 291.99838739 -190.57251254 300.28289122 -197.30078125 307.46875 C-205.41223828 314.77838485 -213.82435939 316.46156217 -224.5703125 316.234375 C-234.37945329 315.56404647 -240.51626487 311.36633782 -247 304 C-252.037544 296.21889657 -253.15594989 289.21725063 -253.203125 280.140625 C-253.21167511 278.84665802 -253.21167511 278.84665802 -253.22039795 277.52655029 C-253.2298306 275.69756283 -253.23637503 273.8685585 -253.24023438 272.03955078 C-253.24982222 269.30078357 -253.28081141 266.56280626 -253.3125 263.82421875 C-253.51206911 230.79085095 -242.52689736 203.45791683 -220.04296875 179.25390625 C-217.9207161 176.91253 -215.95057222 174.48533584 -214 172 C-214.67804688 171.81566406 -215.35609375 171.63132813 -216.0546875 171.44140625 C-225.77161118 168.41327906 -233.20611173 163.07783593 -238.125 154 C-241.40155413 145.62658388 -241.50159967 136.14750703 -238.99609375 127.55859375 C-232.07491242 112.11903539 -217.47518116 105.77836043 -202.53710938 100.05664062 C-183.10382902 92.97435905 -164.42608977 91.61579578 -144 95 C-143.8548999 94.38705078 -143.7097998 93.77410156 -143.56030273 93.14257812 C-137.73208599 68.85796327 -129.62833669 49.12931962 -112 31 C-111.30519531 30.24332031 -110.61039063 29.48664062 -109.89453125 28.70703125 C-96.56010872 14.59537462 -78.54452102 5.18069159 -60 0 C-58.93652344 -0.3196875 -57.87304688 -0.639375 -56.77734375 -0.96875 C-39.41362951 -5.35537255 -17.13948099 -5.13558139 0 0 Z M-56 13 C-57.01964844 13.2784375 -58.03929687 13.556875 -59.08984375 13.84375 C-85.71951794 21.96212636 -107.03936242 40.68408358 -120 65 C-131.03820391 86.80718334 -134.41971363 113.50823129 -127.328125 137.18359375 C-125.03915397 144.01353114 -122.21886402 150.56053672 -119 157 C-118.46503906 158.07121094 -117.93007812 159.14242187 -117.37890625 160.24609375 C-113.02194652 168.28087082 -107.34480174 174.52476181 -101 181 C-100.27683594 181.76183594 -99.55367187 182.52367187 -98.80859375 183.30859375 C-96.49043985 185.7472415 -96.49043985 185.7472415 -94 188 C-93.34 188 -92.68 188 -92 188 C-92.99 189.65 -93.98 191.3 -95 193 C-96.23577678 191.86558711 -97.47150608 190.73112247 -98.70703125 189.59643555 C-99.78999381 188.60388455 -100.87467084 187.6132014 -101.9609375 186.62426758 C-104.61954704 184.2012164 -107.24471263 181.76205674 -109.82421875 179.25390625 C-116.020063 173.31132278 -122.02736199 169.21665688 -130 166 C-131.22009766 165.49146484 -131.22009766 165.49146484 -132.46484375 164.97265625 C-150.37741826 158.83201064 -170.96223169 163.28635126 -187.5 171.3125 C-193.61571902 174.57139526 -198.80925184 178.43602586 -204 183 C-204.75796875 183.61488281 -205.5159375 184.22976562 -206.296875 184.86328125 C-224.67688065 200.16938941 -237.41147847 225.2716868 -239.78466797 248.9765625 C-240.2582506 255.62604925 -240.37224762 262.27412929 -240.4375 268.9375 C-240.44980652 269.64937469 -240.46211304 270.36124939 -240.47479248 271.09469604 C-240.60641841 280.21143352 -240.72577734 290.30030728 -234.58789062 297.703125 C-230.65657165 301.20657955 -226.86181003 302.82435754 -221.6875 303.3125 C-215.42930109 302.78214416 -210.89345676 301.39196266 -206.625 296.625 C-202.70181348 291.82512375 -201.75568377 287.39568557 -201.69140625 281.2578125 C-201.66626953 279.94296875 -201.64113281 278.628125 -201.61523438 277.2734375 C-201.58686315 275.21616024 -201.56281538 273.15894655 -201.54370117 271.1015625 C-201.40106475 258.21099221 -200.56843272 245.17221401 -194.25 233.625 C-193.90001953 232.95927979 -193.55003906 232.29355957 -193.18945312 231.60766602 C-185.91024817 218.11382337 -176.41204872 208.95866006 -161.6484375 204.25 C-151.05300453 201.55434214 -141.46917386 203.46567549 -131 206 C-135.40826672 211.54182102 -135.40826672 211.54182102 -138.37109375 213.8359375 C-151.87734371 224.95400954 -159.81312471 242.9395 -162 260 C-163.48145493 276.25710389 -160.83442238 290.39142241 -154.0625 305.1875 C-153.73894531 305.89479248 -153.41539062 306.60208496 -153.08203125 307.33081055 C-150.95104077 311.71382247 -148.63275566 314.74631449 -145 318 C-144.6596875 317.28714844 -144.319375 316.57429688 -143.96875 315.83984375 C-138.65784722 305.34516086 -131.97599983 299.33310271 -121 295 C-119.34211719 294.6254156 -117.67646674 294.27990741 -116 294 C-116.19335938 293.43152344 -116.38671875 292.86304688 -116.5859375 292.27734375 C-116.84632813 291.50519531 -117.10671875 290.73304688 -117.375 289.9375 C-117.75785156 288.80634766 -117.75785156 288.80634766 -118.1484375 287.65234375 C-118.42945313 286.77707031 -118.71046875 285.90179688 -119 285 C-119.35578125 283.91332031 -119.7115625 282.82664062 -120.078125 281.70703125 C-122.9848972 270.01835828 -121.72916798 257.89030944 -115.52734375 247.54296875 C-110.87005479 240.9038547 -104.68883328 236.56294443 -97 234 C-96.92523438 234.58265625 -96.85046875 235.1653125 -96.7734375 235.765625 C-94.96170219 247.06232754 -89.50188317 256.49270981 -82 265 C-81.34386719 265.75023437 -80.68773437 266.50046875 -80.01171875 267.2734375 C-69.00773569 279.06198242 -52.96468221 287.53875023 -36.6640625 288.23828125 C-16.62980791 288.68299942 0.98715003 283.89673799 16.46875 270.44140625 C26.88711681 260.39282715 33.4643698 249.0184636 37 235 C46.87799746 237.82228499 52.1170698 243.65750112 57.33203125 252.17578125 C62.11287323 261.95707986 61.41871195 274.81968888 58.0625 284.9375 C57.39688268 286.63375059 56.71363593 288.32338548 56 290 C55.67 290.99 55.34 291.98 55 293 C55.90621094 293.3403125 56.81242187 293.680625 57.74609375 294.03125 C70.61727264 299.15248097 77.98677693 305.17179078 84 318 C87.73439546 314.72406827 89.84602572 310.9640087 92 306.5625 C92.34812744 305.85891357 92.69625488 305.15532715 93.05493164 304.43041992 C96.08733543 298.13486281 98.3049538 291.78976134 100 285 C100.19078125 284.24589844 100.3815625 283.49179687 100.578125 282.71484375 C103.85045601 261.65678772 98.87975144 241.00889665 86.39477539 223.80688477 C82.34373871 218.44107209 77.92222802 213.76218011 72.71484375 209.48828125 C71 208 71 208 70 206 C85.67195374 201.75340608 98.80813742 201.62044915 113.3125 209.75 C126.15177648 218.12975396 135.16473225 232.61173211 138.58300781 247.54736328 C140.20207611 256.61510379 140.3547571 265.62955818 140.38085938 274.81103516 C140.30359027 287.19907731 140.30359027 287.19907731 146.48217773 297.54174805 C151.72253012 302.17006484 156.26653296 302.35036377 162.984375 302.27734375 C167.45020062 301.86662663 169.47799704 300.78825234 173 298 C177.94071913 291.99101727 179.24504116 285.63379058 179.30078125 277.984375 C179.30642593 277.33523132 179.31207062 276.68608765 179.31788635 276.01727295 C179.32983442 273.92793367 179.32368988 271.83933697 179.3125 269.75 C179.31034485 269.03513428 179.3081897 268.32026855 179.30596924 267.58374023 C179.150912 235.57920994 169.76776891 209.69258953 147.5625 186.1875 C139.0703445 178.19962927 129.87443456 172.18526625 119 168 C118.38592285 167.75733398 117.7718457 167.51466797 117.13916016 167.26464844 C102.22884892 161.54469583 83.97144192 159.93127998 68.828125 165.69921875 C67.89484375 166.12847656 66.9615625 166.55773437 66 167 C65.02546875 167.43957031 64.0509375 167.87914062 63.046875 168.33203125 C55.84469765 172.05567006 50.48429093 177.08951636 44.98266602 182.93701172 C41.26903194 186.87424013 37.49795721 189.97855853 33 193 C33.29041929 189.63350695 33.76455004 188.2427143 36.15234375 185.78125 C37.07144531 185.0284375 37.99054688 184.275625 38.9375 183.5 C55.62704059 169.08071776 67.0471004 146.83983428 70 125 C70.32346059 119.95815619 70.38999392 114.92560237 70.375 109.875 C70.37445618 109.18713409 70.37391235 108.49926819 70.37335205 107.79055786 C70.33515676 97.29250518 69.70371862 87.88812104 66 78 C65.57589844 76.82308594 65.15179688 75.64617187 64.71484375 74.43359375 C59.12290562 60.24346662 50.70198548 48.71725222 40 38 C39.20980469 37.19820312 38.41960937 36.39640625 37.60546875 35.5703125 C17.84349679 16.62765944 -8.62380861 9.48911485 -35.3984375 9.78125 C-42.51800715 9.97321683 -49.11805042 11.11497957 -56 13 Z M-105 255 C-109.55279744 264.73566953 -110.06910853 271.48721485 -106.94921875 281.73828125 C-105.88301927 284.27873187 -104.9264958 286.01747635 -103 288 C-100.36172873 288.94967523 -100.36172873 288.94967523 -97.375 289.4375 C-88.03184976 291.54252301 -80.57704575 296.00044596 -74 303 C-73.18804169 304.51907959 -73.18804169 304.51907959 -72.35968018 306.06884766 C-70.24370284 309.31575568 -70.24370284 309.31575568 -66.57366943 309.78881836 C-65.19012934 309.83650001 -63.80521299 309.85124333 -62.42089844 309.83984375 C-61.28349968 309.86525238 -61.28349968 309.86525238 -60.12312317 309.89117432 C-57.61785648 309.93794761 -55.11504519 309.93995832 -52.609375 309.9375 C-50.8630475 309.95170616 -49.11672933 309.9671046 -47.37042236 309.98364258 C-43.70843589 310.01054222 -40.04731155 310.01366869 -36.38525391 310.00195312 C-31.70543379 309.9901828 -27.02978008 310.05121647 -22.35076523 310.13218689 C-18.74216678 310.18406031 -15.13456225 310.18968551 -11.5256424 310.18240356 C-9.80167451 310.18577794 -8.07765873 310.20498787 -6.35405731 310.24069214 C3.30639904 310.66433319 3.30639904 310.66433319 11.78393555 306.77830505 C13.77973078 304.27503789 15.37712486 301.75193377 17 299 C23.59336164 293.54984219 31.30156777 289.78307204 39.75 288.375 C43.47548891 286.79883162 43.76920547 286.16005845 45.375 282.625 C48.21793437 275.23337064 49.33982177 268.12343891 46.625 260.5 C45.41830258 256.94959846 45.41830258 256.94959846 43 256 C42.62230469 256.72703125 42.24460937 257.4540625 41.85546875 258.203125 C30.94391859 278.13523068 13.40507832 291.9711745 -8.375 298.4375 C-31.22676357 303.84975979 -54.66229428 300.52543899 -74.7109375 288.1640625 C-87.2305674 279.9266813 -95.43501613 270.32710066 -102.65234375 257.2734375 C-103.09707031 256.52320313 -103.54179687 255.77296875 -104 255 C-104.33 255 -104.66 255 -105 255 Z "
        fill="#FDFDFD" transform="translate(253,3)"/>
    <path
        d="M0 0 C5.9659588 4.14334141 11.10067706 9.47876784 12.74609375 16.6796875 C24.50762145 16.78071295 36.26802102 16.82793722 48.03000069 16.80665779 C53.49187479 16.79846309 58.95240865 16.80873268 64.4140625 16.86132812 C69.68609771 16.91141614 74.95611523 16.91283384 80.22826767 16.88064194 C82.23851745 16.87689341 84.24887892 16.890623 86.25888443 16.92218399 C96.93726111 17.60330184 96.93726111 17.60330184 106.19647217 13.50970459 C107.82464295 10.92524705 107.82464295 10.92524705 108.74508667 8.20358276 C110.89962107 2.77123442 116.33025952 -0.09788587 121.34765625 -2.63671875 C131.11106932 -6.67432617 140.46056784 -6.6006304 150.2109375 -2.57421875 C157.91827316 1.2378841 162.5955973 6.18034812 166.74609375 13.6796875 C167.08769531 14.28296875 167.42929687 14.88625 167.78125 15.5078125 C171.44729601 23.35144582 171.08298452 33.93627302 168.30859375 41.9921875 C163.68690005 51.75632912 155.77836256 58.75464163 145.71875 62.41796875 C136.34280513 65.14720419 128.54614463 63.64726114 119.74609375 59.6796875 C112.74647627 55.77605467 106.72741603 50.22067916 103.74609375 42.6796875 C103.74609375 42.0196875 103.74609375 41.3596875 103.74609375 40.6796875 C73.71609375 40.6796875 43.68609375 40.6796875 12.74609375 40.6796875 C12.41609375 42.3296875 12.08609375 43.9796875 11.74609375 45.6796875 C6.75794932 54.21594658 -0.34402946 59.71595372 -9.75390625 62.5546875 C-19.97748474 64.92598973 -28.3829085 63.7904396 -37.51953125 58.32421875 C-45.79270026 52.4351118 -50.99998832 45.70835605 -53.25390625 35.6796875 C-54.36780518 25.58639923 -53.4370422 17.15665867 -47.1953125 8.984375 C-34.43908918 -5.77240274 -17.42815459 -10.20921361 0 0 Z "
        fill="#8564FF" transform="translate(164.25390625,305.3203125)"/>
    <path
        d="M0 0 C0.05607422 1.54107422 0.05607422 1.54107422 0.11328125 3.11328125 C0.74626625 17.4754326 4.09680748 30.3439487 10.65625 43.26171875 C12 46 12 46 12 48 C5.60322221 45.98717536 -0.54782649 43.38381503 -6.74414062 40.83398438 C-7.60330078 40.48529297 -8.46246094 40.13660156 -9.34765625 39.77734375 C-10.12117432 39.46015381 -10.89469238 39.14296387 -11.69165039 38.81616211 C-17.47604768 36.77097542 -23.12291927 36.78419073 -29.1875 36.75 C-30.08275391 36.729375 -30.97800781 36.70875 -31.90039062 36.6875 C-40.6306767 36.63707235 -48.03708586 38.83396141 -55.875 42.625 C-63.46710507 46.27717882 -71.9232742 47.76661381 -80.23046875 45.3515625 C-85.63170383 42.56152054 -89.11757593 37.64727221 -91 32 C-91.78071649 25.51109409 -90.94986016 20.28824253 -87 15 C-66.95465398 -6.71977826 -25.85932859 -10.34373143 0 0 Z "
        fill="#2A2C38" transform="translate(117,115)"/>
    <path
        d="M0 0 C1.01642578 -0.00773437 2.03285156 -0.01546875 3.08007812 -0.0234375 C13.6859227 0.00360098 23.22993363 1.92516208 33.1875 5.5 C34.0525415 5.80719971 34.91758301 6.11439941 35.80883789 6.4309082 C45.57472579 9.98988922 57.33255096 14.35736182 62.45703125 24.0625 C64.1952366 29.26782082 64.17822745 35.18319762 62.4921875 40.40234375 C59.84273194 45.48974371 55.62337838 49.43804054 50.1875 51.25 C40.75944331 52.29756185 33.75057041 49.95750404 25.1875 46.25 C7.33610706 39.22952982 -7.55491575 40.18371113 -25.04321289 47.72875977 C-26.96019341 48.57074353 -28.87227492 49.42397773 -30.77905273 50.28881836 C-31.65891846 50.68335205 -32.53878418 51.07788574 -33.4453125 51.484375 C-34.23824707 51.84756836 -35.03118164 52.21076172 -35.84814453 52.58496094 C-36.49638184 52.80442383 -37.14461914 53.02388672 -37.8125 53.25 C-38.4725 52.92 -39.1325 52.59 -39.8125 52.25 C-39.35359375 51.280625 -38.8946875 50.31125 -38.421875 49.3125 C-31.71835481 34.81499599 -28.27169769 21.23007946 -27.8125 5.25 C-26.6575 4.79625 -25.5025 4.3425 -24.3125 3.875 C-23.6628125 3.61976562 -23.013125 3.36453125 -22.34375 3.1015625 C-14.7054682 0.53189362 -8.03051456 -0.06041766 0 0 Z "
        fill="#292B37" transform="translate(355.8125,110.75)"/>
    <path
        d="M0 0 C2.3125 1.5625 2.3125 1.5625 4 4 C4.5625 7.4375 4.5625 7.4375 4 11 C0.08001985 15.84140975 -4.69069619 18.17596441 -10.1875 20.8125 C-11.41629883 21.42254883 -11.41629883 21.42254883 -12.66992188 22.04492188 C-18.70424107 25 -18.70424107 25 -21 25 C-18.71405096 27.54781838 -16.48469868 28.91220829 -13.40234375 30.375 C-12.51869141 30.80296875 -11.63503906 31.2309375 -10.72460938 31.671875 C-8.86335246 32.55880892 -7.00136959 33.44422099 -5.13867188 34.328125 C-4.25630859 34.75609375 -3.37394531 35.1840625 -2.46484375 35.625 C-1.656521 36.00914063 -0.84819824 36.39328125 -0.01538086 36.7890625 C2 38 2 38 4 41 C4.42660463 44.91054241 4.58646281 47.12030578 2.375 50.4375 C-0.75584554 52.4972668 -2.27223917 52.35789985 -6 52 C-8.75840204 51.03552956 -11.31837456 49.749915 -13.91796875 48.421875 C-14.65702957 48.05402893 -15.39609039 47.68618286 -16.157547 47.30718994 C-17.7126949 46.52946699 -19.26487838 45.74579115 -20.81420898 44.95654297 C-23.18260034 43.75249091 -25.56185091 42.57238657 -27.94335938 41.39453125 C-29.4564345 40.63421453 -30.96882878 39.87254107 -32.48046875 39.109375 C-33.18987106 38.75816589 -33.89927338 38.40695679 -34.63017273 38.04510498 C-38.26386333 36.17607622 -40.97260134 34.61602497 -43 31 C-43.50390625 28.59765625 -43.50390625 28.59765625 -43.5625 26.0625 C-43.60503906 25.22847656 -43.64757812 24.39445312 -43.69140625 23.53515625 C-42.55090864 19.35333167 -38.84250005 17.11950658 -35.25852966 14.94187927 C-33.38733629 13.92370728 -31.49808626 12.95859638 -29.58984375 12.01171875 C-28.55495567 11.48962578 -28.55495567 11.48962578 -27.49916077 10.95698547 C-26.0514875 10.22962143 -24.60177941 9.50629432 -23.15014648 8.78686523 C-20.93367332 7.68559869 -18.7275174 6.56536595 -16.52148438 5.44335938 C-15.10735142 4.73581758 -13.69265645 4.02939772 -12.27734375 3.32421875 C-11.29434547 2.82277596 -11.29434547 2.82277596 -10.29148865 2.311203 C-6.73722578 0.5699425 -3.97310174 -0.55416995 0 0 Z "
        fill="#8262FA" transform="translate(209,87)"/>
    <path
        d="M0 0 C4.83213917 1.22566044 9.07809045 3.31935836 13.54296875 5.5078125 C14.47093262 5.95713135 15.39889648 6.4064502 16.35498047 6.86938477 C37.8866282 17.36199287 37.8866282 17.36199287 40.48046875 20.8828125 C40.9140625 23.22265625 40.9140625 23.22265625 40.91796875 25.8203125 C40.93730469 26.67496094 40.95664062 27.52960938 40.9765625 28.41015625 C40.30466382 31.75906858 39.07341851 32.65336763 36.48046875 34.8828125 C34.01500735 36.40321221 31.45426131 37.70005064 28.86328125 38.9921875 C28.12850555 39.36386047 27.39372986 39.73553345 26.63668823 40.11846924 C25.08714536 40.8989648 23.53550913 41.67531654 21.98193359 42.44775391 C19.61311686 43.62899866 17.25576289 44.83117504 14.8984375 46.03515625 C13.3873685 46.79296365 11.87566965 47.54951671 10.36328125 48.3046875 C9.3129924 48.84364655 9.3129924 48.84364655 8.2414856 49.39349365 C4.17859553 51.38701674 1.11436769 52.45008794 -3.51953125 51.8828125 C-6.31435544 49.55379234 -6.50448584 48.00317575 -6.95703125 44.3828125 C-6.43737425 40.22555649 -5.62579641 39.53672842 -2.51953125 36.8828125 C-0.24536133 35.54248047 -0.24536133 35.54248047 2.2109375 34.375 C3.09587891 33.94574219 3.98082031 33.51648438 4.89257812 33.07421875 C5.80845703 32.63980469 6.72433594 32.20539063 7.66796875 31.7578125 C9.49741068 30.88568105 11.32438103 30.00833971 13.1484375 29.125 C13.95563232 28.7419873 14.76282715 28.35897461 15.59448242 27.96435547 C17.64171288 27.02151151 17.64171288 27.02151151 18.48046875 24.8828125 C17.26617187 24.52509766 17.26617187 24.52509766 16.02734375 24.16015625 C11.71021265 22.60541851 7.77714451 20.59359063 3.73046875 18.4453125 C2.96347656 18.05021484 2.19648438 17.65511719 1.40625 17.24804688 C0.67277344 16.86068359 -0.06070313 16.47332031 -0.81640625 16.07421875 C-1.47995117 15.72560791 -2.14349609 15.37699707 -2.82714844 15.01782227 C-4.51953125 13.8828125 -4.51953125 13.8828125 -6.51953125 10.8828125 C-6.94889021 6.947022 -7.07854591 4.74283505 -4.89453125 1.3828125 C-2.51953125 -0.1171875 -2.51953125 -0.1171875 0 0 Z "
        fill="#8363FC" transform="translate(238.51953125,87.1171875)"/>
    <path
        d="M0 0 C2.68671327 2.40877741 2.98050369 3.82128379 3.375 7.4375 C2.88603663 12.082652 1.43748382 14.39665266 -1.625 17.8125 C-5.37175571 19.68587786 -8.90657475 19.77902557 -13 19 C-16.06881816 17.28095248 -18.40357084 15.19285833 -20 12 C-20.16796875 10.125 -20.16796875 10.125 -20.1875 8 C-20.20167969 7.29875 -20.21585938 6.5975 -20.23046875 5.875 C-20 4 -20 4 -18 2 C-15.91943025 1.35567622 -13.80912783 0.80506365 -11.6875 0.3125 C-10.55699219 0.04050781 -9.42648438 -0.23148438 -8.26171875 -0.51171875 C-5.07419102 -0.98889356 -3.0542929 -0.95106985 0 0 Z "
        fill="#FCFCFC" transform="translate(258,210)"/>
    <path
        d="M0 0 C1.34073732 0.30217931 2.67309165 0.64194537 4 1 C5.54494141 1.37318359 5.54494141 1.37318359 7.12109375 1.75390625 C10.08791048 2.47726439 13.04537155 3.22859454 16 4 C16.76140684 11.61406844 16.76140684 11.61406844 14.95703125 14.8984375 C12.62816383 17.69854202 10.71971651 19.75923969 7.046875 20.2734375 C2.79280282 20.46154273 -0.09982354 20.43570087 -3.5 17.6875 C-6.45319184 14.51281878 -6.91655901 12.9011627 -7.3125 8.625 C-7 5 -7 5 -5.4375 2 C-3 0 -3 0 0 0 Z "
        fill="#FCFCFC" transform="translate(192,209)"/>
</svg>
