<?xml version="1.0" encoding="UTF-8" standalone="no"?>
<!DOCTYPE svg PUBLIC "-//W3C//DTD SVG 1.1//EN" "http://www.w3.org/Graphics/SVG/1.1/DTD/svg11.dtd">
<svg xmlns="http://www.w3.org/2000/svg" version="1.1" viewBox="0.00 0.00 1200.00 482.00">
<path fill="#61a83b" d="
  M 421.13 250.48
  Q 420.60 252.45 419.72 253.57
  Q 419.41 253.96 419.36 254.45
  Q 419.31 254.93 419.11 255.73
  Q 415.91 268.86 414.38 273.65
  Q 403.74 306.94 381.05 333.44
  Q 378.66 336.23 376.35 338.58
  C 372.35 342.65 368.36 346.95 364.11 350.67
  C 334.02 376.99 296.00 392.46 256.04 393.67
  Q 203.62 395.25 159.61 368.52
  C 132.49 352.04 110.05 327.65 96.01 300.26
  Q 85.26 279.28 79.21 252.83
  Q 76.72 239.22 76.82 221.50
  Q 77.06 180.53 93.71 146.20
  C 119.15 93.73 168.36 57.47 226.05 49.59
  C 312.96 37.73 393.97 91.88 416.92 176.20
  Q 422.76 197.66 422.74 220.76
  Q 422.73 235.66 421.13 250.48
  Z
  M 406.33 220.88
  A 156.57 156.57 0.0 0 0 249.76 64.31
  A 156.57 156.57 0.0 0 0 93.19 220.88
  A 156.57 156.57 0.0 0 0 249.76 377.45
  A 156.57 156.57 0.0 0 0 406.33 220.88
  Z"
/>
<path fill="#ffffff" d="
  M 406.33 220.88
  A 156.57 156.57 0.0 0 1 249.76 377.45
  A 156.57 156.57 0.0 0 1 93.19 220.88
  A 156.57 156.57 0.0 0 1 249.76 64.31
  A 156.57 156.57 0.0 0 1 406.33 220.88
  Z
  M 264.06 198.22
  Q 232.90 202.85 215.01 207.50
  Q 205.23 210.03 195.52 212.78
  Q 175.67 218.39 157.67 227.28
  Q 148.73 231.69 140.53 237.64
  Q 139.67 238.27 140.26 239.15
  L 191.15 315.26
  Q 192.01 315.81 193.42 314.87
  Q 222.49 295.46 242.62 275.12
  C 253.62 263.99 263.96 251.36 271.13 237.63
  Q 275.83 228.60 278.40 218.10
  Q 278.84 217.31 279.17 217.14
  Q 306.48 202.48 330.87 189.09
  C 340.48 183.81 350.25 178.43 358.32 171.48
  C 363.24 167.25 366.85 162.45 366.53 155.58
  C 366.26 149.81 364.61 145.36 360.11 141.69
  Q 351.39 136.26 339.43 141.42
  Q 329.73 145.61 322.58 151.34
  Q 293.92 174.29 264.06 198.22
  Z"
/>
<path fill="#61a83b" d="
  M 631.91 140.96
  Q 631.36 146.42 628.99 150.96
  Q 627.60 153.62 625.51 154.17
  Q 621.94 155.11 618.37 153.52
  C 605.65 147.86 581.50 145.22 579.35 165.09
  Q 578.38 173.99 583.43 181.32
  A 5.56 4.26 82.9 0 0 584.70 182.61
  Q 585.09 182.88 585.74 182.87
  Q 589.43 188.61 594.06 193.19
  Q 599.56 198.64 613.38 211.62
  Q 625.28 222.80 632.01 233.19
  Q 637.83 249.65 635.06 264.78
  C 632.66 277.85 625.26 288.82 613.64 294.44
  C 602.66 299.75 591.04 300.82 578.76 299.72
  Q 568.27 298.79 557.97 294.87
  Q 555.86 293.59 551.93 289.80
  Q 549.05 287.02 549.25 284.30
  C 549.62 278.99 552.69 272.86 555.34 268.28
  Q 555.94 267.25 556.88 267.99
  Q 567.57 276.38 580.28 278.34
  C 593.98 280.46 606.05 274.08 607.25 259.24
  Q 607.87 251.48 605.94 246.35
  Q 603.21 239.10 597.19 232.83
  Q 583.69 218.79 569.81 205.49
  C 562.07 198.07 554.99 188.52 552.21 178.45
  C 549.16 167.40 551.58 153.22 559.10 144.43
  Q 567.23 134.93 578.58 131.99
  Q 601.03 126.19 621.53 133.43
  Q 627.87 135.67 631.91 140.96
  Z"
/>
<path fill="#a97d51" d="
  M 360.11 141.69
  Q 368.04 155.01 358.71 165.42
  C 356.52 167.87 353.17 170.83 350.11 172.77
  C 345.52 175.68 341.35 178.75 336.48 181.47
  C 326.00 187.33 315.85 193.05 305.36 198.56
  Q 290.77 206.22 277.59 213.53
  Q 276.78 213.98 275.85 213.55
  Q 275.38 213.33 275.22 213.82
  Q 274.98 214.53 275.15 215.51
  L 275.12 215.00
  Q 275.09 214.50 274.79 214.10
  Q 269.59 207.24 264.47 200.32
  Q 263.24 198.64 264.06 198.22
  Q 293.92 174.29 322.58 151.34
  Q 329.73 145.61 339.43 141.42
  Q 351.39 136.26 360.11 141.69
  Z
  M 347.6103 153.6553
  A 3.98 3.59 5.7 0 0 344.0066 149.6878
  A 3.98 3.59 5.7 0 0 339.6897 152.8647
  A 3.98 3.59 5.7 0 0 343.2934 156.8322
  A 3.98 3.59 5.7 0 0 347.6103 153.6553
  Z
  M 321.0097 171.2619
  A 3.94 3.56 -0.7 0 0 317.0265 167.7503
  A 3.94 3.56 -0.7 0 0 313.1303 171.3581
  A 3.94 3.56 -0.7 0 0 317.1135 174.8697
  A 3.94 3.56 -0.7 0 0 321.0097 171.2619
  Z
  M 294.4495 189.2919
  A 3.94 3.56 0.9 0 0 290.5659 185.6704
  A 3.94 3.56 0.9 0 0 286.5705 189.1681
  A 3.94 3.56 0.9 0 0 290.4541 192.7896
  A 3.94 3.56 0.9 0 0 294.4495 189.2919
  Z"
/>
<path fill="#056733" d="
  M 631.91 140.96
  Q 633.67 142.60 635.13 143.62
  C 637.44 145.23 634.72 152.15 633.74 154.29
  Q 630.92 160.49 624.38 158.44
  Q 621.22 157.46 617.89 156.20
  Q 609.70 153.13 600.56 153.91
  C 592.62 154.59 585.66 158.85 584.02 167.00
  Q 582.40 175.00 585.74 182.87
  Q 585.09 182.88 584.70 182.61
  A 5.56 4.26 82.9 0 1 583.43 181.32
  Q 578.38 173.99 579.35 165.09
  C 581.50 145.22 605.65 147.86 618.37 153.52
  Q 621.94 155.11 625.51 154.17
  Q 627.60 153.62 628.99 150.96
  Q 631.36 146.42 631.91 140.96
  Z"
/>
<path fill="#764b29" d="
  M 360.11 141.69
  C 364.61 145.36 366.26 149.81 366.53 155.58
  C 366.85 162.45 363.24 167.25 358.32 171.48
  C 350.25 178.43 340.48 183.81 330.87 189.09
  Q 306.48 202.48 279.17 217.14
  Q 278.84 217.31 278.40 218.10
  L 276.56 217.25
  Q 276.13 217.05 275.83 216.69
  Q 275.52 216.32 275.03 216.21
  Q 275.00 215.86 275.15 215.51
  Q 274.98 214.53 275.22 213.82
  Q 275.38 213.33 275.85 213.55
  Q 276.78 213.98 277.59 213.53
  Q 290.77 206.22 305.36 198.56
  C 315.85 193.05 326.00 187.33 336.48 181.47
  C 341.35 178.75 345.52 175.68 350.11 172.77
  C 353.17 170.83 356.52 167.87 358.71 165.42
  Q 368.04 155.01 360.11 141.69
  Z"
/>
<ellipse fill="#ffffff" cx="0.00" cy="0.00" transform="translate(343.65,153.26) rotate(5.7)" rx="3.98" ry="3.59"/>
<ellipse fill="#ffffff" cx="0.00" cy="0.00" transform="translate(317.07,171.31) rotate(-0.7)" rx="3.94" ry="3.56"/>
<path fill="#61a83b" d="
  M 1011.11 195.90
  Q 1009.60 197.39 1010.94 197.82
  A 1.46 1.43 86.0 0 1 1011.83 198.61
  Q 1017.51 210.93 1017.90 224.97
  Q 1018.18 235.03 1017.46 245.18
  C 1017.21 248.76 1016.38 252.45 1015.68 255.99
  C 1013.34 267.77 1008.38 278.45 1000.01 287.06
  Q 985.45 302.03 963.06 299.54
  Q 956.71 298.83 950.99 296.30
  A 0.48 0.48 0.0 0 0 950.32 296.71
  Q 950.12 300.57 950.13 303.97
  Q 950.19 320.24 950.18 338.93
  Q 950.18 340.89 949.58 342.93
  Q 949.44 343.42 949.03 343.73
  C 946.02 345.96 938.49 346.42 934.75 346.29
  Q 931.70 346.18 928.87 345.97
  L 925.48 345.16
  A 1.81 1.80 6.6 0 1 924.09 343.42
  Q 924.01 336.91 923.77 330.60
  Q 923.52 324.19 923.55 317.82
  Q 923.78 259.99 923.43 203.17
  Q 923.39 195.60 921.17 188.88
  A 1.46 1.46 0.0 0 1 921.55 187.35
  C 924.21 184.84 927.48 183.43 930.82 182.09
  Q 937.62 179.37 943.06 185.28
  A 1.56 1.55 -36.6 0 0 945.00 185.56
  C 956.74 178.50 968.25 174.73 982.38 176.98
  C 995.02 178.99 1003.69 185.99 1011.11 195.90
  Z
  M 954.48 277.46
  Q 963.81 282.61 972.44 278.70
  C 983.49 273.68 987.71 258.36 989.12 247.50
  C 990.55 236.45 990.59 224.32 987.74 213.02
  Q 986.26 207.14 982.84 203.17
  Q 975.41 194.85 963.42 198.27
  Q 956.93 200.12 951.83 204.34
  Q 950.13 205.76 950.16 208.74
  Q 950.41 233.58 950.21 271.50
  Q 950.19 276.21 954.48 277.46
  Z"
/>
<path fill="#61a83b" d="
  M 731.27 187.56
  Q 730.32 194.46 727.58 200.55
  A 1.63 1.62 -79.8 0 1 726.22 201.50
  C 721.64 201.83 716.70 199.75 712.38 198.37
  Q 696.71 193.37 686.11 203.82
  C 674.23 215.53 674.79 242.15 677.57 256.76
  Q 678.89 263.71 682.77 269.26
  A 4.54 4.22 86.9 0 0 683.95 270.40
  Q 683.98 270.41 684.26 269.74
  Q 686.07 274.30 690.35 276.43
  C 702.12 282.30 714.88 278.60 726.22 273.79
  A 0.65 0.64 69.8 0 1 727.09 274.20
  L 728.59 279.36
  C 731.55 292.75 717.91 298.30 707.53 299.45
  C 697.02 300.61 685.03 299.83 675.23 295.57
  Q 672.67 294.45 669.99 293.75
  Q 662.88 288.33 659.76 284.20
  C 651.99 273.91 649.34 260.70 648.69 247.20
  C 648.13 235.64 648.82 224.34 652.12 213.40
  C 657.90 194.20 671.21 180.28 691.55 177.41
  Q 697.70 176.55 703.99 176.68
  Q 720.70 177.02 731.27 187.56
  Z"
/>
<path fill="#61a83b" d="
  M 892.61 187.97
  Q 892.84 189.37 894.37 192.49
  Q 895.15 194.07 896.24 199.00
  Q 897.40 204.16 897.46 211.74
  Q 897.58 227.99 897.21 244.26
  Q 896.91 257.03 896.99 271.90
  Q 897.01 276.37 898.35 279.13
  Q 899.59 281.71 901.81 280.84
  Q 904.42 280.66 903.80 283.96
  C 903.13 288.23 904.50 292.63 900.32 295.33
  Q 893.72 299.59 886.41 298.86
  Q 883.23 298.54 879.86 296.78
  Q 876.70 295.14 873.99 293.01
  A 1.21 1.21 0.0 0 0 872.61 292.93
  Q 869.46 294.88 866.64 296.32
  C 863.09 298.13 859.29 298.54 855.35 298.92
  Q 843.57 300.07 831.82 295.74
  Q 824.53 290.71 820.27 284.22
  Q 817.47 279.95 816.32 272.97
  C 813.56 256.23 819.40 241.43 834.59 232.81
  Q 850.37 223.85 870.29 225.13
  A 0.66 0.66 0.0 0 0 870.99 224.47
  Q 871.00 216.51 871.03 208.54
  C 871.03 206.44 870.51 204.49 870.07 202.45
  C 867.71 192.53 841.85 202.93 835.74 205.39
  C 833.81 206.16 831.97 206.17 829.88 206.59
  Q 822.81 201.57 823.30 191.00
  C 823.40 188.73 827.09 186.44 829.42 185.24
  Q 851.55 173.90 876.00 177.50
  Q 886.38 179.02 892.61 187.97
  Z
  M 848.00 277.74
  Q 849.39 278.92 850.76 279.06
  Q 859.54 279.96 867.09 275.24
  Q 868.95 274.07 869.89 272.30
  Q 870.95 270.30 870.96 268.24
  Q 871.01 257.79 871.02 246.72
  Q 871.55 245.81 871.75 243.70
  Q 871.84 242.75 870.88 242.69
  C 860.11 241.99 846.36 245.24 843.42 256.83
  Q 841.46 264.57 843.57 272.65
  Q 844.57 276.52 848.00 277.74
  Z"
/>
<path fill="#61a83b" d="
  M 809.29 184.03
  Q 809.92 192.65 805.71 199.80
  A 2.74 2.74 0.0 0 1 803.42 201.15
  Q 799.01 201.28 794.31 200.59
  C 787.55 199.59 781.70 200.77 775.99 204.93
  Q 774.38 206.10 774.34 207.85
  Q 774.11 218.42 774.31 228.27
  C 774.70 247.12 774.33 265.47 774.21 284.34
  Q 774.18 288.66 772.90 292.05
  C 771.64 295.40 767.50 296.45 764.25 296.70
  Q 758.00 297.18 751.69 297.14
  Q 749.86 297.53 748.03 297.06
  Q 747.49 296.92 747.31 296.40
  C 746.87 295.16 747.49 293.82 747.49 292.52
  C 747.53 285.49 747.89 278.53 747.93 271.49
  Q 748.08 240.52 748.09 209.37
  C 748.09 202.30 747.51 195.93 745.12 189.23
  A 1.32 1.30 -27.9 0 1 745.59 187.73
  Q 749.89 184.61 754.43 182.77
  C 758.50 181.13 764.76 181.31 767.65 185.52
  Q 768.19 186.31 769.03 185.85
  C 776.41 181.80 786.26 176.60 794.88 177.30
  C 800.41 177.75 806.30 178.79 809.29 184.03
  Z"
/>
<path fill="#61a83b" d="
  M 1055.78 183.03
  Q 1059.23 192.79 1062.30 202.66
  Q 1063.09 205.18 1063.62 207.91
  C 1064.31 211.49 1065.75 214.87 1066.80 218.40
  Q 1072.54 237.57 1077.00 256.18
  Q 1077.43 257.99 1077.92 256.20
  Q 1078.66 253.46 1078.45 250.94
  Q 1079.93 245.64 1081.00 240.96
  Q 1085.60 220.89 1091.21 198.75
  Q 1093.12 191.20 1094.54 184.09
  C 1095.19 180.89 1099.27 179.26 1102.16 179.10
  Q 1109.05 178.71 1117.03 179.55
  Q 1117.59 179.61 1117.82 180.13
  L 1119.29 183.56
  Q 1119.77 187.66 1119.45 188.96
  Q 1107.15 238.35 1089.54 290.79
  Q 1084.00 307.31 1075.77 322.13
  Q 1070.60 331.44 1063.04 338.40
  C 1060.42 340.82 1055.99 343.38 1052.77 344.05
  Q 1043.69 345.93 1032.85 341.93
  Q 1031.41 341.03 1028.94 338.82
  C 1025.69 335.91 1026.46 332.76 1027.83 328.79
  C 1028.49 326.89 1031.01 326.45 1032.67 326.43
  Q 1040.80 326.31 1044.09 326.01
  Q 1049.18 325.55 1052.18 321.04
  C 1057.45 313.11 1060.41 303.47 1062.98 293.79
  C 1063.55 291.65 1064.34 289.31 1063.09 287.24
  C 1061.57 284.70 1060.23 281.97 1059.38 279.16
  Q 1045.18 232.29 1029.52 185.72
  Q 1029.33 185.17 1029.52 184.63
  C 1030.70 181.26 1034.73 179.69 1038.03 179.16
  Q 1044.46 178.13 1049.76 178.23
  C 1052.23 178.28 1054.52 181.21 1055.78 183.03
  Z"
/>
<path fill="#056733" d="
  M 1055.78 183.03
  Q 1060.37 186.73 1062.12 192.38
  Q 1069.28 215.56 1075.77 238.94
  Q 1076.52 241.62 1077.17 244.92
  Q 1077.76 247.86 1078.45 250.94
  Q 1078.66 253.46 1077.92 256.20
  Q 1077.43 257.99 1077.00 256.18
  Q 1072.54 237.57 1066.80 218.40
  C 1065.75 214.87 1064.31 211.49 1063.62 207.91
  Q 1063.09 205.18 1062.30 202.66
  Q 1059.23 192.79 1055.78 183.03
  Z"
/>
<path fill="#056733" d="
  M 1119.29 183.56
  Q 1119.80 184.07 1120.66 184.05
  A 2.24 2.22 -12.1 0 1 1122.76 185.40
  Q 1124.66 189.85 1123.44 194.73
  Q 1109.97 248.73 1091.38 301.97
  Q 1086.61 315.63 1079.17 328.11
  C 1071.89 340.36 1061.74 351.45 1045.85 348.54
  C 1040.14 347.49 1036.14 346.45 1032.85 341.93
  Q 1043.69 345.93 1052.77 344.05
  C 1055.99 343.38 1060.42 340.82 1063.04 338.40
  Q 1070.60 331.44 1075.77 322.13
  Q 1084.00 307.31 1089.54 290.79
  Q 1107.15 238.35 1119.45 188.96
  Q 1119.77 187.66 1119.29 183.56
  Z"
/>
<path fill="#056733" d="
  M 809.29 184.03
  Q 811.43 185.28 812.69 187.05
  C 815.54 191.05 812.05 200.50 810.02 204.10
  A 2.23 2.23 0.0 0 1 808.44 205.22
  C 803.58 206.06 799.07 204.91 794.54 204.69
  Q 786.70 204.30 780.20 209.21
  C 778.91 210.18 778.54 211.30 778.52 212.87
  C 778.40 229.38 777.32 245.42 778.02 261.99
  Q 778.68 277.72 778.42 290.70
  C 778.32 296.21 776.14 299.93 770.25 300.76
  Q 762.78 301.81 753.15 301.46
  A 1.21 1.20 -85.3 0 1 752.00 300.09
  Q 752.28 298.10 751.69 297.14
  Q 758.00 297.18 764.25 296.70
  C 767.50 296.45 771.64 295.40 772.90 292.05
  Q 774.18 288.66 774.21 284.34
  C 774.33 265.47 774.70 247.12 774.31 228.27
  Q 774.11 218.42 774.34 207.85
  Q 774.38 206.10 775.99 204.93
  C 781.70 200.77 787.55 199.59 794.31 200.59
  Q 799.01 201.28 803.42 201.15
  A 2.74 2.74 0.0 0 0 805.71 199.80
  Q 809.92 192.65 809.29 184.03
  Z"
/>
<ellipse fill="#ffffff" cx="0.00" cy="0.00" transform="translate(290.51,189.23) rotate(0.9)" rx="3.94" ry="3.56"/>
<path fill="#056733" d="
  M 731.27 187.56
  L 735.00 191.59
  Q 735.36 191.98 735.32 192.50
  Q 734.82 199.05 731.74 205.08
  Q 731.50 205.55 730.98 205.61
  C 724.94 206.30 720.78 204.14 715.35 202.42
  C 706.65 199.67 696.38 201.34 690.30 208.18
  Q 684.15 215.10 682.14 224.73
  Q 677.37 247.63 684.26 269.74
  Q 683.98 270.41 683.95 270.40
  A 4.54 4.22 86.9 0 1 682.77 269.26
  Q 678.89 263.71 677.57 256.76
  C 674.79 242.15 674.23 215.53 686.11 203.82
  Q 696.71 193.37 712.38 198.37
  C 716.70 199.75 721.64 201.83 726.22 201.50
  A 1.63 1.62 -79.8 0 0 727.58 200.55
  Q 730.32 194.46 731.27 187.56
  Z"
/>
<path fill="#056733" d="
  M 892.61 187.97
  Q 898.71 193.28 900.25 201.51
  C 902.21 211.95 901.85 222.48 901.74 232.92
  Q 901.65 241.86 901.41 252.58
  Q 901.08 266.69 901.81 280.84
  Q 899.59 281.71 898.35 279.13
  Q 897.01 276.37 896.99 271.90
  Q 896.91 257.03 897.21 244.26
  Q 897.58 227.99 897.46 211.74
  Q 897.40 204.16 896.24 199.00
  Q 895.15 194.07 894.37 192.49
  Q 892.84 189.37 892.61 187.97
  Z"
/>
<path fill="#056733" d="
  M 1011.11 195.90
  Q 1015.63 201.27 1017.16 205.12
  Q 1022.39 218.25 1022.59 232.97
  C 1022.83 249.97 1020.24 269.23 1010.93 283.16
  Q 994.20 308.17 964.40 303.48
  Q 959.56 302.72 955.09 300.59
  A 0.47 0.47 0.0 0 0 954.42 301.02
  Q 954.58 321.69 954.42 342.42
  Q 954.40 344.67 954.02 346.98
  A 1.83 1.82 -4.6 0 1 952.80 348.41
  Q 941.63 352.18 930.19 349.34
  A 1.16 1.13 80.3 0 1 929.49 348.83
  Q 928.79 347.75 928.87 345.97
  Q 931.70 346.18 934.75 346.29
  C 938.49 346.42 946.02 345.96 949.03 343.73
  Q 949.44 343.42 949.58 342.93
  Q 950.18 340.89 950.18 338.93
  Q 950.19 320.24 950.13 303.97
  Q 950.12 300.57 950.32 296.71
  A 0.48 0.48 0.0 0 1 950.99 296.30
  Q 956.71 298.83 963.06 299.54
  Q 985.45 302.03 1000.01 287.06
  C 1008.38 278.45 1013.34 267.77 1015.68 255.99
  C 1016.38 252.45 1017.21 248.76 1017.46 245.18
  Q 1018.18 235.03 1017.90 224.97
  Q 1017.51 210.93 1011.83 198.61
  A 1.46 1.43 86.0 0 0 1010.94 197.82
  Q 1009.60 197.39 1011.11 195.90
  Z"
/>
<path fill="#056733" d="
  M 982.84 203.17
  Q 972.54 199.76 963.81 203.88
  C 961.21 205.11 954.63 208.17 954.57 211.52
  C 954.37 223.55 954.12 235.51 954.32 247.82
  Q 954.56 262.65 954.48 277.46
  Q 950.19 276.21 950.21 271.50
  Q 950.41 233.58 950.16 208.74
  Q 950.13 205.76 951.83 204.34
  Q 956.93 200.12 963.42 198.27
  Q 975.41 194.85 982.84 203.17
  Z"
/>
<path fill="#d2d3d5" d="
  M 264.06 198.22
  Q 263.24 198.64 264.47 200.32
  Q 269.59 207.24 274.79 214.10
  Q 275.09 214.50 275.12 215.00
  L 275.15 215.51
  Q 275.00 215.86 275.03 216.21
  C 270.57 234.25 259.62 250.75 247.30 265.04
  Q 232.36 282.34 214.95 297.14
  Q 204.73 305.81 192.94 314.75
  Q 192.55 315.05 192.06 315.07
  Q 191.61 315.08 191.15 315.26
  L 140.26 239.15
  Q 139.67 238.27 140.53 237.64
  Q 148.73 231.69 157.67 227.28
  Q 175.67 218.39 195.52 212.78
  Q 205.23 210.03 215.01 207.50
  Q 232.90 202.85 264.06 198.22
  Z"
/>
<path fill="#056733" d="
  M 870.07 202.45
  C 859.41 202.63 850.69 205.47 841.00 209.30
  Q 837.70 210.61 833.83 210.73
  A 1.05 1.04 -20.5 0 1 833.01 210.36
  L 829.88 206.59
  C 831.97 206.17 833.81 206.16 835.74 205.39
  C 841.85 202.93 867.71 192.53 870.07 202.45
  Z"
/>
<path fill="#5e6060" d="
  M 275.03 216.21
  Q 275.52 216.32 275.83 216.69
  Q 276.13 217.05 276.56 217.25
  L 278.40 218.10
  Q 275.83 228.60 271.13 237.63
  C 263.96 251.36 253.62 263.99 242.62 275.12
  Q 222.49 295.46 193.42 314.87
  Q 192.01 315.81 191.15 315.26
  Q 191.61 315.08 192.06 315.07
  Q 192.55 315.05 192.94 314.75
  Q 204.73 305.81 214.95 297.14
  Q 232.36 282.34 247.30 265.04
  C 259.62 250.75 270.57 234.25 275.03 216.21
  Z"
/>
<path fill="#056733" d="
  M 632.01 233.19
  Q 637.07 239.31 638.77 246.76
  C 641.79 259.99 640.41 274.35 633.12 285.42
  C 623.00 300.78 604.68 305.06 587.39 304.45
  Q 577.10 304.08 566.65 300.64
  Q 561.40 298.91 557.97 294.87
  Q 568.27 298.79 578.76 299.72
  C 591.04 300.82 602.66 299.75 613.64 294.44
  C 625.26 288.82 632.66 277.85 635.06 264.78
  Q 637.83 249.65 632.01 233.19
  Z"
/>
<path fill="#056733" d="
  M 871.02 246.72
  Q 868.50 246.95 865.78 247.39
  C 848.96 250.16 844.12 262.02 848.00 277.74
  Q 844.57 276.52 843.57 272.65
  Q 841.46 264.57 843.42 256.83
  C 846.36 245.24 860.11 241.99 870.88 242.69
  Q 871.84 242.75 871.75 243.70
  Q 871.55 245.81 871.02 246.72
  Z"
/>
<path fill="#056733" d="
  M 421.13 250.48
  Q 418.51 279.31 405.31 306.03
  Q 387.85 341.35 357.56 365.54
  C 315.93 398.79 261.79 410.87 210.28 398.81
  C 155.29 385.93 110.61 347.30 89.28 294.99
  Q 82.14 277.48 79.43 258.77
  Q 79.03 256.00 79.21 252.83
  Q 85.26 279.28 96.01 300.26
  C 110.05 327.65 132.49 352.04 159.61 368.52
  Q 203.62 395.25 256.04 393.67
  C 296.00 392.46 334.02 376.99 364.11 350.67
  C 368.36 346.95 372.35 342.65 376.35 338.58
  Q 378.66 336.23 381.05 333.44
  Q 403.74 306.94 414.38 273.65
  Q 415.91 268.86 419.11 255.73
  Q 419.31 254.93 419.36 254.45
  Q 419.41 253.96 419.72 253.57
  Q 420.60 252.45 421.13 250.48
  Z"
/>
<path fill="#056733" d="
  M 669.99 293.75
  Q 672.67 294.45 675.23 295.57
  C 685.03 299.83 697.02 300.61 707.53 299.45
  C 717.91 298.30 731.55 292.75 728.59 279.36
  Q 729.22 279.37 729.87 278.96
  A 1.23 1.22 -26.5 0 1 731.67 279.56
  Q 733.14 283.46 733.40 287.27
  C 733.83 293.77 727.40 299.25 721.80 301.33
  C 711.22 305.25 698.65 304.82 687.49 302.55
  Q 677.39 300.48 669.99 293.75
  Z"
/>
<path fill="#056733" d="
  M 903.80 283.96
  C 904.10 286.05 905.90 285.40 907.23 285.97
  A 0.82 0.82 0.0 0 1 907.71 286.65
  Q 908.03 290.70 907.66 295.20
  C 907.27 299.96 899.13 302.64 895.08 303.24
  C 888.25 304.26 883.85 301.43 878.72 297.32
  A 1.62 1.62 0.0 0 0 876.92 297.17
  C 874.18 298.71 871.51 300.65 868.51 301.53
  Q 856.07 305.21 843.27 302.15
  Q 836.75 300.60 831.82 295.74
  Q 843.57 300.07 855.35 298.92
  C 859.29 298.54 863.09 298.13 866.64 296.32
  Q 869.46 294.88 872.61 292.93
  A 1.21 1.21 0.0 0 1 873.99 293.01
  Q 876.70 295.14 879.86 296.78
  Q 883.23 298.54 886.41 298.86
  Q 893.72 299.59 900.32 295.33
  C 904.50 292.63 903.13 288.23 903.80 283.96
  Z"
/>
</svg>
