<?xml version="1.0" encoding="UTF-8" standalone="no"?>
<svg
   width="611.78137"
   height="489.81226"
   xmlns="http://www.w3.org/2000/svg">
  <path
     d="m 338.71311,141.34033 c 0.76699,0.39703 1.53398,0.79406 2.32422,1.20312 0.99,-0.33 1.98,-0.66 3,-1 7.31357,-0.73703 12.60939,0.68822 18.75,4.875 4.71692,4.45487 6.08013,8.57697 6.5,14.875 -0.109,5.33103 -1.2105,9.97381 -4.83204,14.01563 -5.86099,5.26085 -10.95349,6.67155 -18.77343,6.47265 -6.73978,-0.60727 -10.04271,-4.42423 -14.22656,-9.30078 -1.89145,-2.58445 -2.44802,-4.37405 -2.27735,-7.57422 0.12437,-3.46885 -0.0632,-6.05114 -1.14062,-9.36328 -3.84718,-3.62476 -8.27504,-5.76468 -13,-8 -1.57975,-0.81404 -1.57975,-0.81404 -3.19141,-1.64453 -25.96579,-12.83666 -57.00934,-15.78634 -84.80859,-7.35547 -1.03423,0.31348 -1.03423,0.31348 -2.08936,0.6333 -26.60651,8.40703 -47.36285,25.54812 -62.91064,48.3667 0.86883,0.78504 1.73765,1.57008 2.63281,2.37891 8.36661,7.59917 15.34607,14.24367 20.55469,24.37109 0.33362,0.64357 0.66725,1.28713 1.01099,1.9502 4.54538,9.24415 6.34956,18.34889 6.23901,28.61231 -0.008,1.00401 -0.0166,2.00803 -0.0251,3.04248 -0.4061,17.94674 -7.57364,33.09621 -20.41235,45.64501 -3.27753,3.06696 -6.60404,6.06488 -10,9 19.22678,27.55664 45.47976,45.99309 78.69922,52.10938 28.65312,4.55405 56.56612,-1.34946 81.30078,-16.10938 1.09699,-0.60843 2.19398,-1.21687 3.32421,-1.84375 2.91236,-1.9028 2.91236,-1.9028 3.37501,-4.96093 -0.004,-1.01321 -0.008,-2.02641 -0.0117,-3.07032 0.24525,-5.95107 0.83459,-9.64191 5.18359,-14 5.94358,-5.4092 10.01148,-6.54067 18.04688,-6.47265 5.88683,0.66404 9.43344,3.65569 13.45703,7.78515 3.29379,5.19406 4.51464,10.44617 3.625,16.5625 -1.86616,6.34069 -4.49029,10.3636 -10,14 -5.13142,2.34261 -10.88855,3.06514 -16.31641,1.20704 -4.06861,-0.31388 -6.43835,1.97279 -9.55859,4.29296 -27.64391,19.37379 -62.82027,25.24325 -95.83838,19.90406 -21.23975,-3.78017 -41.18813,-12.12345 -58.28662,-25.40406 -0.96164,-0.74121 -1.92328,-1.48242 -2.91406,-2.24609 -13.62306,-10.82714 -31.53955,-27.13362 -33.96094,-45.50391 -0.0412,-1.0725 -0.0825,-2.145 -0.125,-3.25 0.89461,-0.40089 1.78922,-0.80179 2.71094,-1.21484 14.63482,-6.78437 25.20654,-16.28803 31.16406,-31.59765 4.67823,-14.25086 3.69975,-27.7259 -2.40234,-41.3711 -7.00362,-13.39418 -18.14292,-20.74882 -31.47266,-26.81641 0.45903,-11.93475 7.38232,-21.29008 15,-30 0.70125,-0.82242 1.4025,-1.64484 2.125,-2.49219 45.95185,-52.68056 122.68609,-58.8974 179.55073,-20.71093 z"
     fill="#cc0b0f" />
  <path
     d="m 174.41233,2.1684561 c 4.78328,2.7837136 7.66293,6.2218045 9.9375,11.3124999 1.7866,7.958495 0.16787,14.020419 -4,20.8125 -4.4727,4.351815 -9.04524,6.470384 -15.3125,6.75 -4.38263,-0.168822 -7.54248,-1.333718 -11.3086,-3.527344 -1.83979,-1.132559 -1.83979,-1.132559 -4.6914,-1.972656 -2.42907,1.029419 -4.63782,2.105525 -6.9375,3.375 -0.66733,0.363596 -1.33467,0.727192 -2.02222,1.101807 -6.4617,3.610205 -12.31497,7.832962 -18.04028,12.523193 -1.27617,1.028672 -1.27617,1.028672 -2.57813,2.078125 -11.37613,9.658978 -19.596149,21.770253 -26.421872,34.921875 -0.470508,0.899766 -0.941016,1.799531 -1.425781,2.726562 -3.932365,8.059522 -6.337928,16.618092 -8.574219,25.273442 -0.250078,0.96164 -0.500156,1.92328 -0.757812,2.91406 -4.333967,20.69317 -1.295415,42.5544 5.769531,62.20703 0.988281,2.87891 0.988281,2.87891 0.988281,4.87891 1.519805,-0.74057 1.519805,-0.74057 3.070313,-1.49609 1.351372,-0.64754 2.702945,-1.29465 4.054687,-1.94141 0.665156,-0.32549 1.330313,-0.65098 2.015625,-0.98633 3.958057,-1.88201 7.449167,-3.08844 11.859377,-3.57617 -0.0825,-1.25813 -0.165,-2.51625 -0.25,-3.8125 0.11188,-26.47978 13.31973,-54.3806 30.25,-74.1875 0.4357,-0.51402 0.8714,-1.02803 1.32031,-1.557621 23.19868,-27.082085 56.26646,-43.114637 91.64307,-46.268067 3.05974,-0.175644 6.0521,-0.157523 9.11474,-0.06103 1.01578,0.03029 2.03157,0.06059 3.07813,0.0918 2.07887,0.07218 4.15715,0.163634 6.23437,0.273438 5.24132,0.123679 8.60781,0.119055 12.65625,-3.435547 0.76329,-0.813681 0.76329,-0.813681 1.54199,-1.643799 2.72223,-2.699149 5.96623,-2.614328 9.59864,-2.71167 6.22933,0.07406 10.70461,1.490031 15.34375,5.703125 4.37079,4.828196 5.99635,9.987866 5.77344,16.464844 -0.88244,6.210978 -3.35789,10.786763 -8.30469,14.644531 -5.26447,3.701577 -10.69405,4.22721 -17,3.5 -6.2336,-1.877999 -10.35617,-5.708319 -14,-11 -0.67721,-1.328009 -1.34527,-2.660765 -2,-4 -32.48322,-0.839749 -61.50836,5.792973 -87,27 -0.93328,0.76957 -1.86656,1.539146 -2.82813,2.332036 -27.1832,23.50055 -36.50592,56.13083 -40.17187,90.66796 -1.74024,0.32871 -1.74024,0.32871 -3.51563,0.66406 -14.86069,2.95141 -25.556347,7.45627 -36.484372,18.33594 -5.983929,-2.51446 -8.313074,-8.25129 -10.84375,-13.94531 -0.5655,-1.38784 -1.11711,-2.7814 -1.65625,-4.17969 -0.4411,-1.14094 -0.4411,-1.14094 -0.89111,-2.30493 -2.3059,-6.22869 -4.0025,-12.53699 -5.48389,-19.00757 -0.20303,-0.88639 -0.40605,-1.77278 -0.61523,-2.68604 -7.45199,-34.62336 0.51762,-70.787476 19.244136,-100.481933 3.092288,-4.751178 6.520014,-9.124497 10.246094,-13.394531 0.809531,-0.953906 1.619062,-1.907812 2.453125,-2.890625 12.259277,-14.140579 28.276477,-25.822881 45.546877,-33.109375 0.66,0 1.32,0 2,0 0.0206,-0.99 0.0412,-1.98 0.0625,-3 0.74745,-5.253529 4.16232,-8.5152252 7.9375,-11.9999999 6.13747,-4.46361722 14.55015,-4.46427622 21.375,-1.375 z"
     fill="#cc0b0f" />
  <path
     d="m 83.037328,279.54346 c 3.046468,1.36289 5.11754,2.93023 7.5,5.25 10.022682,8.8295 21.750362,11.34173 34.500002,13.75 0.13462,1.1152 0.13462,1.1152 0.27197,2.25293 4.49852,36.35787 15.09872,69.64191 45.04053,92.99707 24.33185,18.29049 53.33596,26.91096 83.6875,24.75 2.28737,-0.87811 2.28737,-0.87811 3.1875,-3.6875 2.67232,-4.8839 6.37642,-7.86402 11.125,-10.6875 6.73914,-1.56724 12.86363,-1.37319 18.93359,2.10938 4.70247,3.39331 7.49902,7.56158 8.75391,13.26562 0.63544,6.46034 -0.35862,11.53288 -4,17 -5.64275,5.42703 -10.58522,7.35726 -18.35938,7.28906 -4.55334,-0.49844 -8.95348,-2.3089 -11.96899,-5.84814 -2.1747,-1.87456 -3.27235,-1.76635 -6.10913,-1.66358 -1.32777,0.0306 -1.32777,0.0306 -2.68237,0.0618 -1.42567,0.0487 -1.42567,0.0487 -2.88013,0.0984 -34.9326,0.53448 -67.0005,-9.37918 -94,-31.93754 -0.51305,-0.42652 -1.0261,-0.85304 -1.55469,-1.29248 -23.81862,-20.07807 -41.40474,-51.44027 -44.44531,-82.70752 -0.12698,-3.34219 -0.13048,-6.65825 0,-10 -1.01707,-0.23784 -1.01707,-0.23784 -2.05469,-0.48047 -6.83191,-1.71271 -12.775892,-4.13371 -18.945312,-7.51953 -1.901312,5.99201 -3.573876,12.03435 -5.125,18.125 -0.170479,0.65613 -0.340957,1.31226 -0.516602,1.98828 -7.446546,29.66775 -0.732664,61.164 14.570801,87.15234 3.001553,4.86162 6.442593,9.32957 10.070803,13.73438 1.15629,1.40379 1.15629,1.40379 2.33593,2.83594 10.10115,11.67025 25.31919,24.48903 40.66407,28.16406 3.22132,-1.73084 3.22132,-1.73084 6,-4 5.72845,-1.90948 11.77562,-1.91186 17.3125,0.625 4.81277,2.76127 7.67807,6.16386 10,11.25 1.48535,6.75161 1.08982,11.809 -1.90235,18.00781 -2.99452,4.49594 -7.33626,7.42589 -12.41015,9.11719 -6.84705,0.74186 -12.36101,0.11428 -18,-4 -3.58433,-3.21793 -5.73373,-5.68048 -6.70313,-10.48438 -1.00101,-3.78509 -1.00101,-3.78509 -4.57031,-5.66796 -1.35768,-0.61643 -2.72569,-1.21048 -4.10156,-1.78516 -1.4663,-0.67504 -2.92983,-1.35611 -4.39063,-2.04297 -0.72252,-0.33693 -1.44504,-0.67386 -2.18945,-1.02099 -27.5049,-13.43065 -48.970265,-41.50715 -59.008545,-69.91504 -3.107745,-9.23583 -5.565933,-18.43739 -7.036377,-28.0835 -0.130195,-0.85078 -0.260391,-1.70157 -0.394531,-2.57813 -3.501221,-28.1965 2.631855,-59.62821 18.394531,-83.42187 0.33,-0.33 0.66,-0.66 1,-1 z"
     fill="#cc0b0f"/>
  <path
     d="m 54.252172,17.242675 c 5.352613,2.775863 8.845821,7.080535 11.160156,12.550781 1.026004,6.156023 0.794954,11.453424 -2.0625,17.0625 -4.141126,4.81266 -8.008269,8.327764 -14.3125,9.6875 -1.020937,-0.187558 -1.020937,-0.187558 -2.0625,-0.378906 -2.718604,-0.448381 -4.304044,-0.497459 -6.9375,0.378906 -17.344674,18.436091 -22.551452,48.665464 -22.210937,72.960944 0.967203,31.1296 15.347964,60.21458 37.523437,81.71484 5.944913,5.14132 12.542837,10.01075 19.6875,13.32422 -0.132773,0.57106 -0.265547,1.14211 -0.402344,1.73047 -2.502915,11.49149 -2.986048,21.73654 -0.597656,33.26953 0.340517,1.99879 0.675752,3.99851 1,6 -1.198828,0.67483 -1.198828,0.67483 -2.421875,1.36328 -8.542988,5.00347 -15.584654,10.64325 -22.578125,17.63672 -0.729609,0.72961 -1.459219,1.45922 -2.210937,2.21094 -20.73975,22.05135 -30.68226,53.00447 -30.039063,82.84765 0.756689,19.12531 6.198701,36.42092 15.300782,53.18653 0.851601,1.57441 1.668388,3.16754 2.480468,4.76269 1.332916,2.36223 2.434901,4.19848 4.46875,5.99219 2.364407,0.48614 4.305038,0.38181 6.703125,0.14844 4.871374,-0.31482 8.653952,1.41562 12.28125,4.58594 4.373857,4.66303 6.968613,8.87001 7.039063,15.45703 -0.432087,6.72008 -2.499568,11.47401 -7.523438,16.12109 -6.36332,4.29524 -11.884023,4.55295 -19.5,3.6875 -5.333594,-1.82599 -9.388124,-5.53358 -12.203125,-10.38672 -1.056277,-3.46396 -0.763344,-6.67561 -0.546875,-10.23828 0.47362,-8.92416 -2.939469,-13.69018 -8.061523,-20.6748 -17.84732818,-25.5318 -21.1490262,-62.24937 -16.0573732,-92.27344 0.786307,-3.86352 1.757244,-7.64491 2.868896,-11.42676 0.305508,-1.07145 0.305508,-1.07145 0.617188,-2.16455 6.3245362,-21.50635 18.1041882,-39.6214 33.3828122,-55.83545 0.560742,-0.61359 1.121485,-1.22719 1.699219,-1.85937 2.672276,-2.8211 4.988707,-4.96337 8.402344,-6.90235 6.033398,-3.53417 6.033398,-3.53417 9.661621,-9.32129 1.216883,-5.68991 1.264838,-11.41498 -0.763184,-16.91699 -3.089656,-4.3586 -7.689207,-6.97495 -12.148926,-9.76269 C 22.221533,209.96123 7.7773548,176.8163 2.4162348,150.03955 0.85372082,141.77467 0.52439682,133.68644 0.59982782,125.29346 c 0.0027,-0.71412 0.0054,-1.42824 0.0082,-2.164 0.06805,-11.88765 1.14204398,-23.12791 4.42929098,-34.586004 0.272879,-0.998218 0.272879,-0.998218 0.55127,-2.016601 3.511904,-12.597664 9.0040882,-24.592088 16.9487302,-34.983399 3.967756,-5.617789 3.93179,-9.753273 3.574219,-16.335205 -0.233663,-5.015844 0.180414,-8.165737 3.332031,-12.114013 7.036411,-6.846695 15.145041,-8.902317 24.808603,-5.851563 z"
     fill="#cc0b0f"/>
  <path
     d="m 125.41233,201.10596 c 0.83144,0.009 1.66289,0.018 2.51953,0.0273 11.6632,0.32752 20.44048,4.59854 29.10547,12.41016 9.61973,10.50746 12.9774,21.90826 12.375,35.88281 -0.86557,11.75545 -6.23364,21.58065 -14.95313,29.44141 -11.92471,9.21609 -23.6869,11.22159 -38.42187,9.67578 -11.66303,-2.41961 -21.005212,-9.54635 -28.000002,-19 -6.087057,-9.68677 -8.514253,-20.65503 -6.464844,-31.94922 2.980723,-12.98162 8.88531,-23.21951 20.464846,-30.48828 7.42505,-4.31839 14.84253,-6.11172 23.375,-6 z"
     fill="#211915" />
  <path
     d="m 381.59092,219.99732 c 6.43277,5.71643 9.43665,12.9471 10.38281,21.43359 0.32543,9.90403 -1.33286,18.26833 -7.75781,26.00391 -5.54002,5.77627 -11.54124,9.53763 -19.6836,9.82813 -1.45963,0.005 -2.91934,-1.4e-4 -4.3789,-0.0156 -0.7251,0.008 -1.4502,0.0155 -2.19727,0.0234 -0.71736,-0.003 -1.43473,-0.005 -2.17383,-0.008 -0.95604,-0.003 -0.95604,-0.003 -1.93139,-0.007 -3.15655,-0.36145 -6.20508,-1.38595 -9.26001,-2.25879 0,7.59 0,15.18 0,23 -5.61,0 -11.22,0 -17,0 -0.33,-27.06 -0.66,-54.12 -1,-82 18.377,-6.68255 38.84322,-9.11769 55,4 z m -37,7 c -0.0742,4.21749 -0.12862,8.43464 -0.1648,12.65259 -0.0151,1.43464 -0.0355,2.86923 -0.0615,4.30371 -0.0364,2.06286 -0.0534,4.12511 -0.0666,6.18823 -0.0157,1.24113 -0.0314,2.48225 -0.0476,3.76099 0.0726,3.06453 0.0726,3.06453 1.73389,4.96045 4.86551,3.43418 10.88341,2.51744 16.60669,2.13403 4.79284,-1.59761 7.25253,-3.78067 10,-8 2.73414,-5.72869 2.24388,-11.03066 0.38672,-16.95703 -2.21624,-4.82109 -5.77588,-7.02385 -10.51563,-9.17188 -5.82314,-1.76674 -12.09624,-1.79604 -17.87109,0.12891 z"
     fill="#211915"/>
  <path
     d="m 553.56115,190.54346 c 5.61,0 11.22,0 17,0 0.33,8.58 0.66,17.16 1,26 2.31,-1.32 4.62,-2.64 7,-4 6.62138,-2.39961 16.17652,-2.31768 22.5625,0.625 5.63458,3.42659 8.83175,7.96358 10.4375,14.375 0.26493,3.77051 0.23278,7.52652 0.19531,11.30469 -0.003,1.07911 -0.006,2.15823 -0.009,3.27005 -0.0112,3.43353 -0.0363,6.8668 -0.0617,10.30026 -0.01,2.33333 -0.0192,4.66666 -0.0273,7 -0.022,5.70843 -0.0565,11.41667 -0.0977,17.125 -5.61,0 -11.22,0 -17,0 -0.014,-2.01335 -0.014,-2.01335 -0.0283,-4.06738 -0.0399,-4.98 -0.10562,-9.95937 -0.1792,-14.93897 -0.0282,-2.15519 -0.0494,-4.31049 -0.0635,-6.46582 -0.0214,-3.09836 -0.068,-6.19547 -0.11963,-9.29346 -10e-4,-0.96367 -0.002,-1.92734 -0.004,-2.92022 -0.0599,-5.32362 -0.0599,-5.32362 -2.50018,-9.9206 -2.49186,-1.64929 -3.88093,-1.93144 -6.85547,-1.89355 -0.79922,-0.0103 -1.59844,-0.0206 -2.42187,-0.0312 -3.86425,0.59198 -3.86425,0.59198 -10.82813,4.53125 -0.33,14.85 -0.66,29.7 -1,45 -5.61,0 -11.22,0 -17,0 0,-28.38 0,-56.76 0,-86 z"
     fill="#000000"/>
  <path
     d="m 471.03733,215.54346 c 4.66957,3.94666 6.76995,8.02368 8,14 0.22784,2.82752 0.18814,5.62655 0.125,8.46093 -0.008,0.79001 -0.0152,1.58001 -0.0229,2.39396 -0.0324,3.34779 -0.0886,6.69507 -0.14307,10.04257 -0.0365,2.45863 -0.0605,4.91719 -0.084,7.37597 -0.0166,0.74092 -0.0332,1.48184 -0.0503,2.24521 -0.0496,5.39048 0.81751,10.27114 2.17529,15.48136 -1.56117,0.33951 -3.12402,0.67132 -4.6875,1 -0.87012,0.18562 -1.74024,0.37125 -2.63672,0.5625 -2.61291,0.42722 -5.03391,0.51366 -7.67578,0.4375 -0.66,-1.32 -1.32,-2.64 -2,-4 -1.01063,0.66 -2.02125,1.32 -3.0625,2 -6.78484,3.38637 -15.27676,3.26081 -22.50781,1.30468 -5.8239,-2.63514 -9.12053,-7.00236 -12.24219,-12.49218 -2.35213,-7.55158 -2.11582,-14.69637 1.47656,-21.80469 3.29536,-4.95267 7.6644,-8.25044 13.33594,-10.00781 2.6935,-0.21448 5.24816,-0.32499 7.9375,-0.3125 0.69029,-0.0161 1.38058,-0.0322 2.09179,-0.0488 4.73726,-0.004 7.91306,0.95468 11.97071,3.36133 -1.92392,-5.31412 -1.92392,-5.31412 -6,-9 -6.76382,-0.82933 -11.96914,-0.0154 -18,3 -0.99,0 -1.98,0 -3,0 -0.8407,-1.60032 -1.67232,-3.20542 -2.5,-4.8125 -0.46406,-0.89332 -0.92813,-1.78664 -1.40625,-2.70704 -1.09375,-2.48046 -1.09375,-2.48046 -1.09375,-5.48046 1.58199,-0.64911 3.16565,-1.29415 4.75,-1.9375 0.88172,-0.35965 1.76344,-0.7193 2.67187,-1.08985 9.90379,-3.73643 23.49563,-3.84347 32.57813,2.02735 z m -28,33 c -2.08607,2.65499 -1.9988,4.0675 -1.9375,7.5 0.696,3.52854 0.696,3.52854 2.875,5.9375 4.37287,2.23106 8.24556,2.36928 13.0625,1.5625 2.93423,-1.79647 4.47205,-2.94411 6,-6 0.50095,-2.87307 0.50095,-2.87307 0,-6 -2.17264,-2.57286 -3.97994,-4.48997 -7,-6 -5.29305,-0.34709 -8.73359,-0.51352 -13,3 z"
     fill="#211915" />
  <path
     d="m 316.03733,215.54346 c 0.99,0.99 1.98,1.98 3,3 -1.98,3.63 -3.96,7.26 -6,11 -3.47903,-0.69581 -5.72556,-1.21725 -8.8125,-2.5625 -5.22066,-2.00946 -9.7937,-2.23544 -15.1875,-0.4375 -0.99,0.495 -0.99,0.495 -2,1 0.12458,1.96227 0.12458,1.96227 1,4 2.14641,1.18384 2.14641,1.18384 4.84765,1.89453 0.99838,0.31646 1.99676,0.63293 3.02539,0.95898 2.098,0.63081 4.19694,1.25851 6.29688,1.88281 7.37879,2.3463 13.98017,5.35277 18.01807,12.3108 2.06303,4.96158 1.73347,11.33421 -0.0278,16.3396 -3.43722,6.07589 -8.55623,9.14271 -14.8789,11.72265 -4.02453,1.09237 -7.69129,1.27402 -11.84375,1.26563 -0.78851,-8.9e-4 -1.57701,-0.002 -2.38941,-0.003 -9.16192,-0.18302 -17.29037,-2.44071 -25.04809,-7.3723 0.58107,-3.7603 1.65199,-6.53035 3.5625,-9.8125 0.45504,-0.7902 0.91008,-1.58039 1.3789,-2.39453 0.34934,-0.59168 0.69868,-1.18336 1.0586,-1.79297 3.28992,1.06922 6.40988,2.18696 9.5625,3.625 5.90607,2.25047 13.95548,2.85997 19.82812,0.35547 0.5311,-0.32356 1.06219,-0.64711 1.60938,-0.98047 -0.13973,-2.44806 -0.13973,-2.44806 -1,-5 -2.00929,-1.32607 -2.00929,-1.32607 -4.59375,-2.02735 -0.94875,-0.31775 -1.8975,-0.63551 -2.875,-0.96289 -1.00031,-0.3126 -2.00063,-0.62519 -3.03125,-0.94726 -17.83602,-5.68049 -17.83602,-5.68049 -21.72315,-12.07447 -2.14231,-5.48236 -1.5814,-12.14429 0.72315,-17.42553 11.98928,-12.28902 30.46247,-12.29337 45.5,-5.5625 z"
     fill="#211915" />
  <path
     d="m 539.11172,215.00461 c 0.99,0.99 1.98,1.98 3,3 -1.98,3.63 -3.96,7.26 -6,11 -3.47903,-0.69581 -5.72556,-1.21724 -8.8125,-2.5625 -5.22066,-2.00946 -9.7937,-2.23543 -15.1875,-0.4375 -0.99,0.495 -0.99,0.495 -2,1 0.12458,1.96228 0.12458,1.96228 1,4 2.14642,1.18384 2.14642,1.18384 4.84766,1.89453 0.99838,0.31647 1.99675,0.63293 3.02539,0.95899 2.09799,0.63081 4.19693,1.2585 6.29687,1.88281 7.3788,2.34629 13.98018,5.35277 18.01807,12.31079 2.06304,4.96159 1.73347,11.33422 -0.0278,16.3396 -3.43722,6.07589 -8.55624,9.14271 -14.87891,11.72266 -4.02453,1.09237 -7.69129,1.27402 -11.84375,1.26562 -0.7885,-8.9e-4 -1.57701,-0.002 -2.3894,-0.003 -9.16193,-0.18302 -17.29037,-2.4407 -25.0481,-7.3723 0.58108,-3.7603 1.65199,-6.53035 3.5625,-9.8125 0.45504,-0.7902 0.91008,-1.58039 1.37891,-2.39453 0.34933,-0.59168 0.69867,-1.18336 1.05859,-1.79297 3.28992,1.06922 6.40989,2.18697 9.5625,3.625 5.90607,2.25048 13.95548,2.85998 19.82812,0.35547 0.5311,-0.32356 1.06219,-0.64711 1.60938,-0.98047 -0.13973,-2.44806 -0.13973,-2.44806 -1,-5 -2.00928,-1.32607 -2.00928,-1.32607 -4.59375,-2.02734 -0.94875,-0.31776 -1.8975,-0.63551 -2.875,-0.96289 -1.00031,-0.3126 -2.00063,-0.6252 -3.03125,-0.94727 -17.83602,-5.68049 -17.83602,-5.68049 -21.72315,-12.07446 -2.14231,-5.48236 -1.58139,-12.1443 0.72315,-17.42554 11.98928,-12.28901 30.46247,-12.29337 45.5,-5.5625 z"
     fill="#211915" />
  <path
     d="m 398.23811,183.53968 c 5.61,0 11.22,0 17,0 0,31.21971 0,62.43941 0,94.60517 -5.61,0 -11.22,0 -17,0 0,-31.2197 0,-62.43941 0,-94.60517 z"
     fill="#211915" />
</svg>
