<?xml version="1.0" standalone="no"?>
<!DOCTYPE svg PUBLIC "-//W3C//DTD SVG 20010904//EN"
    "http://www.w3.org/TR/2001/REC-SVG-20010904/DTD/svg10.dtd">
<svg version="1.0" xmlns="http://www.w3.org/2000/svg"
     width="300.000000pt" height="385.000000pt" viewBox="0 0 300.000000 385.000000"
     preserveAspectRatio="xMidYMid meet">
    <g transform="translate(0.000000,385.000000) scale(0.100000,-0.100000)"
       fill="#000000" stroke="none">
        <path d="M1435 3838 c-42 -15 -82 -55 -96 -96 -16 -48 -4 -110 26 -134 14 -11
25 -29 25 -40 0 -11 7 -26 17 -33 12 -9 17 -33 21 -94 4 -78 4 -81 -17 -81
-12 0 -38 9 -59 19 -86 44 -132 130 -140 258 l-5 83 -40 11 c-55 15 -124 4
-221 -33 -64 -25 -94 -31 -149 -30 -60 1 -68 0 -57 -13 7 -9 11 -17 9 -19 -32
-26 -234 -120 -294 -137 -90 -24 -95 -27 -75 -39 11 -7 2 -14 -35 -31 -113
-49 -233 -90 -282 -95 -29 -4 -53 -10 -53 -14 0 -11 163 -50 210 -50 22 0 40
-5 40 -10 0 -13 -77 -49 -102 -50 -10 0 -18 -4 -18 -10 0 -9 202 -17 310 -11
l45 2 -30 -25 c-16 -14 -43 -30 -58 -37 -67 -28 53 -39 176 -15 37 7 67 9 67
5 0 -13 -65 -59 -83 -59 -10 0 -17 -4 -17 -10 0 -23 218 3 305 36 16 6 14 1
-9 -24 -16 -18 -38 -34 -48 -38 -43 -13 -12 -19 70 -12 82 7 135 17 175 33 29
12 19 -13 -13 -32 -16 -9 -30 -21 -30 -24 0 -4 26 -5 58 -3 57 5 57 5 34 -13
-117 -90 -138 -122 -121 -188 18 -70 143 -174 212 -175 24 0 21 -13 -9 -41
-41 -37 -62 -93 -56 -145 l5 -45 -103 3 -103 3 -13 50 c-14 55 -18 49 55 90
119 67 152 88 148 92 -3 2 -53 -23 -112 -56 -59 -34 -109 -61 -110 -61 -1 0
-22 20 -46 44 -85 85 -212 95 -308 26 -22 -16 -52 -51 -68 -77 -24 -40 -28
-59 -28 -118 1 -125 76 -217 198 -240 l37 -7 0 -229 0 -229 -27 0 c-82 0 -180
-84 -204 -174 -28 -105 25 -232 118 -277 71 -35 171 -34 235 3 25 15 55 40 66
55 l19 26 47 -27 c26 -15 50 -26 52 -23 3 3 -17 17 -44 32 -49 26 -50 27 -36
53 8 15 14 39 14 55 l0 27 154 0 155 0 47 -82 c26 -46 58 -102 71 -124 l23
-41 -41 -42 c-23 -22 -42 -41 -44 -41 -1 0 -42 23 -91 52 -147 86 -194 110
-194 101 0 -4 64 -44 141 -87 135 -76 140 -80 132 -105 -4 -14 -8 -58 -8 -97
0 -61 4 -78 30 -120 42 -66 108 -106 186 -112 146 -11 259 92 259 237 0 33 -6
72 -12 87 -8 17 -9 29 -3 31 6 2 96 52 200 112 l190 109 40 -39 c120 -115 310
-81 380 68 23 48 27 66 23 118 -6 65 -32 127 -70 162 -29 27 -105 62 -135 63
l-23 0 0 229 0 229 33 7 c148 33 228 168 186 319 -16 59 -94 131 -163 151 -92
27 -193 -4 -249 -77 l-24 -30 -112 64 c-93 52 -108 65 -94 73 10 6 40 31 67
57 l48 48 -4 58 c-3 48 -10 67 -37 101 l-33 41 49 1 c41 0 45 2 29 12 -10 7
-28 20 -40 30 l-21 19 25 -6 c107 -26 176 -37 217 -34 l48 3 -47 23 c-25 13
-53 31 -62 41 -14 16 -4 15 132 -6 171 -26 162 -25 162 -15 0 4 -21 18 -47 30
-48 23 -99 60 -92 66 2 2 40 -1 84 -6 92 -11 253 -4 268 11 8 8 6 11 -6 11
-21 0 -97 30 -97 39 0 3 51 7 113 8 110 2 197 17 197 34 0 5 -8 9 -17 9 -10 0
-36 9 -58 19 -44 21 -44 21 50 36 54 9 175 57 169 67 -3 4 -13 8 -24 8 -10 0
-76 16 -146 35 -169 46 -324 115 -259 115 8 0 15 5 15 10 0 6 -19 10 -42 10
-23 0 -69 9 -102 21 -99 34 -190 71 -209 84 -18 13 -18 13 0 23 26 15 8 27
-45 29 -26 0 -89 15 -140 32 -100 33 -199 47 -254 37 l-33 -6 3 -75 c4 -66 1
-82 -23 -130 -37 -76 -124 -155 -172 -155 -20 0 -16 160 4 167 8 3 13 15 11
27 -1 12 7 35 19 50 33 41 39 89 18 142 -15 39 -25 50 -69 70 -56 26 -67 27
-111 12z m86 -29 c13 -11 17 -17 9 -13 -13 7 -13 5 -1 -9 7 -9 17 -15 21 -12
27 17 39 -95 15 -132 -9 -13 -19 -22 -22 -19 -3 3 0 13 8 23 11 13 11 15 1 9
-7 -4 -17 -18 -22 -31 -7 -18 -19 -25 -55 -31 -41 -6 -49 -4 -74 20 -15 14
-30 23 -34 19 -4 -3 -7 8 -7 26 0 19 4 30 10 26 6 -3 7 1 4 10 -8 19 4 67 15
61 4 -3 7 5 7 17 -1 16 4 21 17 19 9 -2 25 2 35 8 15 9 14 10 -5 5 -13 -4 -23
-4 -23 0 0 7 40 24 61 24 9 1 27 -8 40 -20z m352 -112 c-4 -6 0 -8 10 -4 10 3
17 3 17 -2 0 -4 21 -13 47 -18 51 -12 75 -9 27 3 -16 4 -42 16 -59 26 -32 19
-30 23 7 9 13 -5 43 -15 68 -22 25 -7 48 -17 51 -22 3 -4 31 -11 62 -14 43 -4
55 -9 47 -18 -5 -6 -7 -14 -5 -17 3 -3 -7 -4 -22 -2 -15 1 -42 -4 -60 -11 -26
-11 -46 -12 -89 -4 -39 7 -59 7 -68 0 -7 -6 -16 -8 -19 -4 -4 3 -7 0 -7 -9 0
-8 -9 -23 -19 -32 -24 -22 -35 -60 -15 -52 8 3 14 1 14 -3 0 -13 -28 -22 -32
-11 -4 13 -48 0 -48 -14 0 -15 -104 -118 -112 -111 -7 7 -66 -21 -86 -41 -18
-18 -32 -18 -32 1 0 9 23 25 53 39 76 34 136 101 169 189 28 75 34 103 18 77
-8 -13 -10 -12 -10 3 0 9 5 17 11 17 5 0 7 5 4 10 -3 6 -3 19 0 31 6 17 12 19
37 14 21 -5 28 -4 24 4 -5 7 -1 9 8 5 9 -3 13 -11 9 -17z m-708 -6 c-3 -8 -2
-35 1 -60 7 -41 8 -43 15 -21 7 22 7 20 7 -10 -3 -76 111 -237 173 -247 24 -4
45 -26 30 -31 -28 -10 -191 119 -191 150 0 5 -15 8 -34 8 -37 0 -85 33 -90 60
-5 31 -26 58 -51 62 -14 3 -25 1 -25 -4 0 -11 -119 -2 -157 13 -15 6 -30 11
-33 11 -14 2 -30 11 -30 18 0 4 22 5 48 2 36 -3 59 1 90 17 61 31 139 50 200
48 41 -1 51 -4 47 -16z m-380 -91 c0 -16 -160 -110 -187 -110 -10 0 -18 -4
-18 -10 0 -5 6 -10 13 -10 17 0 146 67 184 96 27 20 36 22 60 13 25 -9 26 -12
10 -20 -9 -6 -21 -8 -26 -4 -5 3 -13 0 -17 -6 -5 -8 -3 -9 6 -4 9 6 11 4 6 -4
-5 -7 -14 -10 -22 -7 -8 3 -17 -1 -20 -9 -7 -17 -79 -56 -88 -48 -3 4 -6 1 -6
-5 0 -7 -3 -11 -7 -10 -5 1 -28 -2 -53 -7 -47 -9 -142 -8 -172 1 -31 9 -20 21
25 27 23 3 69 17 102 33 33 15 63 27 68 26 4 -1 7 2 7 7 0 5 15 14 34 21 18 6
42 20 52 31 20 22 49 22 49 -1z m1431 0 c8 0 14 -5 14 -11 0 -5 5 -7 10 -4 6
3 10 2 10 -3 0 -5 6 -9 14 -9 23 0 145 -56 140 -65 -3 -4 2 -5 11 -2 20 8 71
-5 59 -15 -5 -4 -28 -14 -51 -21 -37 -11 -53 -11 -115 3 -74 16 -201 68 -213
87 -4 6 8 13 27 17 40 9 31 11 130 -38 45 -22 91 -38 102 -36 21 3 21 4 1 11
-32 12 -170 69 -174 72 -2 2 0 11 4 21 5 12 9 14 12 6 3 -7 11 -13 19 -13z
m-656 -29 c0 -29 -118 -41 -128 -12 -4 11 4 13 34 9 22 -3 48 -2 59 3 27 10
35 11 35 0z m-520 -12 c0 -5 -4 -8 -9 -5 -5 3 -11 -3 -14 -14 -3 -11 -1 -18 4
-14 5 3 9 0 9 -5 0 -10 -8 -13 -26 -10 -3 1 -18 -10 -32 -24 -36 -33 -110 -70
-128 -63 -8 3 -13 2 -10 -3 6 -10 -38 -18 -146 -27 -53 -5 -70 -3 -83 9 -19
20 -8 27 47 31 46 3 96 24 117 50 8 9 20 16 29 16 8 0 31 12 49 26 28 21 43
26 76 22 23 -3 56 1 72 8 37 16 45 17 45 3z m1047 -33 c26 -20 52 -36 58 -36
7 0 56 -14 110 -31 82 -27 94 -34 79 -43 -11 -6 -62 -11 -114 -11 -85 1 -101
4 -155 31 -86 43 -144 84 -139 98 8 20 48 11 110 -26 115 -69 164 -90 164 -68
0 6 -4 10 -10 10 -18 0 -155 71 -185 96 l-30 25 33 -5 c19 -2 54 -21 79 -40z
m-582 -26 c-3 -10 -2 -31 2 -47 7 -26 8 -26 14 17 l6 45 1 -53 c1 -29 -2 -51
-6 -48 -5 3 -7 -50 -6 -117 2 -67 4 -129 4 -137 0 -117 2 -175 7 -183 3 -6 1
-7 -5 -3 -11 7 -18 -30 -12 -59 1 -5 3 -20 4 -33 2 -12 5 -24 8 -27 2 -3 3
-19 0 -36 -3 -23 -7 -28 -14 -18 -7 11 -8 9 -4 -4 3 -10 6 -23 6 -28 0 -6 3
-8 8 -6 4 3 7 -11 8 -31 0 -21 -1 -31 -4 -23 -3 9 -7 10 -11 3 -4 -6 -16 -9
-28 -6 -20 6 -21 11 -21 227 -1 246 -10 554 -17 577 -4 13 2 15 30 12 29 -3
35 -8 30 -22z m-442 -4 c4 -10 -19 -27 -74 -56 -44 -23 -78 -44 -75 -47 3 -3
39 13 81 36 78 42 105 50 105 30 0 -5 5 -7 10 -4 6 3 10 2 10 -3 0 -10 -70
-51 -130 -75 -25 -10 -73 -19 -107 -20 -35 -1 -63 -5 -63 -8 0 -3 -16 -6 -35
-7 -19 -1 -35 2 -35 7 0 10 43 33 56 30 5 -2 26 5 48 14 21 9 41 17 44 17 13
0 142 83 142 91 0 14 17 10 23 -5z m913 -42 c32 -21 65 -37 73 -36 8 2 10 -1
5 -9 -4 -7 -3 -10 3 -6 6 4 37 -5 69 -20 39 -18 59 -22 62 -15 5 15 72 16 72
2 0 -5 -16 -10 -35 -10 -19 0 -35 -4 -35 -8 0 -16 -114 -30 -165 -21 -55 10
-123 47 -160 87 -22 23 -23 28 -10 41 13 13 17 12 37 -6 39 -34 147 -95 165
-91 10 2 -14 19 -58 42 -81 42 -122 74 -113 88 8 12 19 7 90 -38z m554 8 c0
-5 14 -19 31 -31 18 -13 29 -19 25 -12 -10 15 -11 15 79 -24 44 -19 88 -35 98
-35 10 0 20 -7 23 -15 4 -8 18 -15 33 -15 21 0 23 2 11 10 -20 14 36 2 69 -15
l24 -12 -34 -12 c-19 -6 -75 -17 -125 -23 -85 -11 -99 -10 -175 10 -46 13 -89
29 -95 37 -6 8 -16 15 -23 15 -6 0 -34 13 -61 28 -50 29 -50 29 -25 40 16 7
23 17 19 27 -8 21 29 20 47 -2 17 -20 210 -114 221 -107 12 8 -1 24 -18 24
-15 0 -170 75 -193 93 -11 10 -9 13 10 18 35 10 59 10 59 1z m-1345 -31 c3 -7
4 -15 3 -16 -15 -13 -131 -65 -137 -61 -4 3 -8 -1 -8 -9 0 -8 3 -15 7 -15 12
0 95 42 112 57 19 17 59 14 66 -4 2 -7 -5 -16 -15 -20 -10 -4 -35 -18 -55 -31
-21 -13 -66 -32 -100 -41 -52 -14 -72 -15 -113 -5 -48 11 -49 12 -25 22 14 5
32 17 40 26 9 12 23 15 44 11 19 -3 24 -2 13 3 -15 6 -11 10 20 21 20 8 53 29
72 47 36 34 67 40 76 15z m-717 1 c13 -9 -123 -74 -180 -88 -16 -3 -28 -10
-28 -15 0 -5 2 -9 4 -9 15 0 158 56 191 75 45 26 105 40 105 25 0 -6 -8 -10
-17 -11 -14 0 -13 -3 5 -11 12 -6 22 -14 22 -18 0 -5 -55 -29 -85 -36 -5 -2
-39 -15 -75 -30 -60 -25 -72 -26 -176 -22 -61 3 -119 10 -130 16 -18 11 -18
11 3 12 45 0 131 30 213 73 84 44 123 54 148 39z m1365 -30 c15 -16 48 -39 72
-51 26 -13 42 -27 39 -33 -4 -7 -2 -8 5 -4 6 4 17 3 24 -2 19 -15 87 -25 87
-12 0 15 31 12 49 -4 41 -36 215 -144 224 -139 5 3 1 10 -9 16 -11 5 -61 37
-112 70 -61 40 -89 64 -82 71 11 11 29 3 140 -63 83 -50 175 -90 205 -91 11 0
33 -7 49 -15 15 -8 35 -15 42 -15 8 0 14 -5 14 -11 0 -7 -28 -8 -87 -4 -49 4
-97 6 -109 6 -70 -2 -272 67 -260 88 4 5 1 13 -5 17 -8 4 -9 3 -5 -4 11 -18
-6 -14 -31 7 -30 25 -29 31 3 31 16 0 24 5 22 13 -5 14 -48 23 -48 9 0 -5 -30
-12 -67 -16 -61 -6 -72 -4 -127 23 -73 36 -136 95 -119 112 9 9 24 2 60 -28
66 -55 103 -74 103 -53 0 6 -6 10 -14 10 -15 0 -125 81 -126 93 0 17 39 5 63
-21z m512 -32 c0 -7 15 -22 33 -33 17 -10 32 -16 32 -13 0 3 -14 13 -31 21
-17 9 -29 19 -26 21 7 8 77 -37 72 -46 -3 -5 0 -12 6 -16 8 -4 9 -3 5 4 -9 15
-3 15 29 0 14 -6 25 -15 25 -20 0 -4 9 -8 21 -8 11 0 18 -4 15 -9 -7 -11 66
-27 149 -32 22 -1 58 -10 80 -20 35 -16 37 -19 20 -26 -58 -23 -396 1 -380 27
3 5 -4 12 -17 14 -69 14 -78 17 -73 25 2 5 -5 12 -18 15 -12 3 -37 15 -56 26
l-33 21 37 19 c37 19 39 19 64 1 37 -26 172 -98 199 -106 13 -4 22 -2 22 4 0
6 -5 11 -11 11 -15 0 -132 60 -193 98 -43 28 -45 31 -24 35 36 7 53 3 53 -13z
m-1695 -7 c-1 -9 -160 -83 -178 -83 -6 0 -14 -5 -18 -11 -12 -19 40 -2 136 45
103 51 130 61 130 47 0 -5 -8 -11 -17 -14 -14 -3 -11 -6 10 -11 36 -11 34 -19
-10 -41 -57 -29 -60 -30 -33 -7 14 12 21 21 16 22 -5 0 -19 -11 -31 -24 -13
-14 -26 -22 -29 -19 -3 4 -6 1 -6 -6 0 -7 -4 -9 -10 -6 -5 3 -10 1 -10 -5 0
-7 -7 -9 -16 -6 -10 4 -13 2 -8 -6 5 -7 0 -9 -14 -6 -12 4 -22 2 -22 -3 0 -4
-15 -8 -32 -8 -18 0 -69 -4 -113 -8 -86 -9 -145 -6 -145 5 0 12 54 40 68 35
18 -7 140 37 181 65 19 12 36 20 39 18 2 -3 18 4 35 15 32 19 77 26 77 12z
m1102 -25 c13 -13 16 -17 6 -9 -12 9 -18 10 -18 3 0 -15 38 -35 50 -27 6 4 9
1 8 -5 -2 -6 16 -19 39 -29 24 -9 51 -25 60 -35 17 -18 16 -18 -55 -13 -108 7
-253 84 -190 101 15 3 33 -5 60 -29 37 -34 68 -45 68 -25 0 6 -7 10 -15 10
-21 0 -75 41 -75 56 0 11 14 21 32 23 4 1 17 -9 30 -21z m-462 8 c0 -2 -24
-18 -52 -35 -29 -17 -47 -31 -39 -31 8 0 35 13 61 29 39 24 49 26 63 16 16
-11 14 -15 -17 -33 -57 -34 -123 -52 -187 -52 -44 0 -61 -4 -65 -15 -4 -8 -10
-15 -16 -15 -5 0 -21 -11 -35 -24 -14 -13 -35 -29 -47 -34 -63 -30 -134 -54
-208 -72 -131 -31 -146 -26 -76 28 23 18 53 32 67 32 14 0 33 5 41 11 12 8 9
9 -10 4 l-25 -6 25 15 c30 18 44 20 34 5 -4 -8 0 -8 15 0 11 7 21 14 21 17 0
3 -4 2 -10 -1 -5 -3 -10 -1 -10 4 0 10 5 12 37 15 7 1 25 13 40 28 24 22 37
26 83 25 30 0 47 -2 38 -5 -27 -6 -21 -22 8 -22 14 0 23 4 20 8 -5 8 22 25 69
42 61 23 80 33 93 51 9 12 25 19 48 19 19 0 34 -2 34 -4z m-370 -20 c-6 -8
-28 -20 -47 -27 -36 -11 -36 -12 -13 -24 l22 -12 -30 -22 c-50 -35 -174 -88
-233 -99 -64 -12 -179 -25 -179 -19 0 5 96 67 105 67 4 0 38 16 77 35 38 19
75 32 81 29 7 -4 9 -4 5 1 -9 10 21 34 43 35 9 0 20 7 23 16 4 10 17 15 38 13
18 -1 40 1 48 4 15 6 46 14 64 16 5 0 3 -6 -4 -13z m450 -35 c0 -5 -9 -13 -20
-16 -11 -3 -20 -11 -20 -16 0 -13 2 -12 40 16 39 29 65 19 36 -14 -21 -23
-103 -57 -113 -48 -3 4 -11 3 -17 -2 -17 -14 -68 -15 -96 -2 l-25 11 27 -5
c15 -3 30 -1 33 5 3 5 14 10 24 10 11 0 41 15 67 34 53 36 64 41 64 27z m270
-12 c25 -20 25 -20 1 -9 -18 9 -22 9 -16 0 4 -7 27 -21 50 -31 23 -10 48 -26
56 -35 12 -14 8 -15 -37 -9 -72 10 -132 35 -140 57 -10 33 3 32 46 -2 23 -18
44 -29 48 -25 4 4 2 10 -5 12 -7 2 -24 14 -38 25 -21 16 -24 23 -13 29 18 12
20 11 48 -12z m-202 -55 c2 -22 -1 -25 -20 -21 -13 4 -26 0 -32 -8 -6 -8 -24
-17 -41 -21 l-30 -7 19 22 c11 11 21 19 24 17 2 -3 11 2 19 10 9 8 23 12 34 9
14 -5 17 -2 13 9 -3 9 -2 16 3 16 5 0 10 -12 11 -26z m523 10 c23 -29 160
-125 171 -122 6 2 -20 25 -58 51 -81 56 -104 73 -104 78 0 2 13 4 30 3 18 0
37 -10 50 -25 12 -13 18 -17 14 -9 -5 8 8 3 28 -12 19 -15 64 -41 99 -59 35
-18 84 -48 109 -67 l45 -34 -70 7 c-122 12 -251 47 -240 65 3 4 -25 27 -63 51
-56 36 -63 44 -44 47 27 4 28 10 5 28 -16 12 -16 13 -2 14 9 0 23 -7 30 -16z
m-354 -44 c6 0 17 -7 24 -16 12 -15 11 -16 -11 -9 -51 16 -70 25 -70 33 0 18
14 21 30 7 9 -8 21 -15 27 -15z m206 -8 c84 -76 147 -124 157 -120 6 2 -20 27
-58 56 -38 29 -78 62 -88 74 -18 20 -18 21 -1 15 10 -4 24 -7 31 -7 16 0 157
-106 150 -113 -3 -3 0 -8 7 -13 8 -5 10 -3 4 6 -5 8 -3 11 6 8 8 -3 13 -11 11
-18 -2 -8 3 -10 13 -6 10 3 36 -11 72 -40 l55 -45 -38 7 c-22 4 -46 8 -54 9
-9 0 -20 4 -27 8 -6 4 -19 4 -30 1 -12 -4 -14 -3 -6 3 9 6 3 12 -18 20 -26 10
-29 10 -18 -3 10 -13 8 -13 -15 -4 -47 18 -67 31 -61 40 3 6 -1 7 -9 4 -9 -4
-18 1 -22 10 -3 9 -10 14 -14 11 -8 -5 -42 21 -99 73 -23 22 -24 22 -2 22 11
0 21 5 21 10 0 6 -7 10 -15 10 -8 0 -15 5 -15 10 0 19 21 10 63 -28z m-673 21
c0 -11 -102 -102 -122 -109 -10 -3 -18 -10 -18 -15 0 -16 58 22 104 67 38 37
45 40 85 36 l44 -4 -83 -54 c-90 -59 -102 -63 -289 -100 l-34 -6 43 41 c24 22
51 41 60 41 10 0 51 25 91 55 64 47 119 69 119 48z m170 -12 c0 -5 -9 -13 -20
-16 -11 -3 -20 -12 -20 -20 0 -7 -19 -29 -42 -49 -24 -20 -38 -36 -33 -36 6 0
29 18 50 40 30 31 47 40 72 40 40 0 41 -9 4 -35 -130 -91 -135 -94 -198 -99
-61 -5 -62 -5 -51 14 7 11 18 20 23 20 6 0 20 7 31 15 19 15 19 15 -1 9 -15
-4 -17 -4 -6 4 8 6 19 8 25 6 6 -2 35 18 65 46 30 27 58 50 63 50 4 0 8 5 8
10 0 6 7 10 15 10 8 0 15 -4 15 -9z m130 -16 c0 -2 -19 -22 -42 -44 -23 -23
-39 -43 -36 -47 4 -3 22 12 42 33 l35 38 1 -36 c0 -38 -11 -52 -71 -86 -23
-13 -46 -18 -67 -15 -18 2 -32 6 -32 9 0 2 35 37 78 78 69 67 92 85 92 70z
m294 -27 c60 -60 130 -113 160 -123 35 -12 45 -32 19 -37 -15 -3 -14 -5 5 -10
15 -4 20 -3 15 5 -4 7 2 5 12 -3 18 -15 18 -15 -2 -18 -11 -2 -60 10 -109 27
-73 24 -96 37 -136 77 -26 26 -44 52 -41 57 3 6 1 7 -4 4 -6 -4 -16 0 -23 8
-11 13 -8 15 18 15 24 0 42 -12 81 -52 27 -29 52 -50 56 -46 3 3 -19 29 -49
58 -31 29 -56 57 -56 61 0 18 22 8 54 -23z m-125 -17 c17 -21 27 -42 23 -46
-4 -5 -2 -5 4 -2 6 3 26 -10 45 -30 19 -19 27 -33 19 -31 -8 3 -29 0 -47 -7
-27 -12 -33 -11 -46 3 -9 10 -15 22 -15 27 0 6 -9 14 -21 20 -12 6 -21 19 -21
32 0 30 6 29 37 -7 13 -16 29 -30 35 -30 5 0 -9 21 -31 46 -23 26 -41 51 -41
55 0 21 31 6 59 -30z m-169 -251 c0 -113 -4 -170 -11 -170 -5 0 -8 4 -5 8 3 5
-7 7 -22 5 -15 -3 -38 0 -52 5 -24 9 -23 10 27 38 29 16 53 33 53 37 0 10 -90
-39 -105 -57 -5 -6 -18 -10 -27 -8 -19 4 -31 48 -32 117 l-1 40 72 14 c56 12
74 19 79 35 6 18 -8 37 -40 50 -11 5 41 56 57 56 4 0 7 -76 7 -170z m147 92
c-9 -10 -17 -26 -17 -36 0 -23 64 -49 112 -44 36 3 38 2 38 -27 -1 -39 -16
-105 -28 -117 -5 -5 -32 6 -67 27 -32 19 -61 33 -63 30 -7 -7 -5 -8 67 -48
l64 -35 -77 -4 c-42 -1 -76 0 -76 5 0 4 3 7 8 7 4 0 6 71 4 157 l-3 158 27
-27 c26 -26 27 -28 11 -46z m-237 7 c45 -22 51 -36 18 -43 -96 -21 -141 -26
-170 -21 -72 14 -143 -81 -91 -121 60 -46 161 -78 328 -103 77 -12 153 -23
168 -26 70 -12 238 -130 221 -156 -4 -8 -3 -9 4 -5 8 5 12 -2 12 -18 0 -14 4
-26 9 -26 15 0 18 -73 4 -100 l-13 -25 -1 25 c-1 24 -1 24 -11 -5 -6 -16 -15
-37 -21 -45 -9 -12 -9 -13 3 -2 8 6 18 12 24 12 16 0 -35 -50 -88 -86 -41 -27
-51 -31 -60 -19 -6 7 -30 19 -53 25 -24 6 -43 13 -43 16 0 3 25 33 55 67 30
33 55 69 55 79 0 10 6 17 13 16 16 -4 22 49 6 68 -7 8 -19 12 -27 9 -10 -4
-12 0 -8 12 4 10 4 14 0 11 -3 -4 -23 4 -44 17 -47 30 -123 50 -265 70 -141
20 -218 35 -230 45 -8 7 -15 9 -15 5 0 -4 -14 6 -31 23 -18 18 -38 28 -48 26
-9 -3 -5 2 9 11 22 14 22 15 4 10 -14 -4 -24 0 -28 10 -3 9 -10 13 -16 10 -15
-9 -28 35 -22 78 2 23 13 44 26 53 20 15 20 16 1 10 -14 -4 -11 1 9 17 134
102 149 109 229 100 26 -3 65 -14 87 -24z m476 -19 c30 -17 53 -26 49 -20 -14
23 18 8 53 -25 24 -23 30 -33 17 -28 -19 6 -19 5 -4 -13 32 -39 40 -93 17
-121 -6 -7 -7 -13 -3 -13 4 0 2 -7 -5 -15 -7 -8 -17 -12 -24 -8 -6 3 -8 2 -3
-2 8 -9 -40 -65 -55 -65 -5 0 -28 -9 -51 -20 l-42 -20 -70 34 c-38 18 -81 38
-95 43 -20 8 -9 10 53 11 106 2 179 26 223 74 31 35 44 68 27 68 -5 0 -16 14
-25 30 -27 47 -72 61 -158 51 -69 -9 -140 0 -140 18 0 4 11 14 25 21 14 7 25
17 25 22 0 4 29 8 65 8 53 0 75 -5 121 -30z m31 -82 c29 -27 31 -78 4 -102
-26 -23 -87 -45 -129 -46 -32 0 -32 0 -17 24 9 13 17 50 19 82 2 33 4 60 5 62
1 1 22 2 48 2 34 0 53 -6 70 -22z m-605 -45 c3 -32 9 -66 13 -76 8 -19 -1 -18
-62 9 -34 15 -83 68 -83 89 0 21 30 34 81 35 l47 0 4 -57z m735 -282 l112 -63
-14 -29 c-8 -15 -15 -39 -15 -53 0 -24 -2 -25 -77 -28 -53 -2 -72 -6 -58 -11
80 -34 95 -40 92 -43 -1 -2 -34 -8 -72 -14 -39 -6 -74 -16 -80 -22 -7 -7 -4
-9 10 -5 11 3 51 11 88 17 66 12 69 12 93 -11 24 -22 32 -49 15 -49 -5 0 -47
-22 -92 -49 l-84 -49 -33 60 c-19 32 -36 57 -39 54 -3 -2 7 -25 21 -49 23 -39
24 -45 11 -51 -9 -3 -37 -1 -62 4 -25 6 -48 9 -50 6 -3 -3 12 -8 33 -12 l39
-8 -30 -7 c-23 -5 -16 -7 30 -8 l60 -1 -45 -26 -45 -25 -17 23 c-9 13 -27 36
-39 51 -12 15 -20 29 -18 31 2 1 17 10 33 20 96 61 172 170 156 224 -17 58
-29 79 -70 120 -23 24 -41 44 -39 45 14 10 56 26 64 24 6 -1 60 -31 122 -66z
m-1227 28 c48 -22 100 -65 100 -84 0 -6 -19 -22 -42 -35 -79 -42 -109 -62
-104 -67 3 -3 37 13 76 36 40 22 76 41 80 41 8 0 30 -61 30 -83 0 -5 -46 -8
-102 -7 -57 1 -109 1 -115 1 -10 -1 -13 -31 -13 -115 0 -63 -3 -117 -7 -119
-16 -9 -100 24 -136 54 -139 115 -87 348 87 389 55 14 100 10 146 -11z m548
-2 c21 -2 44 -7 50 -11 6 -4 23 -4 37 0 14 4 25 2 25 -4 0 -9 -44 -24 -75 -26
-30 -2 -69 -55 -59 -81 3 -8 2 -15 -4 -15 -5 0 -7 -11 -5 -25 3 -13 10 -23 15
-22 6 1 13 -4 16 -12 3 -8 0 -11 -7 -7 -6 4 -11 3 -11 -2 0 -22 147 -101 235
-127 122 -35 192 -88 223 -168 l20 -54 -35 -72 c-42 -83 -68 -104 -93 -74 -8
11 -28 24 -44 29 l-28 10 35 24 c39 26 60 61 51 84 -15 40 -130 107 -278 162
-78 29 -149 75 -143 93 3 10 -51 59 -58 53 -3 -4 -3 1 1 11 4 12 1 17 -10 17
-9 0 -16 5 -16 10 0 6 5 10 11 10 5 0 7 5 3 12 -12 19 -4 99 13 133 26 52 53
76 74 65 9 -6 35 -11 57 -13z m1109 -6 c55 -27 90 -72 108 -136 35 -119 -28
-236 -147 -275 l-53 -17 -3 116 -3 117 -97 56 c-53 30 -97 61 -97 68 0 18 66
69 111 86 50 18 129 12 181 -15z m-906 -25 c3 -66 -4 -213 -12 -220 -5 -6 -9
-15 -9 -20 0 -6 5 -4 10 4 8 12 10 11 10 -7 0 -13 -3 -23 -7 -23 -27 1 -31 21
-31 145 1 72 3 133 5 137 5 10 33 -2 34 -16z m86 -22 c2 -7 11 -10 18 -7 20 7
65 -45 65 -74 0 -51 -16 -63 -80 -63 l-60 0 0 48 c0 26 3 63 6 83 5 30 10 36
26 31 11 -2 22 -11 25 -18z m-147 -104 c0 -66 -3 -120 -6 -120 -10 0 -74 52
-74 61 0 4 12 10 28 12 15 2 10 3 -10 2 -31 -3 -38 0 -38 15 0 11 -5 22 -11
25 -6 4 -8 14 -5 22 4 9 2 11 -5 7 -7 -4 -10 -1 -7 7 2 8 14 18 26 24 12 5 22
13 22 18 0 8 60 47 73 47 4 0 7 -54 7 -120z m790 -14 l45 -26 -103 0 -102 0 6
28 c4 15 11 37 15 50 l9 23 42 -25 c24 -13 63 -36 88 -50z m-1340 -52 c0 -17
-27 -17 -95 1 l-50 12 73 1 c55 0 72 -3 72 -14z m65 -4 c-35 -23 -55 -26 -55
-7 0 21 11 27 49 27 l36 0 -30 -20z m165 6 c0 -19 125 -145 157 -157 l26 -10
-32 -27 c-27 -22 -40 -27 -75 -23 -41 4 -41 4 -11 13 17 4 38 6 48 4 9 -2 17
-3 17 -1 0 2 3 11 6 20 6 14 4 15 -12 7 -22 -12 -107 -33 -112 -27 -2 2 20 17
50 34 29 17 47 31 40 31 -7 0 -37 -15 -65 -34 -29 -18 -64 -33 -77 -32 -25 1
-200 95 -200 107 0 4 8 17 18 29 l19 23 111 -19 c62 -10 112 -22 112 -26 0 -5
-12 -27 -26 -49 -14 -23 -23 -43 -20 -46 5 -6 56 72 56 87 0 5 5 10 12 10 16
0 1 13 -20 17 -9 1 -57 11 -107 21 -82 17 -88 19 -67 31 49 26 152 38 152 17z
m475 -36 c-69 -70 -86 -65 -69 19 6 30 8 31 62 31 l56 0 -49 -50z m465 30 c0
-23 -9 -25 -45 -8 -35 16 -31 28 10 28 28 0 35 -4 35 -20z m144 10 c-34 -14
-134 -23 -134 -13 0 19 15 23 84 22 49 0 65 -3 50 -9z m-1409 -17 c44 -9 81
-17 83 -19 6 -4 -10 -54 -18 -54 -4 0 -40 19 -79 41 -39 23 -74 40 -76 37 -3
-2 29 -24 70 -47 41 -24 75 -46 75 -50 0 -3 -7 -15 -16 -26 -14 -19 -17 -17
-78 50 -57 62 -70 85 -48 85 4 0 43 -8 87 -17z m1395 -32 c-84 -48 -85 -48
-97 -27 -7 11 -12 26 -13 31 0 9 122 39 175 43 10 1 -19 -20 -65 -47z m110
-62 l0 -102 -41 6 c-23 3 -46 10 -51 15 -6 6 9 42 38 96 26 47 49 86 51 86 2
0 3 -46 3 -101z m-1578 14 c23 -43 44 -81 46 -84 4 -9 -46 -29 -73 -29 -25 0
-25 1 -25 95 0 52 2 95 4 95 2 0 24 -35 48 -77z m1493 15 c-32 -35 -61 -64
-65 -66 -3 -1 -14 6 -24 17 -17 18 -15 20 56 64 40 25 77 46 82 46 4 1 -18
-27 -49 -61z m-1455 -29 c29 -33 39 -54 33 -60 -7 -7 -22 10 -46 50 -20 34
-35 61 -33 61 2 0 23 -23 46 -51z m1459 -10 c-18 -30 -34 -56 -36 -58 -2 -3
-8 0 -15 7 -8 8 1 24 33 60 24 27 45 48 47 47 2 -2 -11 -27 -29 -56z m-1246
-54 c50 -29 88 -58 91 -70 3 -11 6 -62 6 -114 l0 -94 -35 46 -35 46 31 51 c17
28 29 54 26 57 -3 3 -18 -18 -34 -46 -15 -28 -31 -50 -34 -48 -17 6 -139 158
-139 172 0 22 19 57 30 53 4 -2 46 -25 93 -53z m1131 39 c15 -40 4 -68 -56
-139 -35 -40 -66 -74 -69 -74 -3 -1 -22 26 -42 59 l-35 60 91 55 c51 30 95 54
98 55 4 0 10 -7 13 -16z m-1276 -85 l-3 -33 -18 27 c-15 23 -16 31 -6 43 17
21 31 3 27 -37z m1342 26 c0 -9 -7 -27 -16 -41 -9 -13 -14 -27 -11 -30 3 -3
13 8 22 25 18 35 16 35 84 19 l51 -12 -2 -225 -3 -224 -55 -13 c-30 -7 -58 -9
-62 -6 -12 12 -138 234 -138 244 0 5 22 46 48 91 40 68 48 88 44 119 -2 21 -2
45 2 53 7 20 36 19 36 0z m-810 -8 c9 -7 23 -23 33 -36 16 -23 15 -25 -6 -36
-18 -9 -22 -19 -22 -60 0 -47 2 -51 33 -66 18 -10 50 -28 70 -42 20 -14 55
-30 77 -37 53 -16 107 -49 99 -61 -3 -5 -11 -6 -17 -3 -7 4 -8 3 -4 -2 5 -5
14 -9 20 -9 7 0 13 -11 13 -25 1 -14 3 -29 4 -35 3 -11 -5 -39 -21 -67 -5 -10
-9 -25 -9 -33 0 -27 -29 -28 -64 -2 -18 15 -36 24 -38 22 -3 -3 -5 2 -5 10 0
8 9 17 19 21 10 3 16 10 13 15 -4 5 -1 17 5 26 11 16 11 16 6 1 -7 -23 12 -34
21 -12 10 27 -66 89 -139 113 -66 22 -155 70 -156 84 -2 16 -42 60 -43 46 0
-8 -5 0 -10 16 -12 39 6 109 40 152 27 34 55 41 81 20z m-562 -29 c111 -187
132 -227 126 -242 -3 -9 -3 -16 0 -16 4 0 11 11 16 25 10 26 25 31 50 15 12
-7 6 -13 -25 -26 -22 -10 -43 -18 -47 -18 -11 -1 -34 -37 -85 -129 -25 -45
-47 -83 -48 -85 -2 -2 -28 2 -59 10 l-56 13 0 226 0 226 53 15 c28 9 53 16 54
17 1 0 10 -14 21 -31z m149 -95 c29 -35 33 -45 23 -62 -15 -29 -27 -26 -62 12
-35 36 -53 74 -62 132 l-6 40 36 -40 c20 -22 52 -59 71 -82z m466 98 c-2 -6 4
-11 12 -11 24 0 13 -53 -13 -66 -12 -6 -19 -14 -14 -19 4 -5 2 -5 -5 -2 -8 5
-11 -3 -9 -28 2 -20 -1 -32 -6 -29 -6 4 -7 23 -4 43 3 20 7 42 8 49 1 6 4 10
6 7 3 -3 11 0 18 6 10 8 11 16 3 30 -5 10 -6 19 -2 19 4 0 1 5 -7 11 -13 9
-13 10 0 6 8 -2 14 -10 13 -16z m702 -23 c-9 -53 -29 -94 -63 -130 -31 -34
-46 -35 -59 -6 -8 19 -1 33 56 100 36 42 68 77 69 78 2 0 1 -19 -3 -42z m-885
14 c0 -4 -5 -13 -12 -20 -11 -11 -17 -104 -8 -131 3 -9 -3 -16 -14 -19 -15 -3
-18 0 -13 17 3 12 1 19 -3 16 -16 -10 -20 13 -5 25 8 7 15 18 15 24 0 6 -7 2
-15 -8 -8 -11 -16 -18 -18 -15 -20 25 -67 102 -67 110 0 5 32 9 70 9 39 0 70
-4 70 -8z m258 -90 c2 -49 -1 -82 -7 -82 -14 0 -19 26 -21 103 0 52 2 68 12
65 9 -3 14 -31 16 -86z m382 69 c0 -6 -5 -13 -10 -16 -12 -7 -50 -79 -50 -94
0 -5 14 -22 30 -38 17 -15 30 -31 30 -35 0 -14 -31 -8 -36 6 -3 8 -12 12 -20
9 -10 -4 -14 2 -14 21 0 20 -4 24 -17 20 -14 -5 -15 -4 -4 4 8 6 15 28 15 51
1 34 6 44 31 60 34 22 45 25 45 12z m20 -92 l0 -101 -24 29 -24 29 19 54 c10
30 18 63 19 73 0 9 2 17 5 17 3 0 5 -45 5 -101z m53 29 c16 -26 23 -49 18 -53
-6 -3 -20 -20 -32 -38 l-22 -32 35 34 c36 33 36 33 47 12 10 -19 8 -23 -23
-37 -58 -28 -66 -18 -66 88 0 98 2 99 43 26z m-838 -92 c-18 -31 -18 -31 2
-13 11 9 23 14 26 10 12 -12 7 24 -9 62 -8 20 -13 39 -11 41 7 7 38 -46 32
-55 -2 -5 2 -11 10 -15 25 -9 17 -34 -16 -51 -52 -27 -59 -17 -58 82 l1 88 20
-59 c20 -57 20 -60 3 -90z m483 92 c20 -34 5 -73 -35 -90 -16 -7 -31 -17 -35
-23 -5 -6 -11 -6 -20 3 -9 9 -9 12 5 12 17 0 21 23 17 97 -1 18 2 37 5 43 9
15 41 -7 63 -42z m260 -21 c-10 -33 -28 -51 -28 -28 0 11 33 71 37 67 1 -1 -3
-19 -9 -39z m-800 -102 c-5 -6 -78 14 -78 21 0 3 5 15 11 26 11 20 12 20 41
-11 17 -18 28 -34 26 -36z m733 27 c-10 -3 -8 -9 10 -23 20 -16 22 -20 9 -29
-21 -14 -34 -7 -38 19 -4 23 16 56 27 45 3 -4 0 -9 -8 -12z m-544 -3 c7 -7 8
-23 3 -46 -10 -44 -14 -47 -31 -26 -12 15 -12 16 2 11 13 -5 16 -2 11 15 -3
12 -10 25 -15 28 -10 7 -1 29 12 29 4 0 12 -5 18 -11z m-40 -43 c-4 -9 -11
-16 -17 -16 -17 0 -24 31 -9 41 18 11 34 -5 26 -25z m823 3 c0 -10 5 -19 10
-19 6 0 10 -4 10 -9 0 -5 -18 1 -41 12 -41 20 -41 20 -18 33 28 15 39 10 39
-17z m-731 -10 c26 -19 27 -23 16 -55 -6 -19 -16 -35 -21 -35 -9 -1 -32 63
-33 94 -1 22 4 22 38 -4z m-149 -13 c0 -23 -13 -26 -33 -9 -20 18 -20 18 -3
-9 16 -25 16 -29 -2 -90 l-20 -63 -1 82 c-1 45 1 88 5 96 6 17 54 11 54 -7z
m618 2 c2 -11 -7 -18 -26 -23 -18 -4 -32 -14 -35 -27 -3 -11 -10 -17 -16 -13
-20 12 -11 34 19 50 17 9 30 20 30 26 0 16 25 4 28 -13z m129 -84 l2 -99 -19
60 c-24 72 -25 89 -5 105 8 7 15 18 14 24 0 6 -7 1 -16 -11 -19 -28 -33 -29
-33 -4 0 18 22 31 45 26 6 -1 11 -45 12 -101z m-818 -20 c-1 -97 -4 -116 -18
-121 -32 -12 -171 -96 -167 -101 3 -2 46 19 97 47 50 29 92 51 93 49 13 -17
67 -120 65 -122 -9 -5 -157 -29 -189 -30 -31 -1 -38 4 -67 48 -18 26 -33 58
-33 70 0 18 118 167 138 173 4 2 20 -20 35 -48 16 -28 30 -49 33 -46 3 3 -9
30 -26 60 -19 35 -27 58 -20 62 5 3 10 11 10 17 0 7 -5 6 -15 -2 -12 -10 -16
-9 -21 4 -3 9 -10 16 -15 16 -6 0 -5 -9 1 -21 10 -17 6 -27 -23 -62 -78 -93
-95 -112 -100 -107 -3 3 -1 28 5 57 18 88 110 172 191 173 l28 0 -2 -116z
m900 105 c35 -12 35 -13 20 -41 -11 -20 -12 -19 -46 13 -24 23 -32 27 -25 13
6 -11 18 -26 26 -34 22 -17 20 -30 -11 -86 l-28 -49 -3 84 c-4 118 0 123 67
100z m-799 -29 c0 -10 -7 -23 -16 -28 -9 -5 -15 -11 -13 -13 1 -2 -6 -17 -15
-34 -18 -31 -17 -27 11 57 15 46 33 56 33 18z m654 -21 c-3 -5 -1 -9 4 -9 10
0 33 -70 26 -81 -3 -5 2 -19 11 -33 14 -22 14 -24 0 -30 -9 -3 -41 -6 -71 -6
-54 0 -54 0 -48 28 4 15 8 28 9 30 2 2 26 -8 54 -22 63 -32 67 -26 6 10 -45
26 -53 38 -36 48 5 3 7 15 4 25 -3 10 0 22 6 25 6 4 11 0 11 -8 0 -9 4 -16 8
-16 5 0 14 -12 21 -26 6 -15 14 -24 17 -21 3 3 -7 27 -22 55 -18 33 -24 56
-19 69 6 16 8 16 16 -5 5 -13 7 -28 3 -33z m-574 -21 l20 -26 -25 -16 c-13 -9
-26 -16 -29 -16 -8 0 -36 92 -30 101 7 11 37 -9 64 -43z m173 5 c43 -19 48
-33 12 -33 -37 0 -50 -41 -29 -86 12 -25 23 -34 41 -34 15 0 22 4 17 11 -3 6
26 -13 67 -43 40 -30 75 -61 77 -69 4 -11 2 -12 -9 -1 -18 17 -30 15 -23 -3 4
-8 13 -15 21 -15 12 0 14 -10 12 -44 -2 -24 0 -42 5 -39 5 3 6 0 4 -8 -3 -8
-11 -13 -17 -11 -6 1 -11 -7 -11 -18 0 -28 -21 -34 -55 -16 l-28 15 31 28 c18
15 32 32 32 38 0 15 -73 74 -134 109 -74 42 -83 52 -106 124 -16 48 -19 71
-12 86 6 12 13 29 16 40 6 17 8 17 29 2 12 -9 39 -24 60 -33z m359 41 c5 -5
-19 -92 -28 -103 -2 -2 -10 2 -19 9 -9 7 -18 10 -22 7 -3 -4 2 -9 11 -13 21
-8 20 -22 -1 -48 -17 -20 -17 -20 0 -7 18 14 23 5 9 -17 -5 -7 -15 -10 -23 -7
-10 4 -14 22 -13 60 0 49 4 59 34 90 34 35 42 40 52 29z m323 -112 c16 -49 19
-82 8 -81 -12 1 -123 136 -123 149 0 6 5 21 11 32 10 19 12 19 50 -18 21 -20
45 -58 54 -82z m-607 15 c1 -23 5 -49 8 -59 6 -21 -9 -24 -23 -5 -15 19 -13
117 2 111 6 -3 12 -24 13 -47z m-301 -13 c-19 -18 -107 -72 -107 -65 0 5 14
33 32 61 l31 50 24 -21 c12 -13 22 -23 20 -25z m793 39 c0 -5 29 -39 64 -77
58 -64 63 -72 55 -100 -5 -16 -12 -33 -17 -38 -5 -5 -45 14 -91 41 -45 27 -86
51 -92 53 -11 4 59 128 73 128 4 0 8 -3 8 -7z m-710 -28 c0 -9 7 -29 15 -46
24 -45 -5 -50 -44 -7 l-30 33 22 17 c27 22 37 22 37 3z m-62 -46 c5 -11 11
-20 15 -20 19 2 27 0 27 -7 0 -4 -35 -9 -77 -10 l-78 -2 45 29 c55 36 59 37
68 10z m952 -68 c0 -5 -12 -16 -26 -26 -16 -10 -23 -12 -18 -4 4 7 7 34 5 59
l-2 45 21 -33 c11 -18 20 -36 20 -41z m-1340 14 c0 -24 -5 -35 -14 -35 -24 0
-28 18 -10 45 21 33 24 32 24 -10z m-170 -112 c1 -135 -10 -118 117 -192 71
-41 73 -42 58 -65 -9 -13 -39 -36 -68 -52 -150 -82 -329 24 -329 196 0 96 65
187 153 215 72 22 69 27 69 -102z m85 97 c25 -10 32 -24 16 -34 -5 -3 -23 -34
-41 -68 -18 -35 -36 -67 -41 -72 -5 -6 -9 33 -9 93 l0 103 25 -6 c13 -3 36
-11 50 -16z m495 10 c0 -7 -14 -8 -37 -4 -52 9 -54 14 -5 14 23 0 42 -5 42
-10z m47 -2 c13 -22 2 -59 -31 -106 -40 -57 -63 -73 -76 -52 -15 24 -12 27 28
39 l37 11 -45 -5 -46 -4 -31 58 -31 58 36 -2 c78 -5 112 -17 128 -44 13 -22
14 -23 9 -3 -4 14 -2 22 7 22 8 0 6 4 -4 11 -10 5 -18 14 -18 19 0 14 28 12
37 -2z m62 -17 l26 -28 -19 -26 c-11 -15 -21 -48 -24 -80 -4 -46 -1 -57 23
-85 25 -29 26 -34 13 -60 -18 -35 -8 -76 27 -108 48 -44 15 -39 -56 9 -29 20
-68 85 -79 133 -8 33 -7 34 24 34 30 0 34 -4 45 -41 7 -23 15 -38 18 -35 6 6
-46 156 -54 156 -3 0 -3 -6 0 -12 20 -55 20 -58 -13 -58 -25 0 -31 3 -26 16 3
9 6 24 6 34 0 11 9 28 21 39 12 11 18 24 14 31 -3 6 8 24 25 40 29 27 30 30
11 30 -14 0 -21 6 -21 20 0 27 7 25 39 -9z m369 17 c-7 -20 -48 -23 -48 -4 0
11 9 16 26 16 16 0 24 -5 22 -12z m582 -95 c0 -96 -1 -105 -15 -87 -8 10 -15
22 -15 26 0 4 -16 33 -35 65 -19 32 -35 63 -35 70 0 10 52 29 88 32 9 1 12
-26 12 -106z m108 75 c122 -57 156 -238 64 -340 -19 -22 -54 -49 -76 -61 -79
-40 -196 -17 -260 51 -27 29 -28 32 -10 39 10 4 56 29 102 56 l82 48 0 120 0
119 28 -6 c15 -3 47 -15 70 -26z m-550 13 c11 -6 7 -19 -18 -60 -31 -50 -32
-51 -73 -46 l-42 5 37 -13 c31 -10 35 -15 27 -30 -13 -23 -31 -22 -56 6 -26
29 -34 62 -22 96 8 23 19 30 57 38 63 14 75 14 90 4z m132 -42 c50 -27 90 -54
90 -58 0 -4 -11 -18 -25 -31 l-25 -23 -87 17 c-136 27 -126 20 -92 73 16 26
29 53 29 60 0 21 15 16 110 -38z m-1160 -15 l32 -37 -77 -44 c-42 -25 -75 -47
-72 -49 2 -3 37 14 77 37 57 32 74 38 81 27 22 -34 10 -45 -63 -58 -40 -7 -67
-15 -61 -17 7 -3 36 0 63 6 67 15 80 14 80 -4 0 -12 -14 -15 -69 -15 -37 0
-82 5 -99 11 l-32 11 60 67 c33 37 60 72 60 77 0 5 -23 -16 -51 -46 l-50 -55
37 63 c20 34 40 62 44 62 4 0 22 -16 40 -36z m827 22 c-3 -8 5 -35 18 -60 13
-25 27 -61 31 -81 6 -33 5 -35 -22 -36 l-29 -2 27 -4 c25 -4 27 -7 21 -36 -6
-38 -45 -108 -69 -128 -16 -12 -17 -12 -11 4 4 10 3 27 -3 37 -7 13 -5 27 5
47 8 15 15 35 14 43 0 8 -7 -2 -16 -22 -15 -39 -33 -42 -33 -8 0 11 13 29 29
41 24 18 31 32 37 75 5 44 3 58 -15 82 -25 35 -27 54 -6 46 8 -4 15 -1 15 5 0
6 3 11 6 11 3 0 4 -7 1 -14z m50 7 c-2 -5 -7 -17 -11 -28 -6 -16 -9 -17 -16
-5 -16 24 -11 40 11 40 11 0 18 -3 16 -7z m508 -45 c35 -61 42 -81 21 -54 -8
10 -29 34 -46 52 -27 30 -33 54 -12 54 4 0 21 -24 37 -52z m55 -117 c0 -9 -8
-12 -27 -7 -16 3 -59 11 -96 17 -65 12 -68 13 -62 36 3 14 17 43 31 65 l26 40
63 -68 c35 -38 64 -75 65 -83z m-846 112 c7 3 19 1 27 -5 11 -8 10 -9 -3 -4
-22 7 -24 -12 -2 -21 13 -5 11 -10 -11 -27 -36 -29 -27 -45 55 -106 63 -46 78
-67 95 -127 7 -24 -11 -56 -33 -61 -10 -2 -11 4 -6 20 4 13 7 28 8 34 1 13
-81 84 -98 84 -7 0 -30 18 -51 40 -36 37 -40 46 -40 93 0 36 6 62 20 82 16 25
20 27 23 12 2 -10 9 -16 16 -14z m74 -81 c2 -32 -1 -52 -7 -52 -6 0 -11 5 -11
10 0 6 -8 10 -17 11 -11 0 -13 3 -5 6 7 2 12 22 12 45 0 60 24 43 28 -20z
m-334 13 c17 -25 16 -26 -18 -40 -20 -8 -54 -15 -76 -15 -44 0 -126 30 -100
37 8 2 51 12 95 22 44 10 81 19 81 20 1 0 9 -10 18 -24z m771 -3 l79 -18 -42
-17 c-49 -20 -105 -22 -151 -6 -33 12 -39 27 -19 47 16 16 38 15 133 -6z
m-693 -31 c-4 -27 -7 -29 -50 -29 -43 0 -45 1 -22 11 14 7 34 20 44 29 27 25
33 23 28 -11z m518 -2 c0 -7 -30 -69 -34 -69 -1 0 -3 22 -4 50 -1 47 0 49 19
37 10 -6 19 -15 19 -18z m-798 -9 l33 -21 -45 3 c-33 2 -46 7 -48 21 -5 23 20
22 60 -3z m1098 0 c0 -17 -7 -20 -47 -20 l-48 0 30 19 c40 26 65 26 65 1z
m125 -6 c66 -10 54 -15 -30 -12 -56 2 -80 7 -83 17 -4 11 4 13 34 8 22 -4 57
-9 79 -13z m94 -27 c-12 -9 -169 -97 -173 -97 -5 0 -17 29 -26 67 l-8 32 102
3 c96 3 115 2 105 -5z m-1395 -24 c-14 -59 -24 -76 -37 -65 -6 6 -46 28 -87
51 l-75 41 103 0 102 0 -6 -27z m1182 -15 c6 -24 14 -51 19 -60 4 -10 3 -18
-3 -18 -5 0 -94 -49 -198 -109 l-188 -109 -38 41 c-20 23 -37 46 -38 51 0 4
30 61 68 127 l67 118 150 1 150 0 11 -42z m-632 -71 c-4 -13 12 -35 59 -80
l65 -62 -8 -48 c-9 -62 -20 -72 -18 -17 1 40 -2 46 -54 94 -75 69 -106 125
-82 149 12 12 44 -18 38 -36z m71 -35 c2 -29 -19 -22 -23 7 -3 15 1 22 9 19 7
-2 13 -14 14 -26z m-116 -87 c-17 -7 -25 -5 -40 14 -29 36 -23 41 21 18 37
-21 38 -23 19 -32z m234 20 c-9 -19 -20 -35 -25 -35 -4 0 -8 -7 -8 -16 0 -8 5
-12 10 -9 6 4 27 -11 46 -32 26 -28 32 -40 22 -46 -7 -4 -37 -22 -66 -38 -30
-17 -51 -33 -48 -36 3 -3 33 11 66 31 34 20 63 36 65 36 1 0 8 -21 14 -47 46
-183 -145 -339 -314 -256 -95 47 -147 153 -123 253 6 25 12 47 14 48 1 2 40
-16 86 -41 46 -25 89 -43 96 -40 8 3 12 -8 12 -36 0 -30 4 -41 15 -41 13 0 22
38 16 73 0 4 8 7 19 7 23 0 26 10 8 28 -9 9 -5 19 20 45 25 26 33 43 35 80 1
26 -1 47 -6 47 -13 0 36 59 50 59 9 1 8 -9 -4 -34z m-168 -24 c6 -10 -29 -34
-37 -26 -2 2 -5 -14 -6 -36 -2 -27 4 -49 17 -68 18 -25 19 -30 6 -41 -12 -10
-24 -6 -62 17 -27 16 -56 32 -65 36 -25 9 -23 19 13 55 38 39 43 39 58 6 6
-15 14 -24 17 -21 3 3 -2 17 -11 31 -17 25 -16 25 17 40 41 18 45 18 53 7z
m36 -51 c2 -34 2 -37 13 -69 9 -26 -3 -44 -25 -36 -23 9 -52 70 -44 94 8 27
25 27 25 1 0 -11 -5 -20 -11 -20 -16 0 -5 -25 12 -25 8 -1 13 -6 12 -12 -1 -6
4 -17 12 -23 19 -16 19 1 0 26 -16 21 -20 94 -5 94 6 0 11 -13 11 -30z"/>
        <path d="M1525 3690 c-4 -16 -18 -39 -32 -50 -18 -14 -21 -20 -10 -20 9 0 26
15 38 33 13 17 27 34 31 35 14 6 9 32 -6 32 -8 0 -17 -13 -21 -30z"/>
        <path d="M1825 3675 c20 -53 17 -72 -15 -109 -18 -20 -28 -36 -22 -36 13 0 59
54 67 80 4 13 -1 32 -15 53 -12 18 -19 23 -15 12z"/>
        <path d="M1890 3667 c0 -8 97 -37 122 -36 13 0 1 7 -27 14 -27 8 -60 17 -72
21 -13 3 -23 4 -23 1z"/>
        <path d="M1040 3671 c-36 -11 -88 -39 -95 -51 -4 -6 11 -1 33 10 49 26 112 37
112 21 0 -16 29 -85 34 -80 2 2 -1 27 -8 54 -14 53 -27 61 -76 46z"/>
        <path d="M855 3495 c-44 -25 -84 -46 -90 -48 -5 -3 -7 -7 -4 -11 6 -7 163 74
184 95 20 19 -12 7 -90 -36z"/>
        <path d="M944 3219 c-22 -17 -59 -43 -83 -57 -24 -14 -39 -28 -32 -30 14 -5
147 84 155 104 8 20 4 18 -40 -17z"/>
        <path d="M790 3284 c-19 -14 -66 -41 -105 -61 -78 -40 -80 -41 -73 -48 9 -10
209 102 223 125 10 17 -8 10 -45 -16z"/>
        <path d="M1026 2820 c7 -39 21 -80 28 -80 4 0 -19 84 -29 105 -3 6 -2 -6 1
-25z"/>
        <path d="M1610 2488 c0 -7 9 -31 20 -53 16 -31 19 -34 15 -13 -10 54 -36 102
-35 66z"/>
        <path d="M1140 2097 c35 -23 70 -40 70 -33 0 6 -87 56 -97 56 -4 0 8 -10 27
-23z"/>
        <path d="M1130 1636 c0 -7 116 -76 126 -76 5 0 0 8 -11 16 -24 19 -115 66
-115 60z"/>
        <path d="M1787 1603 c-32 -19 -57 -37 -54 -39 5 -6 73 30 107 56 40 31 10 22
-53 -17z"/>
        <path d="M2126 1531 c13 -13 144 -84 144 -78 0 6 -136 87 -146 87 -5 0 -4 -4
2 -9z"/>
        <path d="M300 785 c0 -10 10 -15 29 -15 26 0 29 -3 35 -46 8 -60 8 -190 -1
-288 -6 -75 -7 -77 -35 -83 -59 -12 -19 -24 85 -26 80 -1 107 1 107 11 0 6 -8
12 -18 12 -39 0 -42 17 -42 216 0 212 -1 208 65 197 72 -12 99 -93 49 -152
-18 -22 -35 -31 -55 -31 -16 0 -29 -3 -29 -6 0 -3 13 -25 30 -48 16 -24 51
-79 77 -122 l48 -79 63 0 c34 0 62 4 62 8 0 5 -12 18 -26 29 -14 11 -54 64
-89 116 l-64 96 28 12 c91 38 105 173 20 203 -18 6 -99 11 -185 11 -130 0
-154 -2 -154 -15z"/>
        <path d="M2478 752 c-37 -17 -38 -18 -38 -74 0 -48 -3 -58 -20 -63 -11 -3 -20
-12 -20 -20 0 -8 7 -11 20 -8 19 5 20 0 20 -108 0 -63 4 -119 8 -125 24 -36
99 -45 127 -14 21 23 37 26 29 6 -7 -19 84 -40 134 -31 77 14 117 56 115 121
-1 49 -26 71 -92 85 -71 14 -91 25 -91 49 0 28 27 50 61 50 44 0 69 -17 69
-45 0 -16 6 -25 15 -25 22 0 21 86 -1 94 -27 11 -128 6 -154 -7 -14 -7 -33
-29 -43 -50 -27 -54 -10 -99 44 -121 22 -9 48 -16 58 -16 10 0 29 -8 41 -18
18 -14 21 -25 17 -44 -16 -62 -128 -53 -140 11 -8 37 -27 41 -27 6 0 -22 -4
-25 -33 -25 -51 0 -57 13 -57 117 l0 93 40 0 c33 0 40 3 40 20 0 17 -7 20 -41
20 l-40 0 7 70 c4 39 3 70 -2 69 -5 0 -26 -8 -46 -17z"/>
        <path d="M856 627 c-55 -31 -76 -64 -83 -128 -10 -104 37 -169 135 -185 63
-10 142 24 142 61 0 11 -7 11 -39 -2 -22 -9 -51 -13 -65 -9 -38 9 -75 47 -82
84 l-6 32 54 0 c31 0 76 3 102 6 44 7 46 8 46 41 0 103 -107 156 -204 100z
m88 -20 c17 -13 38 -81 28 -91 -9 -9 -110 -7 -116 2 -9 15 14 81 32 91 23 14
35 13 56 -2z"/>
        <path d="M1220 643 c-39 -14 -108 -66 -118 -88 -16 -34 -15 -144 1 -174 17
-34 56 -61 98 -67 30 -5 41 -1 71 25 20 17 39 31 42 31 4 0 5 -44 4 -97 l-3
-98 -27 -3 c-16 -2 -28 -9 -28 -15 0 -8 30 -12 100 -12 73 0 100 3 100 13 0 6
-11 12 -24 12 -23 0 -25 4 -32 88 -7 88 1 348 12 376 8 20 -19 21 -35 2 -11
-13 -17 -13 -46 0 -34 14 -87 17 -115 7z m70 -48 c30 -15 30 -17 30 -99 0 -67
-3 -86 -17 -98 -66 -56 -133 -4 -133 102 0 92 50 131 120 95z"/>
        <path d="M1498 632 c-61 -17 -73 -28 -35 -34 21 -3 22 -8 27 -121 5 -110 7
-120 29 -138 15 -12 39 -19 69 -19 38 0 52 5 79 32 l33 32 0 -30 0 -29 65 0
c43 0 65 4 65 12 0 6 -10 13 -22 15 -23 3 -23 5 -23 151 l1 148 -26 -7 c-14
-4 -43 -10 -64 -13 -46 -7 -58 -26 -21 -35 24 -6 25 -9 25 -91 0 -96 -16 -125
-69 -125 -49 0 -56 20 -54 151 1 87 -1 119 -10 118 -7 -1 -38 -9 -69 -17z"/>
        <path d="M1907 620 c-58 -37 -70 -64 -65 -158 3 -70 5 -76 40 -107 63 -58 188
-56 227 4 16 24 16 24 -14 16 -60 -18 -104 -11 -135 20 -16 17 -32 42 -35 56
l-6 26 97 6 c53 3 101 10 106 15 5 5 5 26 -1 53 -22 98 -119 130 -214 69z
m109 -25 c17 -17 24 -34 22 -53 -3 -25 -6 -27 -60 -30 l-58 -3 0 31 c0 31 37
80 60 80 6 0 22 -11 36 -25z"/>
        <path d="M2198 634 c-35 -19 -48 -43 -48 -92 0 -46 21 -69 76 -83 79 -21 94
-30 94 -59 0 -34 -19 -51 -60 -52 -47 -2 -80 20 -80 54 0 18 -5 28 -15 28 -10
0 -15 -10 -15 -34 0 -19 -3 -41 -6 -49 -7 -20 83 -42 134 -32 76 14 116 55
116 120 0 41 -26 72 -68 80 -83 17 -105 26 -111 46 -9 28 21 59 57 59 43 0 68
-17 68 -45 0 -16 6 -25 15 -25 22 0 21 86 -1 94 -29 11 -129 5 -156 -10z"/>
        <path d="M1565 253 c-4 -16 -10 -45 -15 -65 -4 -21 -4 -38 0 -38 5 0 12 15 15
33 7 30 20 46 38 47 4 0 4 -18 1 -40 -4 -22 -3 -40 2 -40 5 0 10 21 12 46 3
45 2 46 -21 40 -21 -5 -24 -3 -19 19 2 14 2 25 -2 25 -3 0 -8 -12 -11 -27z"/>
        <path d="M1961 253 c-39 -48 -43 -128 -7 -128 31 0 43 30 22 54 -19 21 -19 21
5 22 21 1 21 2 -5 8 l-29 6 26 30 c21 24 26 26 27 12 0 -21 20 -13 20 9 0 23
-37 16 -59 -13z m10 -84 c8 -16 8 -24 0 -32 -14 -14 -31 6 -31 36 0 23 17 22
31 -4z"/>
        <path d="M2252 232 c-15 -68 -14 -99 2 -47 7 23 20 41 30 43 14 3 16 -2 10
-37 -6 -39 5 -56 21 -31 3 6 2 10 -2 10 -5 0 -7 18 -5 41 4 38 3 41 -16 35
-16 -5 -21 -2 -24 16 -3 16 -8 6 -16 -30z"/>
        <path d="M1666 255 c-5 -11 -10 -37 -12 -58 -4 -42 12 -56 43 -38 17 10 17 11
-2 8 -22 -2 -25 2 -25 38 0 19 5 25 23 26 15 1 17 3 5 6 -9 2 -18 12 -20 21
-3 15 -5 14 -12 -3z"/>
        <path d="M1738 250 c-10 -11 -14 -20 -9 -20 5 0 7 -18 4 -40 -5 -36 -3 -40 15
-40 11 0 23 4 26 9 3 5 -2 8 -12 7 -9 0 -17 5 -16 12 1 6 2 21 3 32 0 13 9 20
24 21 15 1 17 3 5 6 -9 2 -18 11 -20 19 -2 12 -7 11 -20 -6z"/>
        <path d="M2114 215 l-11 -35 24 26 c29 31 37 27 23 -10 -12 -32 -6 -46 18 -46
14 0 15 2 3 9 -12 8 -13 16 -4 46 11 34 10 37 -8 32 -10 -3 -19 -1 -19 4 0 22
-16 6 -26 -26z"/>
        <path d="M2349 248 c-15 -75 -4 -113 25 -88 11 8 15 8 19 -2 4 -10 7 -11 18 0
9 9 10 12 1 12 -8 0 -11 13 -7 43 l5 42 -14 -40 c-16 -48 -51 -64 -41 -18 4
15 8 34 11 41 2 6 -1 12 -6 12 -6 0 -10 -1 -11 -2z"/>
        <path d="M2445 240 c-1 -3 -6 -25 -10 -50 -5 -31 -4 -42 3 -35 6 6 12 23 14
39 2 16 9 31 16 34 6 2 10 -2 8 -10 -13 -41 -16 -69 -6 -63 5 3 10 19 10 35 0
16 5 32 11 35 17 11 19 1 10 -33 -5 -17 -6 -34 -2 -37 7 -4 21 48 21 81 0 10
-69 14 -75 4z"/>
        <path d="M2551 231 c-22 -22 -28 -66 -10 -77 6 -3 16 -1 22 5 7 7 14 7 24 0 7
-7 13 -10 14 -8 0 2 1 24 2 49 2 52 -19 64 -52 31z m39 -20 c0 -25 -27 -48
-41 -34 -8 8 -7 17 0 32 14 26 41 28 41 2z"/>
        <path d="M2635 203 c-7 -50 1 -71 10 -27 11 49 14 54 31 54 13 0 15 -7 9 -40
-6 -38 5 -55 20 -30 3 6 2 10 -4 10 -6 0 -6 11 0 32 10 37 7 42 -31 44 -26 1
-29 -2 -35 -43z"/>
        <path d="M2753 233 c-4 -10 -14 -23 -22 -30 -10 -8 -11 -12 -4 -13 6 0 15 5
18 10 5 8 11 7 21 -1 21 -17 17 -29 -11 -29 -14 0 -25 -4 -25 -10 0 -11 20
-13 44 -4 18 7 22 39 6 49 -6 4 -8 15 -5 26 8 24 -13 26 -22 2z"/>
        <path d="M1795 183 c-4 -30 -4 -57 -1 -61 3 -3 6 2 6 11 0 10 8 17 18 17 26 0
52 32 52 63 0 24 -4 26 -34 25 -34 -1 -34 -2 -41 -55z m60 37 c8 -12 -21 -60
-35 -60 -14 0 -12 44 2 58 15 15 25 15 33 2z"/>
        <path d="M2031 226 c-18 -21 -10 -70 12 -74 28 -5 47 17 47 54 0 29 -3 34 -24
34 -13 0 -29 -6 -35 -14z m47 -22 c2 -11 -4 -27 -13 -34 -22 -18 -39 1 -31 35
8 32 39 31 44 -1z"/>
    </g>
</svg>
