<?xml version="1.0" encoding="UTF-8" standalone="no"?>
<svg
   width="326.81589"
   height="91.802216"
   viewBox="0 0 326.81589 91.802216"
   fill="none"
   xmlns="http://www.w3.org/2000/svg">
  <path
     d="M 0,14.688355 C 0,6.5762187 6.5762187,0 14.688355,0 H 312.12753 c 8.1122,0 14.68836,6.5762187 14.68836,14.688355 v 62.425506 c 0,8.112196 -6.57616,14.688355 -14.68836,14.688355 H 14.688355 C 6.5762187,91.802216 0,85.226057 0,77.113861 Z"
     fill="#ffdd00"
     style="stroke-width:0.600015" />
  <path
     d="m 65.714786,30.191409 -0.0402,-0.0237 -0.0936,-0.0285 c 0.0378,0.03168 0.0846,0.05004 0.133803,0.0522 z"
     fill="#0d0c22"
     style="stroke-width:0.600015" />
  <path
     d="m 66.3058,34.38887 -0.045,0.0126 z"
     fill="#0d0c22"
     style="stroke-width:0.600015" />
  <path
     d="m 65.730986,30.184448 c -0.0054,-6.6e-4 -0.0102,-0.0019 -0.015,-0.0035 -6e-4,0.0033 -6e-4,0.0066 0,0.0099 0.0054,-7.2e-4 0.0102,-0.0029 0.015,-0.0064 z"
     fill="#0d0c22"
     style="stroke-width:0.600015" />
  <path
     d="m 65.715386,30.193029 h 0.0078 v -0.0047 z"
     fill="#0d0c22"
     style="stroke-width:0.600015" />
  <path
     d="m 66.269799,34.38119 0.0678,-0.0387 0.0252,-0.01428 0.0228,-0.02448 c -0.0426,0.0186 -0.0822,0.04482 -0.115803,0.07746 z"
     fill="#0d0c22"
     style="stroke-width:0.600015" />
  <path
     d="m 65.830589,30.283511 -0.0666,-0.06324 -0.045,-0.02448 c 0.0246,0.04272 0.0642,0.07422 0.111603,0.08772 z"
     fill="#0d0c22"
     style="stroke-width:0.600015" />
  <path
     d="m 49.129246,71.013514 c -0.0531,0.0228 -0.09954,0.0588 -0.135184,0.104402 l 0.04188,-0.027 c 0.02844,-0.0258 0.06876,-0.057 0.0933,-0.0774 z"
     fill="#0d0c22"
     style="stroke-width:0.600015" />
  <path
     d="m 58.82878,69.105468 c 0,-0.06 -0.02928,-0.0492 -0.02214,0.164404 0,-0.0174 0.0071,-0.0348 0.01026,-0.0516 0.004,-0.0378 0.0071,-0.075 0.01188,-0.112803 z"
     fill="#0d0c22"
     style="stroke-width:0.600015" />
  <path
     d="m 57.827056,71.013514 c -0.05304,0.0228 -0.09948,0.0588 -0.135124,0.104402 l 0.04188,-0.027 c 0.02844,-0.0258 0.06876,-0.057 0.09324,-0.0774 z"
     fill="#0d0c22"
     style="stroke-width:0.600015" />
  <path
     d="m 42.294181,71.467725 c -0.04026,-0.0348 -0.08958,-0.0582 -0.142264,-0.0666 0.04266,0.021 0.08532,0.0414 0.113823,0.057 z"
     fill="#0d0c22"
     style="stroke-width:0.600015" />
  <path
     d="m 40.759224,69.995889 c -0.0062,-0.0624 -0.02538,-0.122403 -0.0561,-0.177004 0.02178,0.0564 0.03996,0.114603 0.05454,0.174004 z"
     fill="#0d0c22"
     style="stroke-width:0.600015" />
  <path
     d="m 51.083313,43.665274 c -2.110431,0.903442 -4.505389,1.927786 -7.609324,1.927786 -1.298491,-0.0026 -2.590622,-0.180724 -3.841412,-0.529572 l 2.146791,22.040932 c 0.07596,0.921022 0.495672,1.780243 1.175669,2.406058 0.679996,0.626415 1.570598,0.973823 2.49498,0.973223 0,0 3.043873,0.158404 4.059578,0.158404 1.093106,0 4.370985,-0.158404 4.370985,-0.158404 0.924203,0 1.814624,-0.347408 2.494501,-0.973223 0.679816,-0.626415 1.099406,-1.485036 1.175368,-2.406058 l 2.299315,-24.356028 c -1.027524,-0.350949 -2.064529,-0.584114 -3.233598,-0.584114 -2.021868,-7.8e-4 -3.650908,0.695536 -5.532853,1.500996 z"
     fill="#ffffff"
     style="stroke-width:0.600015" />
  <path
     d="m 32.991436,34.262087 0.03636,0.03396 0.0237,0.01422 c -0.01824,-0.01812 -0.0384,-0.03432 -0.06006,-0.04818 z"
     fill="#0d0c22"
     style="stroke-width:0.600015" />
  <path
     d="m 69.781084,32.227918 -0.322808,-1.6306 C 69.167869,29.134243 68.509653,27.75181 67.007817,27.223017 66.526606,27.053873 65.979992,26.981151 65.610984,26.631043 65.241975,26.280874 65.132772,25.737081 65.04757,25.232769 64.889766,24.307187 64.740963,23.380824 64.578959,22.456862 64.439155,21.662503 64.328153,20.770101 63.963944,20.041384 63.489932,19.06282 62.505909,18.490586 61.527285,18.111977 61.025673,17.924773 60.51386,17.766429 59.994488,17.637726 57.549729,16.99271 54.979327,16.755584 52.464186,16.620461 49.445393,16.453897 46.4185,16.504058 43.406848,16.770645 c -2.241594,0.203885 -4.602531,0.450551 -6.732703,1.225889 -0.778579,0.283807 -1.580798,0.624435 -2.172832,1.22595 -0.726378,0.739038 -0.963504,1.882005 -0.433151,2.803568 0.377049,0.654495 1.015705,1.116867 1.693061,1.422754 0.882321,0.394149 1.803764,0.694037 2.749026,0.894742 2.632084,0.581774 5.35825,0.810199 8.047215,0.907401 2.980332,0.120303 5.965524,0.0228 8.931635,-0.291667 0.733518,-0.08058 1.465716,-0.177304 2.196593,-0.290047 0.860721,-0.132003 1.413214,-1.25757 1.159528,-2.041669 -0.303547,-0.937403 -1.119207,-1.301011 -2.041669,-1.159528 -0.135903,0.02136 -0.271087,0.0411 -0.40705,0.0609 l -0.09798,0.01422 c -0.312488,0.03948 -0.624975,0.07638 -0.937463,0.110643 -0.645495,0.06954 -1.292551,0.126483 -1.941227,0.170704 -1.452755,0.101162 -2.90953,0.147843 -4.365465,0.150183 -1.430615,0 -2.862069,-0.04032 -4.289564,-0.134343 -0.651315,-0.04272 -1.301011,-0.09696 -1.949147,-0.162844 -0.294847,-0.03084 -0.588854,-0.06324 -0.882921,-0.0996 l -0.279787,-0.03558 -0.06084,-0.0086 -0.290107,-0.04194 c -0.592814,-0.08928 -1.185629,-0.192065 -1.772083,-0.316148 -0.05916,-0.01314 -0.112143,-0.04602 -0.150064,-0.0933 -0.03792,-0.04728 -0.05862,-0.106143 -0.05862,-0.166744 0,-0.0606 0.0207,-0.119403 0.05862,-0.166684 0.03792,-0.04728 0.0909,-0.08022 0.150064,-0.09336 h 0.01104 c 0.508273,-0.108303 1.020445,-0.200765 1.534177,-0.281407 0.171304,-0.02682 0.343089,-0.05322 0.515353,-0.07902 h 0.0047 c 0.321728,-0.02136 0.645015,-0.07902 0.965123,-0.117003 2.785147,-0.289687 5.586855,-0.388449 8.385503,-0.295567 1.358672,0.03948 2.716625,0.119343 4.068998,0.256866 0.290887,0.03006 0.580214,0.06168 0.869481,0.0972 0.110642,0.01344 0.222125,0.02928 0.333548,0.04272 l 0.224465,0.0324 c 0.654496,0.09744 1.305512,0.215765 1.953107,0.354909 0.959604,0.208625 2.191613,0.276606 2.618824,1.327892 0.135603,0.333548 0.197404,0.704237 0.272406,1.054405 l 0.096,0.446531 c 0.0024,0.008 0.0042,0.01626 0.0054,0.02454 0.226205,1.053865 0.452411,2.107731 0.678616,3.161656 0.0168,0.07782 0.0174,0.158284 0.0012,0.236286 -0.0156,0.078 -0.0474,0.151923 -0.093,0.217085 -0.0456,0.06522 -0.104403,0.120303 -0.172204,0.161824 -0.0678,0.04152 -0.144004,0.06858 -0.222606,0.07956 h -0.0066 l -0.138003,0.01896 -0.136804,0.01818 c -0.43321,0.0564 -0.86702,0.109082 -1.301071,0.158103 -0.855201,0.09744 -1.711721,0.181805 -2.569622,0.252907 -1.704641,0.141783 -3.412702,0.234785 -5.124244,0.279006 -0.872061,0.02322 -1.743882,0.03402 -2.615463,0.0324 -3.469104,-0.0027 -6.935207,-0.204305 -10.38127,-0.603855 -0.373089,-0.04428 -0.746118,-0.09168 -1.119207,-0.139923 0.289267,0.0372 -0.210245,-0.02844 -0.311408,-0.04266 -0.237126,-0.03318 -0.474251,-0.06768 -0.711377,-0.103562 -0.795979,-0.119343 -1.587158,-0.266347 -2.381518,-0.39517 -0.960383,-0.158104 -1.878825,-0.07902 -2.747466,0.39517 -0.713057,0.390189 -1.290151,0.988583 -1.65436,1.715201 -0.374649,0.774619 -0.486071,1.617999 -0.653656,2.450279 -0.167584,0.83234 -0.42841,1.727862 -0.329587,2.582282 0.212585,1.844025 1.501776,3.342681 3.356061,3.677789 1.744422,0.316148 3.498384,0.572294 5.257026,0.790399 6.908447,0.846141 13.887816,0.947363 20.817863,0.301988 0.564373,-0.05274 1.127967,-0.110163 1.690481,-0.172325 0.175804,-0.01932 0.354008,9e-4 0.520812,0.05928 0.166804,0.05832 0.318608,0.153244 0.444011,0.277807 0.125403,0.124623 0.222005,0.275706 0.281407,0.44221 0.0594,0.166504 0.081,0.344229 0.063,0.520153 l -0.175804,1.705661 c -0.353409,3.446723 -0.706817,6.893206 -1.060226,10.339389 -0.369009,3.619048 -0.740357,7.237855 -1.113926,10.856062 -0.105423,1.019425 -0.210786,2.03825 -0.316208,3.057074 -0.101163,1.002624 -0.115383,2.037649 -0.305887,3.028873 -0.300308,1.558238 -1.355553,2.515861 -2.89525,2.86567 -1.410634,0.321007 -2.851629,0.489611 -4.298264,0.502812 -1.603719,0.0084 -3.206718,-0.0624 -4.810436,-0.054 -1.712022,0.0096 -3.809012,-0.148203 -5.130604,-1.422634 -1.161088,-1.119027 -1.321532,-2.871669 -1.479636,-4.386706 -0.210785,-2.005848 -0.41971,-4.011697 -0.626775,-6.017545 L 38.454148,49.213908 37.70245,41.998194 c -0.0126,-0.119343 -0.02526,-0.237126 -0.03714,-0.357249 -0.09006,-0.860721 -0.699497,-1.703321 -1.65982,-1.65988 -0.82208,0.03636 -1.756302,0.735078 -1.65988,1.65988 l 0.557233,5.349489 1.152388,11.065827 c 0.328328,3.143416 0.655816,6.286892 0.982524,9.430968 0.06324,0.602414 0.122523,1.206629 0.188884,1.808443 0.361209,3.29168 2.87473,5.065323 5.987365,5.564535 1.817984,0.292807 3.680189,0.352808 5.524993,0.382809 2.364897,0.0378 4.753555,0.129003 7.079751,-0.299407 3.446963,-0.632416 6.033146,-2.934071 6.402155,-6.504757 0.105602,-1.030225 0.211205,-2.06165 0.316207,-3.092475 0.350409,-3.410482 0.700217,-6.821145 1.050026,-10.232047 l 1.142427,-11.144849 0.524413,-5.107623 c 0.0258,-0.253266 0.133203,-0.491412 0.304807,-0.679156 0.172204,-0.187745 0.40021,-0.315188 0.649816,-0.363369 0.985824,-0.192125 1.927846,-0.520093 2.629263,-1.270231 1.116027,-1.194329 1.338033,-2.751426 0.943222,-4.321184 z m -37.077175,1.101866 c 0.015,-0.0071 -0.01266,0.121683 -0.02448,0.181805 -0.0024,-0.0909 0.0023,-0.171544 0.02448,-0.181805 z m 0.09564,0.739818 c 0.0079,-0.0055 0.03162,0.0261 0.0561,0.06402 -0.03714,-0.0348 -0.06084,-0.06084 -0.05688,-0.06402 z m 0.09408,0.124083 c 0.03396,0.05772 0.05214,0.09408 0,0 z m 0.188884,0.153364 h 0.0047 c 0,0.0055 0.0087,0.01104 0.01188,0.01656 -0.0053,-0.0061 -0.0111,-0.01164 -0.0174,-0.01656 z m 33.080479,-0.229266 c -0.354009,0.336729 -0.888022,0.493272 -1.414834,0.571514 -5.912423,0.877341 -11.910888,1.321532 -17.887992,1.125507 -4.277683,-0.146223 -8.510365,-0.621255 -12.745388,-1.219589 -0.41497,-0.0585 -0.864681,-0.134343 -1.150047,-0.440231 -0.537493,-0.577034 -0.273487,-1.738962 -0.133564,-2.436058 0.128043,-0.638656 0.373089,-1.489956 1.132648,-1.580859 1.185628,-0.139083 2.562542,0.361209 3.73551,0.539053 1.412194,0.215526 2.829668,0.38809 4.252422,0.517753 6.071907,0.553273 12.245816,0.467111 18.290902,-0.342248 1.101627,-0.148084 2.199653,-0.320108 3.293479,-0.516133 0.975024,-0.174724 2.05505,-0.502692 2.644264,0.506652 0.40381,0.687617 0.457211,1.607679 0.39481,2.384638 -0.0192,0.338528 -0.166804,0.656956 -0.41341,0.890001 z"
     fill="#0d0c22"
     style="stroke-width:0.600015" />
  <path
     fill-rule="evenodd"
     clip-rule="evenodd"
     d="m 102.02406,50.54504 c -0.34501,0.658876 -0.81962,1.23273 -1.42383,1.719641 -0.604217,0.487272 -1.308634,0.884002 -2.114453,1.189469 -0.80522,0.306187 -1.615839,0.511632 -2.430659,0.616335 -0.815419,0.105123 -1.606839,0.096 -2.373057,-0.02874 -0.767419,-0.123963 -1.420234,-0.377049 -1.956647,-0.759618 l 0.604814,-6.277172 c 0.555614,-0.190864 1.255231,-0.386889 2.099451,-0.587594 0.84362,-0.200405 1.711241,-0.344048 2.603463,-0.42985 0.892221,-0.08616 1.735242,-0.07602 2.531461,0.02874 0.795617,0.105062 1.423837,0.358148 1.884047,0.759618 0.2496,0.229085 0.46081,0.477491 0.63301,0.745098 0.17281,0.267666 0.27781,0.544753 0.31681,0.83132 0.0954,0.802519 -0.0288,1.533457 -0.37441,2.192753 z M 93.250051,37.173597 c 0.402609,-0.248346 0.887421,-0.468371 1.452635,-0.659656 0.565813,-0.190504 1.146027,-0.324728 1.740642,-0.401049 0.594014,-0.07602 1.174228,-0.08622 1.740642,-0.02874 0.565213,0.05742 1.064425,0.214925 1.495836,0.472751 0.431414,0.258187 0.752414,0.630916 0.963624,1.117827 0.2106,0.487632 0.26821,1.103967 0.1722,1.849065 -0.0762,0.592394 -0.312,1.094186 -0.70441,1.504776 -0.393013,0.41125 -0.873025,0.754878 -1.438239,1.032025 -0.565813,0.277447 -1.165228,0.497052 -1.797643,0.658876 -0.633615,0.162904 -1.24263,0.282547 -1.827044,0.358569 -0.585014,0.07674 -1.093226,0.124743 -1.524637,0.143283 -0.43141,0.01926 -0.714617,0.02868 -0.84902,0.02868 z m 11.880889,9.315405 c -0.30661,-0.668416 -0.71882,-1.25607 -1.23663,-1.762963 -0.51782,-0.506172 -1.13223,-0.873801 -1.84145,-1.103246 0.30661,-0.248406 0.60902,-0.640036 0.90662,-1.175309 0.29701,-0.534552 0.55082,-1.117827 0.76202,-1.748382 0.21061,-0.630915 0.35521,-1.26585 0.43141,-1.906186 0.0762,-0.640035 0.0474,-1.189468 -0.0858,-1.64842 -0.32701,-1.146147 -0.83942,-2.044369 -1.53964,-2.694185 -0.70021,-0.649455 -1.51503,-1.098566 -2.44505,-1.347272 -0.930627,-0.247626 -1.956052,-0.300727 -3.078079,-0.157444 -1.122027,0.143224 -2.268055,0.42505 -3.437483,0.845421 0,-0.09528 0.0096,-0.195605 0.0288,-0.300728 0.0186,-0.104702 0.0282,-0.214925 0.0282,-0.329828 0,-0.286507 -0.143404,-0.534553 -0.431411,-0.745098 -0.287407,-0.210185 -0.618015,-0.334148 -0.991824,-0.372729 -0.374409,-0.0378 -0.738618,0.0429 -1.093826,0.243666 -0.354609,0.200705 -0.599415,0.569114 -0.733218,1.103247 -0.153604,1.720061 -0.307207,3.506964 -0.460211,5.360109 -0.153604,1.853805 -0.316808,3.72657 -0.489012,5.618596 -0.172804,1.891605 -0.345608,3.769111 -0.517812,5.632036 -0.172804,1.863285 -0.345609,3.654568 -0.517813,5.374209 0.0576,0.516013 0.201005,0.917483 0.431411,1.20405 0.229805,0.286866 0.498612,0.458891 0.805219,0.516012 0.306607,0.05742 0.628215,0.0043 0.963623,-0.157864 0.335408,-0.161824 0.628216,-0.444371 0.877822,-0.84542 0.766818,0.42037 1.630239,0.692716 2.589062,0.817099 0.958823,0.123963 1.931447,0.123963 2.92027,0 0.987024,-0.124383 1.960248,-0.358208 2.919071,-0.702556 0.958821,-0.343689 1.831851,-0.773839 2.617861,-1.289492 0.78662,-0.516012 1.44784,-1.104026 1.98545,-1.762902 0.53641,-0.659656 0.89162,-1.371333 1.06383,-2.135332 0.1728,-0.783619 0.2208,-1.566878 0.144,-2.350556 -0.0768,-0.783259 -0.26881,-1.509097 -0.57541,-2.178533 z"
     fill="#0d0c23"
     style="stroke-width:0.600015" />
  <path
     fill-rule="evenodd"
     clip-rule="evenodd"
     d="m 133.19661,61.622687 c -0.105,0.630615 -0.2544,1.294832 -0.44581,1.992648 -0.192,0.696617 -0.41701,1.332633 -0.67561,1.906246 -0.25921,0.573014 -0.54662,1.035625 -0.86282,1.389634 -0.31681,0.353408 -0.65762,0.501612 -1.02183,0.444611 -0.2874,-0.039 -0.46981,-0.220206 -0.54601,-0.544814 -0.0774,-0.325207 -0.0774,-0.726617 0,-1.203629 0.0762,-0.478211 0.2244,-1.018224 0.44521,-1.620039 0.22081,-0.601814 0.48961,-1.199429 0.80582,-1.791043 0.31681,-0.592814 0.67622,-1.161028 1.07883,-1.705841 0.4026,-0.544093 0.82442,-0.998304 1.26543,-1.361193 0.096,0.114543 0.1392,0.40111 0.1296,0.860001 -0.0102,0.458591 -0.0672,1.003404 -0.17281,1.633419 z m 9.75264,-12.43968 c -0.25921,-0.286567 -0.57541,-0.448751 -0.94982,-0.487272 -0.37381,-0.03822 -0.75302,0.171964 -1.13583,0.630555 -0.24961,0.458532 -0.56641,0.898162 -0.94982,1.318532 -0.38341,0.42073 -0.78122,0.80258 -1.19343,1.146568 -0.41281,0.343628 -0.80582,0.640335 -1.17963,0.888381 -0.37381,0.248706 -0.66662,0.430151 -0.87722,0.544694 -0.0768,-0.611235 -0.1206,-1.270531 -0.1296,-1.977828 -0.0102,-0.706937 0.005,-1.423295 0.0432,-2.149492 0.057,-1.031965 0.177,-2.07311 0.3594,-3.124395 0.18241,-1.050866 0.44582,-2.082891 0.79142,-3.096015 0,-0.534553 -0.1254,-0.969444 -0.37441,-1.304012 -0.2496,-0.334148 -0.55141,-0.544693 -0.90602,-0.630555 -0.35521,-0.0858 -0.71881,-0.03816 -1.09322,0.143284 -0.37381,0.181804 -0.69482,0.511632 -0.96363,0.988763 -0.2298,0.630916 -0.49381,1.337793 -0.79082,2.121112 -0.2976,0.783619 -0.63301,1.581458 -1.00682,2.393457 -0.37441,0.81272 -0.79142,1.600719 -1.25163,2.364777 -0.46021,0.764719 -0.96362,1.443275 -1.51024,2.03525 -0.54661,0.592394 -1.14122,1.056025 -1.78324,1.390233 -0.64322,0.334508 -1.33743,0.482532 -2.08565,0.444371 -0.34561,-0.09564 -0.59521,-0.353469 -0.74822,-0.774199 -0.1536,-0.42001 -0.2448,-0.945863 -0.273,-1.576418 -0.0288,-0.630555 0,-1.323272 0.0858,-2.07821 0.0864,-0.754518 0.2016,-1.504716 0.34561,-2.249814 0.1434,-0.745458 0.3018,-1.452395 0.47401,-2.121111 0.1728,-0.668717 0.33541,-1.23273 0.48901,-1.691261 0.2304,-0.553874 0.2304,-1.017865 0,-1.390234 -0.22981,-0.372729 -0.54601,-0.620715 -0.94862,-0.745458 -0.40261,-0.123963 -0.82502,-0.118923 -1.26603,0.01458 -0.44102,0.133804 -0.75782,0.429791 -0.94923,0.888322 -0.32641,0.784039 -0.62401,1.66258 -0.89222,2.637124 -0.26821,0.974603 -0.48421,1.982927 -0.64681,3.024073 -0.16321,1.041805 -0.25501,2.07383 -0.27361,3.096014 -0.001,0.06654 0.002,0.129783 0.002,0.195965 -0.41821,1.110927 -0.81662,1.950587 -1.19523,2.512441 -0.48901,0.726497 -1.04102,1.041805 -1.65424,0.945802 -0.26941,-0.114542 -0.44581,-0.381849 -0.53221,-0.802579 -0.087,-0.42001 -0.11521,-0.935962 -0.087,-1.547977 0.0294,-0.610935 0.1014,-1.303652 0.216,-2.07785 0.1158,-0.773839 0.25861,-1.576358 0.43141,-2.407679 0.17281,-0.83162 0.35521,-1.6669 0.54661,-2.508 0.19201,-0.84074 0.36421,-1.633839 0.51842,-2.379297 -0.0192,-0.668717 -0.21601,-1.179629 -0.59042,-1.533457 -0.37321,-0.353109 -0.89642,-0.491652 -1.56724,-0.415631 -0.46021,0.191225 -0.80101,0.439991 -1.02122,0.745458 -0.22081,0.305408 -0.39841,0.697457 -0.53221,1.174889 -0.0774,0.248766 -0.19201,0.745458 -0.34561,1.490916 -0.1536,0.744738 -0.34981,1.600418 -0.58982,2.565122 -0.2394,0.965483 -0.52261,1.973147 -0.84842,3.024013 -0.3258,1.050925 -0.69061,2.002248 -1.09262,2.852049 -0.40321,0.85022 -0.84422,1.533457 -1.32363,2.049469 -0.47942,0.515652 -0.99723,0.726198 -1.55344,0.630555 -0.30721,-0.05742 -0.50341,-0.372729 -0.58982,-0.945803 -0.0864,-0.573493 -0.1002,-1.28001 -0.0432,-2.121111 0.0576,-0.84074 0.17281,-1.762962 0.34501,-2.765887 0.17281,-1.003284 0.34981,-1.953827 0.53221,-2.852348 0.18241,-0.897862 0.35041,-1.691321 0.50402,-2.378938 0.153,-0.688036 0.2586,-1.146567 0.3162,-1.375653 0,-0.554173 -0.1254,-0.998184 -0.37381,-1.333112 -0.2496,-0.333848 -0.55141,-0.544393 -0.90662,-0.630555 -0.35521,-0.0858 -0.71941,-0.03816 -1.09262,0.143283 -0.37441,0.181804 -0.69542,0.511632 -0.96423,0.988704 -0.096,0.516012 -0.2208,1.113507 -0.37381,1.791703 -0.1536,0.678137 -0.3018,1.375653 -0.44581,2.092371 -0.144,0.716717 -0.2784,1.418914 -0.40261,2.106891 -0.1248,0.688036 -0.216,1.289851 -0.2736,1.805863 -0.0384,0.40111 -0.0816,0.893482 -0.12901,1.476036 -0.0486,0.583274 -0.0726,1.199249 -0.0726,1.848704 0,0.650236 0.048,1.294952 0.14461,1.934927 0.0954,0.640396 0.2682,1.22805 0.51721,1.762603 0.249,0.535273 0.59941,0.974543 1.05062,1.318531 0.45001,0.343989 1.02063,0.534913 1.71125,0.573494 0.70921,0.0378 1.32783,-0.01422 1.85584,-0.157864 0.52681,-0.143283 1.00622,-0.367988 1.43823,-0.673816 0.43141,-0.305107 0.82442,-0.668356 1.17963,-1.089086 0.35401,-0.42001 0.70442,-0.878541 1.04943,-1.375653 0.32641,0.726557 0.74822,1.289851 1.26603,1.691261 0.51781,0.401109 1.06442,0.640395 1.63984,0.716417 0.57481,0.07596 1.16043,-0.0044 1.75504,-0.243666 0.59402,-0.238566 1.13103,-0.644716 1.61044,-1.218209 0.31621,-0.351609 0.61381,-0.751279 0.89342,-1.193069 0.1188,0.206885 0.24481,0.40651 0.38701,0.590894 0.46981,0.612015 1.10763,1.032025 1.91345,1.26147 0.86282,0.229446 1.70584,0.268027 2.53086,0.114903 0.82442,-0.152703 1.61104,-0.43015 2.35865,-0.83126 0.74822,-0.40147 1.44304,-0.883641 2.08626,-1.447655 0.64201,-0.563653 1.20302,-1.150948 1.68244,-1.762902 -0.0192,0.43963 -0.0288,0.85562 -0.0288,1.24689 0,0.391989 -0.01,0.816739 -0.0282,1.275631 -0.95942,0.669136 -1.86544,1.471655 -2.71866,2.407678 -0.85382,0.936022 -1.60204,1.934566 -2.24406,2.995152 -0.64261,1.060226 -1.14602,2.135451 -1.50963,3.224478 -0.36481,1.089626 -0.54241,2.107251 -0.53281,3.053473 0.01,0.945623 0.2346,1.771843 0.67621,2.47866 0.44041,0.707417 1.15983,1.21323 2.15705,1.519237 1.03623,0.325208 1.94645,0.334208 2.73367,0.0288 0.78602,-0.306008 1.47124,-0.81242 2.05625,-1.519237 0.58501,-0.706817 1.06442,-1.561838 1.43883,-2.565062 0.37381,-1.003224 0.67082,-2.049649 0.89163,-3.138676 0.2202,-1.089026 0.3594,-2.160052 0.41701,-3.210257 0.0576,-1.051286 0.0576,-1.988028 0,-2.809448 1.64944,-0.687677 3.00127,-1.557158 4.05609,-2.608443 1.05483,-1.050145 1.92725,-2.158912 2.61787,-3.32474 0.2106,-0.286567 0.2826,-0.630555 0.216,-1.031665 -0.0678,-0.40141 -0.2304,-0.745458 -0.48901,-1.031965 z"
     fill="#0d0c23"
     style="stroke-width:0.600015" />
  <path
     fill-rule="evenodd"
     clip-rule="evenodd"
     d="m 179.23873,47.349243 c 0.0576,-0.439271 0.144,-0.902902 0.2586,-1.390174 0.1152,-0.487272 0.25921,-0.960383 0.43201,-1.418914 0.17221,-0.458531 0.37381,-0.854901 0.60422,-1.189469 0.2298,-0.334208 0.47461,-0.573074 0.73321,-0.716717 0.25921,-0.142923 0.52202,-0.128763 0.79142,0.0429 0.28741,0.172384 0.46442,0.535273 0.53222,1.089086 0.0666,0.554894 0,1.146928 -0.20161,1.777483 -0.2016,0.630915 -0.56101,1.22289 -1.07882,1.777123 -0.51782,0.554533 -1.21803,0.917062 -2.10005,1.089086 -0.0384,-0.266886 -0.0288,-0.620715 0.0288,-1.060405 z m 9.96744,1.174948 c -0.31621,-0.09492 -0.61802,-0.104702 -0.90603,-0.02838 -0.2874,0.07638 -0.46981,0.277087 -0.54601,0.602235 -0.1542,0.611235 -0.39901,1.23705 -0.73442,1.877085 -0.3354,0.640396 -0.74761,1.24689 -1.23603,1.820384 -0.48901,0.573074 -1.04102,1.079666 -1.65424,1.518937 -0.61441,0.43963 -1.25643,0.754878 -1.92784,0.945803 -0.67142,0.210545 -1.22763,0.234185 -1.66804,0.07164 -0.44161,-0.161823 -0.79142,-0.43927 -1.05003,-0.8309 -0.2592,-0.391629 -0.44641,-0.864741 -0.56101,-1.418914 -0.1152,-0.554233 -0.18241,-1.127307 -0.20161,-1.720061 1.09323,0.07674 2.06645,-0.118863 2.92027,-0.587595 0.85262,-0.467651 1.57684,-1.089146 2.17146,-1.862985 0.59401,-0.773778 1.04522,-1.643259 1.35183,-2.608382 0.30661,-0.964704 0.47941,-1.925087 0.51781,-2.88073 0.0192,-0.898222 -0.1146,-1.65748 -0.40261,-2.278555 -0.28741,-0.620775 -0.67621,-1.104027 -1.16523,-1.447655 -0.48841,-0.343988 -1.05002,-0.544753 -1.68244,-0.601814 -0.63241,-0.05748 -1.27563,0.02868 -1.92784,0.257826 -0.78662,0.267606 -1.45264,0.702137 -1.99925,1.304371 -0.54662,0.601815 -1.00203,1.299632 -1.36623,2.092371 -0.36421,0.793099 -0.65222,1.648 -0.86283,2.565122 -0.2112,0.917422 -0.3648,1.820384 -0.46021,2.709125 -0.0864,0.797419 -0.1326,1.559978 -0.1488,2.296015 -0.0414,0.09342 -0.081,0.183245 -0.1248,0.283267 -0.29761,0.678917 -0.64322,1.342893 -1.03563,1.992348 -0.39301,0.649876 -0.82982,1.194569 -1.30863,1.63384 -0.47941,0.43969 -0.97802,0.592394 -1.49584,0.458591 -0.3072,-0.07602 -0.47461,-0.430211 -0.50341,-1.060406 -0.0288,-0.630915 0.004,-1.414174 0.1002,-2.350556 0.096,-0.936023 0.20641,-1.949448 0.33121,-3.038594 0.12421,-1.089086 0.18661,-2.130171 0.18661,-3.124035 0,-0.860001 -0.16321,-1.686161 -0.48902,-2.47962 -0.3264,-0.792379 -0.77221,-1.452035 -1.33743,-1.977468 -0.56581,-0.525852 -1.22283,-0.874581 -1.97044,-1.046185 -0.74822,-0.172384 -1.55344,-0.05748 -2.41626,0.343628 -0.86342,0.40147 -1.54924,0.965064 -2.05685,1.691261 -0.50882,0.726558 -0.97383,1.490556 -1.39564,2.293135 -0.1536,-0.611654 -0.37861,-1.179628 -0.67621,-1.705481 -0.29701,-0.525432 -0.66122,-0.984023 -1.09263,-1.376013 -0.43201,-0.391269 -0.91682,-0.697097 -1.45263,-0.917122 -0.53702,-0.219245 -1.10343,-0.329408 -1.69805,-0.329408 -0.57481,0 -1.10702,0.110163 -1.59603,0.329408 -0.48902,0.220025 -0.93483,0.501492 -1.33804,0.84548 -0.40261,0.344349 -0.76681,0.730938 -1.09322,1.161088 -0.32581,0.429851 -0.61382,0.855321 -0.86282,1.275331 -0.039,-0.496752 -0.0816,-0.931282 -0.12901,-1.304431 -0.0486,-0.372309 -0.135,-0.687617 -0.2592,-0.945443 -0.12481,-0.258186 -0.30181,-0.453791 -0.53222,-0.587654 -0.2304,-0.133444 -0.55621,-0.200705 -0.97802,-0.200705 -0.2112,0 -0.42241,0.0429 -0.63301,0.128703 -0.21121,0.08622 -0.39841,0.205865 -0.56102,0.358569 -0.1632,0.153483 -0.2874,0.339248 -0.37381,0.558913 -0.0864,0.219665 -0.1098,0.473111 -0.072,0.759618 0.0192,0.210545 0.072,0.463332 0.15841,0.759679 0.0858,0.296347 0.1674,0.683656 0.2442,1.160728 0.0768,0.477851 0.1392,1.056025 0.18721,1.734222 0.048,0.678556 0.0618,1.509816 0.0432,2.49384 -0.0198,0.984384 -0.0912,2.135271 -0.21601,3.453803 -0.1248,1.318592 -0.32161,2.847309 -0.58981,4.585911 -0.0384,0.40141 0.1152,0.726557 0.46081,0.974903 0.34501,0.247986 0.73802,0.39127 1.17903,0.429791 0.44101,0.03822 0.85862,-0.03852 1.25163,-0.229086 0.39301,-0.191644 0.61861,-0.525792 0.67561,-1.003284 0.0576,-0.898162 0.16801,-1.853445 0.33121,-2.866569 0.16261,-1.012345 0.36421,-2.015629 0.60422,-3.009493 0.2394,-0.993444 0.51241,-1.939247 0.81962,-2.837828 0.3066,-0.898162 0.64741,-1.690901 1.02122,-2.378938 0.37441,-0.687976 0.76262,-1.23711 1.16523,-1.648 0.40261,-0.410889 0.82442,-0.616394 1.26603,-0.616394 0.53641,0 0.95342,0.243305 1.25103,0.730577 0.29701,0.487632 0.50761,1.113807 0.63301,1.877446 0.12421,0.764778 0.18181,1.601138 0.17281,2.50842 -0.0102,0.907642 -0.0486,1.781803 -0.1152,2.622543 -0.0672,0.841101 -0.14401,1.590939 -0.23041,2.250235 -0.0864,0.659296 -0.1488,1.113447 -0.1866,1.361433 0,0.43969 0.1674,0.788059 0.50281,1.046245 0.33541,0.257766 0.70921,0.41089 1.12202,0.458531 0.41281,0.048 0.80042,-0.02874 1.16523,-0.229446 0.36421,-0.200765 0.57542,-0.539293 0.63302,-1.017504 0.1914,-1.375653 0.45541,-2.755987 0.79082,-4.14148 0.33541,-1.385434 0.71941,-2.627284 1.15083,-3.72621 0.43141,-1.098927 0.91082,-1.997088 1.43823,-2.694545 0.52741,-0.697097 1.08843,-1.046245 1.68304,-1.046245 0.30661,0 0.54181,0.210545 0.70442,0.630555 0.1632,0.42037 0.2448,0.993504 0.2448,1.719701 0,0.535273 -0.0432,1.084707 -0.129,1.64836 -0.087,0.563654 -0.1872,1.146568 -0.30241,1.748382 -0.1152,0.602175 -0.216,1.21821 -0.3024,1.848765 -0.0858,0.630915 -0.12901,1.289791 -0.12901,1.977828 0,0.477791 0.048,1.031965 0.14401,1.66252 0.0954,0.630195 0.2772,1.228049 0.54601,1.791283 0.26881,0.564014 0.63781,1.041505 1.10823,1.433135 0.46981,0.391629 1.06862,0.587654 1.79704,0.587654 1.09383,0 2.06165,-0.234186 2.90587,-0.702197 0.84362,-0.468011 1.56784,-1.079306 2.17205,-1.834184 0.0312,-0.03966 0.06,-0.08184 0.0906,-0.121083 0.0462,0.111602 0.087,0.229805 0.13921,0.335948 0.41221,0.84074 0.97322,1.490196 1.68304,1.949147 0.70922,0.458531 1.54384,0.711617 2.50326,0.759618 0.95822,0.04728 2.00345,-0.129423 3.13567,-0.530533 0.84302,-0.305827 1.57684,-0.688036 2.20026,-1.146567 0.62281,-0.458531 1.18383,-1.017445 1.68244,-1.676741 0.49921,-0.659296 0.95402,-1.418914 1.36683,-2.278555 0.41281,-0.860361 0.82922,-1.844024 1.25103,-2.952791 0.0768,-0.305047 0.005,-0.577454 -0.2154,-0.81668 -0.22081,-0.238566 -0.48902,-0.40585 -0.80582,-0.501852 z"
     fill="#0d0c23"
     style="stroke-width:0.600015" />
  <path
     fill-rule="evenodd"
     clip-rule="evenodd"
     d="m 204.84074,45.327014 c -0.096,0.564014 -0.225,1.185449 -0.38821,1.863285 -0.1632,0.678556 -0.369,1.380753 -0.61861,2.106951 -0.24901,0.726137 -0.55621,1.380693 -0.92042,1.963247 -0.36421,0.583274 -0.78182,1.046185 -1.25103,1.390234 -0.47041,0.343988 -1.01163,0.487271 -1.62544,0.42979 -0.30721,-0.0378 -0.54242,-0.247986 -0.70502,-0.630555 -0.1632,-0.381789 -0.24901,-0.869421 -0.25921,-1.461815 -0.01,-0.592035 0.0432,-1.24185 0.15841,-1.949087 0.1152,-0.706578 0.29221,-1.399654 0.53281,-2.078211 0.23941,-0.677836 0.53161,-1.304011 0.87662,-1.877505 0.34561,-0.573074 0.74342,-1.017444 1.19403,-1.332692 0.45061,-0.315308 0.94502,-0.462911 1.48144,-0.444371 0.53701,0.01926 1.11242,0.286507 1.72624,0.80252 -0.039,0.248766 -0.1056,0.654915 -0.20161,1.218209 z m 10.22665,2.192753 c -0.29761,-0.152764 -0.60421,-0.185825 -0.92042,-0.100023 -0.31621,0.0858 -0.54181,0.37747 -0.67562,0.874222 -0.0768,0.535272 -0.2496,1.165468 -0.51781,1.891605 -0.26881,0.726198 -0.60001,1.414594 -0.99242,2.06369 -0.39361,0.649816 -0.84422,1.189829 -1.35244,1.619619 -0.50821,0.43021 -1.05002,0.626235 -1.62484,0.587294 -0.48001,-0.0378 -0.81602,-0.281467 -1.00682,-0.730517 -0.19261,-0.449111 -0.29281,-1.012405 -0.30241,-1.691321 -0.0102,-0.677837 0.0576,-1.442195 0.20101,-2.292715 0.144,-0.850221 0.3168,-1.695701 0.51781,-2.537162 0.2016,-0.84038 0.40801,-1.648 0.61921,-2.421838 0.21061,-0.773779 0.38281,-1.428335 0.51782,-1.963248 0.153,-0.477851 0.105,-0.883641 -0.14401,-1.218569 -0.2496,-0.333848 -0.56101,-0.573134 -0.93482,-0.716357 -0.37441,-0.143284 -0.75362,-0.181505 -1.13703,-0.114603 -0.38341,0.06696 -0.63241,0.272407 -0.74761,0.616035 -1.13163,-0.974544 -2.22006,-1.500036 -3.26468,-1.576358 -1.04583,-0.07638 -2.00945,0.153063 -2.89147,0.687976 -0.88262,0.534913 -1.66384,1.308752 -2.34426,2.321876 -0.68102,1.013065 -1.23243,2.116372 -1.65484,3.31058 -0.42181,1.194149 -0.68522,2.412719 -0.79082,3.654569 -0.1056,1.24215 -0.024,2.374557 0.24481,3.396742 0.2688,1.022184 0.74282,1.858544 1.42383,2.50764 0.68042,0.649816 1.60624,0.974964 2.77627,0.974964 0.51781,0 1.01642,-0.105123 1.49583,-0.315308 0.47882,-0.210545 0.92043,-0.458891 1.32304,-0.745458 0.40261,-0.286567 0.75721,-0.587654 1.06502,-0.902902 0.30601,-0.315307 0.54602,-0.577814 0.71882,-0.788359 0.1338,0.687977 0.35461,1.271251 0.66182,1.748742 0.306,0.477432 0.65641,0.869781 1.04942,1.174889 0.39301,0.305467 0.80582,0.530173 1.23723,0.673816 0.43141,0.143283 0.84902,0.214925 1.25103,0.214925 0.90182,0 1.74484,-0.305827 2.53206,-0.917482 0.78602,-0.610875 1.49104,-1.361433 2.11445,-2.249814 0.62282,-0.888742 1.13643,-1.824764 1.53844,-2.809148 0.40321,-0.983964 0.67142,-1.858185 0.80582,-2.622903 0.1344,-0.286567 0.1098,-0.587295 -0.072,-0.902542 -0.18241,-0.315308 -0.42181,-0.549133 -0.71942,-0.702557 z"
     fill="#0d0c23"
     style="stroke-width:0.600015" />
  <path
     fill-rule="evenodd"
     clip-rule="evenodd"
     d="m 266.84924,63.344129 c -0.1626,0.649215 -0.41701,1.199429 -0.76262,1.64824 -0.34501,0.44881 -0.77642,0.682816 -1.29423,0.702617 -0.32581,0.0186 -0.57541,-0.153604 -0.74822,-0.516013 -0.1722,-0.363609 -0.2922,-0.83162 -0.35941,-1.404634 -0.0672,-0.573614 -0.096,-1.213829 -0.0864,-1.920646 0.01,-0.706817 0.0384,-1.404634 0.0864,-2.092491 0.0474,-0.687616 0.10561,-1.328372 0.17281,-1.920346 0.0666,-0.592754 0.1194,-1.050565 0.1578,-1.375653 0.65222,0.07632 1.19463,0.357788 1.62544,0.84542 0.43141,0.487272 0.76262,1.065146 0.99243,1.734222 0.2304,0.668716 0.3642,1.390414 0.4032,2.163832 0.0378,0.774019 -0.0246,1.485636 -0.1872,2.135452 z m -10.41385,0 c -0.1626,0.649215 -0.41701,1.199429 -0.76202,1.64824 -0.34501,0.44881 -0.77702,0.682816 -1.29483,0.702617 -0.32581,0.0186 -0.57481,-0.153604 -0.74762,-0.516013 -0.1728,-0.363609 -0.29281,-0.83162 -0.35941,-1.404634 -0.0678,-0.573614 -0.0966,-1.213829 -0.0864,-1.920646 0.009,-0.706817 0.0378,-1.404634 0.0864,-2.092491 0.0474,-0.687616 0.10501,-1.328372 0.17221,-1.920346 0.0672,-0.592754 0.1194,-1.050565 0.1584,-1.375653 0.65162,0.07632 1.19403,0.357788 1.62484,0.84542 0.43201,0.487272 0.76262,1.065146 0.99302,1.734222 0.23041,0.668716 0.36421,1.390414 0.40261,2.163832 0.0378,0.774019 -0.0246,1.485636 -0.1872,2.135452 z M 245.74913,47.063636 c -0.0198,0.458171 -0.063,0.864381 -0.1302,1.217849 -0.0672,0.354189 -0.15781,0.578174 -0.27301,0.673817 -0.2112,-0.114903 -0.47041,-0.41053 -0.77702,-0.888742 -0.3066,-0.477431 -0.54601,-1.017804 -0.71941,-1.619679 -0.17221,-0.601815 -0.22561,-1.193789 -0.15781,-1.777063 0.0666,-0.582554 0.36901,-1.036045 0.90602,-1.361493 0.21061,-0.114543 0.39301,-0.07164 0.54662,0.129123 0.1536,0.200705 0.2778,0.491952 0.37441,0.874161 0.0954,0.38257 0.162,0.82184 0.201,1.318592 0.0384,0.497052 0.048,0.974544 0.0294,1.433435 z m -2.54646,5.718258 c -0.29761,0.314887 -0.62882,0.587234 -0.99242,0.81674 -0.36481,0.229445 -0.73862,0.401409 -1.12203,0.516012 -0.38401,0.114903 -0.72902,0.143224 -1.03563,0.0858 -0.86282,-0.171664 -1.52463,-0.544753 -1.98484,-1.117827 -0.46022,-0.573134 -0.75302,-1.24659 -0.87723,-2.020369 -0.1248,-0.774198 -0.111,-1.600778 0.0432,-2.479679 0.153,-0.878902 0.41161,-1.695641 0.77641,-2.45058 0.36421,-0.754938 0.80582,-1.404754 1.32304,-1.949087 0.51781,-0.544753 1.08362,-0.883641 1.69744,-1.017864 -0.23041,0.974543 -0.30661,1.982928 -0.23041,3.024073 0.0768,1.041445 0.32641,2.020729 0.74822,2.937791 0.26821,0.554953 0.58981,1.060765 0.96362,1.519296 0.37441,0.458951 0.82982,0.850581 1.36684,1.175309 -0.15361,0.325088 -0.37921,0.645075 -0.67622,0.960383 z m 31.83077,-5.431691 c 0.0576,-0.439271 0.1434,-0.903322 0.2592,-1.390594 0.11461,-0.486912 0.25861,-0.959963 0.43081,-1.418554 0.17281,-0.458891 0.37441,-0.855261 0.60482,-1.189469 0.2304,-0.334148 0.47401,-0.573434 0.73322,-0.716717 0.2592,-0.143283 0.52261,-0.129063 0.79082,0.0429 0.288,0.172384 0.46501,0.535273 0.53221,1.089086 0.0672,0.554594 0,1.146568 -0.20101,1.777483 -0.2016,0.630555 -0.56101,1.22295 -1.07882,1.776763 -0.51721,0.554893 -1.21803,0.917482 -2.10005,1.089446 -0.0384,-0.267246 -0.0288,-0.620715 0.0288,-1.060344 z m 11.59348,0 c 0.0576,-0.439271 0.1434,-0.903322 0.2586,-1.390594 0.11521,-0.486912 0.25921,-0.959963 0.43201,-1.418554 0.17221,-0.458891 0.37321,-0.855261 0.60362,-1.189469 0.2304,-0.334148 0.47521,-0.573434 0.73382,-0.716717 0.2592,-0.143283 0.52261,-0.129063 0.79082,0.0429 0.288,0.172384 0.46501,0.535273 0.53221,1.089086 0.0672,0.554594 0,1.146568 -0.20101,1.777483 -0.2016,0.630555 -0.56101,1.22295 -1.07882,1.776763 -0.51781,0.554893 -1.21803,0.917482 -2.10005,1.089446 -0.0384,-0.267246 -0.0288,-0.620715 0.0288,-1.060344 z m 10.77326,1.67674 c -0.22081,-0.238566 -0.48901,-0.40585 -0.80522,-0.501852 -0.31681,-0.09528 -0.61862,-0.104702 -0.90662,-0.02832 -0.28741,0.07632 -0.47041,0.277087 -0.54662,0.601815 -0.1536,0.611655 -0.39781,1.23747 -0.73321,1.877085 -0.33601,0.640756 -0.74822,1.24731 -1.23723,1.820384 -0.48902,0.573074 -1.04043,1.080026 -1.65364,1.519297 -0.61442,0.439631 -1.25643,0.754938 -1.92725,0.945443 -0.67202,0.210905 -1.22823,0.234545 -1.66924,0.072 -0.44101,-0.162183 -0.79082,-0.43927 -1.05003,-0.8309 -0.2586,-0.391989 -0.44521,-0.86474 -0.56101,-1.419274 -0.1146,-0.553813 -0.1824,-1.126947 -0.201,-1.719641 1.09322,0.07668 2.06645,-0.118923 2.91967,-0.587655 0.85322,-0.468011 1.57743,-1.089506 2.17265,-1.863285 0.59401,-0.773478 1.04462,-1.642959 1.35123,-2.608022 0.30661,-0.965124 0.47941,-1.925147 0.51841,-2.88079 0.0186,-0.898162 -0.1158,-1.65784 -0.40321,-2.278915 -0.2874,-0.620715 -0.67561,-1.103667 -1.16462,-1.447295 -0.48962,-0.344348 -1.05003,-0.544753 -1.68365,-0.602174 -0.63241,-0.05748 -1.27503,0.0291 -1.92724,0.257826 -0.78662,0.267966 -1.45264,0.702557 -1.99865,1.304371 -0.54661,0.602175 -1.00262,1.299992 -1.36683,2.092371 -0.36481,0.793459 -0.65222,1.648 -0.86342,2.565482 -0.21121,0.917122 -0.36421,1.820384 -0.45961,2.708765 -0.0936,0.862161 -0.14401,1.687301 -0.15541,2.4771 -0.0726,0.157444 -0.15,0.315667 -0.2334,0.474911 -0.33601,0.640756 -0.74822,1.24731 -1.23723,1.820384 -0.48842,0.573074 -1.04043,1.080026 -1.65364,1.519297 -0.61382,0.439631 -1.25643,0.754938 -1.92725,0.945443 -0.67202,0.210905 -1.22763,0.234545 -1.66864,0.072 -0.44161,-0.162183 -0.79142,-0.43927 -1.05003,-0.8309 -0.2586,-0.391989 -0.44581,-0.86474 -0.56101,-1.419274 -0.1152,-0.553813 -0.1824,-1.126947 -0.2016,-1.719641 1.09322,0.07668 2.06645,-0.118923 2.92027,-0.587655 0.85262,-0.468011 1.57683,-1.089506 2.17145,-1.863285 0.59461,-0.773478 1.04522,-1.642959 1.35183,-2.608022 0.30661,-0.965124 0.48001,-1.925147 0.51781,-2.88079 0.0192,-0.898162 -0.1146,-1.65784 -0.40201,-2.278915 -0.288,-0.620715 -0.67681,-1.103667 -1.16582,-1.447295 -0.48902,-0.344348 -1.04943,-0.544753 -1.68245,-0.602174 -0.63301,-0.05748 -1.27563,0.0291 -1.92724,0.257826 -0.78722,0.267966 -1.45324,0.702557 -1.99925,1.304371 -0.54661,0.602175 -1.00262,1.299992 -1.36683,2.092371 -0.36421,0.793459 -0.65162,1.648 -0.86282,2.565482 -0.21121,0.917122 -0.36481,1.820384 -0.46021,2.708765 -0.0546,0.501072 -0.0906,0.986904 -0.11761,1.463975 -0.1854,0.157144 -0.36601,0.315308 -0.55861,0.470592 -0.66122,0.535273 -1.35723,1.017444 -2.08565,1.447655 -0.72902,0.43015 -1.48684,0.783619 -2.27226,1.060705 -0.78722,0.277087 -1.59243,0.444371 -2.41685,0.501492 l 1.78384,-19.032579 c 0.1152,-0.40147 0.0576,-0.754518 -0.17281,-1.060346 -0.2298,-0.305827 -0.52741,-0.516012 -0.89162,-0.630555 -0.36421,-0.114903 -0.75302,-0.105122 -1.16523,0.02838 -0.41281,0.134163 -0.75241,0.439991 -1.02122,0.917062 -0.1344,0.726558 -0.27361,1.720002 -0.41701,2.981112 -0.144,1.26111 -0.28801,2.637124 -0.43141,4.12768 -0.144,1.490556 -0.28801,3.028753 -0.43141,4.614591 -0.144,1.586558 -0.26881,3.067334 -0.37441,4.442987 -0.005,0.06108 -0.008,0.116343 -0.0132,0.176704 -0.168,0.141844 -0.33061,0.284707 -0.50461,0.425111 -0.66122,0.535273 -1.35724,1.017444 -2.08565,1.447655 -0.72902,0.43015 -1.48624,0.783619 -2.27226,1.060705 -0.78662,0.277087 -1.59244,0.444371 -2.41686,0.501492 l 1.78385,-19.032579 c 0.1152,-0.40147 0.0576,-0.754518 -0.17221,-1.060346 -0.2304,-0.305827 -0.52801,-0.516012 -0.89222,-0.630555 -0.36421,-0.114903 -0.75302,-0.105122 -1.16523,0.02838 -0.41221,0.134163 -0.75241,0.439991 -1.02122,0.917062 -0.1344,0.726558 -0.27301,1.720002 -0.41641,2.981112 -0.1446,1.26111 -0.28801,2.637124 -0.43201,4.12768 -0.14401,1.490556 -0.28741,3.028753 -0.43141,4.614591 -0.14341,1.586558 -0.26881,3.067334 -0.37381,4.442987 -0.002,0.0276 -0.004,0.05268 -0.007,0.08034 -0.30121,0.139264 -0.62942,0.261486 -0.98643,0.364029 -0.3642,0.105422 -0.77641,0.167584 -1.23663,0.186544 0.0768,-0.344408 0.13861,-0.726557 0.18661,-1.146927 0.048,-0.42001 0.087,-0.859641 0.1158,-1.318592 0.0288,-0.458171 0.0378,-0.917062 0.0288,-1.375653 -0.0102,-0.458891 -0.0342,-0.878901 -0.072,-1.261471 -0.0966,-0.82106 -0.27361,-1.599998 -0.53221,-2.335976 -0.25921,-0.735318 -0.60902,-1.351293 -1.05003,-1.848765 -0.44161,-0.496752 -0.99242,-0.83126 -1.65484,-1.002924 -0.66121,-0.172024 -1.43343,-0.114903 -2.31485,0.171664 -1.30503,-0.171664 -2.47926,-0.05202 -3.52449,0.358509 -1.04522,0.41131 -1.95184,1.008024 -2.71866,1.791283 -0.76682,0.784039 -1.39504,1.705481 -1.88405,2.766247 -0.48901,1.060345 -0.81542,2.149852 -0.97802,3.267319 -0.069,0.473771 -0.10261,0.945443 -0.11281,1.415974 -0.297,0.605835 -0.62221,1.135287 -0.98042,1.579658 -0.50821,0.630555 -1.03562,1.146568 -1.58224,1.547677 -0.54661,0.40141 -1.08842,0.707237 -1.62484,0.917423 -0.53761,0.210545 -1.01702,0.353828 -1.43883,0.42985 -0.49861,0.09564 -0.97802,0.105422 -1.43824,0.02874 -0.46021,-0.07602 -0.88262,-0.296048 -1.26543,-0.659296 -0.3072,-0.267307 -0.54241,-0.697457 -0.70501,-1.289851 -0.16321,-0.592335 -0.25861,-1.265431 -0.28741,-2.020729 -0.0288,-0.754938 0,-1.543297 0.0858,-2.364777 0.0864,-0.82142 0.23461,-1.600359 0.44581,-2.335977 0.21121,-0.735677 0.47881,-1.394913 0.80582,-1.978247 0.32521,-0.582134 0.70922,-0.998185 1.15083,-1.246531 0.24841,0.03852 0.40261,0.186185 0.46021,0.444011 0.0576,0.258186 0.0714,0.564014 0.0426,0.917482 -0.0282,0.353769 -0.0714,0.716718 -0.129,1.089087 -0.0576,0.372729 -0.0864,0.683656 -0.0864,0.931642 0.096,0.516013 0.2826,0.917482 0.56101,1.203989 0.27781,0.286567 0.58981,0.454211 0.93482,0.501492 0.34501,0.048 0.68522,-0.03312 1.02183,-0.243666 0.33481,-0.209825 0.60781,-0.544333 0.81962,-1.003284 0.0186,0.01926 0.0474,0.02874 0.0858,0.02874 l 0.40321,-3.640048 c 0.1146,-0.497112 0.0378,-0.936383 -0.23041,-1.318532 -0.2688,-0.382209 -0.62341,-0.602174 -1.06442,-0.659296 -0.55622,-0.802579 -1.30923,-1.227629 -2.25846,-1.27563 -0.94922,-0.04764 -1.92244,0.262866 -2.91967,0.931642 -0.61381,0.439991 -1.15563,1.046185 -1.62544,1.820024 -0.47041,0.774199 -0.85322,1.633839 -1.15022,2.579642 -0.29821,0.945803 -0.50882,1.944767 -0.63302,2.995692 -0.1248,1.050866 -0.1488,2.073471 -0.0726,3.066554 0.0768,0.994164 0.2544,1.930547 0.53281,2.809088 0.27781,0.879322 0.66602,1.614939 1.16523,2.206974 0.42181,0.516012 0.90062,0.893781 1.43763,1.132707 0.53702,0.238926 1.09803,0.386589 1.68305,0.444011 0.58501,0.05712 1.16522,0.03312 1.74064,-0.07164 0.57541,-0.104703 1.12202,-0.252726 1.63984,-0.444371 0.67081,-0.247986 1.36203,-0.563653 2.07125,-0.945803 0.70921,-0.381849 1.39023,-0.84074 2.04245,-1.376013 0.3432,-0.281467 0.67321,-0.588374 0.99242,-0.917482 0.1452,0.359289 0.30781,0.706937 0.50341,1.032385 0.51781,0.859641 1.21743,1.557457 2.10005,2.09237 0.88142,0.534913 1.96565,0.79238 3.25028,0.773839 1.38123,-0.01926 2.65627,-0.367629 3.82629,-1.046185 1.17003,-0.677837 2.12885,-1.677101 2.87707,-2.995332 1.12023,0 2.22246,-0.183965 3.30608,-0.549434 -0.009,0.115623 -0.0186,0.237426 -0.027,0.349089 -0.0762,1.012764 -0.1152,1.700381 -0.1152,2.063629 -0.0186,0.630556 -0.0618,1.409135 -0.129,2.335677 -0.0672,0.926902 -0.11041,1.901506 -0.12961,2.92345 -0.0186,1.022425 0.0192,2.05445 0.11521,3.096075 0.096,1.041025 0.297,1.987248 0.60421,2.838069 0.30601,0.84962 0.74222,1.571438 1.30863,2.164252 0.56522,0.591614 1.30863,0.945623 2.22966,1.060225 0.97802,0.133204 1.82164,-0.0384 2.53146,-0.516012 0.70921,-0.478212 1.28463,-1.132227 1.72624,-1.963247 0.44101,-0.83162 0.75182,-1.791644 0.93482,-2.88067 0.18181,-1.089626 0.23461,-2.183453 0.15841,-3.282679 -0.0774,-1.098687 -0.27901,-2.135092 -0.60482,-3.109275 -0.32581,-0.974904 -0.77702,-1.777483 -1.35183,-2.408398 0.34561,-0.09492 0.75722,-0.276367 1.23723,-0.544333 0.47881,-0.267307 0.97262,-0.568394 1.48143,-0.902962 0.12481,-0.08214 0.24781,-0.168724 0.37261,-0.253086 -0.0468,0.677116 -0.0708,1.160008 -0.0708,1.442914 -0.0186,0.630556 -0.0618,1.409135 -0.1296,2.335677 -0.0666,0.926902 -0.10981,1.901506 -0.12901,2.92345 -0.0192,1.022425 0.0192,2.05445 0.11521,3.096075 0.0954,1.041025 0.297,1.987248 0.60361,2.838069 0.30661,0.84962 0.74342,1.571438 1.30863,2.164252 0.56582,0.591614 1.30924,0.945623 2.23026,1.060225 0.97742,0.133204 1.82104,-0.0384 2.53086,-0.516012 0.70982,-0.478212 1.28523,-1.132227 1.72624,-1.963247 0.44101,-0.83162 0.75242,-1.791644 0.93482,-2.88067 0.18241,-1.089626 0.23461,-2.183453 0.15841,-3.282679 -0.0768,-1.098687 -0.27841,-2.135092 -0.60362,-3.109275 -0.32701,-0.974904 -0.77702,-1.777483 -1.35303,-2.408398 0.34561,-0.09492 0.75782,-0.276367 1.23723,-0.544333 0.47941,-0.267307 0.97322,-0.568394 1.48203,-0.902962 0.26401,-0.173764 0.52622,-0.353049 0.78842,-0.537433 0.0984,0.934522 0.31081,1.754202 0.64922,2.443679 0.41281,0.8411 0.97322,1.490556 1.68304,1.949447 0.70922,0.458171 1.54384,0.711617 2.50326,0.759258 0.95882,0.04728 2.00345,-0.129063 3.13568,-0.530533 0.84362,-0.305467 1.57683,-0.687616 2.20025,-1.146207 0.62281,-0.458891 1.18383,-1.017805 1.68304,-1.676741 0.0288,-0.03816 0.0558,-0.07962 0.084,-0.118143 0.0888,0.267607 0.18721,0.524713 0.30421,0.762919 0.41281,0.8411 0.97382,1.490556 1.68304,1.949447 0.70922,0.458171 1.54384,0.711617 2.50266,0.759258 0.95882,0.04728 2.00405,-0.129063 3.13568,-0.530533 0.84422,-0.305467 1.57743,-0.687616 2.20085,-1.146207 0.62281,-0.458891 1.18383,-1.017805 1.68304,-1.676741 0.49861,-0.659596 0.95342,-1.419274 1.36623,-2.278915 0.41221,-0.860001 0.82922,-1.843664 1.25163,-2.952371 0.0762,-0.305467 0.004,-0.577814 -0.216,-0.81674 z"
     fill="#0d0c23"
     style="stroke-width:0.600015" />
</svg>
