<?xml version="1.0" standalone="no"?>
<!DOCTYPE svg PUBLIC "-//W3C//DTD SVG 20010904//EN"
    "http://www.w3.org/TR/2001/REC-SVG-20010904/DTD/svg10.dtd">
<svg version="1.0" xmlns="http://www.w3.org/2000/svg"
     width="1251.000000pt" height="201.000000pt" viewBox="0 0 1251.000000 201.000000"
     preserveAspectRatio="xMidYMid meet">

    <g transform="translate(0.000000,201.000000) scale(0.100000,-0.100000)"
       fill="#000000" stroke="none">
        <path d="M0 1400 l0 -600 200 0 200 0 0 -200 0 -200 -200 0 -200 0 0 -200 0
-200 205 0 205 0 0 200 0 200 195 0 195 0 0 -201 0 -201 188 5 c145 4 204 10
262 26 473 129 785 553 757 1025 -16 255 -113 471 -292 652 -127 128 -254 204
-440 261 l-90 28 -592 3 -593 3 0 -601z m1200 168 c189 -69 336 -228 385 -414
20 -75 19 -233 0 -309 -39 -147 -158 -297 -291 -367 -109 -57 -162 -69 -331
-75 l-153 -6 0 202 0 201 -200 0 -200 0 0 401 0 400 358 -3 357 -3 75 -27z"/>
        <path d="M2400 1000 l0 -1000 805 0 805 0 0 200 0 200 -600 0 -600 0 0 200 0
200 400 0 400 0 0 200 0 200 -400 0 -400 0 0 200 0 200 600 0 600 0 0 200 0
200 -805 0 -805 0 0 -1000z"/>
        <path d="M5099 1980 c-301 -63 -582 -288 -704 -564 -121 -273 -115 -598 15
-858 50 -101 89 -156 169 -240 155 -165 339 -265 560 -303 63 -11 170 -15 427
-15 l344 0 0 199 0 199 -352 5 c-288 3 -363 7 -408 20 -299 89 -482 379 -430
684 38 228 234 429 465 478 53 11 148 15 398 15 l327 0 0 200 0 200 -362 -1
c-310 0 -375 -3 -449 -19z"/>
        <path d="M6899 1981 c-304 -66 -582 -289 -704 -565 -121 -273 -115 -598 15
-858 50 -101 89 -156 169 -240 207 -220 480 -330 780 -315 551 27 981 504 948
1051 -16 255 -113 471 -292 652 -128 129 -258 206 -440 260 -123 36 -346 43
-476 15z m402 -415 c185 -64 335 -225 384 -412 20 -75 19 -233 0 -309 -51
-195 -217 -362 -420 -421 -73 -21 -218 -24 -295 -5 -369 89 -564 500 -399 842
76 158 237 285 409 324 94 21 228 13 321 -19z"/>
        <path d="M8400 1000 l0 -1001 488 4 c539 4 534 3 710 76 381 157 634 563 609
975 -16 255 -113 471 -292 652 -127 128 -255 204 -440 261 l-90 27 -492 4
-493 3 0 -1001z m1000 567 c188 -68 336 -227 385 -413 20 -75 19 -233 0 -309
-39 -147 -158 -297 -291 -367 -126 -66 -152 -70 -431 -75 l-253 -5 0 602 0
602 258 -4 c250 -3 259 -4 332 -31z"/>
        <path d="M11299 1981 c-304 -66 -582 -289 -704 -565 -121 -273 -115 -598 15
-858 50 -101 89 -156 169 -240 207 -220 480 -330 780 -315 551 27 981 504 948
1051 -16 255 -113 471 -292 652 -128 129 -258 206 -440 260 -123 36 -346 43
-476 15z m402 -415 c185 -64 335 -225 384 -412 20 -75 19 -233 0 -309 -51
-195 -217 -362 -420 -421 -73 -21 -218 -24 -295 -5 -369 89 -564 500 -399 842
76 158 237 285 409 324 94 21 228 13 321 -19z"/>
    </g>
</svg>
