<svg width="544" height="104" viewBox="0 0 544 104" fill="none" xmlns="http://www.w3.org/2000/svg">
    <path
        d="M109.667 82.0597V23.8779H120.207V48.5086H147.167V23.8779H157.735V82.0597H147.167V57.3438H120.207V82.0597H109.667ZM175.136 98.4233C173.734 98.4233 172.437 98.3097 171.244 98.0824C170.07 97.8741 169.132 97.6279 168.431 97.3438L170.818 89.3324C172.314 89.768 173.649 89.9764 174.823 89.9574C175.998 89.9385 177.03 89.5692 177.92 88.8495C178.829 88.1487 179.596 86.9745 180.221 85.3267L181.102 82.9688L165.278 38.4233H176.187L186.244 71.3779H186.698L196.784 38.4233H207.721L190.249 87.3438C189.435 89.6544 188.356 91.6336 187.011 93.2813C185.666 94.948 184.018 96.2169 182.068 97.0881C180.136 97.9783 177.825 98.4233 175.136 98.4233ZM214.838 98.4233V38.4233H224.951V45.6392H225.548C226.078 44.5786 226.826 43.4517 227.792 42.2586C228.758 41.0464 230.065 40.0142 231.713 39.162C233.36 38.2908 235.463 37.8551 238.019 37.8551C241.391 37.8551 244.43 38.7169 247.139 40.4404C249.866 42.1449 252.025 44.6733 253.616 48.0256C255.226 51.3589 256.031 55.4498 256.031 60.2983C256.031 65.09 255.245 69.162 253.673 72.5142C252.101 75.8665 249.961 78.4233 247.252 80.1847C244.544 81.9461 241.476 82.8267 238.048 82.8267C235.548 82.8267 233.474 82.4101 231.826 81.5767C230.178 80.7434 228.853 79.7396 227.849 78.5654C226.864 77.3722 226.097 76.2453 225.548 75.1847H225.122V98.4233H214.838ZM224.923 60.2415C224.923 63.0635 225.321 65.5351 226.116 67.6563C226.93 69.7775 228.095 71.4347 229.61 72.6279C231.144 73.8021 233 74.3892 235.178 74.3892C237.451 74.3892 239.355 73.7832 240.889 72.5711C242.423 71.34 243.578 69.6639 244.355 67.5426C245.15 65.4025 245.548 62.9688 245.548 60.2415C245.548 57.5332 245.16 55.1279 244.383 53.0256C243.606 50.9233 242.451 49.2756 240.917 48.0824C239.383 46.8892 237.47 46.2926 235.178 46.2926C232.981 46.2926 231.116 46.8703 229.582 48.0256C228.048 49.1809 226.883 50.8002 226.088 52.8836C225.311 54.9669 224.923 57.4195 224.923 60.2415ZM284.156 82.912C279.781 82.912 276.002 82.0029 272.821 80.1847C269.658 78.3476 267.224 75.7529 265.519 72.4006C263.815 69.0294 262.963 65.0616 262.963 60.4972C262.963 56.0086 263.815 52.0692 265.519 48.679C267.243 45.2699 269.648 42.6184 272.735 40.7245C275.822 38.8116 279.449 37.8551 283.616 37.8551C286.305 37.8551 288.843 38.2908 291.23 39.162C293.635 40.0142 295.756 41.34 297.593 43.1392C299.449 44.9385 300.908 47.2301 301.968 50.0142C303.029 52.7794 303.559 56.0748 303.559 59.9006V63.054H267.792V56.1222H293.701C293.682 54.1525 293.256 52.4006 292.423 50.8665C291.589 49.3135 290.425 48.0919 288.928 47.2017C287.451 46.3116 285.728 45.8665 283.758 45.8665C281.656 45.8665 279.809 46.3779 278.218 47.4006C276.627 48.4044 275.387 49.7301 274.497 51.3779C273.625 53.0067 273.18 54.7964 273.161 56.7472V62.7983C273.161 65.3362 273.625 67.5142 274.553 69.3324C275.481 71.1317 276.779 72.5142 278.446 73.4801C280.112 74.4271 282.063 74.9006 284.298 74.9006C285.794 74.9006 287.148 74.6923 288.36 74.2756C289.572 73.84 290.624 73.2055 291.514 72.3722C292.404 71.5389 293.076 70.5067 293.531 69.2756L303.133 70.3551C302.527 72.893 301.372 75.1089 299.667 77.0029C297.981 78.8779 295.822 80.3362 293.19 81.3779C290.557 82.4006 287.546 82.912 284.156 82.912ZM312.714 82.0597V23.8779H334.532C339.002 23.8779 342.752 24.7112 345.782 26.3779C348.831 28.0445 351.133 30.3362 352.686 33.2529C354.258 36.1506 355.044 39.4461 355.044 43.1392C355.044 46.8703 354.258 50.1847 352.686 53.0824C351.114 55.9801 348.794 58.2623 345.725 59.929C342.657 61.5767 338.879 62.4006 334.39 62.4006H319.93V53.7358H332.97C335.583 53.7358 337.723 53.2813 339.39 52.3722C341.057 51.4631 342.288 50.2131 343.083 48.6222C343.898 47.0313 344.305 45.2036 344.305 43.1392C344.305 41.0748 343.898 39.2567 343.083 37.6847C342.288 36.1127 341.047 34.8911 339.362 34.0199C337.695 33.1298 335.545 32.6847 332.913 32.6847H323.254V82.0597H312.714ZM363.744 82.0597V38.4233H373.715V45.6961H374.17C374.965 43.1771 376.329 41.2358 378.261 39.8722C380.212 38.4896 382.437 37.7983 384.937 37.7983C385.505 37.7983 386.14 37.8267 386.84 37.8836C387.56 37.9214 388.157 37.9877 388.63 38.0824V47.5426C388.195 47.3911 387.503 47.2586 386.556 47.1449C385.628 47.0123 384.729 46.9461 383.857 46.9461C381.982 46.9461 380.297 47.3533 378.801 48.1676C377.323 48.9631 376.159 50.0711 375.306 51.4915C374.454 52.912 374.028 54.5502 374.028 56.4063V82.0597H363.744ZM412.7 82.912C408.438 82.912 404.745 81.9745 401.62 80.0995C398.495 78.2245 396.071 75.6014 394.348 72.2301C392.643 68.8589 391.791 64.9195 391.791 60.412C391.791 55.9044 392.643 51.9555 394.348 48.5654C396.071 45.1752 398.495 42.5426 401.62 40.6676C404.745 38.7926 408.438 37.8551 412.7 37.8551C416.961 37.8551 420.654 38.7926 423.779 40.6676C426.904 42.5426 429.319 45.1752 431.024 48.5654C432.747 51.9555 433.609 55.9044 433.609 60.412C433.609 64.9195 432.747 68.8589 431.024 72.2301C429.319 75.6014 426.904 78.2245 423.779 80.0995C420.654 81.9745 416.961 82.912 412.7 82.912ZM412.757 74.6733C415.067 74.6733 416.999 74.0389 418.552 72.7699C420.105 71.482 421.26 69.7586 422.018 67.5995C422.794 65.4404 423.183 63.0351 423.183 60.3836C423.183 57.7131 422.794 55.2983 422.018 53.1392C421.26 50.9612 420.105 49.2283 418.552 47.9404C416.999 46.6525 415.067 46.0086 412.757 46.0086C410.389 46.0086 408.419 46.6525 406.848 47.9404C405.294 49.2283 404.13 50.9612 403.353 53.1392C402.596 55.2983 402.217 57.7131 402.217 60.3836C402.217 63.0351 402.596 65.4404 403.353 67.5995C404.13 69.7586 405.294 71.482 406.848 72.7699C408.419 74.0389 410.389 74.6733 412.757 74.6733ZM449.106 38.4233L457.913 54.5313L466.862 38.4233H477.742L464.589 60.2415L477.97 82.0597H467.146L457.913 66.3495L448.765 82.0597H437.856L451.151 60.2415L438.197 38.4233H449.106ZM492.089 98.4233C490.687 98.4233 489.39 98.3097 488.197 98.0824C487.023 97.8741 486.085 97.6279 485.384 97.3438L487.771 89.3324C489.267 89.768 490.602 89.9764 491.776 89.9574C492.951 89.9385 493.983 89.5692 494.873 88.8495C495.782 88.1487 496.549 86.9745 497.174 85.3267L498.055 82.9688L482.231 38.4233H493.14L503.197 71.3779H503.651L513.737 38.4233H524.674L507.203 87.3438C506.388 89.6544 505.309 91.6336 503.964 93.2813C502.619 94.948 500.972 96.2169 499.021 97.0881C497.089 97.9783 494.778 98.4233 492.089 98.4233Z"
        fill="#1F3CBC"/>
    <path fill-rule="evenodd" clip-rule="evenodd"
          d="M39.518 75.7907C29.4137 94.2934 7.94722 92.0541 6.396 91.1222C14.9501 101.585 32.1741 105.541 45.4181 101.645C50.0424 91.7009 51.1274 80.7866 41.5754 69.8979C41.5533 71.8393 40.6667 73.6881 39.5182 75.7907"
          fill="#1F3CBC" fill-opacity="0.9"/>
    <path fill-rule="evenodd" clip-rule="evenodd"
          d="M38.4616 75.5509C35.3577 77.5108 30.7206 77.848 27.4112 77.848C16.5611 77.848 5.83048 70.3202 0.479374 61.748C-1.18017 71.5673 1.62735 80.6334 6.46078 87.8596C19.1452 89.1672 31.4641 87.0087 38.4616 75.5509Z"
          fill="#1F3CBC" fill-opacity="0.8"/>
    <path fill-rule="evenodd" clip-rule="evenodd"
          d="M12.4663 44.3032C12.4666 44.3054 12.4666 44.3076 12.4663 44.3098C12.5692 44.2183 12.6689 44.1238 12.7722 44.0331C12.6692 44.1226 12.5672 44.2125 12.4663 44.303"
          fill="#1F3CBC"/>
    <path fill-rule="evenodd" clip-rule="evenodd"
          d="M35.2802 76.3534C33.3895 76.2962 31.6932 75.644 30.5469 75.1461C24.6535 72.5865 19.726 68.2201 16.476 62.6775C13.226 57.1348 11.8216 50.7027 12.4655 44.3098C7.63518 48.6196 4.1425 54.2245 2.40186 60.4596C10.9893 72.8983 23.4615 78.7496 35.2802 76.3536"
          fill="#1F3CBC" fill-opacity="0.7"/>
    <path fill-rule="evenodd" clip-rule="evenodd"
          d="M47.5272 0C8.04576 30.5732 33.2927 55.0315 46.2706 74.1318C52.438 83.2103 53.7751 91.408 50.0019 101.575C60.7858 95.9168 68.8516 82.562 68.8516 69.5401C68.8516 40.6244 27.4844 25.5617 47.5272 0.000175718"
          fill="#1F3CBC"/>
</svg>
