<?xml version="1.0" encoding="UTF-8" standalone="no"?>
<!DOCTYPE svg PUBLIC "-//W3C//DTD SVG 1.1//EN" "http://www.w3.org/Graphics/SVG/1.1/DTD/svg11.dtd">
<svg xmlns="http://www.w3.org/2000/svg" version="1.1" viewBox="0.00 0.00 287.00 93.00">
    <path fill="#000000" d="
  M 25.46 74.50
  L 13.89 74.50
  A 0.34 0.34 0.0 0 1 13.55 74.16
  L 13.55 26.84
  A 0.34 0.34 0.0 0 1 13.89 26.50
  L 17.33 26.51
  A 0.34 0.34 0.0 0 1 17.57 26.60
  L 42.42 50.51
  A 0.34 0.34 0.0 0 0 43.00 50.26
  L 43.00 27.84
  A 0.34 0.34 0.0 0 1 43.34 27.50
  L 54.91 27.50
  A 0.34 0.34 0.0 0 1 55.25 27.84
  L 55.25 74.92
  A 0.34 0.34 0.0 0 1 54.91 75.26
  L 51.31 75.23
  A 0.34 0.34 0.0 0 1 51.07 75.13
  L 26.36 50.97
  A 0.34 0.34 0.0 0 0 25.78 51.21
  L 25.80 74.16
  A 0.34 0.34 0.0 0 1 25.46 74.50
  Z"
    />
    <path fill="#000000" d="
  M 104.27 55.68
  L 104.28 73.99
  Q 104.28 74.50 103.76 74.50
  L 92.64 74.50
  Q 92.02 74.50 92.02 73.89
  L 92.02 27.12
  Q 92.02 26.50 92.63 26.50
  L 95.44 26.49
  Q 95.96 26.49 96.28 26.89
  L 115.50 50.51
  Q 115.89 51.00 116.28 50.51
  L 135.53 27.06
  A 1.50 1.50 0.0 0 1 136.70 26.50
  L 139.36 26.50
  Q 139.96 26.50 139.96 27.11
  L 139.96 73.89
  Q 139.96 74.50 139.36 74.50
  L 128.23 74.50
  Q 127.71 74.50 127.71 73.98
  L 127.70 55.55
  Q 127.70 54.76 127.18 55.35
  L 118.51 65.30
  A 3.53 3.53 0.0 0 1 113.16 65.26
  L 104.88 55.46
  Q 104.27 54.75 104.27 55.68
  Z"
    />
    <rect fill="#000000" x="67.50" y="27.44" width="12.28" height="47.52" rx="0.27"/>
    <path fill="#000000" d="
  M 178.13 49.38
  A 0.43 0.43 0.0 0 0 178.34 50.03
  Q 185.15 52.61 185.67 60.34
  C 186.33 70.12 177.55 75.21 168.94 75.03
  C 161.97 74.88 155.02 75.00 148.27 75.00
  Q 147.75 75.00 147.75 74.48
  L 147.75 28.07
  Q 147.75 27.60 148.23 27.61
  Q 155.75 27.88 163.23 27.72
  C 170.86 27.56 178.99 30.49 180.46 38.79
  Q 181.46 44.46 178.13 49.38
  Z
  M 158.51 36.50
  L 158.45 46.28
  A 0.28 0.28 0.0 0 0 158.72 46.57
  L 163.21 46.60
  A 5.45 5.11 0.4 0 0 168.70 41.53
  L 168.70 41.41
  A 5.45 5.11 0.4 0 0 163.29 36.26
  L 158.80 36.23
  A 0.28 0.28 0.0 0 0 158.51 36.50
  Z
  M 158.48 56.54
  L 158.48 66.22
  A 0.29 0.29 0.0 0 0 158.77 66.51
  L 168.71 66.51
  A 5.01 4.18 0.0 0 0 173.72 62.33
  L 173.72 60.43
  A 5.01 4.18 -0.0 0 0 168.71 56.25
  L 158.77 56.25
  A 0.29 0.29 0.0 0 0 158.48 56.54
  Z"
    />
    <path fill="#000000" d="
  M 252.76 38.80
  L 252.77 44.70
  A 0.30 0.30 0.0 0 0 253.07 45.00
  L 266.99 45.00
  A 0.30 0.30 0.0 0 1 267.29 45.30
  L 267.29 54.95
  A 0.30 0.30 0.0 0 1 266.99 55.25
  L 253.06 55.25
  A 0.30 0.30 0.0 0 0 252.76 55.55
  L 252.76 63.20
  A 0.30 0.30 0.0 0 0 253.06 63.50
  L 273.70 63.50
  A 0.30 0.30 0.0 0 1 274.00 63.80
  L 274.00 74.20
  A 0.30 0.30 0.0 0 1 273.70 74.50
  L 240.80 74.50
  A 0.30 0.30 0.0 0 1 240.50 74.20
  L 240.50 27.80
  A 0.30 0.30 0.0 0 1 240.80 27.50
  L 272.88 27.50
  A 0.30 0.30 0.0 0 1 273.18 27.80
  L 273.19 38.20
  A 0.30 0.30 0.0 0 1 272.89 38.50
  L 253.06 38.50
  A 0.30 0.30 0.0 0 0 252.76 38.80
  Z"
    />
    <path fill="#7c8dff" d="
  M 213.84 50.50
  L 221.06 50.47
  A 0.30 0.30 0.0 0 1 221.36 50.77
  L 221.27 57.31
  A 0.30 0.30 0.0 0 0 221.57 57.61
  L 228.71 57.58
  A 0.30 0.30 0.0 0 1 229.01 57.88
  L 229.02 65.01
  A 0.30 0.30 0.0 0 0 229.33 65.31
  L 236.38 65.08
  A 0.30 0.30 0.0 0 1 236.69 65.38
  L 236.73 73.43
  A 0.30 0.30 0.0 0 1 236.43 73.73
  L 190.76 73.76
  A 0.30 0.30 0.0 0 1 190.46 73.46
  L 190.44 28.66
  A 0.30 0.30 0.0 0 1 190.74 28.36
  L 198.01 28.41
  A 0.30 0.30 0.0 0 1 198.31 28.71
  L 198.22 35.69
  A 0.30 0.30 0.0 0 0 198.52 35.99
  L 205.68 36.01
  A 0.30 0.30 0.0 0 1 205.98 36.31
  L 205.99 42.96
  A 0.30 0.30 0.0 0 0 206.29 43.26
  L 213.34 43.22
  A 0.30 0.30 0.0 0 1 213.64 43.53
  L 213.54 50.19
  A 0.30 0.30 0.0 0 0 213.84 50.50
  Z"
    />
</svg>
