<?xml version="1.0" standalone="no"?>
<!DOCTYPE svg PUBLIC "-//W3C//DTD SVG 20010904//EN"
    "http://www.w3.org/TR/2001/REC-SVG-20010904/DTD/svg10.dtd">
<svg version="1.0" xmlns="http://www.w3.org/2000/svg"
     width="2560.000000pt" height="620.000000pt" viewBox="0 0 2560.000000 620.000000"
     preserveAspectRatio="xMidYMid meet">

    <g transform="translate(0.000000,620.000000) scale(0.100000,-0.100000)"
       fill="#000000" stroke="none">
        <path d="M1025 6190 c-388 -51 -730 -300 -902 -656 -66 -136 -100 -268 -114
-434 -7 -82 -9 -637 -7 -1600 4 -1460 4 -1476 26 -1611 28 -172 79 -357 137
-501 317 -777 1037 -1307 1870 -1378 88 -8 474 -10 1185 -8 l1055 3 98 27
c393 108 697 390 822 762 57 171 55 98 55 1766 0 988 -4 1575 -10 1641 -45
448 -225 871 -517 1219 -365 434 -912 717 -1488 770 -130 12 -2119 12 -2210 0z
m2317 -728 c394 -90 726 -314 943 -637 104 -155 173 -314 223 -515 l26 -105 3
-1571 3 -1572 -21 -57 c-47 -125 -161 -234 -289 -275 -65 -21 -72 -21 -1145
-17 l-1080 3 -115 28 c-643 156 -1099 671 -1169 1318 -7 63 -11 602 -11 1550
0 1582 -2 1516 56 1630 34 67 135 167 199 198 107 51 68 49 1210 47 1064 -3
1071 -3 1167 -25z"/>
        <path d="M1770 4761 c-159 -52 -265 -155 -311 -302 -18 -58 -19 -104 -19 -857
0 -488 4 -811 10 -832 17 -61 73 -143 125 -182 179 -135 439 -72 534 131 l26
56 5 545 c5 526 6 547 26 590 25 54 72 103 128 133 39 21 56 22 351 28 227 4
319 9 345 19 198 77 288 295 199 486 -32 69 -115 147 -186 176 l-58 23 -560 2
c-516 2 -564 1 -615 -16z"/>
        <path d="M3389 3667 c-107 -30 -200 -114 -241 -216 -22 -55 -23 -65 -28 -601
-5 -537 -5 -546 -27 -586 -12 -22 -39 -56 -59 -74 -73 -63 -79 -64 -419 -70
l-311 -5 -66 -33 c-77 -38 -128 -91 -166 -172 -36 -75 -37 -188 -3 -273 28
-70 106 -153 173 -185 84 -39 157 -43 703 -40 504 3 522 4 577 24 141 54 246
165 289 304 19 63 19 92 17 870 l-3 805 -33 67 c-56 115 -162 185 -289 194
-40 2 -87 -2 -114 -9z"/>
        <path d="M7745 4750 c-540 -61 -861 -372 -891 -861 -23 -377 159 -670 538
-864 138 -71 247 -112 445 -169 317 -90 493 -168 588 -261 76 -73 99 -139 100
-280 0 -102 -2 -114 -29 -169 -79 -161 -256 -236 -526 -223 -302 14 -573 173
-766 447 -29 41 -62 76 -81 85 -59 29 -91 14 -231 -109 -220 -193 -231 -210
-192 -290 28 -59 162 -209 261 -292 272 -231 562 -354 906 -384 293 -27 619
46 836 186 333 216 473 600 372 1022 -9 37 -39 114 -67 171 -44 93 -61 115
-147 201 -192 193 -434 315 -852 430 -447 124 -580 230 -579 464 1 80 15 129
55 186 87 126 330 200 560 172 234 -29 395 -121 561 -323 71 -85 108 -105 165
-89 39 11 315 243 334 280 37 71 7 126 -147 276 -209 203 -451 328 -733 379
-108 19 -369 27 -480 15z"/>
        <path d="M14382 4743 c-66 -32 -62 87 -62 -1646 l0 -1574 22 -28 c37 -47 72
-55 250 -55 186 0 220 10 250 70 17 33 18 130 18 1595 0 1530 0 1561 -20 1592
-34 57 -59 63 -252 63 -139 0 -179 -4 -206 -17z"/>
        <path d="M10385 3799 c-38 -5 -110 -21 -160 -35 -400 -113 -672 -401 -788
-834 -30 -112 -31 -121 -31 -340 -1 -214 0 -230 27 -335 91 -359 295 -624 592
-771 224 -110 445 -145 691 -109 256 38 491 161 674 351 95 100 113 141 84
200 -15 30 -50 61 -158 136 -126 88 -144 98 -184 98 -42 0 -48 -4 -140 -93
-108 -103 -143 -128 -228 -158 -74 -27 -271 -37 -357 -20 -151 32 -308 157
-379 301 -55 113 -79 207 -85 342 -8 175 20 315 92 458 38 76 163 199 242 239
156 78 337 82 491 9 67 -32 171 -121 217 -188 34 -48 70 -70 119 -70 36 0 63
18 236 155 83 66 91 76 97 123 7 54 -11 85 -119 197 -225 236 -445 340 -738
350 -69 2 -156 0 -195 -6z"/>
        <path d="M12622 3800 c-460 -65 -818 -388 -937 -845 -38 -146 -48 -252 -42
-425 12 -336 118 -603 326 -821 190 -202 420 -313 702 -341 231 -23 462 28
639 143 70 45 80 47 80 18 0 -34 38 -78 78 -90 23 -6 103 -9 209 -7 156 3 174
5 200 24 55 41 54 11 51 1148 -3 995 -4 1052 -21 1078 -34 50 -69 58 -252 58
-216 0 -236 -8 -269 -114 -6 -17 -8 -17 -24 -3 -60 53 -224 128 -347 158 -93
22 -298 32 -393 19z m303 -525 c197 -51 342 -194 413 -408 74 -221 53 -492
-51 -692 -45 -86 -155 -193 -245 -237 -96 -49 -163 -61 -297 -56 -89 4 -122
10 -173 31 -231 96 -373 321 -389 618 -7 127 8 243 46 350 39 109 85 180 167
258 112 107 219 149 379 150 51 1 117 -6 150 -14z"/>
        <path d="M16165 3799 c-242 -32 -469 -145 -640 -318 -167 -169 -268 -370 -322
-637 -26 -134 -24 -405 5 -541 53 -244 154 -444 306 -601 255 -265 594 -377
1002 -331 266 29 487 131 679 312 211 198 209 248 -14 404 -125 87 -137 93
-183 93 -49 0 -50 -1 -154 -101 -121 -116 -196 -158 -333 -185 -118 -23 -313
-16 -393 15 -135 52 -233 145 -308 291 -33 65 -70 167 -70 192 0 4 357 8 794
8 l793 0 34 23 c54 36 59 56 59 225 0 116 -5 179 -20 253 -94 460 -415 792
-855 884 -97 20 -284 27 -380 14z m316 -523 c167 -36 293 -150 355 -322 l24
-64 -541 0 -540 0 6 23 c16 51 80 152 135 210 109 116 227 165 400 166 52 0
125 -6 161 -13z"/>
        <path d="M21825 3799 c-355 -45 -676 -274 -839 -600 -93 -185 -136 -377 -136
-609 0 -371 120 -682 350 -910 351 -347 935 -421 1322 -167 l65 43 14 -40 c26
-74 46 -81 249 -84 152 -3 185 -1 215 14 69 32 65 -40 65 1139 0 979 -1 1069
-17 1095 -30 51 -50 55 -254 55 -214 0 -230 -5 -259 -82 l-15 -41 -35 25
c-192 134 -462 195 -725 162z m309 -524 c291 -76 472 -371 453 -740 -17 -328
-186 -571 -447 -640 -72 -19 -230 -19 -305 0 -154 40 -284 151 -360 308 -67
137 -89 252 -82 422 7 147 22 215 76 330 77 164 206 274 372 319 72 20 220 20
293 1z"/>
        <path d="M17604 3726 c-42 -19 -74 -62 -74 -101 0 -18 155 -505 345 -1082 301
-913 349 -1052 375 -1078 l30 -30 183 -3 c203 -3 235 5 268 63 9 17 111 304
225 638 119 349 211 603 215 595 4 -7 93 -285 199 -618 105 -333 198 -616 207
-628 27 -44 69 -52 253 -52 184 0 226 8 253 52 9 12 170 497 358 1077 l342
1054 -14 40 c-26 74 -48 82 -232 85 -174 4 -220 -4 -254 -40 -14 -15 -91 -239
-223 -653 -112 -346 -206 -636 -209 -643 -4 -7 -98 274 -210 625 -112 351
-210 649 -218 661 -27 43 -69 52 -243 52 -174 0 -216 -9 -243 -52 -8 -12 -108
-309 -222 -658 -114 -349 -210 -638 -214 -643 -4 -4 -101 282 -215 635 -114
354 -214 654 -222 666 -29 44 -69 52 -256 52 -122 -1 -182 -5 -204 -14z"/>
        <path d="M23462 3723 c-39 -19 -62 -59 -62 -106 0 -21 160 -455 409 -1112
l409 -1077 -14 -41 c-52 -148 -130 -196 -342 -213 -100 -8 -135 -22 -162 -67
-17 -28 -20 -51 -20 -172 0 -123 3 -144 20 -173 30 -49 72 -62 194 -62 281 0
454 65 622 234 66 67 89 99 132 186 76 151 944 2455 944 2502 -1 46 -24 82
-67 102 -26 13 -67 16 -189 16 -167 0 -210 -9 -238 -49 -8 -11 -145 -357 -303
-768 -159 -412 -291 -751 -295 -756 -3 -4 -131 334 -284 750 -153 417 -286
766 -295 777 -33 39 -73 46 -253 46 -139 0 -179 -4 -206 -17z"/>
    </g>
</svg>
