<?xml version="1.0" encoding="UTF-8" standalone="no"?>
<svg
        width="143.98964"
        height="166.54115"
        viewBox="0 0 143.98964 166.54115"
        xmlns="http://www.w3.org/2000/svg">
  <g  transform="translate(-23.193353,-27.12877)">
    <path
            style="fill:none;fill-opacity:1;stroke:#ffffff;stroke-width:0;stroke-miterlimit:4;stroke-dasharray:none;stroke-opacity:1"
            d="m 106.16211,29.128906 a 81.27137,81.27137 0 0 0 -80.968751,81.271484 81.27137,81.27137 0 0 0 81.271481,81.26953 81.27137,81.27137 0 0 0 56.11719,-22.48242 l -57.01758,-57.01758 58.80078,-58.800779 a 81.27137,81.27137 0 0 0 -57.90039,-24.240235 81.27137,81.27137 0 0 0 -0.30273,0 z m 0.94922,39.964844 a 9.1679707,9.0070372 0 0 1 0.0801,0 9.1679707,9.0070372 0 0 1 9.16797,9.005859 9.1679707,9.0070372 0 0 1 -9.16797,9.007813 9.1679707,9.0070372 0 0 1 -9.167972,-9.007813 9.1679707,9.0070372 0 0 1 9.087892,-9.005859 z" />
    <path
            style="fill:none;fill-opacity:0;stroke:#ffffff;stroke-width:4;stroke-miterlimit:4;stroke-dasharray:none;stroke-opacity:1"
            d="m 106.1621,29.128911 a 81.27137,81.27137 0 0 0 -80.968747,81.271479 81.27137,81.27137 0 0 0 81.271487,81.26953 81.27137,81.27137 0 0 0 56.11718,-22.48242 l -57.01757,-57.01758 58.80078,-58.800779 a 81.27137,81.27137 0 0 0 -57.90039,-24.24023 81.27137,81.27137 0 0 0 -0.30274,0 z" />
    <path
            style="opacity:1;fill:#ffffff;fill-opacity:1;stroke:#ffffff;stroke-width:4;stroke-miterlimit:4;stroke-dasharray:none;stroke-opacity:1"
            d="M 54.636719,47.589844 A 81.27137,81.27137 0 0 0 34.800781,71.939453 l 87.316409,23.480469 23.39453,-23.394531 z m 52.775391,20.96875 a 9.1732044,9.1732044 0 0 1 9.17187,9.171875 9.1732044,9.1732044 0 0 1 -9.17187,9.173828 9.1732044,9.1732044 0 0 1 -9.173829,-9.173828 9.1732044,9.1732044 0 0 1 9.173829,-9.171875 z" />
  </g>
</svg>
