<svg id="Capa_1" xmlns="http://www.w3.org/2000/svg" viewBox="0 0 640 140">
    <path
        d="M1.65,39.89c.09-.13.26-.25.28-.39.59-3.81,4.69-5,8-2.68,6.57,4.55,13.26,8.93,19.92,13.37A5.33,5.33,0,0,1,32.43,55q-.09,12.27,0,24.54a5.47,5.47,0,0,1-2.61,5C23.11,89,16.44,93.57,9.72,98c-3.5,2.32-5.87,1.38-8.07-3Z"
        style="fill:#f44862"/>
    <path
        d="M257.94,88.24H247.3c0-.69-.09-1.32-.09-2,0-7.08,0-14.15,0-21.23,0-5.63-3.52-9.31-8.79-9.26-5.44.06-9.2,3.84-9.23,9.37,0,7,0,13.94,0,20.9v2.21c-3.47,0-6.82,0-10.17-.06-.26,0-.71-1-.72-1.51-.05-4.76,0-9.51,0-14.27,0-2.6,0-5.2,0-7.79-.14-5.38-3.6-8.87-8.69-8.84s-9.12,3.69-9.19,8.88c-.11,7.13,0,14.26,0,21.4v2.19c-3.49,0-6.84,0-10.19,0-.23,0-.57-.45-.66-.75a4.73,4.73,0,0,1-.06-1.31c0-12.5,0-25,0-37.49,0-1.63.36-2.23,2.11-2.13,2.63.17,5.29,0,8.18,0,.15,1.51.3,3,.48,4.76,3.9-4.39,8.66-6,14.1-5.73a15.43,15.43,0,0,1,12.89,7.5l1.29-1.5c7.25-8.39,21.06-8,27.1.86a13.39,13.39,0,0,1,2.54,7.58c0,9,0,18,0,27A10.6,10.6,0,0,1,257.94,88.24Z"
        style="fill:#385d7e"/>
    <path
        d="M415,84.05v21.7H404V46.61h6.89c3.59,0,3.59,0,3.74,3.64,0,.32.08.63.13,1.12a3,3,0,0,0,.76-.42c6.77-7.84,21.74-7,28.83,2.23,6.35,8.27,6.51,23.95-2.84,31.67-6.21,5.12-18.83,6.57-25.54,0C415.77,84.6,415.49,84.44,415,84.05Zm-.07-16.65c-.07,6.77,4.86,12,11.38,12.07A11.69,11.69,0,0,0,438,67.64c0-6.8-5.05-12.28-11.55-12.19A11.52,11.52,0,0,0,414.91,67.4Z"
        style="fill:#385d7e"/>
    <path
        d="M302.22,51.4c.15-1.66.29-3.13.45-4.78,3.3,0,6.49,0,9.67,0,.3,0,.68.54.84.91a2.87,2.87,0,0,1,.05,1.14c0,12.5,0,25,0,37.48,0,1.6-.33,2.26-2.09,2.16-2.75-.16-5.52,0-8.51,0l-.45-4.82c-1.08.92-2,1.79-3,2.52-7.19,5.28-18.37,4.11-24.85-2.58-7.94-8.18-8.11-23.12-.47-31.52,6.85-7.53,20.81-8.8,27.7-.86A2.64,2.64,0,0,0,302.22,51.4Zm.09,16.11c0-6.86-5-12.08-11.63-12.09-6.34,0-11.17,5.08-11.49,11.49a11.63,11.63,0,0,0,11.39,12.56C297.23,79.5,302.27,74.38,302.31,67.51Z"
        style="fill:#385d7e"/>
    <path
        d="M592.12,46.61c3.93,0,7.58-.06,11.21.07.49,0,1.16.85,1.38,1.45,2.93,8,5.8,16.07,8.69,24.11.56,1.54,1.14,3.08,1.86,5,.42-1,.7-1.67.93-2.31,3.18-8.93,6.39-17.85,9.5-26.81a1.93,1.93,0,0,1,2.22-1.57c3.4.08,6.81,0,10.44,0-.27.75-.43,1.25-.64,1.74Q628.34,71,618.94,93.57a36.12,36.12,0,0,1-3,5.72c-4.71,7.23-14.72,9.73-22.58,5.61.43-2.75.86-5.56,1.32-8.48,1.53.29,2.95.64,4.4.81,5.26.61,9.07-3.48,10.12-8.29a3.62,3.62,0,0,0-.45-1.89q-8-19.33-16-38.67C592.58,47.88,592.4,47.37,592.12,46.61Z"
        style="fill:#385d7e"/>
    <path
        d="M513.94,45.15a22.31,22.31,0,0,1,22.38,22.3c-.11,12-9.05,22.31-22.33,22.33a22.05,22.05,0,0,1-22.34-22.29A22.31,22.31,0,0,1,513.94,45.15Zm11.41,22.38c0-6.75-4.85-11.83-11.35-11.86s-11.44,5.06-11.46,11.77,4.92,11.86,11.37,11.94S525.34,74.17,525.35,67.53Z"
        style="fill:#385d7e"/>
    <path
        d="M564.08,74.27l-2,2.92c-2.28,3.32-4.53,6.67-6.85,10a2.61,2.61,0,0,1-1.63,1.1c-3.64.1-7.29,0-11.28,0,.43-.68.72-1.16,1-1.61,4.42-6.14,8.82-12.3,13.29-18.4a1.78,1.78,0,0,0,0-2.56C552.24,60,548,54.24,543.67,48.48c-.39-.52-.77-1-1.37-1.87a78,78,0,0,0,8.27-.06c3.18-.36,5.18.7,6.81,3.48,1.91,3.26,4.32,6.23,6.68,9.54.49-.66.85-1.12,1.18-1.59,2.39-3.38,4.8-6.75,7.15-10.16a2.4,2.4,0,0,1,2.29-1.24c3.58.08,7.16,0,11,0-.46.68-.78,1.16-1.12,1.63-4.31,5.81-8.59,11.64-13,17.42a1.9,1.9,0,0,0,0,2.71c4.49,6.09,8.92,12.23,13.36,18.35.31.43.6.88,1.06,1.56-4.1,0-7.94,0-11.78,0-.44,0-.94-.68-1.26-1.14C570.07,82.93,567.19,78.76,564.08,74.27Z"
        style="fill:#385d7e"/>
    <path
        d="M177.17,56.69c-3.88-.62-7.5-1.41-11.16-1.71a27,27,0,0,0-6.86.63,3.18,3.18,0,0,0-2.91,3.14c0,1.81,1.29,2.68,2.75,3.1,2.44.68,4.94,1.1,7.41,1.68a49.58,49.58,0,0,1,6.07,1.57c5.08,1.93,7.49,5.5,7.59,10.72.1,5.41-2.39,9.2-7.23,11.42a25.48,25.48,0,0,1-11.15,2,40.72,40.72,0,0,1-14.1-2.53c-1-.37-1.27-.76-1.09-1.8.41-2.43.68-4.89,1-7.34a59.87,59.87,0,0,0,8.09,2,63.72,63.72,0,0,0,10.52.19,3.23,3.23,0,0,0,3.37-3.06c.12-1.57-.83-3-2.92-3.52-3.13-.85-6.34-1.43-9.5-2.16a27.36,27.36,0,0,1-4.13-1.13,10.69,10.69,0,0,1-7.21-10c-.31-5.33,2.05-9.15,6.65-11.62A24.84,24.84,0,0,1,165,45.68a33.18,33.18,0,0,1,11.81,2.23c.47.19,1.16.74,1.14,1.08C177.8,51.61,177.45,54.23,177.17,56.69Z"
        style="fill:#385d7e"/>
    <path
        d="M392.72,78.78c.34,2.71.69,5.33.93,8a1.46,1.46,0,0,1-.81,1.14c-5,1.45-10.06,2.07-15.16.51-6-1.85-9.2-6.4-9.29-13.52-.08-5.74,0-11.49,0-17.24V55.57c-2,0-3.78,0-5.59,0-1,0-1.48-.34-1.45-1.44.07-2.43,0-4.85,0-7.58h4.85c2.2,0,2.2,0,2.21-2.13,0-3.15,0-6.3,0-9.46,0-.59,0-1.18.08-1.85H379V46.49c.75,0,1.34.11,1.92.11,3,0,6,0,9,0,1,0,1.38.36,1.37,1.34q0,3.07,0,6.14c0,1.17-.49,1.53-1.6,1.51-2.81,0-5.64,0-8.45,0-1.37,0-1.94.29-1.91,1.83.09,5.47,0,10.95,0,16.42a5.47,5.47,0,0,0,5.92,5.7C387.72,79.37,390.12,79,392.72,78.78Z"
        style="fill:#385d7e"/>
    <path
        d="M54.16,67.06c0-7.13,0-14.26,0-21.38,0-2.15.65-3.86,2.61-4.77A4.65,4.65,0,0,1,62.21,42c3.39,3.16,6.88,6.22,10.18,9.48a5.22,5.22,0,0,1,1.47,3.33Q74,67,73.85,79.2a5.07,5.07,0,0,1-1.41,3.17c-3.33,3.31-6.81,6.47-10.27,9.65a4.69,4.69,0,0,1-5.49,1c-1.91-.9-2.55-2.53-2.54-4.61C54.2,81.32,54.16,74.19,54.16,67.06Z"
        style="fill:#f44862"/>
    <path
        d="M95.62,66.68q0-9.2,0-18.4c0-2.64.91-4.05,3.09-4.93A5.67,5.67,0,0,1,105,44.7a61,61,0,0,1,4.12,5A5,5,0,0,1,110,52.4c.07,9.62,0,19.23,0,28.84,0,.44.08,1-.16,1.29-2.14,2.56-4,5.66-6.64,7.43-3.21,2.11-7.64,0-7.62-4.55C95.63,79.17,95.62,72.92,95.62,66.68Z"
        style="fill:#f44862"/>
    <path
        d="M469.7,88.19h-11V46.74h10.62v5l.42.21a12.41,12.41,0,0,1,7.05-5.82,14.93,14.93,0,0,1,9.1.53c-.29,3.22-.57,6.33-.83,9.18-2.52-.09-4.86-.54-7.07-.18-5.29.85-8.26,4.54-8.3,9.92-.06,7.07,0,14.14,0,21.22Z"
        style="fill:#385d7e"/>
    <path
        d="M336.59,88.28c-3.42,0-6.71,0-10,0-.29,0-.66-.47-.81-.8a2.92,2.92,0,0,1-.06-1.15c0-12.54,0-25.09,0-37.63,0-1.68.46-2.19,2.15-2.1,2.75.14,5.51,0,8.52,0v5.14l.46.15c.26-.35.52-.7.77-1.06,3.73-5.39,9.39-6,14.54-4.4a1.33,1.33,0,0,1,.75,1c-.2,2.85-.5,5.7-.78,8.73-1.1-.2-2.1-.4-3.1-.56-7-1.12-12.21,3.16-12.29,10.29s0,14.15,0,21.22C336.66,87.42,336.63,87.7,336.59,88.28Z"
        style="fill:#385d7e"/>
</svg>
