<?xml version="1.0" encoding="UTF-8" standalone="no"?>
<!DOCTYPE svg PUBLIC "-//W3C//DTD SVG 1.1//EN" "http://www.w3.org/Graphics/SVG/1.1/DTD/svg11.dtd">
<svg xmlns="http://www.w3.org/2000/svg" version="1.1" viewBox="0.00 0.00 180.00 50.00">
<path fill="#de132c" d="
  M 50.92 1.42
  L 63.11 1.42
  A 0.33 0.33 0.0 0 1 63.37 1.96
  L 25.11 48.38
  A 0.33 0.33 0.0 0 1 24.86 48.50
  L 6.87 48.68
  A 0.33 0.33 0.0 0 1 6.54 48.35
  L 6.54 46.92
  A 0.33 0.33 0.0 0 1 6.88 46.59
  L 13.28 46.74
  A 0.33 0.33 0.0 0 0 13.54 46.62
  L 31.23 25.20
  A 0.33 0.33 0.0 0 0 31.23 24.78
  L 14.09 4.01
  A 0.33 0.33 0.0 0 0 13.83 3.89
  L 0.77 3.96
  A 0.33 0.33 0.0 0 1 0.44 3.62
  L 0.46 1.75
  A 0.33 0.33 0.0 0 1 0.80 1.42
  L 24.83 1.44
  A 0.33 0.33 0.0 0 1 25.09 1.56
  L 37.62 16.83
  A 0.33 0.33 0.0 0 0 38.13 16.83
  L 50.66 1.54
  A 0.33 0.33 0.0 0 1 50.92 1.42
  Z"
/>
<path fill="#000000" d="
  M 115.78 13.25
  C 117.10 21.96 117.54 33.91 113.06 41.78
  Q 110.35 46.54 104.20 44.26
  Q 96.54 30.27 100.64 12.07
  C 103.65 -1.32 113.94 2.28 115.78 13.25
  Z
  M 104.02 32.72
  Q 104.65 35.68 105.96 37.57
  A 2.30 2.29 -34.4 0 0 109.13 38.16
  C 110.25 37.40 111.27 35.83 111.64 34.41
  Q 114.84 22.07 110.54 11.28
  Q 107.60 8.78 105.76 11.29
  C 101.98 16.42 102.65 27.22 104.02 32.72
  Z"
/>
<path fill="#000000" d="
  M 122.81 11.05
  L 123.87 16.48
  Q 123.90 16.66 124.09 16.65
  Q 124.24 16.63 124.28 16.45
  Q 124.82 16.71 124.88 16.48
  Q 126.35 10.63 128.42 4.02
  A 0.98 0.98 0.0 0 1 129.63 3.37
  Q 130.70 3.68 130.98 5.53
  L 126.93 24.45
  L 131.38 39.68
  Q 131.72 43.13 129.54 45.83
  C 127.10 41.89 126.09 35.70 124.84 30.93
  Q 124.82 30.66 124.70 30.41
  A 0.47 0.47 0.0 0 0 123.81 30.51
  Q 122.31 37.10 120.31 43.50
  Q 119.86 44.94 118.55 45.33
  Q 116.67 42.44 117.57 39.01
  Q 119.12 33.15 122.05 23.69
  Q 122.20 23.20 122.05 22.71
  C 119.87 15.74 116.74 7.39 118.65 3.74
  A 0.95 0.94 44.6 0 1 120.32 3.73
  Q 122.11 7.03 122.81 11.05
  Z"
/>
<path fill="#000000" d="
  M 147.17 5.72
  L 141.54 25.83
  A 11.09 10.93 51.9 0 0 141.15 29.28
  Q 141.40 35.09 141.08 41.50
  Q 140.93 44.51 138.67 45.94
  Q 137.16 38.29 137.39 30.00
  C 137.64 21.15 131.77 13.36 132.60 4.38
  A 1.17 1.16 26.1 0 1 134.61 3.70
  C 136.72 5.95 138.21 14.52 139.00 17.76
  Q 139.51 19.82 140.07 17.78
  L 143.91 3.88
  A 0.96 0.96 0.0 0 1 145.62 3.57
  L 147.17 5.72
  Z"
/>
<path fill="#000000" d="
  M 157.80 6.02
  Q 157.41 24.15 157.51 42.25
  Q 157.52 43.88 155.72 45.76
  Q 154.05 43.48 154.04 41.75
  Q 153.93 24.14 154.11 6.52
  Q 154.13 4.66 155.33 3.39
  A 0.62 0.61 -48.2 0 1 156.17 3.34
  Q 157.28 4.29 157.80 6.02
  Z"
/>
<path fill="#000000" d="
  M 177.36 13.71
  Q 178.28 23.17 177.31 32.48
  C 176.69 38.30 174.86 45.16 167.60 45.44
  Q 163.36 42.29 161.94 36.04
  C 160.31 28.84 158.87 8.22 166.95 3.94
  C 172.58 0.95 176.61 9.27 177.36 13.71
  Z
  M 165.26 31.59
  C 165.76 33.72 166.24 37.47 168.50 38.34
  A 2.36 2.36 0.0 0 0 171.20 37.58
  Q 173.21 34.97 173.80 31.68
  Q 175.98 19.64 171.21 10.64
  Q 167.97 8.92 166.54 11.78
  C 163.88 17.09 163.64 25.89 165.26 31.59
  Z"
/>
<path fill="#000000" d="
  M 78.88 8.73
  C 79.24 14.40 81.92 31.45 70.46 28.52
  A 0.57 0.57 0.0 0 0 69.75 29.08
  Q 69.81 35.54 69.64 42.11
  Q 69.59 44.20 67.79 45.53
  Q 66.21 43.40 66.20 40.75
  Q 66.17 23.96 66.22 6.39
  A 2.42 2.42 0.0 0 1 68.77 3.98
  C 73.57 4.25 76.92 3.10 78.88 8.73
  Z
  M 70.13 22.43
  Q 74.73 23.15 75.57 19.77
  C 76.02 17.95 76.43 12.74 74.47 11.27
  Q 74.65 11.01 74.40 10.87
  Q 72.51 9.82 70.32 10.19
  Q 69.82 10.27 69.83 10.77
  L 70.13 22.43
  Z"
/>
<path fill="#000000" d="
  M 96.67 10.49
  C 96.86 14.74 97.59 21.29 94.20 24.56
  Q 92.39 26.30 93.25 27.15
  Q 96.34 33.40 97.39 40.43
  Q 97.57 43.62 95.29 45.74
  C 91.59 39.89 92.16 30.65 88.83 28.04
  Q 88.40 26.75 86.90 27.15
  A 1.13 1.13 0.0 0 0 86.07 28.35
  Q 86.84 36.15 85.78 43.50
  Q 85.55 45.09 83.98 45.30
  Q 82.54 43.47 82.53 41.00
  Q 82.48 24.24 82.55 6.49
  A 2.50 2.49 -89.9 0 1 85.03 4.01
  C 87.27 4.01 92.43 3.29 94.16 5.33
  Q 96.32 7.89 96.67 10.49
  Z
  M 86.40 20.97
  Q 92.69 22.53 93.19 16.78
  Q 93.47 13.44 92.04 11.07
  Q 90.23 9.84 86.72 10.23
  Q 86.17 10.30 86.18 10.86
  L 86.40 20.97
  Z"
/>

<path fill="#de132c" d="
  M 50.72 48.41
  L 39.55 34.95
  A 0.31 0.31 0.0 0 1 39.55 34.56
  L 45.58 27.04
  A 0.31 0.31 0.0 0 1 46.06 27.03
  L 63.36 48.04
  A 0.31 0.31 0.0 0 1 63.12 48.55
  L 50.96 48.52
  A 0.31 0.31 0.0 0 1 50.72 48.41
  Z"
/>
<path fill="#000000" d="
  M 150.12 39.69
  Q 150.18 43.94 147.87 45.56
  Q 145.02 41.67 147.17 37.08
  A 0.88 0.88 0.0 0 1 148.59 36.83
  Q 149.80 38.04 150.12 39.69
  Z"
/>
</svg>
