<svg width="74" height="32" viewBox="0 0 1600 686" fill="none" xmlns="http://www.w3.org/2000/svg" color="currentColor">
    <path d="M1597.42 356.54h-326.89c12.21 62.351 55.74 101.276 124.61 101.276 52.33 0 93.16-24.124 101.96-60.719h97.74c-15.72 89.155-96.8 148.126-201.46 148.126-124.61 0-221.41-96.148-221.41-222.48s96.8-218.285 219.77-218.285c115.1 0 208.26 87.407 208.26 211.176 0 11.421-.82 32.981-2.58 40.906Zm-102.78-82.279c-8.8-48.482-49.75-82.279-108.07-82.279-58.31 0-99.38 30.301-113.34 82.279h221.41ZM840.452 113.504 599.718 685.709H495.086l76.683-171.428-169.336-400.777h104.631l114.378 288.317L735.82 113.504h104.632ZM1039.97 205.225v170.496c0 53.608 33.11 75.284 80.32 75.284 10.57 0 21.73-.816 31.47-3.379v89.152c-14.91 3.379-36.63 5.127-52.37 5.127-94.18 0-157.006-57.104-157.006-164.552V205.225h-81.145v-91.716h81.145V0h97.816v113.509h111.56v91.716h-111.79ZM381.182 206.036v-92.532H0v92.532h261.872L0 444.124v92.649h381.182v-92.649H118.606l262.576-238.088Z"
          fill="#b02cce"></path>
</svg>