<?xml version="1.0" encoding="UTF-8" standalone="no"?>
<svg
   xmlns="http://www.w3.org/2000/svg"
   version="1.1"
   id="svg833"
   width="606.3067"
   height="166.54115"
   viewBox="0 0 606.3067 166.54115">
  <metadata
     id="metadata839">
  </metadata>
  <defs
     id="defs837" />
  <g
     id="g841"
     transform="translate(-23.193353,-27.12877)">
    <g
       aria-label="scrapoxy"
       id="text966"
       style="font-style:normal;font-variant:normal;font-weight:normal;font-stretch:normal;font-size:102.312px;line-height:1.25;font-family:Roboto;-inkscape-font-specification:Roboto;letter-spacing:0px;word-spacing:0px;fill:#000000;fill-opacity:1;stroke:none;stroke-width:2.5578"
       transform="translate(72)">
      <path
         d="m 175.87835,125.51994 q 0,-1.99828 -2.29803,-3.54695 -2.24806,-1.59862 -8.24291,-2.84755 -9.44187,-1.84841 -14.23775,-5.6951 -4.79587,-3.89665 -4.79587,-10.6908 0,-7.143859 5.99484,-12.089605 5.99484,-4.995703 16.23603,-4.995703 10.79072,0 17.18522,4.845832 6.3945,4.795875 6.09476,12.439296 l -0.0999,0.29975 h -16.38591 q 0,-3.19725 -1.59863,-4.845835 -1.59862,-1.648582 -5.24548,-1.648582 -2.64773,0 -4.44618,1.448754 -1.79845,1.448753 -1.79845,3.696823 0,2.14815 2.04824,3.64686 2.09819,1.49871 8.39278,2.69768 9.94145,1.94832 14.68736,5.84497 4.74592,3.84669 4.74592,10.94059 0,7.29373 -6.49441,12.03965 -6.44446,4.69596 -17.08531,4.69596 -11.0405,0 -17.48496,-5.59519 -6.3945,-5.59519 -6.09475,-12.48926 l 0.0999,-0.29974 h 15.28685 q 0.0999,3.84669 2.29802,5.54523 2.24807,1.69854 6.34455,1.69854 3.39708,0 5.14557,-1.29888 1.7485,-1.34884 1.7485,-3.79674 z"
         style="stroke-width:2.5578"
         id="path880" />
      <path
         d="m 223.18765,128.76715 q 3.44704,0 5.14558,-1.84841 1.69854,-1.89837 1.69854,-5.44532 h 15.38676 l 0.0999,0.29974 q 0.19983,8.8424 -6.14471,14.43759 -6.29459,5.54523 -16.18608,5.54523 -12.33938,0 -19.03363,-7.59347 -6.64428,-7.64343 -6.64428,-19.8829 v -1.14901 q 0,-12.18952 6.64428,-19.832942 6.64429,-7.643426 18.93372,-7.643426 10.29115,0 16.43586,5.745059 6.19467,5.695101 5.99484,15.636549 l -0.0999,0.29974 h -15.38676 q 0,-3.84669 -1.7485,-6.24463 -1.7485,-2.44789 -5.19553,-2.44789 -4.89579,0 -6.84411,3.94661 -1.89837,3.89664 -1.89837,10.54093 v 1.14901 q 0,6.79416 1.89837,10.64085 1.94832,3.84669 6.94402,3.84669 z"
         style="stroke-width:2.5578"
         id="path882" />
      <path
         d="m 282.28682,101.041 -5.49528,-0.05 q -2.8975,0 -4.74591,1.09905 -1.84841,1.0491 -2.74764,2.99743 v 35.61936 H 252.41251 V 86.653373 h 15.88634 l 0.59948,7.943167 q 1.69854,-4.246347 4.49614,-6.594327 2.79759,-2.347981 6.54437,-2.347981 1.14901,0 2.04823,0.149871 0.89923,0.149871 1.89837,0.449613 z"
         style="stroke-width:2.5578"
         id="path884" />
      <path
         d="m 319.70463,140.65692 q -0.94919,-1.69854 -1.64859,-3.84669 -0.64944,-2.14815 -0.99914,-4.49613 -2.19811,4.2963 -5.44531,6.89407 -3.19725,2.54781 -8.39278,2.54781 -8.4927,0 -13.23862,-4.34627 -4.69596,-4.39621 -4.69596,-11.93973 0,-8.04308 6.0448,-12.38934 6.0448,-4.39622 18.33423,-4.39622 h 6.94403 v -3.84669 q 0,-3.44703 -1.64858,-5.295444 -1.64858,-1.84841 -5.04566,-1.84841 -2.94747,0 -4.39622,1.398797 -1.3988,1.348837 -1.3988,4.246347 l -16.3859,-0.05 -0.0999,-0.29974 q -0.3497,-7.393639 6.14472,-12.339385 6.54437,-4.995703 17.23517,-4.995703 10.04137,0 16.23604,4.995703 6.24463,4.995703 6.24463,14.287715 v 20.38246 q 0,4.29631 0.69939,7.99313 0.74936,3.69682 2.19811,7.39364 z m -11.88978,-10.94059 q 3.09734,0 5.44532,-1.44875 2.39794,-1.44876 3.34712,-3.44704 v -7.14385 h -6.79416 q -4.04652,0 -5.84497,1.94832 -1.79845,1.94833 -1.79845,4.94575 0,2.29802 1.54867,3.74678 1.59862,1.39879 4.09647,1.39879 z"
         style="stroke-width:2.5578"
         id="path886" />
      <path
         d="m 392.79177,114.82914 q 0,12.18951 -5.49528,19.58315 -5.49527,7.34369 -15.48667,7.34369 -3.89665,0 -6.94403,-1.49871 -2.99742,-1.49872 -5.24549,-4.34627 v 25.578 H 342.73482 V 86.653373 h 15.9363 l 0.49957,5.894929 q 2.24806,-3.297164 5.3454,-5.095617 3.14729,-1.798453 7.19381,-1.798453 10.04136,0 15.53664,7.74334 5.54523,7.743338 5.54523,20.382468 z m -16.83552,-1.0491 q 0,-6.84411 -1.99828,-10.99055 -1.99828,-4.14643 -6.3945,-4.14643 -2.84755,0 -4.84583,1.049097 -1.94833,1.049103 -3.09734,3.047383 v 22.58057 q 1.19897,1.7485 3.14729,2.59777 1.99828,0.84927 4.89579,0.84927 4.44618,0 6.34454,-3.64686 1.94833,-3.69682 1.94833,-10.29115 z"
         style="stroke-width:2.5578"
         id="path888" />
      <path
         d="m 397.98729,113.18056 q 0,-12.18952 6.89407,-19.832945 6.89407,-7.693383 19.23346,-7.693383 12.38934,0 19.28341,7.693383 6.89407,7.643425 6.89407,19.832945 v 1.04909 q 0,12.23948 -6.89407,19.8829 -6.89407,7.64343 -19.1835,7.64343 -12.4393,0 -19.33337,-7.64343 -6.89407,-7.64342 -6.89407,-19.8829 z m 16.88548,1.04909 q 0,6.79416 2.09819,10.69081 2.14816,3.84669 7.24377,3.84669 4.94575,0 7.0939,-3.89665 2.14815,-3.89665 2.14815,-10.64085 v -1.04909 q 0,-6.59433 -2.14815,-10.54094 -2.14815,-3.99656 -7.19381,-3.99656 -4.9957,0 -7.14386,3.99656 -2.09819,3.99656 -2.09819,10.54094 z"
         style="stroke-width:2.5578"
         id="path890" />
      <path
         d="m 478.06841,102.58967 h 0.29975 l 6.84411,-15.936297 h 18.93371 l -15.6865,26.727007 16.23603,27.3265 H 485.7618 l -7.19382,-16.43586 h -0.29974 l -7.19381,16.43586 h -18.93371 l 16.23603,-27.3265 -15.73646,-26.727007 h 18.8338 z"
         style="stroke-width:2.5578"
         id="path892" />
      <path
         d="m 530.22357,116.87738 0.0499,0.39965 h 0.29975 l 8.9423,-30.623657 h 17.98454 l -21.53148,62.096587 q -2.49786,5.99484 -6.44446,9.89149 -3.94661,3.89665 -12.53922,3.89665 -2.1981,0 -3.5969,-0.29974 -1.3988,-0.24979 -4.39622,-0.99914 l 2.04824,-12.03965 q 0.6994,0.14987 1.0491,0.19983 0.34969,0.0999 0.89922,0.0999 3.99656,0 5.84497,-1.19897 1.84841,-1.14901 2.74764,-3.49699 l 1.34884,-3.497 -18.68393,-54.652987 h 17.93458 z"
         style="stroke-width:2.5578"
         id="path894" />
    </g>
    <path
       id="path845-1"
       style="fill:#f9d76f;fill-opacity:1;stroke:#000000;stroke-width:0;stroke-miterlimit:4;stroke-dasharray:none;stroke-opacity:1"
       d="m 106.16211,29.128906 a 81.27137,81.27137 0 0 0 -80.968751,81.271484 81.27137,81.27137 0 0 0 81.271481,81.26953 81.27137,81.27137 0 0 0 56.11719,-22.48242 l -57.01758,-57.01758 58.80078,-58.800779 a 81.27137,81.27137 0 0 0 -57.90039,-24.240235 81.27137,81.27137 0 0 0 -0.30273,0 z m 0.94922,39.964844 a 9.1679707,9.0070372 0 0 1 0.0801,0 9.1679707,9.0070372 0 0 1 9.16797,9.005859 9.1679707,9.0070372 0 0 1 -9.16797,9.007813 9.1679707,9.0070372 0 0 1 -9.167972,-9.007813 9.1679707,9.0070372 0 0 1 9.087892,-9.005859 z" />
    <path
       id="path845-1-5"
       style="fill:#f9d76f;fill-opacity:0;stroke:#000000;stroke-width:4;stroke-miterlimit:4;stroke-dasharray:none;stroke-opacity:1"
       d="m 106.1621,29.128911 a 81.27137,81.27137 0 0 0 -80.968747,81.271479 81.27137,81.27137 0 0 0 81.271487,81.26953 81.27137,81.27137 0 0 0 56.11718,-22.48242 l -57.01757,-57.01758 58.80078,-58.800779 a 81.27137,81.27137 0 0 0 -57.90039,-24.24023 81.27137,81.27137 0 0 0 -0.30274,0 z" />
    <path
       id="path845"
       style="opacity:1;fill:#a21b23;fill-opacity:1;stroke:#a21b23;stroke-width:4;stroke-miterlimit:4;stroke-dasharray:none;stroke-opacity:1"
       d="M 54.636719,47.589844 A 81.27137,81.27137 0 0 0 34.800781,71.939453 l 87.316409,23.480469 23.39453,-23.394531 z m 52.775391,20.96875 a 9.1732044,9.1732044 0 0 1 9.17187,9.171875 9.1732044,9.1732044 0 0 1 -9.17187,9.173828 9.1732044,9.1732044 0 0 1 -9.173829,-9.173828 9.1732044,9.1732044 0 0 1 9.173829,-9.171875 z" />
    <text
       xml:space="preserve"
       style="font-style:normal;font-weight:normal;font-size:40px;line-height:1.25;font-family:sans-serif;letter-spacing:0px;word-spacing:0px;fill:#000000;fill-opacity:1;stroke:none"
       x="230.03178"
       y="107.33558"
       id="text899"><tspan
         id="tspan897"
         x="230.03178"
         y="107.33558" /></text>
  </g>
</svg>
