<svg width="528.4126953125px" height="125.6px" xmlns="http://www.w3.org/2000/svg"
     viewBox="-14.206347656249989 12.200000000000003 528.4126953125 125.6" style="background: rgba(0, 0, 0, 0);"
     preserveAspectRatio="xMidYMid">
    <defs>
        <filter id="editing-extrusion" x="-100%" y="-100%" width="300%" height="300%">
            <feFlood result="color1" flood-color="#444"></feFlood>
            <feConvolveMatrix order="2,2" divisor="1" kernelMatrix="1 0 0 1" in="SourceAlpha"
                              result="extrude"></feConvolveMatrix>
            <feComposite in="color1" in2="extrude" result="comp-extrude" operator="in"></feComposite>
            <feOffset dx="1" dy="1" in="comp-extrude" result="offset-extrude"></feOffset>
            <feMerge>
                <feMergeNode in="offset-extrude"></feMergeNode>
                <feMergeNode in="SourceGraphic"></feMergeNode>
            </feMerge>
        </filter>
    </defs>
    <g filter="url(#editing-extrusion)">
        <g transform="translate(63.108152747154236, 99.79000473022461)">
            <path
                d="M29.15-10.32L29.15-10.32L29.15-10.32Q30.42-8.71 30.42-5.59L30.42-5.59L30.42-5.59Q30.42-2.48 28.04-0.57L28.04-0.57L28.04-0.57Q25.66 1.34 21.51 1.34L21.51 1.34L21.51 1.34Q19.10 1.34 15.34 0.80L15.34 0.80L15.34 0.80Q7.97-0.34 5.86-0.34L5.86-0.34L5.86-0.34Q3.75-0.34 2.88-0.23L2.88-0.23L2.88-0.23Q2.01-0.13 0.60 0L0.60 0L8.71-44.22L23.38-44.22L16.68-7.37L16.68-7.37Q17.55-7.24 18.36-7.24L18.36-7.24L20.03-7.24L20.03-7.24Q25.66-7.24 29.15-10.32ZM49.51 1.34L49.51 1.34L49.51 1.34Q34.77 1.34 34.77-12.53L34.77-12.53L34.77-12.53Q34.77-22.38 40.20-28.74L40.20-28.74L40.20-28.74Q45.96-35.51 55.95-35.51L55.95-35.51L55.95-35.51Q63.18-35.51 66.87-32.16L66.87-32.16L66.87-32.16Q70.55-28.81 70.55-21.78L70.55-21.78L70.55-21.78Q70.55-11.06 64.79-4.82L64.79-4.82L64.79-4.82Q59.16 1.34 49.51 1.34ZM51.26-27.81L51.26-27.81L51.26-27.81Q50.45-26.00 49.81-23.28L49.81-23.28L49.81-23.28Q49.18-20.57 48.37-16.28L48.37-16.28L48.37-16.28Q47.57-11.99 47.57-6.70L47.57-6.70L47.57-6.70Q47.57-4.96 48.14-3.82L48.14-3.82L48.14-3.82Q48.71-2.68 50.25-2.68L50.25-2.68L50.25-2.68Q51.79-2.68 52.76-3.42L52.76-3.42L52.76-3.42Q53.73-4.15 54.47-5.90L54.47-5.90L54.47-5.90Q55.81-8.98 56.88-14.71L56.88-14.71L56.88-14.71Q57.95-20.44 58.06-22.91L58.06-22.91L58.06-22.91Q58.16-25.39 58.16-27.24L58.16-27.24L58.16-27.24Q58.16-29.08 57.62-30.28L57.62-30.28L57.62-30.28Q57.08-31.49 55.58-31.49L55.58-31.49L55.58-31.49Q54.07-31.49 53.06-30.55L53.06-30.55L53.06-30.55Q52.06-29.61 51.26-27.81ZM107.40-27.87L107.40-27.87L107.40-27.87Q107.40-25.06 105.06-23.32L105.06-23.32L105.06-23.32Q102.71-21.57 98.89-21.57L98.89-21.57L98.89-21.57Q97.28-21.57 96.35-22.04L96.35-22.04L96.35-22.04Q97.08-23.79 97.32-25.96L97.32-25.96L97.32-25.96Q97.55-28.14 97.55-28.74L97.55-28.74L97.55-28.74Q97.55-31.56 95.61-31.56L95.61-31.56L95.61-31.56Q94.27-31.56 92.76-29.88L92.76-29.88L92.76-29.88Q91.25-28.21 89.98-25.59L89.98-25.59L89.98-25.59Q87.17-19.56 87.17-13.47L87.17-13.47L87.17-13.47Q87.17-10.12 88.44-8.61L88.44-8.61L88.44-8.61Q89.71-7.10 92.53-7.10L92.53-7.10L92.53-7.10Q96.41-7.10 99.50-10.32L99.50-10.32L99.50-10.32Q100.37-11.32 100.84-12.46L100.84-12.46L100.84-12.46Q103.38-11.12 103.38-7.44L103.38-7.44L103.38-7.44Q103.38-3.69 99.23-1.21L99.23-1.21L99.23-1.21Q94.94 1.34 88.11 1.34L88.11 1.34L88.11 1.34Q74.50 1.34 74.50-13.07L74.50-13.07L74.50-13.07Q74.50-23.58 80.47-29.61L80.47-29.61L80.47-29.61Q86.23-35.51 96.82-35.51L96.82-35.51L96.82-35.51Q107.40-35.51 107.40-27.87ZM112.12-2.01L112.12-2.01L112.12-2.01Q110.55-3.75 109.85-6.50L109.85-6.50L109.85-6.50Q109.14-9.25 109.14-13.74L109.14-13.74L109.14-13.74Q109.14-18.22 110.68-22.31L110.68-22.31L110.68-22.31Q112.23-26.40 115.04-29.35L115.04-29.35L115.04-29.35Q120.80-35.51 130.31-35.51L130.31-35.51L130.31-35.51Q133.73-35.51 136.21-34.37L136.21-34.37L147.67-35.51L142.71-9.38L142.71-9.38Q142.51-8.58 142.51-7.10L142.51-7.10L142.51-7.10Q142.51-5.63 143.41-4.69L143.41-4.69L143.41-4.69Q144.32-3.75 145.66-3.62L145.66-3.62L145.66-3.62Q144.99-1.34 142.54 0L142.54 0L142.54 0Q140.10 1.34 137.35 1.34L137.35 1.34L137.35 1.34Q134.60 1.34 132.76 0.30L132.76 0.30L132.76 0.30Q130.92-0.74 130.38-2.48L130.38-2.48L130.38-2.48Q129.31-0.80 127.03 0.27L127.03 0.27L127.03 0.27Q124.75 1.34 121.71 1.34L121.71 1.34L121.71 1.34Q118.66 1.34 116.18 0.54L116.18 0.54L116.18 0.54Q113.70-0.27 112.12-2.01ZM126.26-29.21L126.26-29.21L126.26-29.21Q125.49-28.01 124.82-25.96L124.82-25.96L124.82-25.96Q124.15-23.92 123.05-18.46L123.05-18.46L123.05-18.46Q121.94-13.00 121.94-9.11L121.94-9.11L121.94-9.11Q121.94-5.23 122.54-4.09L122.54-4.09L122.54-4.09Q123.15-2.95 124.22-2.95L124.22-2.95L124.22-2.95Q126.36-2.95 127.94-4.99L127.94-4.99L127.94-4.99Q129.51-7.04 130.11-10.65L130.11-10.65L133.67-30.28L133.67-30.28Q132.26-31.49 130.62-31.49L130.62-31.49L130.62-31.49Q128.98-31.49 128.00-30.95L128.00-30.95L128.00-30.95Q127.03-30.42 126.26-29.21ZM167.30-3.69L167.30-3.69L167.30-3.69Q165.22 1.34 158.59 1.34L158.59 1.34L158.59 1.34Q155.24 1.34 153.10-1.01L153.10-1.01L153.10-1.01Q151.35-2.95 151.35-5.16L151.35-5.16L151.35-5.16Q151.35-10.18 153.70-21.17L153.70-21.17L158.59-46.90L172.19-48.24L165.69-14.34L165.69-14.34Q164.55-9.38 164.55-7.64L164.55-7.64L164.55-7.64Q164.55-3.82 167.30-3.69ZM221.77-13.87L221.77-13.87L221.77-13.87Q223.51-12.60 223.51-9.88L223.51-9.88L223.51-9.88Q223.51-7.17 222.34-5.26L222.34-5.26L222.34-5.26Q221.17-3.35 218.89-1.88L218.89-1.88L218.89-1.88Q214.00 1.27 205.46 1.27L205.46 1.27L205.46 1.27Q196.91 1.27 192.26-3.18L192.26-3.18L192.26-3.18Q187.60-7.64 187.60-15.54L187.60-15.54L187.60-15.54Q187.60-26.73 193.43-35.24L193.43-35.24L193.43-35.24Q197.85-41.54 205.76-44.22L205.76-44.22L205.76-44.22Q209.84-45.56 213.86-45.56L213.86-45.56L213.86-45.56Q217.88-45.56 220.36-45.02L220.36-45.02L220.36-45.02Q222.84-44.49 224.72-43.42L224.72-43.42L224.72-43.42Q228.81-41.07 228.81-37.32L228.81-37.32L228.81-37.32Q228.81-33.90 225.59-31.36L225.59-31.36L225.59-31.36Q222.64-29.08 220.23-29.08L220.23-29.08L220.23-29.08Q217.82-29.08 216.81-29.41L216.81-29.41L216.81-29.41Q217.08-31.83 217.08-33.40L217.08-33.40L217.08-33.40Q217.08-34.97 217.01-36.11L217.01-36.11L217.01-36.11Q216.95-37.25 216.61-38.32L216.61-38.32L216.61-38.32Q215.94-40.80 213.90-40.80L213.90-40.80L213.90-40.80Q211.85-40.80 209.81-38.89L209.81-38.89L209.81-38.89Q207.77-36.98 206.03-33.77L206.03-33.77L206.03-33.77Q202.07-26.46 202.07-17.82L202.07-17.82L202.07-17.82Q202.07-13.67 204.42-11.29L204.42-11.29L204.42-11.29Q206.76-8.91 211.79-8.91L211.79-8.91L211.79-8.91Q215.54-8.91 219.09-11.39L219.09-11.39L219.09-11.39Q220.63-12.46 221.77-13.87ZM245.09-3.69L245.09-3.69L245.09-3.69Q243.01 1.34 236.38 1.34L236.38 1.34L236.38 1.34Q233.03 1.34 230.88-1.01L230.88-1.01L230.88-1.01Q229.14-2.95 229.14-5.16L229.14-5.16L229.14-5.16Q229.14-10.18 231.49-21.17L231.49-21.17L236.38-46.90L249.98-48.24L243.48-14.34L243.48-14.34Q242.34-9.38 242.34-7.64L242.34-7.64L242.34-7.64Q242.34-3.82 245.09-3.69ZM265.39 1.34L265.39 1.34L265.39 1.34Q250.65 1.34 250.65-12.53L250.65-12.53L250.65-12.53Q250.65-22.38 256.07-28.74L256.07-28.74L256.07-28.74Q261.84-35.51 271.82-35.51L271.82-35.51L271.82-35.51Q279.06-35.51 282.74-32.16L282.74-32.16L282.74-32.16Q286.43-28.81 286.43-21.78L286.43-21.78L286.43-21.78Q286.43-11.06 280.66-4.82L280.66-4.82L280.66-4.82Q275.04 1.34 265.39 1.34ZM267.13-27.81L267.13-27.81L267.13-27.81Q266.33-26.00 265.69-23.28L265.69-23.28L265.69-23.28Q265.05-20.57 264.25-16.28L264.25-16.28L264.25-16.28Q263.44-11.99 263.44-6.70L263.44-6.70L263.44-6.70Q263.44-4.96 264.01-3.82L264.01-3.82L264.01-3.82Q264.58-2.68 266.12-2.68L266.12-2.68L266.12-2.68Q267.67-2.68 268.64-3.42L268.64-3.42L268.64-3.42Q269.61-4.15 270.35-5.90L270.35-5.90L270.35-5.90Q271.69-8.98 272.76-14.71L272.76-14.71L272.76-14.71Q273.83-20.44 273.93-22.91L273.93-22.91L273.93-22.91Q274.03-25.39 274.03-27.24L274.03-27.24L274.03-27.24Q274.03-29.08 273.49-30.28L273.49-30.28L273.49-30.28Q272.96-31.49 271.45-31.49L271.45-31.49L271.45-31.49Q269.94-31.49 268.94-30.55L268.94-30.55L268.94-30.55Q267.93-29.61 267.13-27.81ZM311.89-2.81L311.89-2.81L311.89-2.81Q308.67 1.34 300.70 1.34L300.70 1.34L300.70 1.34Q296.54 1.34 293.53-1.17L293.53-1.17L293.53-1.17Q290.51-3.69 290.51-7.30L290.51-7.30L290.51-7.30Q290.51-9.31 290.71-10.32L290.71-10.32L295.20-34.17L308.80-35.51L303.91-9.65L303.91-9.65Q303.64-8.17 303.64-7.30L303.64-7.30L303.64-7.30Q303.64-3.42 305.99-3.42L305.99-3.42L305.99-3.42Q308.60-3.42 310.48-6.97L310.48-6.97L310.48-6.97Q311.08-8.11 311.35-9.58L311.35-9.58L316.11-34.17L329.31-35.51L324.35-9.38L324.35-9.38Q324.15-8.38 324.15-7.30L324.15-7.30L324.15-7.30Q324.15-6.23 324.75-5.06L324.75-5.06L324.75-5.06Q325.35-3.89 327.30-3.62L327.30-3.62L327.30-3.62Q326.89-2.01 325.49-0.94L325.49-0.94L325.49-0.94Q322.54 1.34 319.36 1.34L319.36 1.34L319.36 1.34Q316.17 1.34 314.30 0.20L314.30 0.20L314.30 0.20Q312.42-0.94 311.89-2.81ZM353.76-35.51L353.76-35.51L353.76-35.51Q356.17-35.51 358.05-34.97L358.05-34.97L358.05-34.97Q358.12-35.24 358.25-35.98L358.25-35.98L358.58-38.06L358.58-38.06Q358.85-39.40 359.25-41.61L359.25-41.61L360.33-46.90L373.66-48.24L366.22-9.38L366.22-9.38Q366.16-8.98 366.16-8.31L366.16-8.31L366.16-7.24L366.16-7.24Q366.16-5.76 366.89-4.66L366.89-4.66L366.89-4.66Q367.63-3.55 368.84-3.55L368.84-3.55L368.84-3.55Q367.50-0.40 363.41 0.94L363.41 0.94L363.41 0.94Q362.00 1.34 360.02 1.34L360.02 1.34L360.02 1.34Q358.05 1.34 356.24 0.30L356.24 0.30L356.24 0.30Q354.43-0.74 353.89-2.48L353.89-2.48L353.89-2.48Q352.82-0.74 350.68 0.30L350.68 0.30L350.68 0.30Q348.53 1.34 345.42 1.34L345.42 1.34L345.42 1.34Q342.30 1.34 339.72 0.54L339.72 0.54L339.72 0.54Q337.14-0.27 335.54-2.01L335.54-2.01L335.54-2.01Q332.59-5.43 332.59-13.20L332.59-13.20L332.59-13.20Q332.59-23.25 338.48-29.35L338.48-29.35L338.48-29.35Q344.38-35.51 353.76-35.51ZM353.29-31.49L353.29-31.49L353.29-31.49Q350.81-31.49 349.47-28.81L349.47-28.81L349.47-28.81Q348.13-26.13 346.76-19.50L346.76-19.50L346.76-19.50Q345.39-12.86 345.39-6.90L345.39-6.90L345.39-6.90Q345.39-2.81 347.80-2.81L347.80-2.81L347.80-2.81Q349.94-2.81 351.45-4.96L351.45-4.96L351.45-4.96Q352.96-7.10 353.56-10.65L353.56-10.65L357.18-30.28L357.18-30.28Q355.77-31.49 353.29-31.49Z"
                fill="#ccc"></path>
        </g>
    </g>
    <style>text {
        font-size: 64px;
        font-family: Arial Black;
        dominant-baseline: central;
        text-anchor: middle;
    }</style>
</svg>
