<?xml version="1.0" encoding="UTF-8" standalone="no"?>
<svg
   width="135.52617"
   height="34.439774"
   fill="none"
   id="svg-291966726_3766"
   version="1.1"
   viewBox="0 0 135.52618 34.439775"
   xmlns="http://www.w3.org/2000/svg"
   xmlns:svg="http://www.w3.org/2000/svg">
  <path
     d="m 47.355355,16.623707 h 8.040378 c 0,-0.888001 -0.353312,-1.701129 -1.058481,-2.44088 -0.706622,-0.739752 -1.693859,-1.10813 -2.961708,-1.10813 a 3.9838401,4.1030762 0 0 0 -2.817768,1.163536 c -0.802583,0.775691 -1.203875,1.572347 -1.203875,2.385474 z m 12.922763,2.069508 c 0,0.345916 -0.02326,0.838585 -0.07124,1.479504 h -12.96057 c 0.33441,1.257877 0.952341,2.261184 1.849432,3.012915 0.897091,0.753229 2.039901,1.129095 3.428429,1.129095 1.986104,0 3.757023,-0.567542 5.312756,-1.701129 l 1.328916,4.103076 c -0.191922,0.12429 -0.460904,0.28452 -0.8084,0.482186 -0.347495,0.196169 -1.100644,0.455232 -2.260901,0.775691 a 14.030678,14.450615 0 0 1 -3.643615,0.479192 c -3.303388,0 -5.792561,-0.910464 -7.467519,-2.734386 -1.676412,-1.823922 -2.51389,-4.16597 -2.51389,-7.026144 0,-2.858676 0.790952,-5.200723 2.369948,-7.024646 1.578997,-1.8239217 3.852984,-2.7358828 6.820509,-2.7358828 2.777056,0 4.907102,0.8565546 6.391592,2.5696638 1.483035,1.713109 2.224553,4.110563 2.224553,7.190865 z M 67.459207,27.86374 59.990234,9.5226906 h 5.168815 L 69.180692,20.762723 73.200881,9.5226906 h 5.170268 L 70.90363,27.862243 H 67.457754 Z M 84.11573,22.243724 c 0.956703,0.985337 2.106783,1.478006 3.445876,1.478006 1.340548,0 2.490627,-0.492669 3.447331,-1.478006 0.956703,-0.986835 1.436508,-2.169839 1.436508,-3.549011 0,-1.380671 -0.479805,-2.563674 -1.436508,-3.550509 -0.956704,-0.985337 -2.106783,-1.479503 -3.445877,-1.479503 -1.340547,0 -2.490627,0.494166 -3.445876,1.479503 -0.959611,0.986835 -1.436509,2.169838 -1.436509,3.549011 0,1.38067 0.478352,2.565172 1.435055,3.549011 z M 80.84869,11.779382 c 1.843617,-1.8972979 4.081256,-2.8466958 6.71437,-2.8466958 2.631661,0 4.870754,0.9493979 6.712916,2.8451988 1.842163,1.900293 2.763971,4.204904 2.763971,6.91533 0,2.711924 -0.921808,5.016535 -2.763971,6.915331 -1.843616,1.897298 -4.081255,2.845199 -6.712916,2.845199 -2.633114,0 -4.870753,-0.947901 -6.71437,-2.845199 -1.842162,-1.898796 -2.762516,-4.203407 -2.762516,-6.915331 0,-2.710426 0.920354,-5.016534 2.762516,-6.913833 z M 119.4425,8.9326862 c 2.10533,0 3.78029,0.7083048 5.02488,2.1264118 1.24458,1.416609 1.86688,3.469645 1.86688,6.154614 V 27.86374 h -4.5945 V 17.806711 c 0,-1.454046 -0.21083,-2.508267 -0.62811,-3.161165 -0.4202,-0.652898 -1.16753,-0.980845 -2.24491,-0.980845 -2.29725,0 -3.44588,1.578336 -3.44588,4.732014 v 9.467025 h -4.5945 V 17.806711 c 0,-1.430087 -0.22827,-2.47682 -0.68336,-3.143196 -0.45509,-0.664878 -1.18497,-0.997317 -2.18966,-0.997317 -2.29725,0 -3.44587,1.576839 -3.44587,4.732015 v 9.46403 H 99.912965 V 9.5256855 h 4.594505 v 1.7745055 c 1.22132,-1.576839 2.75088,-2.3660073 4.5945,-2.3660073 2.24927,0 3.91405,0.8266051 4.98998,2.4768203 1.4365,-1.6502152 3.21905,-2.4768203 5.35055,-2.4768203 z m 10.62552,0.5915019 h 4.5945 V 27.86374 h -4.5945 V 9.5226906 Z m 4.54216,-3.3094155 a 3.0533081,3.1446934 0 0 1 -2.24346,0.943408 c -0.88691,0 -1.63425,-0.3144693 -2.24491,-0.943408 -0.61066,-0.6289387 -0.91599,-1.3986398 -0.91599,-2.3106009 a 3.0533081,3.1446934 0 0 1 0.91599,-2.3106009 3.0533081,3.1446934 0 0 1 2.24491,-0.94340799 3.0533081,3.1446934 0 0 1 2.24346,0.94340799 c 0.61066,0.6289387 0.91599,1.3986398 0.91599,2.3106009 0,0.9134586 -0.30533,1.6816622 -0.91599,2.3106009 z"
     fill="#002147"
     id="path2"
     style="stroke-width:1.47555" />
  <path
     d="M 19.291091,11.738951 H 7.9502327 A 0.85492627,0.88051415 0 0 1 7.3613804,10.220513 L 14.21533,3.5313009 19.292545,11.740448 Z"
     fill="url(#svg-291966726_3766_a)"
     id="path4"
     style="fill:url(#svg-291966726_3766_a);stroke-width:1.47555" />
  <path
     d="m 35.509973,20.279039 -0.191922,0.01198 h -3.099835 l -5.288039,-8.550571 h 3.297573 z"
     fill="url(#svg-291966726_3766_b)"
     id="path6"
     style="fill:url(#svg-291966726_3766_b);stroke-width:1.47555" />
  <path
     d="M 16.217428,22.700453 H 27.55974 c 0.772051,0 1.148626,0.970363 0.587399,1.518438 l -6.85395,6.689212 -5.075761,-8.209147 z"
     fill="url(#svg-291966726_3766_c)"
     id="path8"
     style="fill:url(#svg-291966726_3766_c);stroke-width:1.47555" />
  <path
     d="m 0,14.160365 0.19192222,-0.01198 H 3.2917569 l 5.2880388,8.550571 H 5.282223 Z"
     fill="url(#svg-291966726_3766_d)"
     id="path10"
     style="fill:url(#svg-291966726_3766_d);stroke-width:1.47555" />
  <path
     d="m 3.2917569,14.149882 h 6.9818981 c 0.410015,0 0.789498,0.215636 1.009045,0.56904 l 2.137316,3.459162 2.795958,4.522369 5.075761,8.206152 -3.060578,2.987459 A 1.9337618,1.9916392 0 0 1 15.269448,33.516701 L 13.158304,30.105457 11.864283,28.008995 10.95556,26.541471 10.142799,25.228188 8.5783418,22.700453 Z"
     fill="url(#svg-291966726_3766_e)"
     id="path12"
     style="fill:url(#svg-291966726_3766_e);stroke-width:1.47555" />
  <path
     d="m 32.218216,20.289521 h -6.983352 a 1.1980599,1.2339178 0 0 1 -1.007591,-0.569039 l -2.13877,-3.459163 -2.795958,-4.522368 -5.075761,-8.2061526 3.060578,-2.98596124 a 1.9337618,1.9916392 0 0 1 2.961709,0.37436827 l 2.111144,3.41423847 1.295475,2.0934674 0.907269,1.4675236 0.814215,1.3147813 1.563003,2.5292318 5.288039,8.550571 z"
     fill="url(#svg-291966726_3766_f)"
     id="path14"
     style="fill:url(#svg-291966726_3766_f);stroke-width:1.47555" />
  <defs
     id="defs46">
    <linearGradient
       id="svg-291966726_3766_a"
       x1="9.9949999"
       y1="10.771"
       x2="17.211"
       y2="7.441"
       gradientUnits="userSpaceOnUse"
       gradientTransform="matrix(1.4539562,0,0,1.4974731,-7.269781,-4.4936573)">
      <stop
         stop-color="#419FD0"
         id="stop16" />
      <stop
         offset="1"
         stop-color="#327BAB"
         id="stop18" />
    </linearGradient>
    <linearGradient
       id="svg-291966726_3766_b"
       x1="24.982"
       y1="10.771"
       x2="28.313"
       y2="16.322001"
       gradientUnits="userSpaceOnUse"
       gradientTransform="matrix(1.4539562,0,0,1.4974731,-7.269781,-4.4936573)">
      <stop
         stop-color="#61BFE5"
         id="stop21" />
      <stop
         offset="1"
         stop-color="#54AEE2"
         id="stop23" />
    </linearGradient>
    <linearGradient
       id="svg-291966726_3766_c"
       x1="16.271"
       y1="23.570999"
       x2="24.427"
       y2="18.542"
       gradientUnits="userSpaceOnUse"
       gradientTransform="matrix(1.4539562,0,0,1.4974731,-7.269781,-4.4936573)">
      <stop
         stop-color="#2D6EDB"
         id="stop26" />
      <stop
         offset="1"
         stop-color="#245CB3"
         id="stop28" />
    </linearGradient>
    <linearGradient
       id="svg-291966726_3766_d"
       x1="6.46"
       y1="12.379"
       x2="9.7910004"
       y2="17.929001"
       gradientUnits="userSpaceOnUse"
       gradientTransform="matrix(1.4539562,0,0,1.4974731,-7.269781,-4.4936573)">
      <stop
         stop-color="#54AEE2"
         id="stop31" />
      <stop
         offset="1"
         stop-color="#61BFE5"
         id="stop33" />
    </linearGradient>
    <linearGradient
       id="svg-291966726_3766_e"
       x1="10.252"
       y1="12.449"
       x2="17.468"
       y2="25.771"
       gradientUnits="userSpaceOnUse"
       gradientTransform="matrix(1.4539562,0,0,1.4974731,-7.269781,-4.4936573)">
      <stop
         stop-color="#3279D9"
         id="stop36" />
      <stop
         offset="1"
         stop-color="#42A0D1"
         id="stop38" />
    </linearGradient>
    <linearGradient
       id="svg-291966726_3766_f"
       x1="17.767"
       y1="3"
       x2="24.982"
       y2="16.322001"
       gradientUnits="userSpaceOnUse"
       gradientTransform="matrix(1.4539562,0,0,1.4974731,-7.269781,-4.4936573)">
      <stop
         stop-color="#42A0D1"
         id="stop41" />
      <stop
         offset="1"
         stop-color="#3279D9"
         id="stop43" />
    </linearGradient>
  </defs>
</svg>
