<svg width="705.1937744140624px" height="120.8px" xmlns="http://www.w3.org/2000/svg"
     viewBox="-102.59688720703122 14.600000000000001 705.1937744140624 120.8" style="background: rgba(0, 0, 0, 0);"
     preserveAspectRatio="xMidYMid">
    <defs>
        <filter id="editing-scratch" x="-100%" y="-100%" width="300%" height="300%">
            <!-- COLOR -->
            <feFlood flood-color="#ddd" flood-opacity="0.75" result="COLOR-blu"></feFlood>
            <feFlood flood-color="#666" flood-opacity="0.4" result="COLOR-red"></feFlood>
            <!-- COLOR END -->

            <!-- Texture -->
            <feTurbulence baseFrequency=".05" type="fractalNoise" numOctaves="3" seed="0"
                          result="Texture_10"></feTurbulence>
            <feColorMatrix type="matrix" values="0 0 0 0 0,
    0 0 0 0 0,
    0 0 0 0 0,
    0 0 0 -2.1 1.1" in="Texture_10" result="Texture_20"></feColorMatrix>

            <feColorMatrix result="Texture_30" type="matrix" values="0 0 0 0 0,
    0 0 0 0 0,
    0 0 0 0 0,
    0 0 0 -1.7 1.8" in="Texture_10"></feColorMatrix>
            <!-- Texture -->

            <!-- FILL -->
            <feOffset dx="-3" dy="4" in="SourceAlpha" result="FILL_10"></feOffset>
            <feDisplacementMap scale="17" in="FILL_10" in2="Texture_10" result="FILL_20"></feDisplacementMap>
            <feComposite operator="in" in="Texture_30" in2="FILL_20" result="FILL_40"></feComposite>
            <feComposite operator="in" in="COLOR-blu" in2="FILL_40" result="FILL_50"></feComposite>
            <!-- FILL END-->

            <!-- OUTLINE -->
            <feMorphology operator="dilate" radius="3" in="SourceGraphic" result="OUTLINE_10"></feMorphology>
            <feComposite operator="out" in="OUTLINE_10" in2="SourceGraphic" result="OUTLINE_20"></feComposite>
            <feDisplacementMap scale="7" in="OUTLINE_20" in2="Texture_10" result="OUTLINE_30"></feDisplacementMap>
            <feComposite operator="arithmetic" k2="-1" k3="1" in="Texture_20" in2="OUTLINE_30"
                         result="OUTLINE_40"></feComposite>
            <!-- OUTLINE END-->

            <!-- BEVEL OUTLINE -->
            <feConvolveMatrix order="8,8" divisor="1"
                              kernelMatrix="1 0 0 0 0 0 0 0 0 1 0 0 0 0 0 0 0 0 1 0 0 0 0 0 0 0 0 1 0 0 0 0 0 0 0 0 1 0 0 0 0 0 0 0 0 1 0 0 0 0 0 0 0 0 1 0 0 0 0 0 0 0 0 1 "
                              in="SourceGraphic" result="BEVEL_10"></feConvolveMatrix>
            <feMorphology operator="dilate" radius="2" in="BEVEL_10" result="BEVEL_20"></feMorphology>
            <feComposite operator="out" in="BEVEL_20" in2="BEVEL_10" result="BEVEL_30"></feComposite>
            <feDisplacementMap scale="7" in="BEVEL_30" in2="Texture_10" result="BEVEL_40"></feDisplacementMap>
            <feComposite operator="arithmetic" k2="-1" k3="1" in="Texture_20" in2="BEVEL_40"
                         result="BEVEL_50"></feComposite>
            <feOffset dx="-7" dy="-7" in="BEVEL_50" result="BEVEL_60"></feOffset>
            <feComposite operator="out" in="BEVEL_60" in2="OUTLINE_10" result="BEVEL_70"></feComposite>
            <!-- BEVEL OUTLINE END -->

            <!-- BEVEL FILL -->
            <feOffset dx="-9" dy="-9" in="BEVEL_10" result="BEVEL-FILL_10"></feOffset>
            <feComposite operator="out" in="BEVEL-FILL_10" in2="OUTLINE_10" result="BEVEL-FILL_20"></feComposite>
            <feDisplacementMap scale="17" in="BEVEL-FILL_20" in2="Texture_10"
                               result="BEVEL-FILL_30"></feDisplacementMap>
            <feComposite operator="in" in="COLOR-red" in2="BEVEL-FILL_30" result="BEVEL-FILL_50"></feComposite> <!-- -->
            <!-- BEVEL FILL END-->

            <feMerge result="merge2">
                <feMergeNode in="BEVEL-FILL_50"></feMergeNode>
                <feMergeNode in="BEVEL_70"></feMergeNode>
                <feMergeNode in="FILL_50"></feMergeNode>
                <feMergeNode in="OUTLINE_40"></feMergeNode>
            </feMerge>
        </filter>
    </defs>
    <g filter="url(#editing-scratch)">
        <g transform="translate(-1.3626319468021393, 99)">
            <path
                d="M30.21-33.92L30.21-33.92L30.21-33.92Q25.02-33.92 21.25-35.65L21.25-35.65L19.20-25.28L31.55-25.28L31.55-25.28Q31.55-21.89 29.86-19.74L29.86-19.74L29.86-19.74Q28.16-17.60 25.09-17.60L25.09-17.60L25.09-17.60Q21.76-17.60 18.69-18.82L18.69-18.82L18.69-18.82Q18.05-19.07 17.98-19.14L17.98-19.14L14.34 0L0.38 0L8.51-42.24L37.06-42.24L37.06-42.24Q37.06-38.34 35.23-36.13L35.23-36.13L35.23-36.13Q33.41-33.92 30.21-33.92ZM54.98-17.98L54.98-17.98L54.98-17.98Q57.28-22.08 57.28-26.24L57.28-26.24L57.28-26.24Q57.28-28.99 55.30-28.99L55.30-28.99L55.30-28.99Q53.76-28.99 52.16-26.37L52.16-26.37L52.16-26.37Q50.50-23.74 49.98-20.35L49.98-20.35L46.66 0L33.41 1.28L39.94-32.64L50.50-33.92L49.34-27.46L49.34-27.46Q52.48-33.92 59.52-33.92L59.52-33.92L59.52-33.92Q63.23-33.92 65.25-32L65.25-32L65.25-32Q67.26-30.08 67.26-26.14L67.26-26.14L67.26-26.14Q67.26-22.21 64.67-19.71L64.67-19.71L64.67-19.71Q62.08-17.22 57.66-17.22L57.66-17.22L57.66-17.22Q55.74-17.22 54.98-17.98ZM94.21-10.82L94.21-10.82L94.21-10.82Q95.81-9.73 95.81-7.33L95.81-7.33L95.81-7.33Q95.81-4.93 94.59-3.39L94.59-3.39L94.59-3.39Q93.38-1.86 91.39-0.83L91.39-0.83L91.39-0.83Q87.30 1.28 82.88 1.28L82.88 1.28L82.88 1.28Q78.46 1.28 75.87 0.32L75.87 0.32L75.87 0.32Q73.28-0.64 71.55-2.43L71.55-2.43L71.55-2.43Q68.16-5.82 68.16-12.03L68.16-12.03L68.16-12.03Q68.16-21.70 73.41-27.58L73.41-27.58L73.41-27.58Q79.04-33.92 88.83-33.92L88.83-33.92L88.83-33.92Q94.91-33.92 97.92-31.36L97.92-31.36L97.92-31.36Q100.16-29.44 100.16-26.30L100.16-26.30L100.16-26.30Q100.16-15.04 80.70-15.04L80.70-15.04L80.70-15.04Q80.45-13.38 80.45-11.97L80.45-11.97L80.45-11.97Q80.45-9.02 81.76-7.90L81.76-7.90L81.76-7.90Q83.07-6.78 85.50-6.78L85.50-6.78L85.50-6.78Q87.94-6.78 90.53-7.90L90.53-7.90L90.53-7.90Q93.12-9.02 94.21-10.82ZM81.15-17.79L81.15-17.79L81.15-17.79Q85.70-17.79 88.32-20.61L88.32-20.61L88.32-20.61Q90.94-23.30 90.94-27.58L90.94-27.58L90.94-27.58Q90.94-29.06 90.40-29.86L90.40-29.86L90.40-29.86Q89.86-30.66 88.77-30.66L88.77-30.66L88.77-30.66Q87.68-30.66 86.75-30.24L86.75-30.24L86.75-30.24Q85.82-29.82 84.86-28.42L84.86-28.42L84.86-28.42Q82.50-25.22 81.15-17.79ZM128.26-10.82L128.26-10.82L128.26-10.82Q129.86-9.73 129.86-7.33L129.86-7.33L129.86-7.33Q129.86-4.93 128.64-3.39L128.64-3.39L128.64-3.39Q127.42-1.86 125.44-0.83L125.44-0.83L125.44-0.83Q121.34 1.28 116.93 1.28L116.93 1.28L116.93 1.28Q112.51 1.28 109.92 0.32L109.92 0.32L109.92 0.32Q107.33-0.64 105.60-2.43L105.60-2.43L105.60-2.43Q102.21-5.82 102.21-12.03L102.21-12.03L102.21-12.03Q102.21-21.70 107.46-27.58L107.46-27.58L107.46-27.58Q113.09-33.92 122.88-33.92L122.88-33.92L122.88-33.92Q128.96-33.92 131.97-31.36L131.97-31.36L131.97-31.36Q134.21-29.44 134.21-26.30L134.21-26.30L134.21-26.30Q134.21-15.04 114.75-15.04L114.75-15.04L114.75-15.04Q114.50-13.38 114.50-11.97L114.50-11.97L114.50-11.97Q114.50-9.02 115.81-7.90L115.81-7.90L115.81-7.90Q117.12-6.78 119.55-6.78L119.55-6.78L119.55-6.78Q121.98-6.78 124.58-7.90L124.58-7.90L124.58-7.90Q127.17-9.02 128.26-10.82ZM115.20-17.79L115.20-17.79L115.20-17.79Q119.74-17.79 122.37-20.61L122.37-20.61L122.37-20.61Q124.99-23.30 124.99-27.58L124.99-27.58L124.99-27.58Q124.99-29.06 124.45-29.86L124.45-29.86L124.45-29.86Q123.90-30.66 122.82-30.66L122.82-30.66L122.82-30.66Q121.73-30.66 120.80-30.24L120.80-30.24L120.80-30.24Q119.87-29.82 118.91-28.42L118.91-28.42L118.91-28.42Q116.54-25.22 115.20-17.79ZM174.59-42.69L174.59-42.69L174.59-42.69Q190.27-42.69 190.27-31.62L190.27-31.62L190.27-31.62Q190.27-25.54 186.37-21.89L186.37-21.89L186.37-21.89Q182.53-18.24 175.81-18.24L175.81-18.24L175.81-18.24Q172.67-18.24 170.24-20.03L170.24-20.03L170.24-20.03Q169.09-20.80 168.32-21.82L168.32-21.82L168.32-21.82Q172.99-21.82 175.46-24.67L175.46-24.67L175.46-24.67Q177.92-27.52 177.92-33.09L177.92-33.09L177.92-33.09Q177.92-38.66 172.42-38.66L172.42-38.66L170.88-38.66L170.88-38.66Q170.50-38.66 170.18-38.59L170.18-38.59L162.82 0L148.93 0L156.80-41.92L156.80-41.92Q163.65-42.56 167.62-42.62L167.62-42.62L167.62-42.62Q171.58-42.69 174.59-42.69ZM210.62-17.98L210.62-17.98L210.62-17.98Q212.93-22.08 212.93-26.24L212.93-26.24L212.93-26.24Q212.93-28.99 210.94-28.99L210.94-28.99L210.94-28.99Q209.41-28.99 207.81-26.37L207.81-26.37L207.81-26.37Q206.14-23.74 205.63-20.35L205.63-20.35L202.30 0L189.06 1.28L195.58-32.64L206.14-33.92L204.99-27.46L204.99-27.46Q208.13-33.92 215.17-33.92L215.17-33.92L215.17-33.92Q218.88-33.92 220.90-32L220.90-32L220.90-32Q222.91-30.08 222.91-26.14L222.91-26.14L222.91-26.14Q222.91-22.21 220.32-19.71L220.32-19.71L220.32-19.71Q217.73-17.22 213.31-17.22L213.31-17.22L213.31-17.22Q211.39-17.22 210.62-17.98ZM237.89 1.28L237.89 1.28L237.89 1.28Q223.81 1.28 223.81-11.97L223.81-11.97L223.81-11.97Q223.81-21.38 228.99-27.46L228.99-27.46L228.99-27.46Q234.50-33.92 244.03-33.92L244.03-33.92L244.03-33.92Q250.94-33.92 254.46-30.72L254.46-30.72L254.46-30.72Q257.98-27.52 257.98-20.80L257.98-20.80L257.98-20.80Q257.98-10.56 252.48-4.61L252.48-4.61L252.48-4.61Q247.10 1.28 237.89 1.28ZM239.55-26.56L239.55-26.56L239.55-26.56Q238.78-24.83 238.18-22.24L238.18-22.24L238.18-22.24Q237.57-19.65 236.80-15.55L236.80-15.55L236.80-15.55Q236.03-11.46 236.03-6.40L236.03-6.40L236.03-6.40Q236.03-4.74 236.58-3.65L236.58-3.65L236.58-3.65Q237.12-2.56 238.59-2.56L238.59-2.56L238.59-2.56Q240.06-2.56 240.99-3.26L240.99-3.26L240.99-3.26Q241.92-3.97 242.62-5.63L242.62-5.63L242.62-5.63Q243.90-8.58 244.93-14.05L244.93-14.05L244.93-14.05Q245.95-19.52 246.05-21.89L246.05-21.89L246.05-21.89Q246.14-24.26 246.14-26.02L246.14-26.02L246.14-26.02Q246.14-27.78 245.63-28.93L245.63-28.93L245.63-28.93Q245.12-30.08 243.68-30.08L243.68-30.08L243.68-30.08Q242.24-30.08 241.28-29.18L241.28-29.18L241.28-29.18Q240.32-28.29 239.55-26.56ZM270.27 0.19L270.27 0.19L270.27 0.19Q268.22 1.28 265.41 1.28L265.41 1.28L265.41 1.28Q262.59 1.28 261.06-0.16L261.06-0.16L261.06-0.16Q259.52-1.60 259.52-4.38L259.52-4.38L259.52-4.38Q259.52-7.17 261.47-9.89L261.47-9.89L261.47-9.89Q263.42-12.61 266.34-14.14L266.34-14.14L266.34-14.14Q269.25-15.68 271.30-16.58L271.30-16.58L267.26-25.86L267.26-25.86Q266.18-28.22 264.13-28.22L264.13-28.22L263.62-28.16L263.42-28.16L263.42-28.16Q263.81-30.40 266.43-32.13L266.43-32.13L266.43-32.13Q269.06-33.92 272.06-33.92L272.06-33.92L272.06-33.92Q276.93-33.92 279.17-29.06L279.17-29.06L279.68-28.03L282.43-21.25L282.43-21.25Q284.16-22.02 284.90-23.46L284.90-23.46L284.90-23.46Q285.63-24.90 285.63-27.74L285.63-27.74L285.63-27.74Q285.63-30.59 284.10-32.38L284.10-32.38L284.10-32.38Q286.53-33.92 289.73-33.92L289.73-33.92L289.73-33.92Q295.49-33.92 295.49-28.35L295.49-28.35L295.49-28.35Q295.49-22.27 287.87-18.75L287.87-18.75L284.03-16.96L287.49-8.06L287.49-8.06Q288.51-5.38 290.37-4.22L290.37-4.22L290.37-4.22Q291.14-3.71 292.03-3.65L292.03-3.65L292.03-3.65Q290.11-0.51 285.95 0.90L285.95 0.90L285.95 0.90Q284.67 1.28 282.94 1.28L282.94 1.28L282.94 1.28Q281.22 1.28 279.23 0.10L279.23 0.10L279.23 0.10Q277.25-1.09 276.54-2.94L276.54-2.94L273.02-12.10L273.02-12.10Q269.44-10.50 269.44-4.67L269.44-4.67L269.44-4.67Q269.44-1.98 270.27 0.19ZM312.58-3.52L312.58-3.52L312.58-3.52Q310.59 1.28 304.26 1.28L304.26 1.28L304.26 1.28Q300.99 1.28 298.94-0.96L298.94-0.96L298.94-0.96Q297.22-2.94 297.22-4.93L297.22-4.93L297.22-4.93Q297.22-10.11 299.58-20.22L299.58-20.22L301.95-32.64L314.94-33.92L311.04-13.70L311.04-13.70Q309.95-8.96 309.95-7.30L309.95-7.30L309.95-7.30Q309.95-3.65 312.58-3.52ZM303.10-41.54L303.10-41.54L303.10-41.54Q303.10-44.03 305.18-45.38L305.18-45.38L305.18-45.38Q307.26-46.72 310.27-46.72L310.27-46.72L310.27-46.72Q313.28-46.72 315.10-45.38L315.10-45.38L315.10-45.38Q316.93-44.03 316.93-41.54L316.93-41.54L316.93-41.54Q316.93-39.04 314.91-37.76L314.91-37.76L314.91-37.76Q312.90-36.48 309.89-36.48L309.89-36.48L309.89-36.48Q306.88-36.48 304.99-37.76L304.99-37.76L304.99-37.76Q303.10-39.04 303.10-41.54ZM343.94-10.82L343.94-10.82L343.94-10.82Q345.54-9.73 345.54-7.33L345.54-7.33L345.54-7.33Q345.54-4.93 344.32-3.39L344.32-3.39L344.32-3.39Q343.10-1.86 341.12-0.83L341.12-0.83L341.12-0.83Q337.02 1.28 332.61 1.28L332.61 1.28L332.61 1.28Q328.19 1.28 325.60 0.32L325.60 0.32L325.60 0.32Q323.01-0.64 321.28-2.43L321.28-2.43L321.28-2.43Q317.89-5.82 317.89-12.03L317.89-12.03L317.89-12.03Q317.89-21.70 323.14-27.58L323.14-27.58L323.14-27.58Q328.77-33.92 338.56-33.92L338.56-33.92L338.56-33.92Q344.64-33.92 347.65-31.36L347.65-31.36L347.65-31.36Q349.89-29.44 349.89-26.30L349.89-26.30L349.89-26.30Q349.89-15.04 330.43-15.04L330.43-15.04L330.43-15.04Q330.18-13.38 330.18-11.97L330.18-11.97L330.18-11.97Q330.18-9.02 331.49-7.90L331.49-7.90L331.49-7.90Q332.80-6.78 335.23-6.78L335.23-6.78L335.23-6.78Q337.66-6.78 340.26-7.90L340.26-7.90L340.26-7.90Q342.85-9.02 343.94-10.82ZM330.88-17.79L330.88-17.79L330.88-17.79Q335.42-17.79 338.05-20.61L338.05-20.61L338.05-20.61Q340.67-23.30 340.67-27.58L340.67-27.58L340.67-27.58Q340.67-29.06 340.13-29.86L340.13-29.86L340.13-29.86Q339.58-30.66 338.50-30.66L338.50-30.66L338.50-30.66Q337.41-30.66 336.48-30.24L336.48-30.24L336.48-30.24Q335.55-29.82 334.59-28.42L334.59-28.42L334.59-28.42Q332.22-25.22 330.88-17.79ZM371.20-22.46L371.20-22.46L371.20-22.46Q372.10-24.83 372.10-26.88L372.10-26.88L372.10-26.88Q372.10-30.66 369.02-30.66L369.02-30.66L369.02-30.66Q367.42-30.66 366.11-29.22L366.11-29.22L366.11-29.22Q364.80-27.78 364.80-25.98L364.80-25.98L364.80-25.98Q364.80-24.70 365.82-23.68L365.82-23.68L365.82-23.68Q367.30-22.27 371.07-19.97L371.07-19.97L371.07-19.97Q374.85-17.66 376.29-15.78L376.29-15.78L376.29-15.78Q377.73-13.89 377.73-11.30L377.73-11.30L377.73-11.30Q377.73-8.70 376.48-6.34L376.48-6.34L376.48-6.34Q375.23-3.97 372.99-2.30L372.99-2.30L372.99-2.30Q368.19 1.28 360.51 1.28L360.51 1.28L360.51 1.28Q356.35 1.28 353.15-0.90L353.15-0.90L353.15-0.90Q349.95-3.01 349.95-5.50L349.95-5.50L349.95-5.50Q349.95-8 351.78-9.47L351.78-9.47L351.78-9.47Q353.60-10.94 356.29-10.94L356.29-10.94L356.29-10.94Q358.98-10.94 360.64-9.92L360.64-9.92L360.64-9.92Q359.81-7.81 359.81-6.40L359.81-6.40L359.81-6.40Q359.81-2.18 363.39-2.18L363.39-2.18L363.39-2.18Q364.93-2.18 365.95-3.14L365.95-3.14L365.95-3.14Q366.98-4.10 366.98-5.76L366.98-5.76L366.98-5.76Q366.98-9.02 361.47-12.48L361.47-12.48L361.47-12.48Q356.99-15.42 355.97-16.58L355.97-16.58L355.97-16.58Q354.24-18.62 354.24-21.18L354.24-21.18L354.24-21.18Q354.24-23.74 355.46-26.18L355.46-26.18L355.46-26.18Q356.67-28.61 358.91-30.34L358.91-30.34L358.91-30.34Q363.58-33.92 371.71-33.92L371.71-33.92L371.71-33.92Q375.87-33.92 378.34-32.26L378.34-32.26L378.34-32.26Q380.80-30.59 380.80-27.78L380.80-27.78L380.80-27.78Q380.80-24.96 379.10-23.36L379.10-23.36L379.10-23.36Q377.41-21.76 374.34-21.76L374.34-21.76L374.34-21.76Q372.22-21.76 371.20-22.46ZM423.10-9.86L423.10-9.86L423.10-9.86Q424.32-8.32 424.32-5.34L424.32-5.34L424.32-5.34Q424.32-2.37 422.05-0.54L422.05-0.54L422.05-0.54Q419.78 1.28 415.81 1.28L415.81 1.28L415.81 1.28Q413.50 1.28 409.92 0.77L409.92 0.77L409.92 0.77Q402.88-0.32 400.86-0.32L400.86-0.32L400.86-0.32Q398.85-0.32 398.02-0.22L398.02-0.22L398.02-0.22Q397.18-0.13 395.84 0L395.84 0L403.58-42.24L417.60-42.24L411.20-7.04L411.20-7.04Q412.03-6.91 412.80-6.91L412.80-6.91L414.40-6.91L414.40-6.91Q419.78-6.91 423.10-9.86ZM443.97-3.52L443.97-3.52L443.97-3.52Q441.98 1.28 435.65 1.28L435.65 1.28L435.65 1.28Q432.38 1.28 430.34-0.96L430.34-0.96L430.34-0.96Q428.61-2.94 428.61-4.93L428.61-4.93L428.61-4.93Q428.61-10.11 430.98-20.22L430.98-20.22L433.34-32.64L446.34-33.92L442.43-13.70L442.43-13.70Q441.34-8.96 441.34-7.30L441.34-7.30L441.34-7.30Q441.34-3.65 443.97-3.52ZM434.50-41.54L434.50-41.54L434.50-41.54Q434.50-44.03 436.58-45.38L436.58-45.38L436.58-45.38Q438.66-46.72 441.66-46.72L441.66-46.72L441.66-46.72Q444.67-46.72 446.50-45.38L446.50-45.38L446.50-45.38Q448.32-44.03 448.32-41.54L448.32-41.54L448.32-41.54Q448.32-39.04 446.30-37.76L446.30-37.76L446.30-37.76Q444.29-36.48 441.28-36.48L441.28-36.48L441.28-36.48Q438.27-36.48 436.38-37.76L436.38-37.76L436.38-37.76Q434.50-39.04 434.50-41.54ZM468.54-22.46L468.54-22.46L468.54-22.46Q469.44-24.83 469.44-26.88L469.44-26.88L469.44-26.88Q469.44-30.66 466.37-30.66L466.37-30.66L466.37-30.66Q464.77-30.66 463.46-29.22L463.46-29.22L463.46-29.22Q462.14-27.78 462.14-25.98L462.14-25.98L462.14-25.98Q462.14-24.70 463.17-23.68L463.17-23.68L463.17-23.68Q464.64-22.27 468.42-19.97L468.42-19.97L468.42-19.97Q472.19-17.66 473.63-15.78L473.63-15.78L473.63-15.78Q475.07-13.89 475.07-11.30L475.07-11.30L475.07-11.30Q475.07-8.70 473.82-6.34L473.82-6.34L473.82-6.34Q472.58-3.97 470.34-2.30L470.34-2.30L470.34-2.30Q465.54 1.28 457.86 1.28L457.86 1.28L457.86 1.28Q453.70 1.28 450.50-0.90L450.50-0.90L450.50-0.90Q447.30-3.01 447.30-5.50L447.30-5.50L447.30-5.50Q447.30-8 449.12-9.47L449.12-9.47L449.12-9.47Q450.94-10.94 453.63-10.94L453.63-10.94L453.63-10.94Q456.32-10.94 457.98-9.92L457.98-9.92L457.98-9.92Q457.15-7.81 457.15-6.40L457.15-6.40L457.15-6.40Q457.15-2.18 460.74-2.18L460.74-2.18L460.74-2.18Q462.27-2.18 463.30-3.14L463.30-3.14L463.30-3.14Q464.32-4.10 464.32-5.76L464.32-5.76L464.32-5.76Q464.32-9.02 458.82-12.48L458.82-12.48L458.82-12.48Q454.34-15.42 453.31-16.58L453.31-16.58L453.31-16.58Q451.58-18.62 451.58-21.18L451.58-21.18L451.58-21.18Q451.58-23.74 452.80-26.18L452.80-26.18L452.80-26.18Q454.02-28.61 456.26-30.34L456.26-30.34L456.26-30.34Q460.93-33.92 469.06-33.92L469.06-33.92L469.06-33.92Q473.22-33.92 475.68-32.26L475.68-32.26L475.68-32.26Q478.14-30.59 478.14-27.78L478.14-27.78L478.14-27.78Q478.14-24.96 476.45-23.36L476.45-23.36L476.45-23.36Q474.75-21.76 471.68-21.76L471.68-21.76L471.68-21.76Q469.57-21.76 468.54-22.46ZM481.54-6.40L481.54-6.40L481.54-6.40Q481.54-8.13 482.43-12.48L482.43-12.48L485.82-29.76L482.05-29.76L482.30-31.68L482.30-31.68Q489.98-33.98 497.41-39.62L497.41-39.62L500.48-39.62L498.94-32.64L503.94-32.64L503.36-29.76L498.43-29.76L495.17-12.48L495.17-12.48Q494.34-8.51 494.34-7.17L494.34-7.17L494.34-7.17Q494.34-4.10 497.02-3.46L497.02-3.46L497.02-3.46Q496.38-1.28 494.08 0L494.08 0L494.08 0Q491.78 1.28 488.51 1.28L488.51 1.28L488.51 1.28Q485.25 1.28 483.39-0.77L483.39-0.77L483.39-0.77Q481.54-2.82 481.54-6.40Z"
                fill="#000"></path>
        </g>
    </g>
    <style>text {
        font-size: 64px;
        font-family: Arial Black;
        dominant-baseline: central;
        text-anchor: middle;
    }</style>
</svg>
