<?xml version="1.0" encoding="UTF-8" standalone="no"?>
<svg
    viewBox="0 0 454.93277 51.119999"
    height="51.119999"
    width="454.93277"
    xmlns="http://www.w3.org/2000/svg">
    <g transform="translate(-284.53362,-358.44)">
        <g>
            <path
                style="fill:#f85559;fill-opacity:1"
                d="m 345.77562,-45.864 c -3.59999,-3.024 -8.568,-4.536 -14.904,-4.536 h -18.072 v 3.312 h 18.072 c 5.328,0 9.432,1.224 12.312,3.6 2.808,2.376 4.248,5.76 4.248,10.08 0,4.392 -1.44,7.776 -4.248,10.08 -2.88,2.376 -6.984,3.528 -12.312,3.528 h -18.072 V 0 h 3.67201 v -16.488 h 14.39999 c 6.336,0 11.30401,-1.44 14.904,-4.464 3.60001,-3.024 5.40001,-7.128 5.40001,-12.456 0,-5.256 -1.8,-9.432 -5.40001,-12.456 z"
                stroke-width="0"
                stroke-linejoin="miter"
                stroke-miterlimit="2"
                transform="translate(-28.266,409.2)"/>
            <path
                style="fill:#f85559;fill-opacity:1"
                d="m 390.13325,-17.64 c 3.744,-1.08 6.696,-2.952 8.712,-5.688 2.016,-2.736 3.096,-6.048 3.096,-10.08 0,-5.256 -1.8,-9.432 -5.4,-12.456 -3.6,-3.024 -8.568,-4.536 -14.904,-4.536 h -18.072 v 3.312 h 18.072 c 5.328,0 9.432,1.224 12.312,3.6 2.808,2.376 4.248,5.76 4.248,10.08 0,4.392 -1.44,7.776 -4.248,10.152 -2.88,2.376 -6.984,3.528 -12.312,3.528 h -18.072 V 0 h 3.672 v -16.488 h 14.4 c 1.44,0 3.096,-0.072 4.896,-0.36 L 398.55725,0 h 4.176 z"
                stroke-width="0"
                stroke-linejoin="miter"
                stroke-miterlimit="2"
                transform="translate(-22.266,409.2)"/>
            <path
                style="fill:#f85559;fill-opacity:1"
                d="m 423.44787,-2.952 c 3.96,2.232 8.424,3.312 13.392,3.312 4.89601,0 9.36001,-1.08 13.392,-3.312 3.96,-2.16 7.056,-5.256 9.36001,-9.144 2.30399,-3.888 3.45599,-8.208 3.45599,-13.104 0,-4.824 -1.152,-9.216 -3.45599,-13.104 -2.30401,-3.888 -5.40001,-6.912 -9.36001,-9.144 -4.03199,-2.16 -8.49599,-3.312 -13.392,-3.312 -4.968,0 -9.432,1.152 -13.392,3.384 -4.03199,2.232 -7.12799,5.256 -9.432,9.144 -2.30399,3.888 -3.384,8.28 -3.384,13.032 0,4.824 1.08001,9.144 3.384,13.032 2.30401,3.888 5.40001,6.984 9.432,9.216 z m 24.84,-2.952 c -3.45599,1.944 -7.272,2.88 -11.448,2.88 -4.24799,0 -8.064,-0.936 -11.51999,-2.88 -3.45601,-1.872 -6.12,-4.536 -8.06401,-7.92 -2.016,-3.384 -2.952,-7.2 -2.952,-11.376 0,-4.176 0.936,-7.92 2.952,-11.304 1.94401,-3.384 4.608,-6.048 8.06401,-7.992 3.45599,-1.872 7.272,-2.88 11.51999,-2.88 4.176,0 7.99201,1.008 11.448,2.88 3.384,1.944 6.048,4.608 8.064,7.992 1.94401,3.384 2.952,7.128 2.952,11.304 0,4.176 -1.00799,7.992 -2.952,11.376 -2.016,3.384 -4.68,6.048 -8.064,7.92 z"
                stroke-width="0"
                stroke-linejoin="miter"
                stroke-miterlimit="2"
                transform="translate(-16.266,409.2)"/>
            <path
                style="fill:#f85559;fill-opacity:1"
                d="m 505.56387,0 h 4.32 l -19.368,-26.064 18,-24.336 h -4.104 L 488.35588,-28.728 472.29987,-50.4 h -4.32 l 18,24.408 L 466.61187,0 h 4.32 l 17.28001,-23.328 z"
                stroke-width="0"
                stroke-linejoin="miter"
                stroke-miterlimit="2"
                transform="translate(-10.266,409.2)"/>
            <path
                style="fill:#f85559;fill-opacity:1"
                d="M 533.66413,-17.352 553.96812,-50.4 h -3.816 l -18.216,29.664 -18.21599,-29.664 h -4.032 l 20.30399,33.048 V 0 h 3.67201 z"
                stroke-width="0"
                stroke-linejoin="miter"
                stroke-miterlimit="2"
                transform="translate(-4.266,409.2)"/>
            <path
                style="fill:#f85559;fill-opacity:1"
                d="M 581.67462,-50.4 V 0 h 32.688 V -3.312 H 585.34663 V -50.4 Z"
                stroke-width="0"
                stroke-linejoin="miter"
                stroke-miterlimit="2"
                transform="translate(1.734,409.2)"/>
            <path
                style="fill:#f85559;fill-opacity:1"
                d="M 623.86212,-50.4 V 0 h 3.67201 v -50.4 z"
                stroke-width="0"
                stroke-linejoin="miter"
                stroke-miterlimit="2"
                transform="translate(7.734,409.2)"/>
            <path
                style="fill:#f85559;fill-opacity:1"
                d="m 647.7605,-1.512 c 3.312,1.296 6.84,1.872 10.584,1.872 3.96,0 7.344,-0.576 10.08,-1.8 2.736,-1.152 4.752,-2.808 6.048,-4.824 1.296,-2.016 2.016,-4.248 2.016,-6.696 0,-2.952 -0.792,-5.328 -2.376,-7.056 -1.584,-1.728 -3.456,-3.096 -5.616,-3.96 -2.232,-0.864 -5.184,-1.728 -8.856,-2.664 -3.312,-0.792 -5.976,-1.584 -7.848,-2.304 -1.944,-0.72 -3.528,-1.728 -4.824,-3.096 -1.296,-1.296 -1.944,-3.096 -1.944,-5.4 0,-2.952 1.152,-5.4 3.6,-7.272 2.376,-1.872 5.904,-2.808 10.584,-2.808 2.304,0 4.68,0.36 7.128,1.08 2.448,0.72 4.68,1.8 6.696,3.168 l 1.368,-2.952 c -2.016,-1.368 -4.32,-2.448 -6.984,-3.312 -2.736,-0.792 -5.472,-1.224 -8.208,-1.224 -4.032,0 -7.344,0.648 -10.008,1.8 -2.664,1.224 -4.608,2.88 -5.904,4.896 -1.296,2.016 -1.944,4.248 -1.944,6.696 0,3.024 0.72,5.472 2.304,7.272 1.584,1.8 3.456,3.096 5.688,3.96 2.232,0.864 5.184,1.8 8.928,2.664 3.24,0.792 5.832,1.512 7.776,2.232 1.872,0.72 3.528,1.8 4.824,3.096 1.296,1.368 1.944,3.168 1.944,5.4 0,2.952 -1.224,5.328 -3.672,7.128 -2.448,1.872 -6.12,2.736 -10.872,2.736 -3.312,0 -6.48,-0.576 -9.504,-1.728 -3.024,-1.152 -5.4,-2.736 -7.128,-4.608 l -1.656,2.736 c 1.872,2.016 4.464,3.672 7.776,4.968 z"
                stroke-width="0"
                stroke-linejoin="miter"
                stroke-miterlimit="2"
                transform="translate(13.734,409.2)"/>
            <path
                style="fill:#f85559;fill-opacity:1"
                d="M 697.91638,-47.088 V 0 h 3.672 v -47.088 h 18.144 V -50.4 h -39.96001 v 3.312 z"
                stroke-width="0"
                stroke-linejoin="miter"
                stroke-miterlimit="2"
                transform="translate(19.734,409.2)"/>
        </g>
    </g>
</svg>
