<?xml version="1.0" encoding="UTF-8"?>
<svg version="1.1" xmlns="http://www.w3.org/2000/svg" width="312" height="74">
    <path
        d="M0 0 C-3.02283278 18.34759058 -6.08494724 36.68717895 -9.3125 55 C-9.44110413 55.73232849 -9.56970825 56.46465698 -9.70220947 57.21917725 C-10.06668488 59.29225907 -10.43329282 61.3649504 -10.80078125 63.4375 C-11.00872314 64.61183594 -11.21666504 65.78617187 -11.4309082 66.99609375 C-11.87624829 69.34678636 -12.41973213 71.67892854 -13 74 C-19.93 74 -26.86 74 -34 74 C-33.39944827 63.42311876 -31.61657103 53.14762932 -29.72631836 42.73535156 C-29.18659866 39.74500609 -28.66627316 36.75167835 -28.14648438 33.7578125 C-27.80065919 31.83312094 -27.4536933 29.90863391 -27.10546875 27.984375 C-26.95426071 27.10086365 -26.80305267 26.21735229 -26.64726257 25.30706787 C-25.190113 17.47808009 -22.76448676 10.89185184 -16.5625 5.625 C-15.82128906 4.97789062 -15.08007812 4.33078125 -14.31640625 3.6640625 C-9.49057538 0.19727675 -5.87570674 -0.08518635 0 0 Z "
        fill="#1891FC" transform="translate(34,0)"/>
    <path
        d="M0 0 C3.54249117 -0.10825949 7.08165249 -0.18744405 10.625 -0.25 C11.62402344 -0.28351562 12.62304688 -0.31703125 13.65234375 -0.3515625 C19.79989458 -0.43298701 23.32909816 -0.11736964 28 4 C32.09599602 8.77866202 31 10.85646733 31 18 C19.78 18 8.56 18 -3 18 C-2.01 12.06 -1.02 6.12 0 0 Z "
        fill="#000000" transform="translate(25,56)"/>
    <path
        d="M0 0 C3.62531608 1.8741654 5.69121639 4.07364917 7 8 C7.57 16.835 7.57 16.835 4 21 C-0.37576915 23.88402967 -3.80099864 24.64987517 -9 24 C-12.64450372 22.17774814 -14.59278629 20.57798075 -16.9375 17.25 C-18.27274914 13.16570851 -18.4021579 10.08053139 -17 6 C-11.97955257 -0.05028281 -7.64068543 -1.06478158 0 0 Z M-9.1875 6.625 C-11.24238146 8.91694621 -11.24238146 8.91694621 -11.4375 12.0625 C-11.2009816 14.93601372 -11.2009816 14.93601372 -9.875 16.875 C-7.08893958 18.54663625 -5.18011138 18.46376624 -2 18 C0.09764165 16.48105194 0.09764165 16.48105194 1 14 C0.92695236 10.42066548 0.68301127 8.68301127 -1.875 6.125 C-4.98256929 4.47981626 -6.35925237 4.52401605 -9.1875 6.625 Z "
        fill="#000000" transform="translate(221,23)"/>
    <path
        d="M0 0 C2.206875 -0.061875 4.41375 -0.12375 6.6875 -0.1875 C8.54955078 -0.23970703 8.54955078 -0.23970703 10.44921875 -0.29296875 C14.24466315 0.02018673 16.07624831 0.59156632 19 3 C20.11913565 5.62028395 20.23589823 8.16922122 20 11 C19.03126968 12.35622245 18.03565785 13.69417053 17 15 C17.67518454 17.60470331 17.67518454 17.60470331 19 20 C19.33 20.99 19.66 21.98 20 23 C16.75 23.375 16.75 23.375 13 23 C10.75 20.0625 10.75 20.0625 9 17 C8.01 16.67 7.02 16.34 6 16 C6 18.31 6 20.62 6 23 C4.02 23 2.04 23 0 23 C0 15.41 0 7.82 0 0 Z M6 6 C6 7.65 6 9.3 6 11 C7.98 11 9.96 11 12 11 C12.66 9.68 13.32 8.36 14 7 C12.81575674 5.58422523 12.81575674 5.58422523 9.4375 5.9375 C7.7359375 5.9684375 7.7359375 5.9684375 6 6 Z "
        fill="#000000" transform="translate(179,23)"/>
    <path
        d="M0 0 C5.94 0 11.88 0 18 0 C18 1.65 18 3.3 18 5 C14.04 5 10.08 5 6 5 C6 6.32 6 7.64 6 9 C9.63 9 13.26 9 17 9 C17 10.65 17 12.3 17 14 C13.37 14 9.74 14 6 14 C6 15.32 6 16.64 6 18 C9.96 18 13.92 18 18 18 C18 19.65 18 21.3 18 23 C12.06 23 6.12 23 0 23 C0 15.41 0 7.82 0 0 Z "
        fill="#000000" transform="translate(270,23)"/>
    <path
        d="M0 0 C5.94 0 11.88 0 18 0 C18 1.65 18 3.3 18 5 C14.04 5 10.08 5 6 5 C6 6.32 6 7.64 6 9 C9.3 9 12.6 9 16 9 C16 10.65 16 12.3 16 14 C12.7 14 9.4 14 6 14 C6 15.32 6 16.64 6 18 C9.96 18 13.92 18 18 18 C18 19.65 18 21.3 18 23 C12.06 23 6.12 23 0 23 C0 15.41 0 7.82 0 0 Z "
        fill="#000000" transform="translate(121,23)"/>
    <path
        d="M0 0 C2.28125 1.0234375 2.28125 1.0234375 4 2 C3.34 3.65 2.68 5.3 2 7 C-0.64 6.67 -3.28 6.34 -6 6 C-6.33 6.66 -6.66 7.32 -7 8 C-5.1128125 8.433125 -5.1128125 8.433125 -3.1875 8.875 C-0.1460601 9.57303539 1.30669878 10.20446585 4 12 C4.8717649 15.08470658 5.25644575 17.16072301 4.3125 20.25 C2.70904807 22.38793591 1.47519802 23.01519653 -1 24 C-3.21875 24.046875 -3.21875 24.046875 -5.5 23.75 C-6.2528125 23.66234375 -7.005625 23.5746875 -7.78125 23.484375 C-10.1101584 22.97595134 -11.92229716 22.15218067 -14 21 C-13.34 19.35 -12.68 17.7 -12 16 C-8.7 16.33 -5.4 16.66 -2 17 C-4.98876951 14.86707515 -4.98876951 14.86707515 -8.625 13.5 C-12 12 -12 12 -13 10 C-13.37663145 6.53499061 -13.38526209 4.63651997 -11.5625 1.625 C-7.83639705 -0.73789455 -4.30620967 -0.65199653 0 0 Z "
        fill="#000000" transform="translate(306,23)"/>
    <path
        d="M0 0 C2.6875 -0.3125 2.6875 -0.3125 6 0 C8.875 2.5 8.875 2.5 11 5 C11.53625 4.175 12.0725 3.35 12.625 2.5 C15 0 15 0 18.25 -0.3125 C19.61125 -0.1578125 19.61125 -0.1578125 21 0 C19.43358249 4.30764815 17.31663844 8.06171464 15 12 C18.465 17.445 18.465 17.445 22 23 C16.71502591 23.44041451 16.71502591 23.44041451 14 23 C11.5 20.5 11.5 20.5 10 18 C9.2265625 19.2375 9.2265625 19.2375 8.4375 20.5 C6 23 6 23 2.25 23.3125 C1.1775 23.209375 0.105 23.10625 -1 23 C1.31 19.04 3.62 15.08 6 11 C5.01 9.55625 4.02 8.1125 3 6.625 C0 2.25 0 2.25 0 0 Z "
        fill="#000000" transform="translate(231,23)"/>
    <path
        d="M0 0 C12.17703595 -0.49200145 12.17703595 -0.49200145 15.89453125 1.73046875 C18 4 18 4 18.59375 6.25390625 C18.54734375 7.39666016 18.54734375 7.39666016 18.5 8.5625 C18.4896875 9.32691406 18.479375 10.09132813 18.46875 10.87890625 C17.88365663 13.52645377 17.19532605 14.42286998 15 16 C12.73828125 16.51171875 12.73828125 16.51171875 10.3125 16.6875 C9.10013672 16.78611328 9.10013672 16.78611328 7.86328125 16.88671875 C6.94095703 16.94279297 6.94095703 16.94279297 6 17 C6 18.98 6 20.96 6 23 C4.02 23 2.04 23 0 23 C0 15.41 0 7.82 0 0 Z M6 6 C6 7.65 6 9.3 6 11 C7.65 11 9.3 11 11 11 C11.33 9.35 11.66 7.7 12 6 C10.02 6 8.04 6 6 6 Z "
        fill="#000000" transform="translate(156,23)"/>
    <path
        d="M0 0 C1.98 0 3.96 0 6 0 C7.65 3.96 9.3 7.92 11 12 C13.28459758 9.71540242 13.97129748 7.87462656 15.125 4.875 C15.47820312 3.96492188 15.83140625 3.05484375 16.1953125 2.1171875 C16.46085937 1.41851563 16.72640625 0.71984375 17 0 C18.98 0 20.96 0 23 0 C22.26446805 5.02613503 20.35550611 9.55534598 18.5 14.25 C18.17902344 15.07757813 17.85804687 15.90515625 17.52734375 16.7578125 C15.13422338 22.86577662 15.13422338 22.86577662 14 24 C12.33382885 24.04063832 10.66611905 24.042721 9 24 C0 4.59836066 0 4.59836066 0 0 Z "
        fill="#000000" transform="translate(93,23)"/>
    <path
        d="M0 0 C1.98 0 3.96 0 6 0 C6 5.94 6 11.88 6 18 C9.63 18 13.26 18 17 18 C17 19.65 17 21.3 17 23 C11.39 23 5.78 23 0 23 C0 15.41 0 7.82 0 0 Z "
        fill="#000000" transform="translate(60,23)"/>
    <path d="M0 0 C1.98 0 3.96 0 6 0 C6 7.59 6 15.18 6 23 C4.02 23 2.04 23 0 23 C0 15.41 0 7.82 0 0 Z " fill="#000000"
          transform="translate(82,23)"/>
    <path d="M0 0 C1.65 0 3.3 0 5 0 C5 7.59 5 15.18 5 23 C3.35 23 1.7 23 0 23 C0 15.41 0 7.82 0 0 Z " fill="#000000"
          transform="translate(258,23)"/>
</svg>
