<?xml version="1.0" encoding="UTF-8"?>
<svg xmlns="http://www.w3.org/2000/svg" width="93" height="42" viewBox="0 0 93 42" fill="none">
    <g clip-path="url(#clip0_1_22790)">
        <path
            d="M51.2872 33.6029C51.5958 33.6029 51.8441 33.8439 51.8368 34.1378V34.147C51.7583 37.6214 48.9904 40.4494 45.6657 40.4494C41.9595 40.4494 39.1642 37.6414 39.1642 33.9169C39.1642 30.1924 41.8791 27.3369 45.4795 27.3369C47.7142 27.3369 49.7408 28.4963 50.9002 30.4352C51.0407 30.6689 50.9732 30.9665 50.7413 31.1235L43.725 35.8741C43.4748 36.0439 43.1261 35.9855 42.9527 35.7427L42.383 34.9503C42.2132 34.7129 42.2753 34.3898 42.5218 34.2255L47.6668 30.7912C47.9735 30.5867 47.9863 30.1486 47.6795 29.9423C47.0405 29.5114 46.2847 29.2813 45.4795 29.2813C43.0896 29.2813 41.2182 31.3408 41.2182 33.9699C41.2182 36.5989 43.1316 38.5105 45.4795 38.5105C47.8274 38.5105 49.7408 36.546 49.7846 34.1305V34.1214C49.7901 33.8348 50.0348 33.6065 50.3342 33.6065H51.2872V33.6029Z"
            fill="#021F59"></path>
        <path
            d="M37.0499 32.6228V39.683C37.0499 39.9715 36.8034 40.207 36.5003 40.207H35.593C35.2899 40.207 35.0434 39.9733 35.0434 39.683V32.747C35.0434 30.7386 33.7836 29.278 32.0473 29.278C30.3111 29.278 29.0495 30.7386 29.0495 32.747V39.683C29.0495 39.9715 28.803 40.207 28.4999 40.207H27.5925C27.2894 40.207 27.043 39.9733 27.043 39.683V32.6228C27.043 29.5592 29.1481 27.3354 32.0473 27.3354C34.9466 27.3354 37.0499 29.5592 37.0499 32.6228Z"
            fill="#021F59"></path>
        <path
            d="M37.4536 10.6847C37.2911 10.6609 37.1797 10.5258 37.1724 10.3688C37.0958 7.90224 34.6821 7.22671 33.939 7.07883C33.8058 7.05144 33.6725 7.10622 33.6067 7.21576C33.3292 7.67037 32.6975 8.95752 33.1777 10.5167C33.1923 10.5733 33.2142 10.6263 33.2398 10.6792C33.4643 11.1886 34.5543 14.3636 28.418 17.1679C25.3598 18.5646 22.7289 20.4579 20.7827 22.7091C21.356 20.2881 22.0388 17.8069 22.6961 15.3842C25.7597 4.09738 14.5697 -1.6519 6.4396 2.04707C0.723176 4.64328 -0.0892822 9.47421 0.00748249 12.4191C0.0220885 12.976 0.812638 13.1403 1.07189 12.6401C1.38592 12.0284 1.83688 11.3383 2.4832 10.6208C4.08621 8.82607 6.8084 7.54987 9.77524 7.90407C16.8975 8.76582 17.7848 15.7603 15.5391 21.6866C8.98652 38.971 24.6971 41.0706 24.6971 41.0706C22.4843 39.6283 20.7516 36.8312 20.2642 33.4426C19.899 30.8957 20.308 28.4857 21.2647 26.6162C22.1666 24.6078 24.0289 22.574 27.6037 20.7007C33.625 17.544 35.2426 15.05 35.4654 13.5821C35.5311 13.1604 35.9455 12.8811 36.3855 12.9486C40.0279 13.5292 41.4794 15.5375 42.0454 16.8539C42.3229 17.4984 42.0052 18.2615 41.337 18.5427C40.2032 19.0211 38.2514 19.6966 35.9985 19.8445C35.7392 19.8591 35.5238 20.2407 35.7575 20.3484C39.4017 22.0208 44.3896 20.2626 45.3299 18.9517C45.3755 18.8878 45.4266 18.8184 45.4266 18.7399C45.4741 12.3041 38.9069 10.9111 37.4536 10.6829V10.6847Z"
            fill="#F37820"></path>
        <path
            d="M89.6189 29.5205C89.3158 29.5205 89.0694 29.7542 89.0694 30.0445V36.4511C89.0694 37.6013 89.6518 38.2622 90.6632 38.2622H92.4507C92.7537 38.2622 93.0002 38.4959 93.0002 38.7862V39.6808C93.0002 39.9693 92.7537 40.2048 92.4507 40.2048H90.8513C88.4796 40.2048 87.0629 38.7643 87.0629 36.3543V24.9288C87.0629 24.6403 87.3093 24.4048 87.6124 24.4048H88.5198C88.8229 24.4048 89.0694 24.6385 89.0694 24.9288V27.0521C89.0694 27.3406 89.3158 27.5761 89.6189 27.5761H92.4507C92.7537 27.5761 93.0002 27.8098 93.0002 28.1001V28.9965C93.0002 29.285 92.7537 29.5205 92.4507 29.5205H89.6189Z"
            fill="#F37820"></path>
        <path
            d="M83.8878 27.5801C84.1909 27.5801 84.4374 27.8138 84.4374 28.1041V35.1606C84.4374 38.2242 82.3341 40.448 79.433 40.448C76.5319 40.448 74.4305 38.2242 74.4305 35.1606V28.1041C74.4305 27.8156 74.6769 27.5801 74.98 27.5801H75.8837C76.1868 27.5801 76.4333 27.8138 76.4333 28.1041V35.0383C76.4333 37.0466 77.6931 38.5072 79.4312 38.5072C81.1693 38.5072 82.4291 37.0466 82.4291 35.0383V28.1041C82.4291 27.8156 82.6755 27.5801 82.9786 27.5801H83.886H83.8878Z"
            fill="#F37820"></path>
        <path
            d="M71.8048 32.6228V39.683C71.8048 39.9715 71.5583 40.207 71.2552 40.207H70.3478C70.0448 40.207 69.7983 39.9733 69.7983 39.683V32.747C69.7983 30.7386 68.5385 29.278 66.8004 29.278C65.0623 29.278 63.8025 30.7386 63.8025 32.747V39.683C63.8025 39.9715 63.5561 40.207 63.253 40.207H62.3492C62.0462 40.207 61.7997 39.9733 61.7997 39.683V32.6228C61.7997 29.5592 63.9029 27.3354 66.8022 27.3354C69.7015 27.3354 71.8066 29.5592 71.8066 32.6228H71.8048Z"
            fill="#F37820"></path>
        <path
            d="M56.1764 29.5209C55.8734 29.5209 55.6269 29.7546 55.6269 30.0449V36.4514C55.6269 37.6017 56.2093 38.2589 57.2189 38.2589H59.0063C59.3094 38.2589 59.5559 38.4926 59.5559 38.7829V39.6794C59.5559 39.9678 59.3094 40.2034 59.0063 40.2034H57.407C55.0372 40.2034 53.6186 38.7628 53.6186 36.3528V24.9273C53.6186 24.6388 53.865 24.4033 54.1681 24.4033H55.0773C55.3804 24.4033 55.6269 24.637 55.6269 24.9273V27.0525C55.6269 27.3409 55.8734 27.5765 56.1764 27.5765H59.0045C59.3076 27.5765 59.5541 27.8102 59.5541 28.1005V28.9951C59.5541 29.2835 59.3076 29.5191 59.0045 29.5191H56.1764V29.5209Z"
            fill="#021F59"></path>
    </g>
    <defs>
        <clipPath id="clip0_1_22790">
            <rect width="93" height="40.1409" fill="white" transform="translate(0 0.929688)"></rect>
        </clipPath>
    </defs>
</svg>
