<?xml version="1.0" encoding="UTF-8" standalone="no"?>
<svg xmlns="http://www.w3.org/2000/svg" viewBox="0.00 0.00 250.00 54.00">
    <path fill="#000000" d="
  M 13.74 17.21
  L 13.74 41.76
  A 1.11 1.10 86.8 0 1 12.76 42.86
  Q 12.46 42.90 12.21 42.81
  Q 11.24 42.47 11.24 41.43
  Q 11.19 26.83 11.26 13.01
  Q 11.27 11.65 12.50 11.17
  Q 12.99 10.99 13.29 11.42
  L 30.85 36.48
  Q 31.75 37.76 31.74 36.20
  L 31.71 12.67
  Q 31.71 11.53 32.82 11.25
  Q 33.00 11.21 33.18 11.26
  Q 34.02 11.49 34.02 12.36
  L 34.03 41.77
  A 1.03 1.02 -89.5 0 1 32.99 42.80
  Q 32.23 42.78 31.75 42.02
  Q 31.54 41.69 31.31 41.37
  Q 24.42 31.68 14.27 17.05
  Q 13.74 16.28 13.74 17.21
  Z"
    />
    <path fill="#000000" d="
  M 61.51 36.80
  L 61.48 12.93
  Q 61.48 11.79 62.53 11.31
  Q 63.08 11.06 63.73 11.83
  A 0.72 0.71 25.1 0 1 63.90 12.29
  L 63.87 41.97
  A 0.95 0.93 -10.4 0 1 63.25 42.85
  Q 62.41 43.15 62.05 42.66
  Q 52.68 29.51 44.24 17.25
  Q 43.56 16.25 43.56 17.47
  L 43.59 41.52
  Q 43.59 42.76 42.36 42.89
  Q 42.01 42.93 41.67 42.62
  Q 41.10 42.11 41.10 41.35
  L 41.10 13.92
  Q 41.10 8.50 44.19 12.94
  L 60.94 36.98
  A 0.31 0.31 0.0 0 0 61.51 36.80
  Z"
    />
    <path fill="#000000" d="
  M 78.74 13.57
  L 74.30 13.75
  Q 73.41 13.78 73.25 12.90
  Q 73.20 12.64 73.22 12.39
  Q 73.30 11.13 74.56 11.12
  L 80.34 11.08
  A 1.68 1.68 0.0 0 1 82.03 12.79
  Q 81.91 22.86 82.04 33.63
  C 82.08 37.04 81.18 40.03 77.99 41.74
  C 74.86 43.40 70.28 42.69 66.65 42.72
  Q 65.67 42.73 65.56 41.76
  Q 65.54 41.55 65.62 41.35
  Q 66.05 40.35 67.13 40.32
  C 71.08 40.18 79.63 41.83 79.58 35.05
  Q 79.51 24.33 79.58 14.39
  Q 79.59 13.54 78.74 13.57
  Z"
    />
    <path fill="#000000" d="
  M 225.37 22.88
  Q 229.99 18.00 234.94 13.21
  Q 236.11 12.08 237.35 11.22
  A 0.70 0.70 0.0 0 1 238.34 11.42
  Q 238.93 12.35 238.25 13.32
  Q 237.21 14.80 236.05 15.88
  Q 231.41 20.21 227.16 24.71
  A 2.80 2.77 67.0 0 0 226.41 26.59
  Q 226.38 33.77 226.23 40.83
  Q 226.21 42.11 225.21 42.98
  Q 224.74 43.39 223.96 42.23
  A 0.50 0.47 -63.5 0 1 223.88 41.96
  L 223.73 26.39
  Q 223.72 25.55 223.13 24.97
  L 211.80 13.67
  Q 210.96 12.83 211.53 11.79
  Q 211.67 11.55 211.91 11.39
  Q 212.74 10.88 213.43 11.57
  L 224.69 22.88
  Q 225.03 23.23 225.37 22.88
  Z"
    />
    <rect fill="#000000" x="-1.19" y="-15.74" transform="translate(37.02,27.11) rotate(0.1)" width="2.38" height="31.48"
          rx="1.16"/>
    <path fill="#000000" d="
  M 107.08 17.50
  Q 107.17 15.81 106.15 17.16
  L 87.19 42.34
  A 1.05 1.04 -73.8 0 1 86.45 42.75
  Q 85.15 42.84 84.99 41.72
  A 0.88 0.87 -31.1 0 1 85.16 41.05
  Q 95.99 26.63 106.30 12.97
  Q 106.83 12.27 107.47 11.65
  A 1.10 1.10 0.0 0 1 109.33 12.45
  L 109.33 41.26
  Q 109.33 42.25 108.47 42.76
  Q 107.95 43.08 107.38 42.61
  A 1.16 1.16 0.0 0 1 106.96 41.74
  Q 106.52 28.81 107.08 17.50
  Z"
    />
    <path fill="#000000" d="
  M 114.76 33.65
  L 114.72 41.89
  A 0.88 0.88 0.0 0 1 113.80 42.76
  L 113.47 42.75
  Q 112.25 42.70 112.25 41.47
  L 112.23 31.96
  A 1.29 1.29 0.0 0 1 113.51 30.67
  Q 118.47 30.64 123.79 30.71
  C 129.56 30.79 133.95 25.32 132.31 19.88
  C 130.96 15.38 126.74 13.35 122.20 13.62
  Q 117.78 13.88 113.20 13.66
  Q 112.26 13.62 112.39 12.69
  L 112.45 12.27
  Q 112.60 11.29 113.59 11.28
  Q 119.30 11.24 124.67 11.34
  C 131.00 11.47 135.85 17.40 134.98 23.88
  C 134.24 29.42 129.46 32.91 123.94 33.10
  Q 119.53 33.25 115.41 33.04
  Q 114.77 33.00 114.76 33.65
  Z"
    />
    <path fill="#000000" d="
  M 139.21 33.83
  L 139.20 41.25
  Q 139.20 42.41 138.12 42.84
  Q 137.78 42.98 137.43 42.72
  Q 136.72 42.19 136.72 41.30
  L 136.75 31.45
  Q 136.75 30.81 137.40 30.79
  Q 142.26 30.65 147.34 30.80
  C 151.92 30.93 155.75 28.49 156.83 23.97
  C 158.03 18.87 153.76 13.66 148.57 13.70
  Q 142.89 13.75 137.56 13.70
  A 0.82 0.82 0.0 0 1 136.75 12.91
  L 136.74 12.56
  Q 136.70 11.31 137.96 11.30
  Q 143.20 11.29 148.75 11.28
  Q 153.73 11.27 157.06 15.47
  C 161.84 21.49 159.22 30.45 151.58 32.57
  A 0.36 0.35 -32.4 0 0 151.44 33.18
  Q 155.70 36.81 159.26 41.10
  A 0.93 0.92 45.8 0 1 159.25 42.30
  Q 159.15 42.42 159.02 42.51
  Q 158.08 43.08 157.31 42.30
  L 148.46 33.42
  Q 148.10 33.07 147.60 33.07
  L 139.92 33.13
  Q 139.21 33.13 139.21 33.83
  Z"
    />
    <path fill="#000000" d="
  M 183.73 34.93
  A 7.81 7.81 0.0 0 1 175.92 42.74
  L 168.96 42.74
  A 7.81 7.81 0.0 0 1 161.15 34.93
  L 161.15 19.13
  A 7.81 7.81 0.0 0 1 168.96 11.32
  L 175.92 11.32
  A 7.81 7.81 0.0 0 1 183.73 19.13
  L 183.73 34.93
  Z
  M 181.3864 19.4612
  A 5.74 5.74 0.0 0 0 175.6664 13.7012
  L 169.2865 13.6789
  A 5.74 5.74 0.0 0 0 163.5265 19.3989
  L 163.4736 34.5388
  A 5.74 5.74 0.0 0 0 169.1936 40.2988
  L 175.5735 40.3211
  A 5.74 5.74 0.0 0 0 181.3335 34.6011
  L 181.3864 19.4612
  Z"
    />
    <path fill="#000000" d="
  M 197.88 24.64
  L 207.60 11.60
  A 1.01 1.00 -60.3 0 1 208.79 11.27
  Q 209.08 11.39 209.26 11.64
  Q 209.96 12.59 209.25 13.53
  L 199.28 26.73
  Q 199.03 27.06 199.29 27.40
  L 209.24 40.54
  A 0.62 0.54 22.5 0 1 209.36 40.78
  Q 209.96 43.28 208.03 42.76
  A 0.90 0.89 79.0 0 1 207.53 42.42
  L 197.96 29.62
  A 0.49 0.48 -44.7 0 0 197.19 29.62
  L 187.53 42.34
  Q 186.95 43.10 186.08 42.71
  Q 185.62 42.50 185.37 41.91
  A 0.99 0.99 0.0 0 1 185.49 40.92
  L 195.66 27.43
  Q 195.98 27.00 195.66 26.57
  L 185.47 13.04
  Q 184.89 12.27 185.66 11.70
  L 185.91 11.52
  Q 186.86 10.81 187.57 11.76
  L 197.17 24.64
  Q 197.53 25.11 197.88 24.64
  Z"
    />
</svg>
