<svg width="769.7676025390625px" height="125.60006408691406px" xmlns="http://www.w3.org/2000/svg"
     viewBox="-134.88380126953126 12.19996795654297 769.7676025390625 125.60006408691406" preserveAspectRatio="xMidYMid">
    <defs>
        <filter id="editing-vintage" x="-100%" y="-100%" width="300%" height="300%">
            <feConvolveMatrix in="SourceGraphic" result="extrude" order="1,1" divisor="1"
                              kernelMatrix="1"></feConvolveMatrix>
            <feFlood flood-color="#900" result="flood-extrude"></feFlood>
            <feComposite operator="in" in="flood-extrude" in2="extrude" result="extrude-color"></feComposite>
            <feOffset dx="1" dy="1" in="extrude-color" result="extrude-offset"></feOffset>
            <feColorMatrix in="SourceGraphic" result="stroke" type="matrix"
                           values="0 0 0 0 0 0 0 0 0 0 0 0 0 0 0 0 1 0 0 0 "></feColorMatrix>
            <feColorMatrix in="SourceGraphic" result="fill" type="matrix"
                           values="0 0 0 0 0 0 0 0 0 0 0 0 0 0 0 1 0 0 1 0 "></feColorMatrix>
            <feConvolveMatrix in="stroke" result="inner-shadow" order="5,5" divisor="1"
                              kernelMatrix="1 0 0 0 0 0 1 0 0 0 0 0 1 0 0 0 0 0 1 0 0 0 0 0 1 "></feConvolveMatrix>
            <feOffset dx="1" dy="1" in="inner-shadow" result="offset"></feOffset>
            <feComposite operator="in" in="offset" in2="SourceAlpha" result="comp"></feComposite>
            <feFlood flood-color="#000" result="flood3"></feFlood>
            <feComposite operator="in" in="flood3" in2="comp" result="comp2"></feComposite>
            <feColorMatrix in="comp2" result="comp3" type="matrix"
                           values="1 0 0 0 0 0 1 0 0 0 0 0 1 0 0 0 0 0 0.5 0 "></feColorMatrix>
            <feFlood flood-color="#f00" result="flood1"></feFlood>
            <feComposite operator="in" in="flood1" in2="fill" result="fill2"></feComposite>
            <feFlood flood-color="#fff" result="flood2"></feFlood>
            <feComposite operator="in" in="flood2" in2="stroke" result="stroke2"></feComposite>
            <feMerge result="obj">
                <feMergeNode in="extrude-offset"></feMergeNode>
                <feMergeNode in="fill2"></feMergeNode>
                <feMergeNode in="comp3"></feMergeNode>
            </feMerge>
            <feConvolveMatrix in="SourceAlpha" result="shadow" order="1,1" divisor="1"
                              kernelMatrix="1"></feConvolveMatrix>
            <feOffset dx="3" dy="3" in="shadow" result="shadow-offset"></feOffset>
            <feFlood flood-color="#444" result="flood-shadow"></feFlood>
            <feComposite operator="in" in="flood-shadow" in2="shadow-offset" result="shadow-color"></feComposite>
            <feMerge>
                <feMergeNode in="shadow-color"></feMergeNode>
                <feMergeNode in="obj"></feMergeNode>
            </feMerge>
        </filter>
    </defs>
    <g transform="translate(-1,-1)">
        <g filter="url(#editing-vintage)">
            <g transform="translate(-25.93174707889557, 100.12500381469727)">
                <path
                    d="M29.15-10.32L29.15-10.32L29.15-10.32Q30.42-8.71 30.42-5.59L30.42-5.59L30.42-5.59Q30.42-2.48 28.04-0.57L28.04-0.57L28.04-0.57Q25.66 1.34 21.51 1.34L21.51 1.34L21.51 1.34Q19.10 1.34 15.34 0.80L15.34 0.80L15.34 0.80Q7.97-0.34 5.86-0.34L5.86-0.34L5.86-0.34Q3.75-0.34 2.88-0.23L2.88-0.23L2.88-0.23Q2.01-0.13 0.60 0L0.60 0L8.71-44.22L23.38-44.22L16.68-7.37L16.68-7.37Q17.55-7.24 18.36-7.24L18.36-7.24L20.03-7.24L20.03-7.24Q25.66-7.24 29.15-10.32ZM49.51 1.34L49.51 1.34L49.51 1.34Q34.77 1.34 34.77-12.53L34.77-12.53L34.77-12.53Q34.77-22.38 40.20-28.74L40.20-28.74L40.20-28.74Q45.96-35.51 55.95-35.51L55.95-35.51L55.95-35.51Q63.18-35.51 66.87-32.16L66.87-32.16L66.87-32.16Q70.55-28.81 70.55-21.78L70.55-21.78L70.55-21.78Q70.55-11.06 64.79-4.82L64.79-4.82L64.79-4.82Q59.16 1.34 49.51 1.34ZM51.26-27.81L51.26-27.81L51.26-27.81Q50.45-26.00 49.81-23.28L49.81-23.28L49.81-23.28Q49.18-20.57 48.37-16.28L48.37-16.28L48.37-16.28Q47.57-11.99 47.57-6.70L47.57-6.70L47.57-6.70Q47.57-4.96 48.14-3.82L48.14-3.82L48.14-3.82Q48.71-2.68 50.25-2.68L50.25-2.68L50.25-2.68Q51.79-2.68 52.76-3.42L52.76-3.42L52.76-3.42Q53.73-4.15 54.47-5.90L54.47-5.90L54.47-5.90Q55.81-8.98 56.88-14.71L56.88-14.71L56.88-14.71Q57.95-20.44 58.06-22.91L58.06-22.91L58.06-22.91Q58.16-25.39 58.16-27.24L58.16-27.24L58.16-27.24Q58.16-29.08 57.62-30.28L57.62-30.28L57.62-30.28Q57.08-31.49 55.58-31.49L55.58-31.49L55.58-31.49Q54.07-31.49 53.06-30.55L53.06-30.55L53.06-30.55Q52.06-29.61 51.26-27.81ZM107.40-27.87L107.40-27.87L107.40-27.87Q107.40-25.06 105.06-23.32L105.06-23.32L105.06-23.32Q102.71-21.57 98.89-21.57L98.89-21.57L98.89-21.57Q97.28-21.57 96.35-22.04L96.35-22.04L96.35-22.04Q97.08-23.79 97.32-25.96L97.32-25.96L97.32-25.96Q97.55-28.14 97.55-28.74L97.55-28.74L97.55-28.74Q97.55-31.56 95.61-31.56L95.61-31.56L95.61-31.56Q94.27-31.56 92.76-29.88L92.76-29.88L92.76-29.88Q91.25-28.21 89.98-25.59L89.98-25.59L89.98-25.59Q87.17-19.56 87.17-13.47L87.17-13.47L87.17-13.47Q87.17-10.12 88.44-8.61L88.44-8.61L88.44-8.61Q89.71-7.10 92.53-7.10L92.53-7.10L92.53-7.10Q96.41-7.10 99.50-10.32L99.50-10.32L99.50-10.32Q100.37-11.32 100.84-12.46L100.84-12.46L100.84-12.46Q103.38-11.12 103.38-7.44L103.38-7.44L103.38-7.44Q103.38-3.69 99.23-1.21L99.23-1.21L99.23-1.21Q94.94 1.34 88.11 1.34L88.11 1.34L88.11 1.34Q74.50 1.34 74.50-13.07L74.50-13.07L74.50-13.07Q74.50-23.58 80.47-29.61L80.47-29.61L80.47-29.61Q86.23-35.51 96.82-35.51L96.82-35.51L96.82-35.51Q107.40-35.51 107.40-27.87ZM112.12-2.01L112.12-2.01L112.12-2.01Q110.55-3.75 109.85-6.50L109.85-6.50L109.85-6.50Q109.14-9.25 109.14-13.74L109.14-13.74L109.14-13.74Q109.14-18.22 110.68-22.31L110.68-22.31L110.68-22.31Q112.23-26.40 115.04-29.35L115.04-29.35L115.04-29.35Q120.80-35.51 130.31-35.51L130.31-35.51L130.31-35.51Q133.73-35.51 136.21-34.37L136.21-34.37L147.67-35.51L142.71-9.38L142.71-9.38Q142.51-8.58 142.51-7.10L142.51-7.10L142.51-7.10Q142.51-5.63 143.41-4.69L143.41-4.69L143.41-4.69Q144.32-3.75 145.66-3.62L145.66-3.62L145.66-3.62Q144.99-1.34 142.54 0L142.54 0L142.54 0Q140.10 1.34 137.35 1.34L137.35 1.34L137.35 1.34Q134.60 1.34 132.76 0.30L132.76 0.30L132.76 0.30Q130.92-0.74 130.38-2.48L130.38-2.48L130.38-2.48Q129.31-0.80 127.03 0.27L127.03 0.27L127.03 0.27Q124.75 1.34 121.71 1.34L121.71 1.34L121.71 1.34Q118.66 1.34 116.18 0.54L116.18 0.54L116.18 0.54Q113.70-0.27 112.12-2.01ZM126.26-29.21L126.26-29.21L126.26-29.21Q125.49-28.01 124.82-25.96L124.82-25.96L124.82-25.96Q124.15-23.92 123.05-18.46L123.05-18.46L123.05-18.46Q121.94-13.00 121.94-9.11L121.94-9.11L121.94-9.11Q121.94-5.23 122.54-4.09L122.54-4.09L122.54-4.09Q123.15-2.95 124.22-2.95L124.22-2.95L124.22-2.95Q126.36-2.95 127.94-4.99L127.94-4.99L127.94-4.99Q129.51-7.04 130.11-10.65L130.11-10.65L133.67-30.28L133.67-30.28Q132.26-31.49 130.62-31.49L130.62-31.49L130.62-31.49Q128.98-31.49 128.00-30.95L128.00-30.95L128.00-30.95Q127.03-30.42 126.26-29.21ZM167.30-3.69L167.30-3.69L167.30-3.69Q165.22 1.34 158.59 1.34L158.59 1.34L158.59 1.34Q155.24 1.34 153.10-1.01L153.10-1.01L153.10-1.01Q151.35-2.95 151.35-5.16L151.35-5.16L151.35-5.16Q151.35-10.18 153.70-21.17L153.70-21.17L158.59-46.90L172.19-48.24L165.69-14.34L165.69-14.34Q164.55-9.38 164.55-7.64L164.55-7.64L164.55-7.64Q164.55-3.82 167.30-3.69ZM212.99-44.69L212.99-44.69L212.99-44.69Q229.41-44.69 229.41-33.10L229.41-33.10L229.41-33.10Q229.41-26.73 225.32-22.91L225.32-22.91L225.32-22.91Q221.30-19.10 214.27-19.10L214.27-19.10L214.27-19.10Q210.98-19.10 208.44-20.97L208.44-20.97L208.44-20.97Q207.23-21.78 206.43-22.85L206.43-22.85L206.43-22.85Q211.32-22.85 213.90-25.83L213.90-25.83L213.90-25.83Q216.48-28.81 216.48-34.64L216.48-34.64L216.48-34.64Q216.48-40.47 210.72-40.47L210.72-40.47L209.11-40.47L209.11-40.47Q208.71-40.47 208.37-40.40L208.37-40.40L200.67 0L186.13 0L194.37-43.89L194.37-43.89Q201.54-44.55 205.69-44.62L205.69-44.62L205.69-44.62Q209.84-44.69 212.99-44.69ZM250.71-18.83L250.71-18.83L250.71-18.83Q253.13-23.12 253.13-27.47L253.13-27.47L253.13-27.47Q253.13-30.35 251.05-30.35L251.05-30.35L251.05-30.35Q249.44-30.35 247.77-27.60L247.77-27.60L247.77-27.60Q246.02-24.86 245.49-21.31L245.49-21.31L242.00 0L228.14 1.34L234.97-34.17L246.02-35.51L244.82-28.74L244.82-28.74Q248.10-35.51 255.47-35.51L255.47-35.51L255.47-35.51Q259.36-35.51 261.47-33.50L261.47-33.50L261.47-33.50Q263.58-31.49 263.58-27.37L263.58-27.37L263.58-27.37Q263.58-23.25 260.86-20.64L260.86-20.64L260.86-20.64Q258.15-18.02 253.53-18.02L253.53-18.02L253.53-18.02Q251.52-18.02 250.71-18.83ZM279.26 1.34L279.26 1.34L279.26 1.34Q264.52 1.34 264.52-12.53L264.52-12.53L264.52-12.53Q264.52-22.38 269.94-28.74L269.94-28.74L269.94-28.74Q275.71-35.51 285.69-35.51L285.69-35.51L285.69-35.51Q292.92-35.51 296.61-32.16L296.61-32.16L296.61-32.16Q300.29-28.81 300.29-21.78L300.29-21.78L300.29-21.78Q300.29-11.06 294.53-4.82L294.53-4.82L294.53-4.82Q288.90 1.34 279.26 1.34ZM281.00-27.81L281.00-27.81L281.00-27.81Q280.19-26.00 279.56-23.28L279.56-23.28L279.56-23.28Q278.92-20.57 278.12-16.28L278.12-16.28L278.12-16.28Q277.31-11.99 277.31-6.70L277.31-6.70L277.31-6.70Q277.31-4.96 277.88-3.82L277.88-3.82L277.88-3.82Q278.45-2.68 279.99-2.68L279.99-2.68L279.99-2.68Q281.53-2.68 282.51-3.42L282.51-3.42L282.51-3.42Q283.48-4.15 284.21-5.90L284.21-5.90L284.21-5.90Q285.55-8.98 286.63-14.71L286.63-14.71L286.63-14.71Q287.70-20.44 287.80-22.91L287.80-22.91L287.80-22.91Q287.90-25.39 287.90-27.24L287.90-27.24L287.90-27.24Q287.90-29.08 287.36-30.28L287.36-30.28L287.36-30.28Q286.83-31.49 285.32-31.49L285.32-31.49L285.32-31.49Q283.81-31.49 282.81-30.55L282.81-30.55L282.81-30.55Q281.80-29.61 281.00-27.81ZM313.16 0.20L313.16 0.20L313.16 0.20Q311.01 1.34 308.07 1.34L308.07 1.34L308.07 1.34Q305.12 1.34 303.51-0.17L303.51-0.17L303.51-0.17Q301.90-1.68 301.90-4.59L301.90-4.59L301.90-4.59Q301.90-7.50 303.95-10.35L303.95-10.35L303.95-10.35Q305.99-13.20 309.04-14.81L309.04-14.81L309.04-14.81Q312.09-16.42 314.23-17.35L314.23-17.35L310.01-27.07L310.01-27.07Q308.87-29.55 306.73-29.55L306.73-29.55L306.19-29.48L305.99-29.48L305.99-29.48Q306.39-31.83 309.14-33.63L309.14-33.63L309.14-33.63Q311.88-35.51 315.03-35.51L315.03-35.51L315.03-35.51Q320.13-35.51 322.47-30.42L322.47-30.42L323.01-29.35L325.89-22.24L325.89-22.24Q327.70-23.05 328.47-24.56L328.47-24.56L328.47-24.56Q329.24-26.06 329.24-29.04L329.24-29.04L329.24-29.04Q329.24-32.03 327.63-33.90L327.63-33.90L327.63-33.90Q330.18-35.51 333.53-35.51L333.53-35.51L333.53-35.51Q339.56-35.51 339.56-29.68L339.56-29.68L339.56-29.68Q339.56-23.32 331.58-19.63L331.58-19.63L327.56-17.76L331.18-8.44L331.18-8.44Q332.25-5.63 334.20-4.42L334.20-4.42L334.20-4.42Q335-3.89 335.94-3.82L335.94-3.82L335.94-3.82Q333.93-0.54 329.57 0.94L329.57 0.94L329.57 0.94Q328.23 1.34 326.42 1.34L326.42 1.34L326.42 1.34Q324.62 1.34 322.54 0.10L322.54 0.10L322.54 0.10Q320.46-1.14 319.72-3.08L319.72-3.08L316.04-12.66L316.04-12.66Q312.29-10.99 312.29-4.89L312.29-4.89L312.29-4.89Q312.29-2.08 313.16 0.20ZM357.44-3.69L357.44-3.69L357.44-3.69Q355.37 1.34 348.74 1.34L348.74 1.34L348.74 1.34Q345.32 1.34 343.17-1.01L343.17-1.01L343.17-1.01Q341.37-3.08 341.37-5.16L341.37-5.16L341.37-5.16Q341.37-10.59 343.84-21.17L343.84-21.17L346.32-34.17L359.92-35.51L355.84-14.34L355.84-14.34Q354.70-9.38 354.70-7.64L354.70-7.64L354.70-7.64Q354.70-3.82 357.44-3.69ZM347.53-43.48L347.53-43.48L347.53-43.48Q347.53-46.10 349.71-47.50L349.71-47.50L349.71-47.50Q351.88-48.91 355.03-48.91L355.03-48.91L355.03-48.91Q358.18-48.91 360.09-47.50L360.09-47.50L360.09-47.50Q362.00-46.10 362.00-43.48L362.00-43.48L362.00-43.48Q362.00-40.87 359.89-39.53L359.89-39.53L359.89-39.53Q357.78-38.19 354.63-38.19L354.63-38.19L354.63-38.19Q351.48-38.19 349.51-39.53L349.51-39.53L349.51-39.53Q347.53-40.87 347.53-43.48ZM390.27-11.32L390.27-11.32L390.27-11.32Q391.95-10.18 391.95-7.67L391.95-7.67L391.95-7.67Q391.95-5.16 390.68-3.55L390.68-3.55L390.68-3.55Q389.40-1.94 387.33-0.87L387.33-0.87L387.33-0.87Q383.04 1.34 378.42 1.34L378.42 1.34L378.42 1.34Q373.79 1.34 371.08 0.34L371.08 0.34L371.08 0.34Q368.37-0.67 366.56-2.55L366.56-2.55L366.56-2.55Q363.01-6.10 363.01-12.60L363.01-12.60L363.01-12.60Q363.01-22.71 368.50-28.88L368.50-28.88L368.50-28.88Q374.40-35.51 384.65-35.51L384.65-35.51L384.65-35.51Q391.01-35.51 394.16-32.83L394.16-32.83L394.16-32.83Q396.51-30.82 396.51-27.54L396.51-27.54L396.51-27.54Q396.51-15.75 376.14-15.75L376.14-15.75L376.14-15.75Q375.87-14.00 375.87-12.53L375.87-12.53L375.87-12.53Q375.87-9.45 377.24-8.27L377.24-8.27L377.24-8.27Q378.62-7.10 381.16-7.10L381.16-7.10L381.16-7.10Q383.71-7.10 386.42-8.27L386.42-8.27L386.42-8.27Q389.14-9.45 390.27-11.32ZM376.61-18.63L376.61-18.63L376.61-18.63Q381.36-18.63 384.11-21.57L384.11-21.57L384.11-21.57Q386.86-24.39 386.86-28.88L386.86-28.88L386.86-28.88Q386.86-30.42 386.29-31.26L386.29-31.26L386.29-31.26Q385.72-32.09 384.58-32.09L384.58-32.09L384.58-32.09Q383.44-32.09 382.47-31.66L382.47-31.66L382.47-31.66Q381.50-31.22 380.49-29.75L380.49-29.75L380.49-29.75Q378.01-26.40 376.61-18.63ZM418.82-23.52L418.82-23.52L418.82-23.52Q419.75-26.00 419.75-28.14L419.75-28.14L419.75-28.14Q419.75-32.09 416.54-32.09L416.54-32.09L416.54-32.09Q414.86-32.09 413.49-30.59L413.49-30.59L413.49-30.59Q412.12-29.08 412.12-27.20L412.12-27.20L412.12-27.20Q412.12-25.86 413.19-24.79L413.19-24.79L413.19-24.79Q414.73-23.32 418.68-20.90L418.68-20.90L418.68-20.90Q422.64-18.49 424.14-16.52L424.14-16.52L424.14-16.52Q425.65-14.54 425.65-11.83L425.65-11.83L425.65-11.83Q425.65-9.11 424.34-6.63L424.34-6.63L424.34-6.63Q423.04-4.15 420.69-2.41L420.69-2.41L420.69-2.41Q415.67 1.34 407.63 1.34L407.63 1.34L407.63 1.34Q403.27 1.34 399.92-0.94L399.92-0.94L399.92-0.94Q396.57-3.15 396.57-5.76L396.57-5.76L396.57-5.76Q396.57-8.38 398.48-9.92L398.48-9.92L398.48-9.92Q400.39-11.46 403.21-11.46L403.21-11.46L403.21-11.46Q406.02-11.46 407.76-10.38L407.76-10.38L407.76-10.38Q406.89-8.17 406.89-6.70L406.89-6.70L406.89-6.70Q406.89-2.28 410.64-2.28L410.64-2.28L410.64-2.28Q412.25-2.28 413.32-3.28L413.32-3.28L413.32-3.28Q414.39-4.29 414.39-6.03L414.39-6.03L414.39-6.03Q414.39-9.45 408.63-13.07L408.63-13.07L408.63-13.07Q403.94-16.15 402.87-17.35L402.87-17.35L402.87-17.35Q401.06-19.50 401.06-22.18L401.06-22.18L401.06-22.18Q401.06-24.86 402.33-27.40L402.33-27.40L402.33-27.40Q403.61-29.95 405.95-31.76L405.95-31.76L405.95-31.76Q410.84-35.51 419.35-35.51L419.35-35.51L419.35-35.51Q423.71-35.51 426.29-33.77L426.29-33.77L426.29-33.77Q428.87-32.03 428.87-29.08L428.87-29.08L428.87-29.08Q428.87-26.13 427.09-24.46L427.09-24.46L427.09-24.46Q425.32-22.78 422.10-22.78L422.10-22.78L422.10-22.78Q419.89-22.78 418.82-23.52ZM474.56 1.34L474.56 1.34L474.56 1.34Q465.99 1.34 465.18-10.85L465.18-10.85L453.66-10.85L453.66-10.85Q452.32-7.77 451.38-5.09L451.38-5.09L449.64 0L440.26 0L461.36-44.22L475.77-44.22L478.58-11.66L478.58-11.66Q479.25-4.62 481.93-2.55L481.93-2.55L481.93-2.55Q479.99 1.34 474.56 1.34ZM459.42-24.25L455.73-15.75L464.98-15.75L464.18-32.96L464.18-34.77L459.42-24.25ZM512.01-44.69L512.01-44.69L512.01-44.69Q528.43-44.69 528.43-33.10L528.43-33.10L528.43-33.10Q528.43-26.73 524.34-22.91L524.34-22.91L524.34-22.91Q520.32-19.10 513.29-19.10L513.29-19.10L513.29-19.10Q510.00-19.10 507.46-20.97L507.46-20.97L507.46-20.97Q506.25-21.78 505.45-22.85L505.45-22.85L505.45-22.85Q510.34-22.85 512.92-25.83L512.92-25.83L512.92-25.83Q515.50-28.81 515.50-34.64L515.50-34.64L515.50-34.64Q515.50-40.47 509.74-40.47L509.74-40.47L508.13-40.47L508.13-40.47Q507.73-40.47 507.39-40.40L507.39-40.40L499.69 0L485.15 0L493.39-43.89L493.39-43.89Q500.56-44.55 504.71-44.62L504.71-44.62L504.71-44.62Q508.87-44.69 512.01-44.69ZM542.63 0L528.03 0L536.54-44.22L551.28-44.22L542.63 0Z"
                    fill="#f00" stroke="#0f0" stroke-width="1.8"></path>
            </g>
        </g>
        <g>
            <g transform="translate(-25.936038613319397, 100.125)">
                <path
                    d="M29.15-10.32L29.15-10.32L29.15-10.32Q30.42-8.71 30.42-5.59L30.42-5.59L30.42-5.59Q30.42-2.48 28.04-0.57L28.04-0.57L28.04-0.57Q25.66 1.34 21.51 1.34L21.51 1.34L21.51 1.34Q19.10 1.34 15.34 0.80L15.34 0.80L15.34 0.80Q7.97-0.34 5.86-0.34L5.86-0.34L5.86-0.34Q3.75-0.34 2.88-0.23L2.88-0.23L2.88-0.23Q2.01-0.13 0.60 0L0.60 0L8.71-44.22L23.38-44.22L16.68-7.37L16.68-7.37Q17.55-7.24 18.36-7.24L18.36-7.24L20.03-7.24L20.03-7.24Q25.66-7.24 29.15-10.32ZM49.51 1.34L49.51 1.34L49.51 1.34Q34.77 1.34 34.77-12.53L34.77-12.53L34.77-12.53Q34.77-22.38 40.20-28.74L40.20-28.74L40.20-28.74Q45.96-35.51 55.95-35.51L55.95-35.51L55.95-35.51Q63.18-35.51 66.87-32.16L66.87-32.16L66.87-32.16Q70.55-28.81 70.55-21.78L70.55-21.78L70.55-21.78Q70.55-11.06 64.79-4.82L64.79-4.82L64.79-4.82Q59.16 1.34 49.51 1.34ZM51.26-27.81L51.26-27.81L51.26-27.81Q50.45-26.00 49.81-23.28L49.81-23.28L49.81-23.28Q49.18-20.57 48.37-16.28L48.37-16.28L48.37-16.28Q47.57-11.99 47.57-6.70L47.57-6.70L47.57-6.70Q47.57-4.96 48.14-3.82L48.14-3.82L48.14-3.82Q48.71-2.68 50.25-2.68L50.25-2.68L50.25-2.68Q51.79-2.68 52.76-3.42L52.76-3.42L52.76-3.42Q53.73-4.15 54.47-5.90L54.47-5.90L54.47-5.90Q55.81-8.98 56.88-14.71L56.88-14.71L56.88-14.71Q57.95-20.44 58.06-22.91L58.06-22.91L58.06-22.91Q58.16-25.39 58.16-27.24L58.16-27.24L58.16-27.24Q58.16-29.08 57.62-30.28L57.62-30.28L57.62-30.28Q57.08-31.49 55.58-31.49L55.58-31.49L55.58-31.49Q54.07-31.49 53.06-30.55L53.06-30.55L53.06-30.55Q52.06-29.61 51.26-27.81ZM107.40-27.87L107.40-27.87L107.40-27.87Q107.40-25.06 105.06-23.32L105.06-23.32L105.06-23.32Q102.71-21.57 98.89-21.57L98.89-21.57L98.89-21.57Q97.28-21.57 96.35-22.04L96.35-22.04L96.35-22.04Q97.08-23.79 97.32-25.96L97.32-25.96L97.32-25.96Q97.55-28.14 97.55-28.74L97.55-28.74L97.55-28.74Q97.55-31.56 95.61-31.56L95.61-31.56L95.61-31.56Q94.27-31.56 92.76-29.88L92.76-29.88L92.76-29.88Q91.25-28.21 89.98-25.59L89.98-25.59L89.98-25.59Q87.17-19.56 87.17-13.47L87.17-13.47L87.17-13.47Q87.17-10.12 88.44-8.61L88.44-8.61L88.44-8.61Q89.71-7.10 92.53-7.10L92.53-7.10L92.53-7.10Q96.41-7.10 99.50-10.32L99.50-10.32L99.50-10.32Q100.37-11.32 100.84-12.46L100.84-12.46L100.84-12.46Q103.38-11.12 103.38-7.44L103.38-7.44L103.38-7.44Q103.38-3.69 99.23-1.21L99.23-1.21L99.23-1.21Q94.94 1.34 88.11 1.34L88.11 1.34L88.11 1.34Q74.50 1.34 74.50-13.07L74.50-13.07L74.50-13.07Q74.50-23.58 80.47-29.61L80.47-29.61L80.47-29.61Q86.23-35.51 96.82-35.51L96.82-35.51L96.82-35.51Q107.40-35.51 107.40-27.87ZM112.12-2.01L112.12-2.01L112.12-2.01Q110.55-3.75 109.85-6.50L109.85-6.50L109.85-6.50Q109.14-9.25 109.14-13.74L109.14-13.74L109.14-13.74Q109.14-18.22 110.68-22.31L110.68-22.31L110.68-22.31Q112.23-26.40 115.04-29.35L115.04-29.35L115.04-29.35Q120.80-35.51 130.31-35.51L130.31-35.51L130.31-35.51Q133.73-35.51 136.21-34.37L136.21-34.37L147.67-35.51L142.71-9.38L142.71-9.38Q142.51-8.58 142.51-7.10L142.51-7.10L142.51-7.10Q142.51-5.63 143.41-4.69L143.41-4.69L143.41-4.69Q144.32-3.75 145.66-3.62L145.66-3.62L145.66-3.62Q144.99-1.34 142.54 0L142.54 0L142.54 0Q140.10 1.34 137.35 1.34L137.35 1.34L137.35 1.34Q134.60 1.34 132.76 0.30L132.76 0.30L132.76 0.30Q130.92-0.74 130.38-2.48L130.38-2.48L130.38-2.48Q129.31-0.80 127.03 0.27L127.03 0.27L127.03 0.27Q124.75 1.34 121.71 1.34L121.71 1.34L121.71 1.34Q118.66 1.34 116.18 0.54L116.18 0.54L116.18 0.54Q113.70-0.27 112.12-2.01ZM126.26-29.21L126.26-29.21L126.26-29.21Q125.49-28.01 124.82-25.96L124.82-25.96L124.82-25.96Q124.15-23.92 123.05-18.46L123.05-18.46L123.05-18.46Q121.94-13.00 121.94-9.11L121.94-9.11L121.94-9.11Q121.94-5.23 122.54-4.09L122.54-4.09L122.54-4.09Q123.15-2.95 124.22-2.95L124.22-2.95L124.22-2.95Q126.36-2.95 127.94-4.99L127.94-4.99L127.94-4.99Q129.51-7.04 130.11-10.65L130.11-10.65L133.67-30.28L133.67-30.28Q132.26-31.49 130.62-31.49L130.62-31.49L130.62-31.49Q128.98-31.49 128.00-30.95L128.00-30.95L128.00-30.95Q127.03-30.42 126.26-29.21ZM167.30-3.69L167.30-3.69L167.30-3.69Q165.22 1.34 158.59 1.34L158.59 1.34L158.59 1.34Q155.24 1.34 153.10-1.01L153.10-1.01L153.10-1.01Q151.35-2.95 151.35-5.16L151.35-5.16L151.35-5.16Q151.35-10.18 153.70-21.17L153.70-21.17L158.59-46.90L172.19-48.24L165.69-14.34L165.69-14.34Q164.55-9.38 164.55-7.64L164.55-7.64L164.55-7.64Q164.55-3.82 167.30-3.69ZM212.99-44.69L212.99-44.69L212.99-44.69Q229.41-44.69 229.41-33.10L229.41-33.10L229.41-33.10Q229.41-26.73 225.32-22.91L225.32-22.91L225.32-22.91Q221.30-19.10 214.27-19.10L214.27-19.10L214.27-19.10Q210.98-19.10 208.44-20.97L208.44-20.97L208.44-20.97Q207.23-21.78 206.43-22.85L206.43-22.85L206.43-22.85Q211.32-22.85 213.90-25.83L213.90-25.83L213.90-25.83Q216.48-28.81 216.48-34.64L216.48-34.64L216.48-34.64Q216.48-40.47 210.72-40.47L210.72-40.47L209.11-40.47L209.11-40.47Q208.71-40.47 208.37-40.40L208.37-40.40L200.67 0L186.13 0L194.37-43.89L194.37-43.89Q201.54-44.55 205.69-44.62L205.69-44.62L205.69-44.62Q209.84-44.69 212.99-44.69ZM250.71-18.83L250.71-18.83L250.71-18.83Q253.13-23.12 253.13-27.47L253.13-27.47L253.13-27.47Q253.13-30.35 251.05-30.35L251.05-30.35L251.05-30.35Q249.44-30.35 247.77-27.60L247.77-27.60L247.77-27.60Q246.02-24.86 245.49-21.31L245.49-21.31L242.00 0L228.14 1.34L234.97-34.17L246.02-35.51L244.82-28.74L244.82-28.74Q248.10-35.51 255.47-35.51L255.47-35.51L255.47-35.51Q259.36-35.51 261.47-33.50L261.47-33.50L261.47-33.50Q263.58-31.49 263.58-27.37L263.58-27.37L263.58-27.37Q263.58-23.25 260.86-20.64L260.86-20.64L260.86-20.64Q258.15-18.02 253.53-18.02L253.53-18.02L253.53-18.02Q251.52-18.02 250.71-18.83ZM279.26 1.34L279.26 1.34L279.26 1.34Q264.52 1.34 264.52-12.53L264.52-12.53L264.52-12.53Q264.52-22.38 269.94-28.74L269.94-28.74L269.94-28.74Q275.71-35.51 285.69-35.51L285.69-35.51L285.69-35.51Q292.92-35.51 296.61-32.16L296.61-32.16L296.61-32.16Q300.29-28.81 300.29-21.78L300.29-21.78L300.29-21.78Q300.29-11.06 294.53-4.82L294.53-4.82L294.53-4.82Q288.90 1.34 279.26 1.34ZM281.00-27.81L281.00-27.81L281.00-27.81Q280.19-26.00 279.56-23.28L279.56-23.28L279.56-23.28Q278.92-20.57 278.12-16.28L278.12-16.28L278.12-16.28Q277.31-11.99 277.31-6.70L277.31-6.70L277.31-6.70Q277.31-4.96 277.88-3.82L277.88-3.82L277.88-3.82Q278.45-2.68 279.99-2.68L279.99-2.68L279.99-2.68Q281.53-2.68 282.51-3.42L282.51-3.42L282.51-3.42Q283.48-4.15 284.21-5.90L284.21-5.90L284.21-5.90Q285.55-8.98 286.63-14.71L286.63-14.71L286.63-14.71Q287.70-20.44 287.80-22.91L287.80-22.91L287.80-22.91Q287.90-25.39 287.90-27.24L287.90-27.24L287.90-27.24Q287.90-29.08 287.36-30.28L287.36-30.28L287.36-30.28Q286.83-31.49 285.32-31.49L285.32-31.49L285.32-31.49Q283.81-31.49 282.81-30.55L282.81-30.55L282.81-30.55Q281.80-29.61 281.00-27.81ZM313.16 0.20L313.16 0.20L313.16 0.20Q311.01 1.34 308.07 1.34L308.07 1.34L308.07 1.34Q305.12 1.34 303.51-0.17L303.51-0.17L303.51-0.17Q301.90-1.68 301.90-4.59L301.90-4.59L301.90-4.59Q301.90-7.50 303.95-10.35L303.95-10.35L303.95-10.35Q305.99-13.20 309.04-14.81L309.04-14.81L309.04-14.81Q312.09-16.42 314.23-17.35L314.23-17.35L310.01-27.07L310.01-27.07Q308.87-29.55 306.73-29.55L306.73-29.55L306.19-29.48L305.99-29.48L305.99-29.48Q306.39-31.83 309.14-33.63L309.14-33.63L309.14-33.63Q311.88-35.51 315.03-35.51L315.03-35.51L315.03-35.51Q320.13-35.51 322.47-30.42L322.47-30.42L323.01-29.35L325.89-22.24L325.89-22.24Q327.70-23.05 328.47-24.56L328.47-24.56L328.47-24.56Q329.24-26.06 329.24-29.04L329.24-29.04L329.24-29.04Q329.24-32.03 327.63-33.90L327.63-33.90L327.63-33.90Q330.18-35.51 333.53-35.51L333.53-35.51L333.53-35.51Q339.56-35.51 339.56-29.68L339.56-29.68L339.56-29.68Q339.56-23.32 331.58-19.63L331.58-19.63L327.56-17.76L331.18-8.44L331.18-8.44Q332.25-5.63 334.20-4.42L334.20-4.42L334.20-4.42Q335-3.89 335.94-3.82L335.94-3.82L335.94-3.82Q333.93-0.54 329.57 0.94L329.57 0.94L329.57 0.94Q328.23 1.34 326.42 1.34L326.42 1.34L326.42 1.34Q324.62 1.34 322.54 0.10L322.54 0.10L322.54 0.10Q320.46-1.14 319.72-3.08L319.72-3.08L316.04-12.66L316.04-12.66Q312.29-10.99 312.29-4.89L312.29-4.89L312.29-4.89Q312.29-2.08 313.16 0.20ZM357.44-3.69L357.44-3.69L357.44-3.69Q355.37 1.34 348.74 1.34L348.74 1.34L348.74 1.34Q345.32 1.34 343.17-1.01L343.17-1.01L343.17-1.01Q341.37-3.08 341.37-5.16L341.37-5.16L341.37-5.16Q341.37-10.59 343.84-21.17L343.84-21.17L346.32-34.17L359.92-35.51L355.84-14.34L355.84-14.34Q354.70-9.38 354.70-7.64L354.70-7.64L354.70-7.64Q354.70-3.82 357.44-3.69ZM347.53-43.48L347.53-43.48L347.53-43.48Q347.53-46.10 349.71-47.50L349.71-47.50L349.71-47.50Q351.88-48.91 355.03-48.91L355.03-48.91L355.03-48.91Q358.18-48.91 360.09-47.50L360.09-47.50L360.09-47.50Q362.00-46.10 362.00-43.48L362.00-43.48L362.00-43.48Q362.00-40.87 359.89-39.53L359.89-39.53L359.89-39.53Q357.78-38.19 354.63-38.19L354.63-38.19L354.63-38.19Q351.48-38.19 349.51-39.53L349.51-39.53L349.51-39.53Q347.53-40.87 347.53-43.48ZM390.27-11.32L390.27-11.32L390.27-11.32Q391.95-10.18 391.95-7.67L391.95-7.67L391.95-7.67Q391.95-5.16 390.68-3.55L390.68-3.55L390.68-3.55Q389.40-1.94 387.33-0.87L387.33-0.87L387.33-0.87Q383.04 1.34 378.42 1.34L378.42 1.34L378.42 1.34Q373.79 1.34 371.08 0.34L371.08 0.34L371.08 0.34Q368.37-0.67 366.56-2.55L366.56-2.55L366.56-2.55Q363.01-6.10 363.01-12.60L363.01-12.60L363.01-12.60Q363.01-22.71 368.50-28.88L368.50-28.88L368.50-28.88Q374.40-35.51 384.65-35.51L384.65-35.51L384.65-35.51Q391.01-35.51 394.16-32.83L394.16-32.83L394.16-32.83Q396.51-30.82 396.51-27.54L396.51-27.54L396.51-27.54Q396.51-15.75 376.14-15.75L376.14-15.75L376.14-15.75Q375.87-14.00 375.87-12.53L375.87-12.53L375.87-12.53Q375.87-9.45 377.24-8.27L377.24-8.27L377.24-8.27Q378.62-7.10 381.16-7.10L381.16-7.10L381.16-7.10Q383.71-7.10 386.42-8.27L386.42-8.27L386.42-8.27Q389.14-9.45 390.27-11.32ZM376.61-18.63L376.61-18.63L376.61-18.63Q381.36-18.63 384.11-21.57L384.11-21.57L384.11-21.57Q386.86-24.39 386.86-28.88L386.86-28.88L386.86-28.88Q386.86-30.42 386.29-31.26L386.29-31.26L386.29-31.26Q385.72-32.09 384.58-32.09L384.58-32.09L384.58-32.09Q383.44-32.09 382.47-31.66L382.47-31.66L382.47-31.66Q381.50-31.22 380.49-29.75L380.49-29.75L380.49-29.75Q378.01-26.40 376.61-18.63ZM418.82-23.52L418.82-23.52L418.82-23.52Q419.75-26.00 419.75-28.14L419.75-28.14L419.75-28.14Q419.75-32.09 416.54-32.09L416.54-32.09L416.54-32.09Q414.86-32.09 413.49-30.59L413.49-30.59L413.49-30.59Q412.12-29.08 412.12-27.20L412.12-27.20L412.12-27.20Q412.12-25.86 413.19-24.79L413.19-24.79L413.19-24.79Q414.73-23.32 418.68-20.90L418.68-20.90L418.68-20.90Q422.64-18.49 424.14-16.52L424.14-16.52L424.14-16.52Q425.65-14.54 425.65-11.83L425.65-11.83L425.65-11.83Q425.65-9.11 424.34-6.63L424.34-6.63L424.34-6.63Q423.04-4.15 420.69-2.41L420.69-2.41L420.69-2.41Q415.67 1.34 407.63 1.34L407.63 1.34L407.63 1.34Q403.27 1.34 399.92-0.94L399.92-0.94L399.92-0.94Q396.57-3.15 396.57-5.76L396.57-5.76L396.57-5.76Q396.57-8.38 398.48-9.92L398.48-9.92L398.48-9.92Q400.39-11.46 403.21-11.46L403.21-11.46L403.21-11.46Q406.02-11.46 407.76-10.38L407.76-10.38L407.76-10.38Q406.89-8.17 406.89-6.70L406.89-6.70L406.89-6.70Q406.89-2.28 410.64-2.28L410.64-2.28L410.64-2.28Q412.25-2.28 413.32-3.28L413.32-3.28L413.32-3.28Q414.39-4.29 414.39-6.03L414.39-6.03L414.39-6.03Q414.39-9.45 408.63-13.07L408.63-13.07L408.63-13.07Q403.94-16.15 402.87-17.35L402.87-17.35L402.87-17.35Q401.06-19.50 401.06-22.18L401.06-22.18L401.06-22.18Q401.06-24.86 402.33-27.40L402.33-27.40L402.33-27.40Q403.61-29.95 405.95-31.76L405.95-31.76L405.95-31.76Q410.84-35.51 419.35-35.51L419.35-35.51L419.35-35.51Q423.71-35.51 426.29-33.77L426.29-33.77L426.29-33.77Q428.87-32.03 428.87-29.08L428.87-29.08L428.87-29.08Q428.87-26.13 427.09-24.46L427.09-24.46L427.09-24.46Q425.32-22.78 422.10-22.78L422.10-22.78L422.10-22.78Q419.89-22.78 418.82-23.52ZM474.56 1.34L474.56 1.34L474.56 1.34Q465.99 1.34 465.18-10.85L465.18-10.85L453.66-10.85L453.66-10.85Q452.32-7.77 451.38-5.09L451.38-5.09L449.64 0L440.26 0L461.36-44.22L475.77-44.22L478.58-11.66L478.58-11.66Q479.25-4.62 481.93-2.55L481.93-2.55L481.93-2.55Q479.99 1.34 474.56 1.34ZM459.42-24.25L455.73-15.75L464.98-15.75L464.18-32.96L464.18-34.77L459.42-24.25ZM512.01-44.69L512.01-44.69L512.01-44.69Q528.43-44.69 528.43-33.10L528.43-33.10L528.43-33.10Q528.43-26.73 524.34-22.91L524.34-22.91L524.34-22.91Q520.32-19.10 513.29-19.10L513.29-19.10L513.29-19.10Q510.00-19.10 507.46-20.97L507.46-20.97L507.46-20.97Q506.25-21.78 505.45-22.85L505.45-22.85L505.45-22.85Q510.34-22.85 512.92-25.83L512.92-25.83L512.92-25.83Q515.50-28.81 515.50-34.64L515.50-34.64L515.50-34.64Q515.50-40.47 509.74-40.47L509.74-40.47L508.13-40.47L508.13-40.47Q507.73-40.47 507.39-40.40L507.39-40.40L499.69 0L485.15 0L493.39-43.89L493.39-43.89Q500.56-44.55 504.71-44.62L504.71-44.62L504.71-44.62Q508.87-44.69 512.01-44.69ZM542.63 0L528.03 0L536.54-44.22L551.28-44.22L542.63 0Z"
                    fill="none" stroke="#fff" stroke-width="2.1"></path>
            </g>
        </g>
    </g>
    <style>text {
        font-size: 64px;
        font-family: Arial Black;
        dominant-baseline: central;
        text-anchor: middle;
    }</style>
</svg>
