<svg width="196" height="42" viewBox="0 0 196 42" fill="none" xmlns="http://www.w3.org/2000/svg">
    <g clip-path="url(#clip0_596_3023)">
        <path
            d="M51.7353 12.7048C53.4944 12.7048 54.9973 13.3624 56.244 14.6774C57.4907 15.9754 58.1141 17.5636 58.1141 19.4423C58.1141 21.338 57.4907 22.9348 56.244 24.2328C54.9973 25.5307 53.4944 26.1797 51.7353 26.1797C49.7883 26.1797 48.294 25.4624 47.2522 24.0278V30.9702H44.4855V13.0379H47.2522V14.8823C48.294 13.4307 49.7883 12.7048 51.7353 12.7048ZM48.405 22.3883C49.1735 23.1568 50.1384 23.5411 51.2998 23.5411C52.4611 23.5411 53.426 23.1568 54.1946 22.3883C54.9631 21.6027 55.3474 20.6207 55.3474 19.4423C55.3474 18.2639 54.9631 17.2904 54.1946 16.5219C53.426 15.7363 52.4611 15.3435 51.2998 15.3435C50.1384 15.3435 49.1735 15.7363 48.405 16.5219C47.6365 17.2904 47.2522 18.2639 47.2522 19.4423C47.2522 20.6207 47.6365 21.6027 48.405 22.3883ZM63.3883 15.1897C64.0885 13.6015 65.4036 12.8073 67.3334 12.8073V15.8046C66.2746 15.7363 65.3523 15.9924 64.5667 16.5731C63.7811 17.1367 63.3883 18.076 63.3883 19.391V25.8467H60.6216V13.0379H63.3883V15.1897ZM74.823 26.1797C72.9443 26.1797 71.3475 25.5307 70.0325 24.2328C68.7174 22.9348 68.0599 21.338 68.0599 19.4423C68.0599 17.5466 68.7174 15.9497 70.0325 14.6518C71.3475 13.3538 72.9443 12.7048 74.823 12.7048C76.7187 12.7048 78.3155 13.3538 79.6135 14.6518C80.9285 15.9497 81.586 17.5466 81.586 19.4423C81.586 21.338 80.9285 22.9348 79.6135 24.2328C78.3155 25.5307 76.7187 26.1797 74.823 26.1797ZM71.9794 22.3371C72.7479 23.1056 73.6958 23.4899 74.823 23.4899C75.9501 23.4899 76.898 23.1056 77.6665 22.3371C78.4351 21.5685 78.8193 20.6036 78.8193 19.4423C78.8193 18.2809 78.4351 17.316 77.6665 16.5475C76.898 15.779 75.9501 15.3947 74.823 15.3947C73.6958 15.3947 72.7479 15.779 71.9794 16.5475C71.2109 17.316 70.8266 18.2809 70.8266 19.4423C70.8266 20.6036 71.2109 21.5685 71.9794 22.3371ZM94.6132 25.8467H91.411L88.2344 21.4661L85.0322 25.8467H81.8044L86.6205 19.2629L82.0605 13.0379H85.2628L88.2088 17.0855L91.1548 13.0379H94.3826L89.8227 19.2886L94.6132 25.8467ZM105.104 13.0379H108.05L103.132 26.2566C101.902 29.5698 99.8186 31.141 96.8811 30.9702V28.3828C97.7521 28.4341 98.4524 28.2462 98.9818 27.8192C99.5112 27.4094 99.9467 26.7604 100.288 25.8723L100.416 25.6161L94.9854 13.0379H98.0083L101.825 22.3371L105.104 13.0379ZM109.459 19.391V16.7268H118.938V19.391H109.459ZM128.385 26.1797C126.455 26.1797 124.841 25.5307 123.543 24.2328C122.262 22.9348 121.622 21.338 121.622 19.4423C121.622 17.5295 122.262 15.9327 123.543 14.6518C124.841 13.3538 126.455 12.7048 128.385 12.7048C129.632 12.7048 130.767 13.0037 131.792 13.6015C132.817 14.1992 133.585 15.0019 134.098 16.0095L131.715 17.3929C131.425 16.778 130.981 16.2998 130.383 15.9583C129.802 15.5996 129.128 15.4203 128.359 15.4203C127.232 15.4203 126.284 15.8046 125.516 16.5731C124.764 17.3416 124.388 18.298 124.388 19.4423C124.388 20.5865 124.764 21.5429 125.516 22.3114C126.284 23.08 127.232 23.4642 128.359 23.4642C129.111 23.4642 129.785 23.2849 130.383 22.9263C130.998 22.5676 131.459 22.0894 131.766 21.4917L134.149 22.8494C133.602 23.8741 132.817 24.6853 131.792 25.2831C130.767 25.8808 129.632 26.1797 128.385 26.1797ZM142.886 12.7048C144.355 12.7048 145.542 13.1745 146.447 14.1138C147.352 15.0531 147.805 16.3425 147.805 17.9821V25.8467H145.038V18.2639C145.038 17.3075 144.782 16.5731 144.269 16.0607C143.757 15.5484 143.057 15.2922 142.169 15.2922C141.195 15.2922 140.41 15.5996 139.812 16.2145C139.214 16.8122 138.915 17.7344 138.915 18.9812V25.8467H136.149V7.91434H138.915V14.6774C139.752 13.3624 141.076 12.7048 142.886 12.7048ZM152.961 20.6207C153.166 21.5942 153.636 22.3456 154.37 22.875C155.104 23.3874 156.001 23.6436 157.06 23.6436C158.529 23.6436 159.63 23.1141 160.365 22.0553L162.645 23.3874C161.381 25.2489 159.511 26.1797 157.034 26.1797C154.951 26.1797 153.269 25.5478 151.988 24.284C150.707 23.0031 150.066 21.3892 150.066 19.4423C150.066 17.5295 150.698 15.9327 151.962 14.6518C153.226 13.3538 154.848 12.7048 156.829 12.7048C158.708 12.7048 160.245 13.3624 161.441 14.6774C162.653 15.9924 163.259 17.5893 163.259 19.4679C163.259 19.7582 163.225 20.1425 163.157 20.6207H152.961ZM152.936 18.3663H160.467C160.279 17.3245 159.844 16.5389 159.161 16.0095C158.495 15.4801 157.709 15.2154 156.804 15.2154C155.779 15.2154 154.925 15.4972 154.242 16.0607C153.559 16.6243 153.123 17.3929 152.936 18.3663ZM175.763 13.0379H178.53V25.8467H175.763V24.0022C174.722 25.4539 173.227 26.1797 171.28 26.1797C169.521 26.1797 168.018 25.5307 166.772 24.2328C165.525 22.9177 164.902 21.3209 164.902 19.4423C164.902 17.5466 165.525 15.9497 166.772 14.6518C168.018 13.3538 169.521 12.7048 171.28 12.7048C173.227 12.7048 174.722 13.4221 175.763 14.8567V13.0379ZM168.821 22.3883C169.59 23.1568 170.555 23.5411 171.716 23.5411C172.877 23.5411 173.842 23.1568 174.611 22.3883C175.379 21.6027 175.763 20.6207 175.763 19.4423C175.763 18.2639 175.379 17.2904 174.611 16.5219C173.842 15.7363 172.877 15.3435 171.716 15.3435C170.555 15.3435 169.59 15.7363 168.821 16.5219C168.053 17.2904 167.668 18.2639 167.668 19.4423C167.668 20.6207 168.053 21.6027 168.821 22.3883ZM189.005 12.7048C190.764 12.7048 192.267 13.3624 193.513 14.6774C194.76 15.9754 195.384 17.5636 195.384 19.4423C195.384 21.338 194.76 22.9348 193.513 24.2328C192.267 25.5307 190.764 26.1797 189.005 26.1797C187.058 26.1797 185.563 25.4624 184.522 24.0278V30.9702H181.755V13.0379H184.522V14.8823C185.563 13.4307 187.058 12.7048 189.005 12.7048ZM185.674 22.3883C186.443 23.1568 187.408 23.5411 188.569 23.5411C189.731 23.5411 190.695 23.1568 191.464 22.3883C192.233 21.6027 192.617 20.6207 192.617 19.4423C192.617 18.2639 192.233 17.2904 191.464 16.5219C190.695 15.7363 189.731 15.3435 188.569 15.3435C187.408 15.3435 186.443 15.7363 185.674 16.5219C184.906 17.2904 184.522 18.2639 184.522 19.4423C184.522 20.6207 184.906 21.6027 185.674 22.3883Z"
            fill="#101A33"/>
        <path
            d="M27.2385 17.7116C27.5377 17.3254 27.7221 16.8632 27.7707 16.3777C27.8193 15.8922 27.7302 15.4029 27.5135 14.9654C27.3396 14.6096 27.087 14.2978 26.7747 14.0534C26.4624 13.8089 26.0985 13.6382 25.7105 13.554C25.3225 13.4698 24.9203 13.4744 24.5343 13.5674C24.1483 13.6603 23.7885 13.8393 23.4819 14.0908C23.2167 14.3055 22.9972 14.5708 22.8365 14.8712C22.6757 15.1716 22.5768 15.5009 22.5456 15.84C22.5237 16.1239 22.4452 16.4006 22.3145 16.6539C22.1839 16.9072 22.0039 17.132 21.7849 17.3151L21.4865 17.5483C21.3029 17.6985 21.0836 17.7992 20.8496 17.8407C20.6157 17.8822 20.375 17.8631 20.1506 17.7852C19.9262 17.7074 19.7257 17.5734 19.5682 17.3961C19.4107 17.2189 19.3016 17.0042 19.2513 16.7728C19.2513 16.7728 18.8417 14.9654 18.5725 13.7876C18.5144 13.5047 18.5135 13.213 18.5698 12.9297C18.626 12.6464 18.7383 12.3771 18.9002 12.1376C19.0867 11.8508 19.2138 11.5298 19.2741 11.1933C19.3344 10.8569 19.3266 10.5119 19.2513 10.1785C19.1148 9.52581 18.7336 8.94959 18.1853 8.56739C17.6371 8.18519 16.9632 8.02581 16.3011 8.12177C15.6389 8.21772 15.0385 8.56177 14.6222 9.08374C14.206 9.60571 14.0053 10.2663 14.061 10.9306C14.0899 11.3511 14.2211 11.7583 14.4434 12.1169C14.6656 12.4755 14.9722 12.7748 15.3366 12.9888C15.5744 13.1385 15.7786 13.3353 15.9367 13.567C16.0947 13.7987 16.2032 14.0604 16.2553 14.3357C16.4367 15.2219 16.6825 16.3356 16.6825 16.3356C16.7366 16.5856 16.7207 16.8457 16.6363 17.0874C16.552 17.329 16.4025 17.5428 16.2043 17.7054C16.006 17.868 15.7667 17.9731 15.5125 18.0092C15.2583 18.0452 14.9991 18.0108 14.7632 17.9098C14.7632 17.9098 13.6748 17.4317 12.8322 17.076C12.5697 16.9561 12.3339 16.785 12.1389 16.5726C11.9439 16.3603 11.7937 16.1112 11.697 15.84C11.5444 15.4615 11.3052 15.1237 10.9983 14.8537C10.6915 14.5837 10.3256 14.3888 9.92975 14.2847C9.53394 14.1806 9.11918 14.1701 8.71857 14.254C8.31795 14.3379 7.94257 14.514 7.62234 14.7681C7.30212 15.0222 7.04593 15.3474 6.8742 15.7177C6.70246 16.088 6.61994 16.4931 6.63322 16.9008C6.64649 17.3085 6.7552 17.7075 6.95066 18.0659C7.14613 18.4243 7.42294 18.7322 7.75902 18.9651C8.12823 19.2108 8.55206 19.3629 8.99368 19.4083C9.42839 19.4536 9.8675 19.3873 10.2693 19.2158C10.5379 19.1123 10.8249 19.0646 11.1127 19.0756C11.4005 19.0866 11.683 19.1562 11.9428 19.28L14.6813 20.4986C14.8969 20.5949 15.0844 20.7443 15.2261 20.9328C15.3678 21.1212 15.459 21.3425 15.4912 21.5758C15.5234 21.809 15.4955 22.0466 15.4101 22.2662C15.3247 22.4857 15.1846 22.68 15.0031 22.8308L14.6286 23.1456C14.2148 23.4917 13.6808 23.6614 13.1423 23.6179H13.0195C12.5525 23.5698 12.0811 23.6472 11.6544 23.8421C11.2276 24.037 10.861 24.3423 10.5928 24.7262C10.3246 25.1102 10.1645 25.5587 10.1292 26.0251C10.094 26.4916 10.1847 26.959 10.3922 27.3786C10.5675 27.7331 10.8209 28.0435 11.1335 28.2867C11.4461 28.5299 11.8098 28.6996 12.1974 28.7831C12.5851 28.8666 12.9866 28.8618 13.3722 28.7691C13.7577 28.6763 14.1172 28.498 14.4238 28.2474C14.688 28.0318 14.9068 27.7663 15.0675 27.4661C15.2282 27.1659 15.3276 26.8369 15.36 26.4982C15.3804 26.2122 15.4583 25.9333 15.5889 25.6779C15.7196 25.4225 15.9005 25.1958 16.1207 25.0114C16.7644 24.5042 17.5485 23.8453 17.5485 23.8453C17.8337 23.6136 18.1993 23.5038 18.5655 23.5398C18.9317 23.5759 19.2687 23.7549 19.5029 24.0377L19.7662 24.3642C20.8223 25.6503 21.5985 27.1412 22.0455 28.7421C22.4925 30.3431 22.6006 32.0192 22.3629 33.664C22.1252 35.3088 21.5469 36.8864 20.6647 38.2966C19.7825 39.7068 18.6157 40.9189 17.2384 41.8559L17.1915 41.885C17.1915 41.885 0 30.5213 0 17.2043C0 12.658 1.81248 8.29793 5.03872 5.08322C8.26495 1.86851 12.6407 0.0625 17.2033 0.0625C21.7658 0.0625 26.1416 1.86851 29.3678 5.08322C32.594 8.29793 34.4065 12.658 34.4065 17.2043C34.4065 17.6474 34.4065 18.0847 34.3538 18.522C33.8272 24.7957 25.8107 27.1804 21.8083 22.306L21.7615 22.2477C21.529 21.9636 21.4188 21.5992 21.4549 21.2343C21.4911 20.8694 21.6708 20.5337 21.9546 20.3003L23.3297 19.1634C23.548 18.9891 23.7996 18.861 24.0692 18.7868C24.3389 18.7127 24.6208 18.694 24.8979 18.7319C25.3427 18.7721 25.7905 18.6996 26.1997 18.5213C26.6089 18.3429 26.9662 18.0644 27.2385 17.7116Z"
            fill="url(#paint0_linear_596_3023)"/>
    </g>
    <defs>
        <linearGradient id="paint0_linear_596_3023" x1="17.2032" y1="0.0625" x2="17.2032" y2="41.885"
                        gradientUnits="userSpaceOnUse">
            <stop stop-color="#0452FB"/>
            <stop offset="1" stop-color="#0038B3"/>
        </linearGradient>
        <clipPath id="clip0_596_3023">
            <rect width="196" height="42" fill="white"/>
        </clipPath>
    </defs>
</svg>
