<?xml version="1.0" encoding="UTF-8" standalone="no"?>
<svg xmlns="http://www.w3.org/2000/svg" version="1.1" viewBox="0.00 0.00 360.00 111.00">
<path fill="#000000" d="
  M 227.17 71.23
  C 218.47 75.46 208.38 72.67 202.89 66.09
  C 189.79 50.42 201.72 23.69 224.07 29.34
  C 227.66 30.26 230.48 32.48 233.06 35.05
  A 0.44 0.43 -67.6 0 0 233.80 34.74
  L 233.80 12.72
  Q 233.80 11.99 234.53 11.99
  L 239.52 12.00
  Q 240.29 12.00 240.29 12.77
  L 240.30 71.57
  Q 240.30 72.43 239.43 72.43
  L 234.63 72.42
  Q 233.84 72.41 233.84 71.63
  L 233.83 67.01
  A 0.49 0.49 0.0 0 0 232.96 66.70
  Q 230.61 69.55 227.17 71.23
  Z
  M 233.34 44.55
  Q 232.82 42.20 231.25 40.44
  Q 225.99 33.48 217.00 34.71
  C 197.17 37.42 200.14 72.65 225.28 66.28
  Q 227.56 65.70 230.32 62.56
  C 231.24 61.52 231.59 60.10 232.33 58.84
  C 234.71 54.77 234.45 48.97 233.34 44.55
  Z"
/>
<rect fill="#000000" x="-3.50" y="-4.28" transform="translate(185.92,17.82) rotate(-0.1)" width="7.00" height="8.56" rx="0.39"/>
<rect fill="#000000" x="-3.51" y="-4.29" transform="translate(254.66,17.82) rotate(-0.1)" width="7.02" height="8.58" rx="0.74"/>
<path fill="#000000" d="
  M 43.03 29.44
  Q 45.32 30.93 47.70 31.33
  Q 53.98 35.77 56.22 43.20
  Q 56.32 45.04 57.02 46.47
  L 57.52 51.30
  C 57.35 56.72 54.94 64.59 50.26 68.07
  L 47.50 70.24
  Q 45.53 71.17 43.48 71.84
  Q 30.82 75.95 22.29 66.89
  Q 21.35 65.89 21.35 67.26
  L 21.37 88.95
  Q 21.37 89.51 20.80 89.51
  L 15.17 89.51
  A 0.38 0.38 0.0 0 1 14.80 89.13
  L 14.84 30.46
  Q 14.84 29.26 16.04 29.27
  L 20.21 29.29
  Q 21.37 29.29 21.35 30.46
  L 21.28 34.27
  Q 21.24 36.44 22.57 34.71
  C 27.19 28.67 35.93 27.46 43.03 29.44
  Z
  M 35.8357 67.3894
  A 16.54 15.19 90.5 0 0 51.1694 50.9826
  A 16.54 15.19 90.5 0 0 36.1243 34.3106
  A 16.54 15.19 90.5 0 0 20.7906 50.7174
  A 16.54 15.19 90.5 0 0 35.8357 67.3894
  Z"
/>
<path fill="#000000" d="
  M 87.86 35.09
  Q 82.26 34.90 79.14 38.03
  L 74.54 43.83
  Q 72.45 47.53 72.50 51.99
  L 72.45 71.91
  Q 72.45 72.44 71.92 72.43
  L 68.74 72.39
  L 66.71 72.33
  Q 66.17 72.32 66.17 71.78
  L 65.86 29.44
  L 71.85 29.37
  Q 72.39 29.36 72.40 29.91
  L 72.56 38.20
  Q 72.57 38.87 72.97 38.33
  L 77.11 32.72
  L 82.74 29.70
  Q 83.14 29.49 82.70 29.42
  Q 82.10 29.32 81.58 29.47
  L 87.93 28.65
  Q 88.43 28.59 88.51 29.08
  Q 89.27 33.56 87.86 35.09
  Z"
/>
<path fill="#000000" d="
  M 317.77 30.45
  Q 323.39 28.58 329.03 28.62
  C 342.13 29.80 348.94 40.20 348.45 52.85
  Q 348.43 53.49 347.79 53.49
  L 313.00 53.48
  Q 312.48 53.48 312.52 54.01
  C 313.63 67.86 333.10 72.30 339.91 60.18
  Q 340.04 59.94 340.32 59.94
  L 346.93 60.04
  A 0.19 0.18 -76.9 0 1 347.09 60.30
  Q 343.13 68.63 337.22 71.21
  C 323.29 77.27 307.82 69.38 305.90 53.99
  C 304.71 44.46 308.45 35.14 317.77 30.45
  Z
  M 312.84 47.43
  L 341.38 47.43
  A 0.01 0.01 0.0 0 0 341.39 47.42
  L 341.39 47.36
  A 14.11 12.81 0.0 0 0 327.28 34.55
  L 326.94 34.55
  A 14.11 12.81 -0.0 0 0 312.83 47.36
  L 312.83 47.42
  A 0.01 0.01 0.0 0 0 312.84 47.43
  Z"
/>
<path fill="#000000" d="
  M 126.01 69.10
  Q 117.76 74.09 107.76 72.56
  C 104.24 71.72 100.94 70.10 98.55 67.32
  Q 97.50 66.10 96.39 65.19
  Q 91.64 56.87 92.02 47.64
  Q 92.45 45.53 93.03 43.37
  Q 93.65 41.02 94.63 39.30
  Q 100.94 28.12 114.74 28.71
  C 131.08 29.40 138.06 46.02 132.87 60.00
  Q 130.87 65.38 126.01 69.10
  Z
  M 114.85 67.12
  Q 124.86 66.67 127.47 56.25
  C 129.57 47.00 126.23 36.51 115.98 34.79
  C 93.69 31.06 91.67 68.52 114.85 67.12
  Z"
/>
<path fill="#000000" d="
  M 152.56 60.22
  Q 151.15 61.62 150.46 63.35
  Q 149.56 64.04 148.83 65.51
  L 145.47 70.28
  Q 145.55 70.59 145.25 70.51
  C 143.89 72.47 141.71 72.46 139.48 72.43
  L 136.64 72.36
  Q 136.13 72.35 136.43 71.94
  L 144.13 61.51
  Q 145.71 60.26 146.72 57.91
  L 152.36 50.32
  A 0.37 0.37 0.0 0 0 152.36 49.88
  L 137.45 29.99
  A 0.41 0.41 0.0 0 1 137.78 29.33
  L 144.67 29.28
  A 1.06 1.04 72.4 0 1 145.56 29.75
  L 155.43 44.54
  A 0.97 0.97 0.0 0 0 157.05 44.54
  L 166.91 29.83
  Q 167.23 29.35 167.81 29.34
  L 174.47 29.23
  A 0.59 0.59 0.0 0 1 174.95 30.17
  L 160.62 49.43
  Q 160.07 50.18 160.62 50.92
  L 176.49 72.15
  A 0.19 0.19 0.0 0 1 176.34 72.45
  L 168.78 72.47
  A 0.57 0.56 72.1 0 1 168.32 72.23
  L 156.87 55.61
  A 0.66 0.66 0.0 0 0 155.79 55.61
  L 152.56 60.22
  Z"
/>
<path fill="#000000" d="
  M 189.20 36.74
  L 188.98 72.41
  L 183.27 72.40
  Q 182.69 72.40 182.69 71.82
  L 182.70 29.91
  Q 182.70 29.28 183.34 29.28
  L 188.28 29.27
  A 0.87 0.87 0.0 0 1 189.15 30.13
  L 189.20 36.74
  Z"
/>
<rect fill="#000000" x="-3.21" y="-21.60" transform="translate(254.67,50.87) rotate(-0.1)" width="6.42" height="43.20" rx="0.58"/>
<path fill="#000000" d="
  M 285.14 43.45
  Q 286.99 41.94 288.28 39.66
  L 291.14 36.07
  A 0.49 0.49 0.0 0 0 290.75 35.28
  L 267.25 35.26
  Q 266.49 35.26 266.48 34.50
  L 266.46 30.04
  Q 266.46 29.28 267.21 29.28
  L 299.39 29.28
  Q 300.00 29.28 300.00 29.89
  L 300.00 34.82
  Q 300.00 35.29 299.70 35.65
  L 274.75 65.79
  A 0.36 0.36 0.0 0 0 275.03 66.38
  L 299.23 66.35
  Q 299.87 66.34 299.87 66.98
  L 299.87 71.79
  Q 299.87 72.46 299.21 72.46
  L 266.52 72.46
  A 0.44 0.43 -90.0 0 1 266.09 72.02
  L 266.14 66.78
  Q 266.15 66.27 266.47 65.88
  L 285.14 43.45
  Z"
/>
<rect fill="#fde315" x="136.11" y="81.49" width="40.66" height="5.46" rx="0.49"/>
</svg>
