<svg width="134" height="28" viewBox="0 0 134 28" fill="none" xmlns="http://www.w3.org/2000/svg">
    <g clip-path="url(#clip0_6370_21121)">
        <path
            d="M40.9044 8.67958C41.7727 9.30207 42.4154 10.1896 42.7358 11.2088V7.89953H44.8869V20.8766H42.7358V17.5673C42.4159 18.5868 41.7731 19.4745 40.9044 20.0966C40.0301 20.7269 38.9623 21.0421 37.701 21.0421C36.5513 21.0421 35.527 20.7742 34.6281 20.2384C33.7168 19.689 32.9826 18.8892 32.513 17.9342C32.0006 16.9326 31.7443 15.7545 31.7443 14.3999C31.7443 13.0453 32.0006 11.8634 32.513 10.8542C32.9803 9.89455 33.7148 9.09018 34.6281 8.53775C35.5264 8.00259 36.5507 7.7347 37.701 7.73407C38.9623 7.73407 40.0301 8.04924 40.9044 8.67958ZM35.1368 10.9138C34.3407 11.7572 33.9426 12.9192 33.9426 14.3999C33.9426 15.8806 34.3407 17.0429 35.1368 17.8869C35.9298 18.7291 36.9881 19.1504 38.3118 19.1511C39.1118 19.1645 39.9004 18.9603 40.5933 18.5601C41.2643 18.1648 41.8093 17.5871 42.1648 16.8941C42.543 16.1762 42.7321 15.3448 42.7321 14.3999C42.7321 13.455 42.543 12.6198 42.1648 11.8943C41.8136 11.1983 41.2676 10.6195 40.5933 10.2283C39.8981 9.83528 39.1104 9.63518 38.3118 9.64872C36.9881 9.64872 35.9298 10.0704 35.1368 10.9138Z"
            fill="#000000"/>
        <path
            d="M50.3944 7.89954L54.6019 18.111L58.5022 7.89954H60.8896L53.1837 27.0224H50.749L53.4437 20.6639L47.9834 7.89954H50.3944Z"
            fill="#000000"/>
        <path
            d="M73.2635 8.53775C74.2439 9.06903 75.0487 9.87385 75.58 10.8542C76.1397 11.8628 76.4196 13.0447 76.4196 14.3999C76.4196 15.7551 76.1397 16.9332 75.58 17.9342C75.0463 18.9097 74.2418 19.7099 73.2635 20.2384C72.2789 20.7748 71.1641 21.0427 69.9192 21.0421C68.6743 21.0415 67.5592 20.7736 66.574 20.2384C65.5944 19.7078 64.7868 18.9083 64.2462 17.9342C63.6789 16.9326 63.3952 15.7545 63.3952 14.3999C63.3952 13.0453 63.6789 11.8634 64.2462 10.8542C64.7844 9.8752 65.5923 9.0712 66.574 8.53775C67.5592 8.00259 68.6743 7.7347 69.9192 7.73407C71.1641 7.73344 72.2789 8.00133 73.2635 8.53775ZM67.7795 10.1451C67.1068 10.5107 66.5562 11.0656 66.1958 11.7411C65.7943 12.4578 65.5935 13.3441 65.5935 14.3999C65.5935 15.44 65.7943 16.3186 66.1958 17.036C66.5562 17.7112 67.1069 18.2658 67.7795 18.631C68.4408 18.9727 69.1744 19.151 69.9187 19.151C70.6631 19.151 71.3966 18.9727 72.0579 18.631C72.7308 18.2661 73.2815 17.7114 73.6417 17.036C74.0438 16.318 74.2449 15.4393 74.2449 14.3999C74.2449 13.3447 74.0438 12.4585 73.6417 11.7411C73.2816 11.0654 72.7308 10.5104 72.0579 10.1451C71.3966 9.80344 70.6631 9.62514 69.9187 9.62514C69.1744 9.62514 68.4408 9.80344 67.7795 10.1451Z"
            fill="#000000"/>
        <path
            d="M90.6494 8.53778C91.5477 9.0742 92.2527 9.84636 92.7645 10.8543C93.2764 11.8622 93.5326 13.0441 93.5332 14.3999C93.5332 15.7558 93.277 16.9339 92.7645 17.9342C92.2947 18.889 91.5605 19.6887 90.6494 20.2384C89.7512 20.7749 88.7269 21.0427 87.5765 21.0421C86.3158 21.0421 85.2481 20.7232 84.3731 20.0853C83.5121 19.4655 82.8773 18.5813 82.5653 17.5674V20.8766H80.4143V3.38477H82.5615V11.2088C82.8735 10.1951 83.5083 9.31123 84.3694 8.6919C85.2443 8.054 86.3121 7.73473 87.5727 7.7341C88.725 7.7341 89.7506 8.00199 90.6494 8.53778ZM84.6927 10.2283C84.013 10.6165 83.4622 11.1958 83.109 11.8943C82.7308 12.6199 82.5417 13.455 82.5417 14.3999C82.5417 15.3448 82.7308 16.1762 83.109 16.8942C83.4665 17.5897 84.0162 18.1679 84.6927 18.5602C85.3822 18.9576 86.1662 19.1618 86.9619 19.1511C88.3008 19.1511 89.3683 18.7297 90.1644 17.887C90.9605 17.0442 91.3586 15.8819 91.3586 14.3999C91.3586 12.9193 90.9605 11.7572 90.1644 10.9138C89.3683 10.0704 88.3008 9.64875 86.9619 9.64875C86.1676 9.63794 85.3846 9.83794 84.6927 10.2283Z"
            fill="#000000"/>
        <path
            d="M98.4253 7.89954L102.633 18.111L106.533 7.89954H108.92L101.215 27.0224H98.7799L101.475 20.6639L96.0143 7.89954H98.4253Z"
            fill="#000000"/>
        <path
            d="M118.257 18.9856V20.8766H116.65C115.326 20.8766 114.338 20.5615 113.684 19.9311C113.03 19.3008 112.703 18.245 112.702 16.7637V9.76693H110.764V7.89956H112.702V4.66119H114.877V7.89956H118.234V9.76693H114.877V16.811C114.877 17.6468 115.031 18.2182 115.339 18.5252C115.646 18.8321 116.178 18.9856 116.934 18.9856H118.257Z"
            fill="#000000"/>
        <path
            d="M133.903 14.849H123.529C123.576 16.3309 123.997 17.4419 124.793 18.1819C125.588 18.9219 126.561 19.2923 127.712 19.2929C128.752 19.2929 129.623 19.0291 130.324 18.5015C131.014 17.9921 131.477 17.2323 131.613 16.3855H133.903C133.754 17.2728 133.386 18.1091 132.833 18.8188C132.28 19.5286 131.559 20.0896 130.735 20.4511C129.868 20.8457 128.891 21.0427 127.804 21.0421C126.559 21.0421 125.455 20.7742 124.495 20.2384C123.535 19.705 122.751 18.9046 122.237 17.9342C121.694 16.9326 121.422 15.7545 121.422 14.3999C121.422 13.0453 121.694 11.8634 122.237 10.8542C122.749 9.87909 123.533 9.07412 124.495 8.53775C125.455 8.00259 126.559 7.7347 127.804 7.73407C129.065 7.73407 130.164 8.00196 131.101 8.53775C132.005 9.03971 132.75 9.78488 133.252 10.6888C133.752 11.601 134.009 12.6268 133.997 13.6671C134.002 14.0632 133.97 14.4588 133.903 14.849ZM131.35 11.3979C131.012 10.7767 130.492 10.2736 129.861 9.95601C129.222 9.63904 128.517 9.47708 127.804 9.48326C126.622 9.48326 125.629 9.8498 124.826 10.5829C124.022 11.316 123.589 12.3913 123.526 13.809H131.823C131.872 12.8483 131.714 12.0446 131.35 11.3979Z"
            fill="#000000"/>
        <path
            d="M13.2664 0.5C16.7694 0.500251 20.1289 1.89199 22.6058 4.36908C25.0827 6.84618 26.4742 10.2057 26.4742 13.7087C26.474 17.2269 25.0763 20.6009 22.5886 23.0886C20.1009 25.5763 16.7269 26.974 13.2087 26.9742H0V13.7664C0 10.2479 1.39771 6.87358 3.88564 4.38564C6.37358 1.89771 9.74794 0.5 13.2664 0.5V0.5Z"
            fill="#EE3889"/>
        <path
            d="M2.33917 25.0945V13.1566C2.33917 13.1566 1.03438 5.12921 10.7135 4.10049H19.5228C19.5228 4.10049 18.653 8.52546 13.5954 8.52546C13.5954 8.52546 7.12439 7.80499 7.12439 13.0535V21.4921C7.12439 21.4921 5.71274 24.7853 2.33917 25.0945Z"
            fill="#07B6BF"/>
    </g>
    <defs>
        <clipPath id="clip0_6370_21121">
            <rect width="134" height="27" fill="#000000" transform="translate(0 0.5)"/>
        </clipPath>
    </defs>
</svg>
