<?xml version="1.0" encoding="UTF-8"?>
<svg version="1.1" xmlns="http://www.w3.org/2000/svg" width="3034" height="450">
<path d="M0 0 C1.21805832 0.00323273 1.21805832 0.00323273 2.46072388 0.00653076 C48.13234751 0.20060838 92.39395201 15.92509241 126.875 46.3125 C127.83535156 47.15167969 128.79570312 47.99085937 129.78515625 48.85546875 C152.72886569 69.21145793 168.48363496 93.40249729 180.875 121.3125 C181.24761963 122.10769043 181.62023926 122.90288086 182.00415039 123.72216797 C183.00809451 126.70838808 183.02057131 129.18271691 182.875 132.3125 C182.0814209 132.3218457 181.2878418 132.33119141 180.47021484 132.34082031 C162.68725157 132.60252313 145.22297691 133.2958389 127.97265625 138.125 C125.875 138.3125 125.875 138.3125 124.31640625 137.3359375 C122.19525735 134.35828132 120.52574508 131.15861217 118.8125 127.9375 C114.51310683 120.10336489 109.62457 113.14025024 103.875 106.3125 C103.03324219 105.30574219 102.19148438 104.29898438 101.32421875 103.26171875 C78.59889058 76.91906307 44.41476933 60.87892249 9.875 58.3125 C-26.22538615 56.18541619 -60.69187291 67.86964594 -88.125 91.3125 C-89.37216797 92.35857422 -89.37216797 92.35857422 -90.64453125 93.42578125 C-112.45952304 112.2918955 -124.76697741 137.92911396 -132.125 165.3125 C-131.444375 165.44785156 -130.76375 165.58320313 -130.0625 165.72265625 C-103.90952905 171.53056336 -81.452996 187.51591617 -61.69335938 204.95019531 C-59.34651553 206.98870538 -56.92376753 208.92906092 -54.5 210.875 C-49.44691856 214.97551233 -44.67190652 219.32834757 -39.90234375 223.75 C-37.62848777 225.84795995 -35.33473252 227.90811479 -33 229.9375 C-32.08541016 230.741875 -32.08541016 230.741875 -31.15234375 231.5625 C-29.58088497 232.9189808 -27.98467809 234.24681781 -26.37890625 235.5625 C-25.44949219 236.34625 -24.52007812 237.13 -23.5625 237.9375 C-22.26119141 239.00871094 -22.26119141 239.00871094 -20.93359375 240.1015625 C-19.125 242.3125 -19.125 242.3125 -19.12695312 244.5390625 C-20.58366138 248.58705804 -23.23591657 250.93757384 -26.28515625 253.8984375 C-27.2201017 254.82845078 -27.2201017 254.82845078 -28.17393494 255.7772522 C-30.16927895 257.75686671 -32.17833053 259.72192958 -34.1875 261.6875 C-35.51323206 263.00173493 -36.8381113 264.31683072 -38.16210938 265.6328125 C-41.26077234 268.70428103 -44.38397253 271.74848427 -47.52862549 274.77282715 C-48.91770789 276.1125707 -50.29377307 277.4657852 -51.66748047 278.82128906 C-52.35342285 279.4706543 -53.03936523 280.12001953 -53.74609375 280.7890625 C-54.29579834 281.31838379 -54.84550293 281.84770508 -55.41186523 282.39306641 C-57.125 283.3125 -57.125 283.3125 -59.64550781 283.125 C-63.34618146 281.91233341 -65.71628005 279.35704361 -68.4375 276.6875 C-69.60092723 275.58006139 -70.76498639 274.47328627 -71.9296875 273.3671875 C-72.48495117 272.83448242 -73.04021484 272.30177734 -73.61230469 271.75292969 C-76.68502732 268.82699949 -79.90596364 266.07493546 -83.125 263.3125 C-83.61548828 262.89033203 -84.10597656 262.46816406 -84.61132812 262.03320312 C-87.56356445 259.49225828 -90.52070685 256.95729101 -93.484375 254.4296875 C-95.80188789 252.45183127 -98.10341876 250.45810971 -100.390625 248.4453125 C-119.9548391 231.34090891 -143.22280564 217.77059444 -170.125 219.3125 C-194.93722812 221.48628719 -216.75685366 231.70820345 -233 250.75 C-247.31673598 269.26211649 -254.3762364 291.92054301 -251.9140625 315.31689453 C-249.07150909 337.36283434 -238.73511772 358.31649685 -221.40234375 372.62890625 C-202.03247787 386.94865273 -180.49542602 391.83495207 -156.81835938 392.23046875 C-153.9261649 392.31855589 -151.05689796 392.5302242 -148.171875 392.75 C-146.15636765 392.85641879 -144.1407423 392.96062845 -142.125 393.0625 C-141.2062207 393.15112305 -140.28744141 393.23974609 -139.34082031 393.33105469 C-133.97728665 393.51041773 -130.81410022 392.50989522 -126.70794678 388.94604492 C-124.62798956 386.99052238 -122.62636325 384.97236901 -120.65405273 382.90856934 C-119.14665052 381.33509944 -117.6094919 379.79903792 -116.05664062 378.27050781 C-112.97013843 375.22653665 -109.91980532 372.14810998 -106.875 369.0625 C-95.57055489 357.60865694 -95.57055489 357.60865694 -91.203125 353.890625 C-85.1658471 348.73579019 -79.70094452 342.95463719 -74.125 337.3125 C-61.46276642 324.49995161 -61.46276642 324.49995161 -55.23046875 319.1953125 C-50.14059498 314.64369997 -45.42226237 309.66921502 -40.625 304.8125 C-28.52301899 292.5605387 -28.52301899 292.5605387 -24.15625 288.84375 C-18.13141187 283.70915851 -12.68497688 277.93848 -7.125 272.3125 C5.50829179 259.52923696 5.50829179 259.52923696 11.73828125 254.2265625 C17.01195071 249.50243447 21.89985895 244.34670152 26.875 239.3125 C39.97136031 226.06067131 39.97136031 226.06067131 46.23828125 220.7265625 C48.57489523 218.70781725 50.72178489 216.52391011 52.875 214.3125 C57.05897491 210.09692407 61.31639171 206.1174379 65.875 202.3125 C66.42397949 201.84972656 66.97295898 201.38695312 67.53857422 200.91015625 C87.55983842 184.08327243 108.99096817 170.09510285 134.875 164.3125 C135.58205078 164.15168945 136.28910156 163.99087891 137.01757812 163.82519531 C173.64518486 155.88757723 213.25369643 162.92034389 244.87304688 182.95019531 C252.71508157 188.11973639 259.92875066 194.00260169 266.875 200.3125 C267.73609375 201.08980469 268.5971875 201.86710938 269.484375 202.66796875 C295.87112311 227.7521863 310.70943274 264.1422368 312.09765625 300.25 C313.06534354 340.15022227 299.05427879 377.25375861 271.96484375 406.5078125 C244.82416441 434.91607574 207.53306391 449.30508381 168.53964031 450.40673101 C164.87217116 450.44335721 161.20584335 450.45062702 157.53819275 450.44621277 C156.12657011 450.4480852 154.71494798 450.45038761 153.30332667 450.45307809 C149.4563747 450.45914925 145.60944462 450.45906807 141.76248896 450.45788372 C137.60074003 450.45767851 133.4389979 450.46320987 129.2772522 450.46794128 C121.13505731 450.47622293 112.99286967 450.47899501 104.85067093 450.47955366 C98.22640513 450.48003006 91.60214171 450.48209097 84.97787666 450.48525429 C66.16424859 450.49405453 47.35062621 450.49867472 28.53699606 450.49792381 C27.52423316 450.49788386 26.51147026 450.4978439 25.46801758 450.49780273 C24.45400663 450.49776185 23.43999568 450.49772097 22.39525712 450.49767885 C5.97416891 450.49727269 -10.44689635 450.50683637 -26.86797792 450.5209411 C-43.76100658 450.53533577 -60.65402406 450.54220957 -77.547059 450.54134732 C-87.01828605 450.54101639 -96.48948903 450.54371767 -105.96071053 450.55452538 C-114.02677455 450.5636712 -122.0928036 450.56577237 -130.15887059 450.55901595 C-134.26654778 450.55577106 -138.37415804 450.55561967 -142.48182869 450.5643692 C-182.83183396 450.64493327 -182.83183396 450.64493327 -200.8125 446.0625 C-201.68422852 445.84561523 -202.55595703 445.62873047 -203.45410156 445.40527344 C-222.20113968 440.57950713 -240.01132017 432.54533616 -255.125 420.3125 C-255.67784668 419.86503418 -256.23069336 419.41756836 -256.80029297 418.95654297 C-280.90008259 399.2887474 -297.3803654 374.05817379 -305.875 344.125 C-306.07383789 343.4252002 -306.27267578 342.72540039 -306.47753906 342.00439453 C-309.66979355 330.17443602 -310.53387647 318.57069305 -310.5 306.375 C-310.49912384 305.60348602 -310.49824768 304.83197205 -310.49734497 304.03707886 C-310.45025807 291.43945814 -309.63096432 279.48144292 -306.125 267.3125 C-305.88894043 266.48830566 -305.65288086 265.66411133 -305.40966797 264.81494141 C-294.59029231 228.45039896 -270.18037309 197.79285966 -237.10205078 179.17382812 C-222.40290245 171.26188549 -207.27732223 166.32073202 -191.125 162.3125 C-190.94493408 161.45422607 -190.94493408 161.45422607 -190.76123047 160.57861328 C-183.76187123 127.59668436 -171.67555423 95.95822835 -149.125 70.3125 C-148.11759766 69.14074219 -148.11759766 69.14074219 -147.08984375 67.9453125 C-144.81579897 65.35247639 -142.48687967 62.82573709 -140.125 60.3125 C-139.33246826 59.46896973 -139.33246826 59.46896973 -138.52392578 58.60839844 C-125.88907224 45.27456535 -112.10693688 34.42128021 -96.125 25.3125 C-95.50608887 24.95591309 -94.88717773 24.59932617 -94.24951172 24.23193359 C-65.33136309 7.71443697 -33.20787155 -0.15919279 0 0 Z M101.875 248.3125 C100.46775894 249.55244667 99.05216454 250.78303799 97.625 252 C94.29006712 254.88705966 91.18823505 257.95236369 88.125 261.125 C86.24622032 262.95159136 84.33406629 264.64330541 82.34375 266.34375 C76.73942571 271.21120943 71.58467981 276.53203192 66.375 281.8125 C55.33493021 293.00258045 55.33493021 293.00258045 51 296.6875 C44.76977793 302.01034614 39.13202141 307.9898982 33.375 313.8125 C20.18062379 327.1571783 20.18062379 327.1571783 13.99414062 332.41601562 C8.7245833 337.13190518 3.84409896 342.2844123 -1.125 347.3125 C-13.80118468 360.13916511 -13.80118468 360.13916511 -19.984375 365.40332031 C-24.64477775 369.55983827 -29.00357856 374.04420526 -33.40966797 378.46679688 C-35.14565963 380.20822432 -36.88703142 381.94414676 -38.62890625 383.6796875 C-39.73209226 384.78353302 -40.83496873 385.88768801 -41.9375 386.9921875 C-42.45924805 387.51191132 -42.98099609 388.03163513 -43.51855469 388.56710815 C-46.01673258 390.59456866 -46.01673258 390.59456866 -47.125 393.3125 C-20.98523272 393.33592335 5.15453298 393.35352536 31.29430866 393.36431217 C43.43310714 393.36945515 55.57189908 393.37645953 67.71069336 393.38793945 C78.29833852 393.39794759 88.88597894 393.40436794 99.4736287 393.40658849 C105.07287731 393.40788524 110.67211235 393.41090486 116.27135658 393.41823006 C121.55639638 393.42508728 126.84141721 393.42709751 132.12646103 393.42560768 C134.05193752 393.4258797 135.97741474 393.42782666 137.90288734 393.43170547 C147.33481875 393.44975166 156.74126837 393.35403358 166.1627655 392.87962341 C166.92048982 392.84239892 167.67821414 392.80517443 168.4588998 392.76682192 C192.82660322 391.39237473 213.61575645 382.54662092 230.875 365.3125 C231.54402344 364.65507812 232.21304687 363.99765625 232.90234375 363.3203125 C241.51400963 354.22045695 247.04875287 342.09560197 250.875 330.3125 C251.35453125 328.87970703 251.35453125 328.87970703 251.84375 327.41796875 C258.06982518 305.42493466 253.65762698 281.97324419 242.97802734 262.23144531 C231.05847401 241.49490499 212.12223202 228.11178462 189.58203125 221.3203125 C183.72459918 219.76130016 177.92668078 218.6703951 171.875 218.3125 C171.15570313 218.25964844 170.43640625 218.20679688 169.6953125 218.15234375 C143.12059426 217.12335634 120.32440748 230.41546999 101.875 248.3125 Z " fill="#00A1FE" transform="translate(310.125,-0.3125)"/>
<path d="M0 0 C1.21805832 0.00323273 1.21805832 0.00323273 2.46072388 0.00653076 C48.13234751 0.20060838 92.39395201 15.92509241 126.875 46.3125 C127.83535156 47.15167969 128.79570312 47.99085937 129.78515625 48.85546875 C152.72886569 69.21145793 168.48363496 93.40249729 180.875 121.3125 C181.24761963 122.10769043 181.62023926 122.90288086 182.00415039 123.72216797 C183.00809451 126.70838808 183.02057131 129.18271691 182.875 132.3125 C182.0814209 132.3218457 181.2878418 132.33119141 180.47021484 132.34082031 C162.68725157 132.60252313 145.22297691 133.2958389 127.97265625 138.125 C125.875 138.3125 125.875 138.3125 124.31640625 137.3359375 C122.19525735 134.35828132 120.52574508 131.15861217 118.8125 127.9375 C114.51310683 120.10336489 109.62457 113.14025024 103.875 106.3125 C103.03324219 105.30574219 102.19148438 104.29898438 101.32421875 103.26171875 C78.59889058 76.91906307 44.41476933 60.87892249 9.875 58.3125 C-26.22538615 56.18541619 -60.69187291 67.86964594 -88.125 91.3125 C-89.37216797 92.35857422 -89.37216797 92.35857422 -90.64453125 93.42578125 C-112.45952304 112.2918955 -124.76697741 137.92911396 -132.125 165.3125 C-131.444375 165.44785156 -130.76375 165.58320313 -130.0625 165.72265625 C-103.90952905 171.53056336 -81.452996 187.51591617 -61.69335938 204.95019531 C-59.34651553 206.98870538 -56.92376753 208.92906092 -54.5 210.875 C-49.44691856 214.97551233 -44.67190652 219.32834757 -39.90234375 223.75 C-37.62848777 225.84795995 -35.33473252 227.90811479 -33 229.9375 C-32.08541016 230.741875 -32.08541016 230.741875 -31.15234375 231.5625 C-29.58088497 232.9189808 -27.98467809 234.24681781 -26.37890625 235.5625 C-25.44949219 236.34625 -24.52007812 237.13 -23.5625 237.9375 C-22.26119141 239.00871094 -22.26119141 239.00871094 -20.93359375 240.1015625 C-19.125 242.3125 -19.125 242.3125 -19.12695312 244.5390625 C-20.58366138 248.58705804 -23.23591657 250.93757384 -26.28515625 253.8984375 C-27.2201017 254.82845078 -27.2201017 254.82845078 -28.17393494 255.7772522 C-30.16927895 257.75686671 -32.17833053 259.72192958 -34.1875 261.6875 C-35.51323206 263.00173493 -36.8381113 264.31683072 -38.16210938 265.6328125 C-41.26077234 268.70428103 -44.38397253 271.74848427 -47.52862549 274.77282715 C-48.91770789 276.1125707 -50.29377307 277.4657852 -51.66748047 278.82128906 C-52.35342285 279.4706543 -53.03936523 280.12001953 -53.74609375 280.7890625 C-54.29579834 281.31838379 -54.84550293 281.84770508 -55.41186523 282.39306641 C-57.125 283.3125 -57.125 283.3125 -59.64550781 283.125 C-63.34618146 281.91233341 -65.71628005 279.35704361 -68.4375 276.6875 C-69.60092723 275.58006139 -70.76498639 274.47328627 -71.9296875 273.3671875 C-72.48495117 272.83448242 -73.04021484 272.30177734 -73.61230469 271.75292969 C-76.68502732 268.82699949 -79.90596364 266.07493546 -83.125 263.3125 C-83.61548828 262.89033203 -84.10597656 262.46816406 -84.61132812 262.03320312 C-87.56356445 259.49225828 -90.52070685 256.95729101 -93.484375 254.4296875 C-95.80188789 252.45183127 -98.10341876 250.45810971 -100.390625 248.4453125 C-119.9548391 231.34090891 -143.22280564 217.77059444 -170.125 219.3125 C-194.93722812 221.48628719 -216.75685366 231.70820345 -233 250.75 C-247.31673598 269.26211649 -254.3762364 291.92054301 -251.9140625 315.31689453 C-249.07150909 337.36283434 -238.73511772 358.31649685 -221.40234375 372.62890625 C-200.14946659 388.34072453 -177.14697084 391.72634884 -151.4375 392.5625 C-149.45241618 392.63914291 -147.46738875 392.71726098 -145.48242188 392.796875 C-140.6970905 392.98567605 -135.91145303 393.15479995 -131.125 393.3125 C-132.83720654 396.98602216 -134.73165365 398.94893639 -137.8125 401.625 C-145.49000047 408.43353578 -152.64381906 415.77741383 -159.8503418 423.07543945 C-164.56746201 427.83929667 -169.33214919 432.45161954 -174.43554688 436.80175781 C-177.68914722 439.71119118 -180.43105709 443.13849098 -183.2421875 446.46875 C-188.23503693 449.66200872 -193.1044755 447.97252534 -198.64111328 446.76269531 C-201.19882315 446.13216445 -203.72218797 445.42864858 -206.25 444.6875 C-207.1579834 444.42388672 -208.0659668 444.16027344 -209.00146484 443.88867188 C-245.93054122 432.80930029 -275.41532683 407.86287811 -294.00292969 374.34082031 C-299.1828082 364.69057216 -302.88970538 354.644504 -305.875 344.125 C-306.07383789 343.4252002 -306.27267578 342.72540039 -306.47753906 342.00439453 C-309.66979355 330.17443602 -310.53387647 318.57069305 -310.5 306.375 C-310.49912384 305.60348602 -310.49824768 304.83197205 -310.49734497 304.03707886 C-310.45025807 291.43945814 -309.63096432 279.48144292 -306.125 267.3125 C-305.88894043 266.48830566 -305.65288086 265.66411133 -305.40966797 264.81494141 C-294.59029231 228.45039896 -270.18037309 197.79285966 -237.10205078 179.17382812 C-222.40290245 171.26188549 -207.27732223 166.32073202 -191.125 162.3125 C-190.94493408 161.45422607 -190.94493408 161.45422607 -190.76123047 160.57861328 C-183.76187123 127.59668436 -171.67555423 95.95822835 -149.125 70.3125 C-148.11759766 69.14074219 -148.11759766 69.14074219 -147.08984375 67.9453125 C-144.81579897 65.35247639 -142.48687967 62.82573709 -140.125 60.3125 C-139.33246826 59.46896973 -139.33246826 59.46896973 -138.52392578 58.60839844 C-125.88907224 45.27456535 -112.10693688 34.42128021 -96.125 25.3125 C-95.50608887 24.95591309 -94.88717773 24.59932617 -94.24951172 24.23193359 C-65.33136309 7.71443697 -33.20787155 -0.15919279 0 0 Z " fill="#00C3D6" transform="translate(310.125,-0.3125)"/>
<path d="M0 0 C1.21805832 0.00323273 1.21805832 0.00323273 2.46072388 0.00653076 C48.13234751 0.20060838 92.39395201 15.92509241 126.875 46.3125 C127.83535156 47.15167969 128.79570312 47.99085937 129.78515625 48.85546875 C152.72886569 69.21145793 168.48363496 93.40249729 180.875 121.3125 C181.24761963 122.10769043 181.62023926 122.90288086 182.00415039 123.72216797 C183.00809451 126.70838808 183.02057131 129.18271691 182.875 132.3125 C182.0814209 132.3218457 181.2878418 132.33119141 180.47021484 132.34082031 C162.68725157 132.60252313 145.22297691 133.2958389 127.97265625 138.125 C125.875 138.3125 125.875 138.3125 124.31640625 137.3359375 C122.19525735 134.35828132 120.52574508 131.15861217 118.8125 127.9375 C114.51310683 120.10336489 109.62457 113.14025024 103.875 106.3125 C103.03324219 105.30574219 102.19148438 104.29898438 101.32421875 103.26171875 C78.59889058 76.91906307 44.41476933 60.87892249 9.875 58.3125 C-26.22538615 56.18541619 -60.69187291 67.86964594 -88.125 91.3125 C-88.95644531 92.00988281 -89.78789062 92.70726563 -90.64453125 93.42578125 C-112.45952304 112.2918955 -124.76697741 137.92911396 -132.125 165.3125 C-133.85445653 165.17014543 -135.58355654 165.02345618 -137.3125 164.875 C-138.75689453 164.75318359 -138.75689453 164.75318359 -140.23046875 164.62890625 C-143.125 164.3125 -143.125 164.3125 -145.1875 163.79882812 C-149.46683384 163.09034799 -153.68969968 163.19041401 -158.01953125 163.21484375 C-158.96688644 163.2162587 -159.91424164 163.21767365 -160.89030457 163.21913147 C-163.90606895 163.22471389 -166.92175818 163.23726318 -169.9375 163.25 C-171.98632705 163.25501727 -174.03515527 163.25957978 -176.08398438 163.26367188 C-181.09768506 163.27467757 -186.1113298 163.29193012 -191.125 163.3125 C-190.5079572 160.32362796 -189.88769017 157.33548355 -189.265625 154.34765625 C-189.00773193 153.09595642 -189.00773193 153.09595642 -188.74462891 151.81896973 C-183.07052349 124.64264391 -171.33541272 98.19003045 -154.125 76.3125 C-153.31933594 75.28382812 -152.51367188 74.25515625 -151.68359375 73.1953125 C-136.07181495 53.83198329 -117.73747219 37.63035987 -96.125 25.3125 C-95.50608887 24.95591309 -94.88717773 24.59932617 -94.24951172 24.23193359 C-65.33136309 7.71443697 -33.20787155 -0.15919279 0 0 Z " fill="#006EFE" transform="translate(310.125,-0.3125)"/>
<path d="M0 0 C10.23 0 20.46 0 31 0 C31 85.8 31 171.6 31 260 C20.77 260 10.54 260 0 260 C-0.33 253.73 -0.66 247.46 -1 241 C-2.093125 242.175625 -3.18625 243.35125 -4.3125 244.5625 C-19.20487406 259.37635539 -40.09951348 264.98270292 -60.625 265.1875 C-83.0911501 265.09664902 -103.67343937 258.43880053 -121 244 C-121.65484375 243.50242187 -122.3096875 243.00484375 -122.984375 242.4921875 C-141.56144255 227.70484173 -150.1678507 202.5355117 -152.75683594 179.75585938 C-155.29735193 150.96334474 -151.21275125 121.01785371 -133.0625 97.625 C-131.72944517 96.06504222 -130.37544137 94.52271616 -129 93 C-128.00419922 91.86498047 -128.00419922 91.86498047 -126.98828125 90.70703125 C-112.36889412 75.00672825 -90.27369366 65.55710226 -68.98828125 64.76171875 C-45.45282067 64.29836502 -23.92659008 68.18150699 -5 83 C-3.68 83.99 -2.36 84.98 -1 86 C-0.67 57.62 -0.34 29.24 0 0 Z M-102 111 C-102.55429688 111.51949219 -103.10859375 112.03898437 -103.6796875 112.57421875 C-112.923165 122.09250234 -117.35053828 136.3364711 -120 149 C-120.19207031 149.90492188 -120.38414062 150.80984375 -120.58203125 151.7421875 C-123.49985718 174.48486809 -119.69998584 196.28854748 -106 215 C-96.72912753 226.44303341 -81.63738305 233.81841459 -67.19921875 235.78125 C-50.46750624 236.92529872 -36.48863822 232.70080216 -23.59375 222.00390625 C-8.37771707 207.8040125 -2.57975684 188.05271769 -0.71484375 167.921875 C-0.08408167 148.28597724 -5.65387742 127.53748882 -18.25 112.2734375 C-29.60574689 100.22615474 -43.79789412 94.18450662 -60.21337891 93.58056641 C-77.29726085 93.42901914 -90.01912625 99.08174405 -102 111 Z " fill="#000000" transform="translate(3003,94)"/>
<path d="M0 0 C3.18478829 2.15793109 3.18478829 2.15793109 6.44970703 3.82641602 C14.45080813 8.58550928 14.45080813 8.58550928 15.88006592 13.12136841 C16.75351504 18.8005167 16.34716907 24.48388457 16.00292969 30.19360352 C15.94265399 31.93495552 15.88791547 33.67650849 15.83886719 35.41821289 C15.70741157 39.66085275 15.500933 43.89374428 15.25292969 48.13110352 C10.5835766 47.37840419 8.74789703 46.05832169 5.37792969 42.69360352 C-19.35379739 19.15458804 -53.85107949 9.02753371 -87.35644531 9.78735352 C-110.6173718 10.75598222 -133.63099553 19.99824168 -149.74707031 37.13110352 C-171.3390036 62.89476128 -177.20442852 96.05541014 -174.52441406 128.85620117 C-171.64560566 155.26724098 -161.15370642 180.18055956 -140.77441406 197.78735352 C-118.09873614 215.34271707 -89.95839598 220.88922433 -61.79296875 217.40820312 C-36.06185994 213.70303 -14.89338574 202.52375827 4.75292969 185.88110352 C5.35306885 185.37353516 5.95320801 184.8659668 6.5715332 184.34301758 C9.51173021 181.80644277 12.08070845 179.38943538 14.25292969 176.13110352 C15.90292969 176.46110352 17.55292969 176.79110352 19.25292969 177.13110352 C19.47663946 182.39612264 19.6392713 187.65833744 19.74731445 192.92700195 C19.79237618 194.71590388 19.85364984 196.50447796 19.93188477 198.29223633 C20.56127717 213.05210527 20.56127717 213.05210527 17.47314453 217.95922852 C15.1789266 220.04425767 12.93628904 221.58812508 10.25292969 223.13110352 C8.99095828 224.02474534 7.73041156 224.92040442 6.47167969 225.81860352 C5.23969985 226.60153171 3.99987974 227.37224488 2.75292969 228.13110352 C2.07206299 228.5484375 1.39119629 228.96577148 0.68969727 229.39575195 C-34.05609438 250.25355259 -75.13167774 256.3978698 -114.51074219 246.86328125 C-131.91186813 242.35031611 -148.21620289 233.97061251 -161.74707031 222.13110352 C-162.47925781 221.54200195 -163.21144531 220.95290039 -163.96582031 220.34594727 C-188.13890237 200.30101479 -200.51422185 168.47506129 -204.74707031 138.13110352 C-204.8427832 137.46925049 -204.93849609 136.80739746 -205.03710938 136.12548828 C-209.99541184 97.69864419 -202.78148994 55.02236763 -179.46533203 23.39233398 C-159.77939772 -2.07885449 -132.13100034 -17.33452969 -100.33203125 -21.92163086 C-66.08305612 -26.18871629 -28.90935627 -19.44082944 0 0 Z " fill="#000000" transform="translate(2298.7470703125,109.868896484375)"/>
<path d="M0 0 C20.3435525 17.6815174 27.20370959 40.77479253 30.0859375 66.71484375 C30.0859375 74.96484375 30.0859375 83.21484375 30.0859375 91.71484375 C-17.7640625 91.71484375 -65.6140625 91.71484375 -114.9140625 91.71484375 C-114.4190625 92.70484375 -114.4190625 92.70484375 -113.9140625 93.71484375 C-113.61888712 95.83659944 -113.35281224 97.9624394 -113.1015625 100.08984375 C-110.92527729 115.64154612 -104.87482755 130.15504679 -92.9140625 140.71484375 C-77.83451335 151.3754774 -59.20229737 155.92922186 -40.82373047 153.43066406 C-19.22852545 149.68675913 4.68587575 138.38559493 18.0859375 120.71484375 C19.4059375 121.04484375 20.7259375 121.37484375 22.0859375 121.71484375 C22.3099824 126.2677425 22.47241288 130.81737826 22.58032227 135.37451172 C22.62533211 136.92097906 22.68656835 138.46706871 22.76489258 140.01220703 C23.3942461 152.75558749 23.3942461 152.75558749 20.29296875 157.39990234 C18.00221732 159.48271354 15.72919968 161.10957858 13.0859375 162.71484375 C12.142948 163.3785498 12.142948 163.3785498 11.1809082 164.05566406 C9.47933519 165.23572911 7.75052466 166.29893109 5.9609375 167.33984375 C5.32333496 167.71391357 4.68573242 168.0879834 4.02880859 168.47338867 C-10.80370155 176.941569 -27.80036213 182.10364017 -44.9140625 182.71484375 C-45.74421875 182.75480469 -46.574375 182.79476562 -47.4296875 182.8359375 C-73.28465757 183.49392327 -97.4721259 175.85374103 -116.9140625 158.71484375 C-138.07267511 138.33464164 -145.57127713 108.64530226 -146.2890625 80.15234375 C-145.65037925 54.99377748 -139.34028582 28.65499036 -121.9140625 9.71484375 C-121.16511719 8.874375 -120.41617188 8.03390625 -119.64453125 7.16796875 C-90.00023529 -24.43984277 -33.52401408 -26.28893866 0 0 Z M-91.9140625 21.71484375 C-92.90986328 22.40707031 -92.90986328 22.40707031 -93.92578125 23.11328125 C-104.13122347 31.04829925 -111.26553742 44.19454337 -113.9140625 56.71484375 C-113.9140625 59.02484375 -113.9140625 61.33484375 -113.9140625 63.71484375 C-76.2940625 63.71484375 -38.6740625 63.71484375 0.0859375 63.71484375 C-1.41418861 47.21345651 -6.03705623 34.36525815 -18.28125 22.78515625 C-39.52955586 6.07654778 -70.18535 6.56148665 -91.9140625 21.71484375 Z " fill="#000000" transform="translate(1029.9140625,176.28515625)"/>
<path d="M0 0 C1.09086914 0.00491455 2.18173828 0.0098291 3.30566406 0.01489258 C25.77981086 0.33990434 45.74149196 7.99197737 62.0390625 23.55859375 C84.59383297 47.15971956 85.6875 78.3027298 85.6875 109.3125 C38.1675 109.3125 -9.3525 109.3125 -58.3125 109.3125 C-56.28450739 125.53644088 -53.74111375 137.32431971 -44.3125 150.3125 C-43.85230469 150.96863281 -43.39210938 151.62476563 -42.91796875 152.30078125 C-34.25655345 163.55812505 -18.81211509 168.98044109 -5.19921875 171.02734375 C19.91857618 173.50853324 44.03406932 164.34438082 63.625 148.75 C67.43855678 145.5316226 70.71237329 142.31353248 73.6875 138.3125 C75.0075 138.6425 76.3275 138.9725 77.6875 139.3125 C77.9115449 143.86539875 78.07397538 148.41503451 78.18188477 152.97216797 C78.22689461 154.51863531 78.28813085 156.06472496 78.36645508 157.60986328 C78.99569806 170.35100549 78.99569806 170.35100549 75.89672852 174.99755859 C73.60540378 177.08244231 71.33362564 178.70840094 68.6875 180.3125 C67.73653442 180.97620605 67.73653442 180.97620605 66.76635742 181.65332031 C65.04851582 182.83168042 63.30339466 183.89562127 61.5 184.9375 C60.85909424 185.31156982 60.21818848 185.68563965 59.55786133 186.07104492 C44.46653073 194.69651615 28.10184896 199.66334275 10.6875 200.3125 C9.94371094 200.35246094 9.19992187 200.39242187 8.43359375 200.43359375 C-15.20168297 201.11345789 -39.25764929 195.03039717 -57.3125 179.3125 C-58.19228516 178.64541016 -58.19228516 178.64541016 -59.08984375 177.96484375 C-77.04632784 163.99868945 -85.98484865 138.71108694 -89.01171875 116.97265625 C-89.11097656 116.09480469 -89.21023438 115.21695313 -89.3125 114.3125 C-89.42207031 113.38308594 -89.53164062 112.45367187 -89.64453125 111.49609375 C-92.41879161 84.90018439 -87.61623875 55.11750029 -71.3125 33.3125 C-68.46643342 29.81366585 -65.47418159 26.52786039 -62.3125 23.3125 C-61.62542969 22.61253906 -60.93835937 21.91257813 -60.23046875 21.19140625 C-43.92440548 5.67190633 -22.04048355 -0.11862663 0 0 Z M-43.3125 46.3125 C-43.87582031 46.85390625 -44.43914062 47.3953125 -45.01953125 47.953125 C-53.3873911 56.69632421 -58.3125 69.39437678 -58.3125 81.3125 C-20.6925 81.3125 16.9275 81.3125 55.6875 81.3125 C54.31892667 66.25819333 50.48956028 53.36006165 39.6875 42.3125 C14.86388387 21.84792921 -20.80159658 23.51869474 -43.3125 46.3125 Z " fill="#000000" transform="translate(1574.3125,158.6875)"/>
<path d="M0 0 C0.70640625 0.61359375 1.4128125 1.2271875 2.140625 1.859375 C21.51061017 19.70416449 28.69849255 47.35808082 29.87646484 72.72314453 C30.80865764 101.76532768 22.68111217 129.32263323 3.0625 151.15625 C-13.1568696 168.16042781 -35.67132519 175.94200938 -58.7109375 177.203125 C-85.10278701 177.5407606 -108.73560115 170.69185553 -128 152 C-128.61359375 151.45988281 -129.2271875 150.91976562 -129.859375 150.36328125 C-147.14634589 134.62262198 -155.01962089 108.1491625 -156.12109375 85.51123047 C-157.25119302 54.59736484 -150.51042353 26.62507285 -129.50390625 3.21875 C-96.51312856 -31.6394302 -34.96423343 -31.8464037 0 0 Z M-111 28 C-125.21249582 46.26201209 -128.3199261 69.06023519 -125.70703125 91.51806641 C-122.92355311 109.24777461 -114.1089343 125.28790462 -99.69140625 136.18359375 C-85.4093425 145.82243213 -68.90641389 149.30126835 -51.89355469 146.67480469 C-35.23906542 143.37601187 -21.40794621 135.09336052 -11.78125 120.94921875 C0.1235657 101.2383945 2.98075742 78.0227498 -2.0234375 55.6875 C-6.5863312 38.4580134 -15.85004297 24.43253694 -31 15 C-31.62390625 14.60941406 -32.2478125 14.21882813 -32.890625 13.81640625 C-58.75839334 -0.63580345 -91.61432256 6.68152436 -111 28 Z " fill="#000000" transform="translate(2586,182)"/>
<path d="M0 0 C10.23 0 20.46 0 31 0 C31.0093457 3.74883545 31.01869141 7.4976709 31.02832031 11.36010742 C31.06216051 23.77734817 31.11754991 36.1944155 31.18390274 48.61152172 C31.22359184 56.13644421 31.25603545 63.66126365 31.27099609 71.1862793 C31.28406549 77.75053727 31.31116353 84.31456754 31.35461307 90.87869722 C31.37711016 94.34947254 31.39291784 97.81996829 31.39188385 101.29082298 C31.39098955 105.18003492 31.42143786 109.06868248 31.45410156 112.95776367 C31.4490712 114.08921814 31.44404083 115.22067261 31.43885803 116.38641357 C31.60416777 129.19567489 35.28545103 141.53790681 43.96484375 151.18359375 C54.18410018 160.95933815 67.50952831 165.89041477 81.5625 166.375 C94.34262283 165.93047399 107.70350865 161.10979178 117.0625 152.21875 C130.57754539 136.74184318 135.2740563 117.87095128 135.31884766 97.63183594 C135.32889328 96.56694443 135.3389389 95.50205292 135.34928894 94.40489197 C135.3798532 90.93139115 135.39708095 87.45796642 135.4140625 83.984375 C135.43279571 81.55771238 135.4523707 79.13105612 135.4727478 76.70440674 C135.52384749 70.35223156 135.56359129 64.00003531 135.60089111 57.64776611 C135.6410704 51.15184411 135.69209892 44.65600807 135.7421875 38.16015625 C135.83868412 25.44015886 135.92216817 12.72012531 136 0 C146.23 0 156.46 0 167 0 C167 63.03 167 126.06 167 191 C157.43 191 147.86 191 138 191 C137.67 185.06 137.34 179.12 137 173 C135.35 174.98 133.7 176.96 132 179 C115.28521756 193.36058773 93.39628082 197.34389067 72 196 C49.87266203 193.76526885 30.44119717 185.22889662 16 168 C2.90889106 150.02214149 -0.18423145 131.20944685 -0.11352539 109.55200195 C-0.11367142 108.36046005 -0.11381744 107.16891815 -0.1139679 105.94126892 C-0.11339534 102.71060057 -0.10842016 99.47997695 -0.10139394 96.24931741 C-0.09509352 92.8594255 -0.09455135 89.46953248 -0.09336853 86.07963562 C-0.09027477 79.67678677 -0.08208804 73.27395523 -0.07201904 66.87111396 C-0.0607968 59.57474859 -0.05533213 52.27838235 -0.05032361 44.98201048 C-0.03990355 29.9879958 -0.02158271 14.99400356 0 0 Z " fill="#000000" transform="translate(2648,163)"/>
<path d="M0 0 C8.22120608 6.86094847 13.27518519 14.56133282 18 24 C18.42152344 24.83144531 18.84304688 25.66289062 19.27734375 26.51953125 C26.58761141 42.71246377 25.41308647 61.25642938 25.30418181 78.57062078 C25.28517446 82.11260907 25.28364594 85.65460859 25.28010559 89.19664001 C25.27085465 95.8755975 25.24633721 102.55440419 25.21605712 109.23329586 C25.18229392 116.8490014 25.16597254 124.46471489 25.15097082 132.08047688 C25.11977965 147.72041962 25.06485698 163.36015512 25 179 C14.77 179 4.54 179 -6 179 C-6.02187378 173.46762573 -6.02187378 173.46762573 -6.04418945 167.82348633 C-6.09463919 155.6058304 -6.1611048 143.38831016 -6.23571491 131.17078114 C-6.28054121 123.76694481 -6.3199856 116.36315518 -6.34643555 108.95922852 C-6.36952295 102.50047525 -6.40303908 96.04187138 -6.44870156 89.58323687 C-6.47249024 86.16839768 -6.49131236 82.75370512 -6.49761391 79.33878517 C-6.50730718 75.51185064 -6.53543005 71.68544523 -6.56762695 67.85864258 C-6.56619186 66.74588959 -6.56475677 65.6331366 -6.5632782 64.48666382 C-6.69603652 53.25003163 -8.4659325 42.35166803 -15 33 C-15.50789063 32.25105469 -16.01578125 31.50210938 -16.5390625 30.73046875 C-23.25220154 22.05070528 -34.21846812 16.66768714 -44.875 14.5 C-46.57853774 14.28990545 -48.28779628 14.12057773 -50 14 C-50.79277344 13.93167969 -51.58554688 13.86335938 -52.40234375 13.79296875 C-66.39766114 13.18053185 -80.11524506 17.85838282 -90.875 26.75 C-102.39584244 37.708342 -106.82613965 53.35096636 -107.2784729 68.84686279 C-107.30158117 70.90140338 -107.31458622 72.95607607 -107.31884766 75.01074219 C-107.32889328 76.14390869 -107.3389389 77.2770752 -107.34928894 78.44458008 C-107.37988346 82.14534045 -107.39708962 85.8460293 -107.4140625 89.546875 C-107.43279326 92.13047898 -107.45236807 94.71407696 -107.4727478 97.29766846 C-107.51866361 103.37462296 -107.5561433 109.45157443 -107.58942068 115.52860951 C-107.62782874 122.45505152 -107.67718899 129.3814025 -107.72740483 136.30776739 C-107.83033463 150.53844855 -107.91827478 164.76918164 -108 179 C-118.23 179 -128.46 179 -139 179 C-139 115.97 -139 52.94 -139 -12 C-129.1 -12 -119.2 -12 -109 -12 C-108.505 -4.08 -108.505 -4.08 -108 4 C-106.68 2.845 -105.36 1.69 -104 0.5 C-74.92875824 -22.52834319 -29.26435797 -22.76116731 0 0 Z " fill="#000000" transform="translate(1833,175)"/>
<path d="M0 0 C0.95132812 0.67289063 0.95132812 0.67289063 1.921875 1.359375 C15.57598077 12.00707216 23.24193053 29.58335315 25.71552277 46.33399391 C26.79734157 56.47236417 26.36647634 66.78780882 26.30418181 76.97362018 C26.2852203 80.60504114 26.28364944 84.23647235 26.28010559 87.86793518 C26.27084157 94.72049543 26.2463057 101.5729093 26.21605712 108.42540556 C26.18233556 116.2369504 26.16598282 124.04850284 26.15097082 131.86010253 C26.1197499 147.90683382 26.06481005 163.95336387 26 180 C15.77 180 5.54 180 -5 180 C-5.0093457 176.22087158 -5.01869141 172.44174316 -5.02832031 168.5480957 C-5.06215921 156.03107091 -5.11754787 143.51421818 -5.18390274 130.99732685 C-5.22359332 123.41187023 -5.25603619 115.82651585 -5.27099609 108.2409668 C-5.28406471 101.62397204 -5.31116082 95.0072032 -5.35461307 88.39033574 C-5.37711187 84.89161525 -5.39291773 81.39317218 -5.39188385 77.89437294 C-5.39098969 73.97402976 -5.42143524 70.05424667 -5.45410156 66.1340332 C-5.4490712 64.993228 -5.44404083 63.85242279 -5.43885803 62.67704773 C-5.58975139 50.89360371 -8.50908116 40.23214937 -16 31 C-16.50144531 30.37480469 -17.00289062 29.74960938 -17.51953125 29.10546875 C-25.91853905 19.72555493 -38.58916516 15.95433818 -50.7734375 14.71875 C-65.51427373 14.2000109 -80.06995609 19.01423634 -91 29 C-103.85112316 43.06635939 -106.10172853 61.03513418 -106.20532227 79.30297852 C-106.22017166 80.94354973 -106.22017166 80.94354973 -106.23532104 82.61726379 C-106.26671284 86.20445651 -106.29160456 89.79166244 -106.31640625 93.37890625 C-106.33699508 95.87711415 -106.35799204 98.37531871 -106.37937927 100.8735199 C-106.42878788 106.75933124 -106.47410414 112.64516278 -106.51740164 118.53102201 C-106.57183629 125.89636721 -106.63268956 133.26165711 -106.69335938 140.62695312 C-106.80069701 153.75126596 -106.90171013 166.87561628 -107 180 C-116.9 180 -126.8 180 -137 180 C-137 116.97 -137 53.94 -137 -11 C-127.1 -11 -117.2 -11 -107 -11 C-106.505 -3.08 -106.505 -3.08 -106 5 C-104.80375 3.824375 -103.6075 2.64875 -102.375 1.4375 C-75.20460339 -22.58640311 -28.30495913 -20.27000299 0 0 Z " fill="#000000" transform="translate(1232,174)"/>
<path d="M0 0 C69.63 0 139.26 0 211 0 C211 9.57 211 19.14 211 29 C181.3 29 151.6 29 121 29 C121 105.23 121 181.46 121 260 C110.44 260 99.88 260 89 260 C89 183.77 89 107.54 89 29 C59.63 29 30.26 29 0 29 C0 19.43 0 9.86 0 0 Z " fill="#000000" transform="translate(689,94)"/>
<path d="M0 0 C1 1 1 1 1.11352539 3.95922852 C1.10828857 5.25272217 1.10305176 6.54621582 1.09765625 7.87890625 C1.09553383 8.90889992 1.09553383 8.90889992 1.09336853 9.95970154 C1.08775479 12.16067801 1.07520007 14.36155409 1.0625 16.5625 C1.05748676 18.05143083 1.05292355 19.54036324 1.04882812 21.02929688 C1.03778093 24.68623075 1.02050713 28.34310558 1 32 C-3.66133363 32 -5.61345147 30.48891636 -9.25 27.9375 C-29.90753661 14.16490146 -54.72231781 8.43428207 -79.3125 12.25 C-95.76920258 15.59712595 -110.21815449 23.78174704 -119.72900391 37.77929688 C-123.31754559 43.2218932 -125.93136073 48.81030681 -128 55 C-128.31839844 55.91136719 -128.63679688 56.82273437 -128.96484375 57.76171875 C-134.84590702 78.06087261 -132.08801947 102.19319949 -122.10546875 120.7109375 C-112.68162377 135.43241704 -98.45863045 145.02068491 -81.5 149.3125 C-56.86603853 153.39175729 -32.91217662 145.96396108 -12 133 C-9.51355153 131.16715203 -7.14588873 129.29459201 -4.83203125 127.25 C-3 126 -3 126 1 126 C1.32338703 130.83741072 1.55803078 135.66845939 1.71411133 140.51416016 C1.77918099 142.15817831 1.86768697 143.80145253 1.98071289 145.44287109 C2.70833533 156.28806714 2.70833533 156.28806714 1 161 C-2.80529148 164.96885868 -6.95764868 166.93126823 -12 169 C-13.45226548 169.72307015 -14.90417607 170.4468543 -16.35546875 171.171875 C-17.62618111 171.71373936 -18.90364329 172.24005997 -20.1875 172.75 C-20.88746094 173.03311035 -21.58742188 173.3162207 -22.30859375 173.60791016 C-49.78775833 184.2475601 -81.73146649 184.02679178 -109 173 C-130.08740843 163.43256469 -146.15576267 146.28787357 -155 125 C-165.53998099 96.45421815 -166.59830641 62.91677694 -154.17578125 34.703125 C-145.63362796 16.41284226 -132.99908993 1.41647304 -115 -8 C-114.4023584 -8.31308105 -113.8047168 -8.62616211 -113.18896484 -8.94873047 C-76.860005 -27.52701237 -33.97734704 -20.07307246 0 0 Z " fill="#000000" transform="translate(1455,178)"/>
<path d="M0 0 C10.56 0 21.12 0 32 0 C32 16.83 32 33.66 32 51 C50.15 51 68.3 51 87 51 C87 60.57 87 70.14 87 80 C68.85 80 50.7 80 32 80 C32.06282379 96.89820995 32.13795479 113.7962116 32.23571491 130.69424915 C32.28070796 138.54004894 32.32011442 146.38580298 32.34643555 154.23168945 C32.36938734 161.06902934 32.4027535 167.90622488 32.44870156 174.74345034 C32.47267211 178.36476876 32.49137564 181.98594387 32.49761391 185.60733986 C32.50476767 189.64704454 32.5351688 193.68624949 32.56762695 197.72583008 C32.56619186 198.93064026 32.56475677 200.13545044 32.5632782 201.37677002 C32.57581635 202.47473404 32.58835449 203.57269806 32.60127258 204.70393372 C32.60588155 205.65983304 32.61049051 206.61573236 32.61523914 207.60059834 C33.0666736 210.41578225 33.72915262 211.32527356 36 213 C43.58844088 213.73819651 51.70056675 210.61162397 58.875 208.5 C61.0806594 207.86434121 63.28638574 207.2289146 65.4921875 206.59375 C66.45495605 206.31208984 67.41772461 206.03042969 68.40966797 205.74023438 C69.26447754 205.49595703 70.11928711 205.25167969 71 205 C71.73234863 204.76087891 72.46469727 204.52175781 73.21923828 204.27539062 C73.80688965 204.18451172 74.39454102 204.09363281 75 204 C77 206 77 206 77.22705078 208.98095703 C77.21657715 210.22731934 77.20610352 211.47368164 77.1953125 212.7578125 C77.1924826 213.42086395 77.18965271 214.08391541 77.18673706 214.76705933 C77.17553435 216.88655583 77.15043051 219.00563104 77.125 221.125 C77.11497028 222.56119182 77.10584441 223.99739025 77.09765625 225.43359375 C77.075595 228.95586628 77.04106494 232.47789203 77 236 C58.13868552 242.81654523 37.72899549 249.23123624 18 242 C10.77084242 238.43539235 5.03388882 233.28751479 2.09937572 225.65864086 C-0.09181254 218.08815402 -0.40877096 211.02461282 -0.34057617 203.17504883 C-0.33972786 201.82368997 -0.34020902 200.47232974 -0.34190369 199.12097168 C-0.34275712 195.4873172 -0.32523851 191.85396569 -0.30418181 188.22038102 C-0.28530493 184.41009487 -0.28365596 180.59980019 -0.28010559 176.78947449 C-0.27081722 169.58970839 -0.24624739 162.39008052 -0.21605712 155.19037503 C-0.18241261 146.98715169 -0.16600195 138.78392142 -0.15097082 130.58064616 C-0.11969455 113.72033732 -0.06472317 96.86021866 0 80 C-10.23 80 -20.46 80 -31 80 C-31 70.43 -31 60.86 -31 51 C-20.77 51 -10.54 51 0 51 C0 34.17 0 17.34 0 0 Z " fill="#000000" transform="translate(1918,112)"/>
<path d="M0 0 C10.56 0 21.12 0 32 0 C32 85.8 32 171.6 32 260 C21.44 260 10.88 260 0 260 C0 174.2 0 88.4 0 0 Z " fill="#000000" transform="translate(2358,94)"/>
</svg>
