<?xml version="1.0" encoding="UTF-8" standalone="no"?>
<svg
    id="svg_top_logo"
    viewBox="0 0 1126.6 242.9"
    preserveAspectRatio="xMinYMin"
    class="svg-content"
    version="1.1"
    width="1126.6"
    height="242.89999"
    xmlns="http://www.w3.org/2000/svg"
    xmlns:svg="http://www.w3.org/2000/svg">
    <defs
        id="defs3"/>
    <path
        d="m 451,179.2 -21.9,-67 c -1.4,-4.5 -3.2,-11.2 -5.4,-20 H 423 l -1.9,6.8 -4.2,13.4 -22.3,66.8 h -9 L 356.9,78.9 h 9.8 l 16,58.1 c 3.8,14.4 6.2,25 7.4,31.7 h 0.6 c 3.6,-14.4 6.3,-23.9 7.9,-28.7 l 20.7,-61.1 h 8.3 l 19.6,60.9 c 4.4,14.4 7.1,24 8.1,28.7 h 0.6 c 0.5,-4 3,-14.7 7.4,-32.1 l 15.3,-57.5 h 9.2 L 460.6,179.1 H 451 Z M 506.1,51.1 c 0,-5.9 1.9,-8.9 5.8,-8.9 1.9,0 3.4,0.8 4.5,2.3 1.1,1.5 1.6,3.7 1.6,6.5 0,2.8 -0.5,4.9 -1.6,6.5 -1.1,1.6 -2.6,2.4 -4.5,2.4 -3.9,0.1 -5.8,-2.8 -5.8,-8.8 m 10.4,128.1 h -9.1 V 78.9 h 9.1 z M 589.5,77 c 4.2,0 8.8,0.4 13.6,1.3 l -1.8,8.8 c -4.2,-1 -8.5,-1.6 -13,-1.6 -8.5,0 -15.6,3.6 -21,10.9 -5.5,7.3 -8.2,16.4 -8.2,27.5 v 55.3 H 550 V 78.9 h 7.7 l 0.9,18.1 h 0.6 c 4.1,-7.4 8.5,-12.6 13.2,-15.5 4.8,-3 10.5,-4.5 17.1,-4.5 M 664,181 c -14.6,0 -25.9,-4.5 -34.1,-13.5 -8.1,-9 -12.2,-21.5 -12.2,-37.7 0,-16 3.9,-28.8 11.8,-38.4 7.9,-9.6 18.5,-14.4 31.8,-14.4 11.8,0 21.1,4.1 27.9,12.4 6.8,8.2 10.2,19.4 10.2,33.6 v 7.4 h -72.2 c 0.1,13.8 3.3,24.3 9.6,31.5 6.3,7.2 15.3,10.9 27.1,10.9 5.7,0 10.7,-0.4 15.1,-1.2 4.3,-0.8 9.8,-2.5 16.5,-5.2 v 8.3 c -5.7,2.5 -10.9,4.1 -15.7,5 -4.7,0.8 -10,1.3 -15.8,1.3 m -2.7,-95.9 c -9.6,0 -17.4,3.2 -23.2,9.5 -5.8,6.4 -9.2,15.5 -10.2,27.5 h 61.9 c 0,-11.6 -2.5,-20.7 -7.6,-27.2 -5,-6.5 -12,-9.8 -20.9,-9.8 m 191,94.1 v -65.7 c 0,-9.8 -1.9,-16.9 -5.7,-21.4 -3.8,-4.5 -9.7,-6.7 -17.5,-6.7 -10.3,0 -17.9,2.8 -22.8,8.5 -4.9,5.7 -7.4,14.5 -7.4,26.6 v 58.7 h -9.3 v -68.5 c 0,-16.9 -7.7,-25.4 -23.2,-25.4 -10.5,0 -18.2,3.1 -23,9.2 -4.8,6.1 -7.2,15.9 -7.2,29.4 v 55.3 h -9.1 V 78.9 h 7.6 l 1.9,13.7 h 0.5 c 2.8,-5 6.7,-8.8 11.8,-11.6 5.1,-2.7 10.7,-4.1 16.9,-4.1 15.8,0 25.9,5.9 30.4,17.8 h 0.4 c 3.3,-5.7 7.6,-10.1 13.1,-13.2 5.5,-3.1 11.8,-4.6 18.8,-4.6 10.9,0 19.1,2.9 24.6,8.8 5.5,5.8 8.2,15.1 8.2,27.8 V 179 h -9 z M 892.5,51.1 c 0,-5.9 1.9,-8.9 5.8,-8.9 1.9,0 3.4,0.8 4.5,2.3 1.1,1.5 1.6,3.7 1.6,6.5 0,2.8 -0.5,4.9 -1.6,6.5 -1.1,1.6 -2.6,2.4 -4.5,2.4 -3.8,0.1 -5.8,-2.8 -5.8,-8.8 m 10.4,128.1 h -9.1 V 78.9 h 9.1 z m 103.5,0 v -65 c 0,-10.1 -2.1,-17.4 -6.4,-22 -4.2,-4.6 -10.8,-6.9 -19.7,-6.9 -12,0 -20.8,3 -26.3,9.1 -5.6,6.1 -8.3,15.9 -8.3,29.5 v 55.3 h -9.1 V 78.9 h 7.7 l 1.8,13.7 h 0.5 c 6.5,-10.4 18.1,-15.7 34.8,-15.7 22.7,0 34.1,12.2 34.1,36.6 V 179 h -9.1 z M 1084.5,77 c 7.2,0 13.5,1.3 18.8,4 5.3,2.6 10,7.2 14.2,13.5 h 0.6 c -0.4,-7.7 -0.6,-15.3 -0.6,-22.8 v -36 h 9 v 143.4 h -6 l -2.3,-15.3 h -0.7 c -7.6,11.4 -18.6,17.1 -32.8,17.1 -13.8,0 -24.4,-4.3 -31.7,-12.9 -7.3,-8.6 -11,-21.1 -11,-37.6 0,-17.3 3.6,-30.6 10.9,-39.7 7.3,-9.1 17.8,-13.7 31.6,-13.7 m 0,8.3 c -10.9,0 -19.2,3.8 -24.7,11.5 -5.5,7.7 -8.3,18.8 -8.3,33.5 0,28.4 11,42.6 33.1,42.6 11.3,0 19.6,-3.3 24.9,-9.9 5.3,-6.6 7.9,-17.4 7.9,-32.5 v -1.6 c 0,-15.5 -2.6,-26.6 -7.8,-33.4 -5,-6.8 -13.4,-10.2 -25.1,-10.2"
        fill="#3a586e"
        id="path1"/>
    <path
        d="m 91.3,111.5 39.4,-58.3 40.9,59 L 194.4,78.5 146.2,8.4 C 142.7,3.2 136.8,0 130.5,0 h -0.1 c -6.3,0 -12.3,3.3 -15.7,8.6 L 68,77.8 Z m 116.8,53.5 35.3,50.9 19.7,-37.1 -32.4,-47.3 z M 32.5,130.6 0,178.8 20.9,215.7 55.6,164.3 Z"
        fill-rule="evenodd"
        clip-rule="evenodd"
        fill="#3a586e"
        id="path2"/>
    <path
        d="m 132.5,242.9 h 0.1 c 6.3,0 12.3,-3.3 15.7,-8.6 L 263.1,64.1 242.2,27.2 132.3,189.7 19.7,27 0,64.1 116.8,234.5 c 3.5,5.3 9.4,8.4 15.7,8.4"
        fill-rule="evenodd"
        clip-rule="evenodd"
        fill="#ed7269"
        id="path3"/>
</svg>
