<?xml version="1.0" standalone="no"?>
<!DOCTYPE svg PUBLIC "-//W3C//DTD SVG 20010904//EN"
    "http://www.w3.org/TR/2001/REC-SVG-20010904/DTD/svg10.dtd">
<svg version="1.0" xmlns="http://www.w3.org/2000/svg"
     width="300.000000pt" height="117.000000pt" viewBox="0 0 300.000000 117.000000"
     preserveAspectRatio="xMidYMid meet">
    <g transform="translate(0.000000,117.000000) scale(0.100000,-0.100000)"
       fill="#000000" stroke="none">
        <path d="M140 1084 c-13 -34 -13 -104 1 -104 6 0 8 -9 4 -21 -5 -15 -4 -19 4
-15 7 4 11 -1 11 -13 0 -11 8 -27 18 -37 9 -10 16 -20 14 -23 -1 -3 12 -14 29
-23 17 -9 55 -40 84 -69 53 -53 113 -89 147 -89 10 0 23 -11 28 -25 5 -13 22
-31 38 -39 17 -9 35 -29 41 -46 6 -18 15 -29 21 -25 5 3 13 -2 16 -12 3 -10 8
-25 11 -33 9 -26 13 -84 7 -104 -6 -19 -7 -19 -20 -2 -7 10 -17 15 -23 11 -17
-10 -13 -60 8 -86 10 -13 21 -34 25 -46 6 -20 4 -23 -17 -23 -14 0 -27 7 -31
15 -3 8 0 15 6 15 6 0 5 9 -4 22 -9 13 -21 23 -27 23 -6 0 -11 3 -11 8 0 4 0
20 0 36 0 20 10 39 30 58 37 34 38 42 5 35 -17 -3 -25 0 -25 10 0 7 -9 20 -19
27 -11 8 -17 20 -14 28 3 7 -2 13 -11 13 -14 0 -20 11 -18 31 1 6 -23 17 -72
33 -15 5 -16 9 -6 21 10 12 7 16 -16 25 -40 15 -206 188 -228 239 -24 53 -36
52 -36 -1 0 -60 10 -94 22 -76 7 9 8 5 4 -12 -3 -16 2 -38 15 -59 10 -17 16
-37 13 -43 -5 -7 -2 -8 6 -3 8 5 11 4 6 -3 -3 -6 13 -17 41 -28 65 -23 70 -30
31 -38 -30 -6 -36 -3 -63 31 -16 20 -30 41 -30 47 0 5 -6 11 -12 13 -39 13 10
-102 62 -144 l38 -31 -22 -28 c-29 -37 -28 -58 3 -50 15 4 28 0 36 -9 8 -9 9
-15 2 -15 -6 0 -10 -9 -9 -20 1 -11 7 -20 15 -20 7 0 11 4 7 9 -3 5 0 13 6 16
21 13 21 -4 0 -38 -33 -53 -28 -64 25 -62 45 2 45 2 44 -29 -3 -48 -1 -58 10
-51 6 4 8 10 6 14 -3 4 0 8 7 8 7 0 22 3 35 7 18 6 22 4 22 -13 0 -12 5 -21
10 -21 6 0 10 5 10 11 0 5 4 7 10 4 6 -3 7 1 4 9 -3 9 -11 13 -16 10 -6 -4 -8
2 -3 15 4 12 2 21 -4 21 -6 0 -11 -5 -11 -11 0 -5 -4 -7 -10 -4 -5 3 -10 1
-10 -4 0 -6 -7 -11 -15 -11 -8 0 -15 4 -15 8 0 14 23 32 41 32 9 0 20 8 23 17
6 14 9 15 16 4 4 -8 7 -23 5 -33 -2 -10 -1 -18 3 -18 4 0 9 -14 10 -31 3 -43
12 -56 26 -37 17 22 43 28 56 13 7 -8 16 -13 20 -10 9 6 60 -66 60 -84 0 -7
-8 -3 -19 10 -16 20 -21 21 -35 10 -20 -17 -21 -65 0 -85 19 -20 29 -20 48 0
22 21 20 77 -3 115 -13 21 -17 42 -14 69 4 30 1 40 -15 51 -19 14 -26 34 -23
69 1 11 4 11 13 2 7 -7 20 -12 30 -12 16 0 17 8 13 81 -5 77 -26 136 -45 124
-5 -3 -18 15 -30 40 -21 44 -80 92 -99 80 -28 -17 -181 97 -234 175 l-18 25
12 -25 c9 -20 9 -23 -1 -13 -7 7 -14 21 -15 31 -2 28 -26 82 -35 77 -4 -3 -7
1 -7 8 1 6 -2 31 -7 55 -5 30 -4 47 4 57 9 11 9 15 1 15 -6 0 -16 -12 -21 -26z
m67 -291 c29 -35 38 -51 26 -47 -17 5 -17 4 1 -8 10 -7 31 -23 46 -36 16 -12
40 -29 55 -36 l27 -14 -22 -12 c-19 -10 -26 -8 -46 11 -14 13 -22 29 -20 36 3
7 -4 17 -14 23 -18 10 -19 8 -10 -15 9 -24 8 -26 -12 -20 -30 9 -51 31 -77 78
-26 47 -26 55 -1 32 11 -10 20 -22 20 -27 0 -9 37 -48 45 -48 3 0 -6 17 -20
37 -14 21 -25 45 -25 55 0 9 -5 20 -10 23 -11 7 -50 80 -50 92 1 4 10 -10 22
-32 11 -22 41 -64 65 -92z m317 -138 c9 -14 13 -25 9 -25 -12 1 -46 50 -35 50
6 0 17 -11 26 -25z m-294 -55 c3 -3 16 -11 30 -17 24 -11 24 -12 3 -12 -19 -1
-73 40 -73 56 0 5 27 -13 40 -27z m95 15 c64 -11 75 -16 75 -30 0 -7 14 -18
31 -24 17 -6 28 -15 24 -20 -3 -6 4 -15 15 -21 25 -13 27 -32 3 -23 -25 8 -83
64 -83 80 0 7 -6 13 -14 13 -8 0 -23 3 -33 6 -13 4 -11 0 7 -15 l25 -22 -30 7
c-41 10 -76 34 -68 47 4 6 0 8 -10 4 -9 -3 -19 -2 -22 3 -5 9 12 8 80 -5z m19
-63 c21 0 43 -5 50 -12 8 -9 4 -11 -21 -5 -38 8 -44 -1 -10 -15 19 -9 18 -9
-13 -7 -36 2 -82 37 -65 49 5 4 12 3 15 -2 3 -4 22 -8 44 -8z m-98 -37 c-11
-8 -22 -12 -25 -9 -6 6 19 24 34 24 6 -1 1 -7 -9 -15z m53 -14 c11 -7 10 -10
-6 -15 -24 -8 -55 2 -47 15 7 11 35 11 53 0z m106 -11 c-3 -5 -16 -11 -28 -11
-17 -1 -18 -2 -4 -6 28 -7 20 -21 -15 -25 -71 -8 -90 12 -35 36 38 17 91 21
82 6z m83 -13 c6 -6 12 -19 14 -27 2 -8 7 -18 12 -22 14 -9 -40 -22 -55 -12
-9 5 -7 11 6 21 16 11 16 13 3 13 -8 0 -21 6 -27 14 -10 11 -8 15 6 19 29 8
30 8 41 -6z m-86 -52 c-4 -21 -10 -25 -40 -25 l-36 0 34 25 c19 14 37 25 41
25 3 0 4 -11 1 -25z m-60 6 c-7 -4 -19 -19 -26 -33 -13 -24 -13 -25 31 -23 32
1 47 6 59 23 8 12 21 22 27 21 9 0 9 -2 0 -6 -7 -2 -13 -11 -13 -19 0 -8 6
-11 16 -7 14 5 15 3 4 -16 -6 -13 -17 -21 -23 -18 -13 4 -49 -28 -41 -36 3 -3
0 -8 -7 -13 -9 -5 -11 2 -6 30 5 28 3 35 -6 28 -7 -5 -30 -9 -52 -9 -22 0 -33
2 -24 4 11 3 15 11 12 23 -5 19 28 60 50 60 9 0 9 -2 -1 -9z m153 -53 c-1 -12
-7 -24 -15 -26 -7 -3 -10 0 -6 6 3 6 1 12 -6 14 -14 5 -2 28 16 28 7 0 12 -10
11 -22z m37 -102 c-3 -6 -7 -5 -10 3 -3 8 -8 7 -18 -6 -13 -17 -13 -17 -14 0
0 10 6 24 12 31 11 11 15 11 24 -3 7 -9 10 -20 6 -25z m88 -126 c0 -5 -5 -9
-11 -7 -6 1 -14 -4 -16 -10 -3 -7 3 -13 12 -13 9 0 13 -5 9 -11 -10 -17 -36
14 -28 34 7 18 34 24 34 7z"/>
        <path d="M2829 1092 c12 -23 -3 -135 -19 -140 -6 -2 -15 -13 -21 -24 -8 -15
-8 -19 1 -13 7 4 5 -6 -4 -24 -19 -35 -32 -43 -16 -8 7 13 2 10 -11 -8 -43
-59 -148 -151 -183 -162 -20 -6 -36 -10 -36 -9 0 1 21 18 46 37 44 33 74 74
74 101 -1 7 -9 -3 -20 -23 -10 -20 -41 -53 -69 -74 -28 -21 -48 -42 -45 -47 3
-4 -2 -5 -10 -2 -22 8 -63 -32 -87 -84 -10 -24 -23 -41 -28 -37 -21 12 -41
-43 -44 -118 -2 -82 4 -97 32 -80 38 24 44 -26 7 -58 -19 -17 -23 -28 -19 -53
3 -22 -2 -46 -16 -74 -23 -46 -26 -74 -11 -103 14 -25 56 -25 70 0 23 43 -1
91 -37 76 -16 -6 -16 -8 5 -16 23 -9 30 -33 11 -45 -6 -3 -16 -1 -22 5 -9 9
-8 11 6 6 12 -5 17 -2 17 10 0 11 -5 15 -14 12 -26 -10 -29 30 -5 62 12 17 26
28 30 25 5 -3 14 4 20 15 12 19 13 19 41 -2 25 -18 30 -19 38 -7 15 23 12 56
-6 71 -13 11 -14 9 -9 -14 5 -17 3 -27 -4 -27 -6 0 -11 8 -11 18 0 14 -2 15
-10 2 -5 -8 -10 -11 -10 -7 0 5 8 20 19 33 l19 24 16 -23 16 -22 -4 27 c-3 16
0 28 5 28 6 0 7 6 4 13 -4 6 0 4 8 -5 8 -10 21 -18 29 -18 9 0 21 -7 28 -15
11 -13 15 -13 21 -3 7 10 9 9 9 -3 0 -24 -12 -30 -29 -15 -25 22 -57 24 -53 3
2 -9 -1 -17 -7 -17 -13 0 -7 -33 7 -38 7 -2 12 6 12 17 0 25 41 29 60 6 19
-23 33 -7 26 30 -6 31 -4 34 20 37 27 3 27 3 -10 21 -37 17 -37 17 -31 -3 5
-14 2 -20 -10 -20 -9 0 -13 4 -10 10 3 6 -1 7 -10 4 -9 -4 -25 2 -35 11 -24
22 -26 37 -4 28 12 -4 15 -2 12 8 -2 8 -15 15 -27 17 -19 3 -22 0 -16 -17 4
-12 2 -21 -4 -21 -6 0 -8 -7 -4 -16 4 -12 2 -15 -8 -12 -16 5 -20 37 -6 56 7
8 4 12 -7 12 -13 0 -15 6 -10 28 8 30 20 42 46 42 24 0 31 -17 12 -28 -18 -10
-11 -32 11 -32 8 0 21 -10 29 -22 12 -16 27 -22 61 -24 26 -2 45 1 45 7 0 18
-61 69 -84 70 -21 0 -21 0 2 9 27 11 29 24 2 17 -11 -3 -25 2 -32 11 -12 14
-8 14 32 8 24 -4 53 -15 63 -24 11 -9 21 -15 22 -12 2 3 7 2 11 -2 7 -8 -16
-12 -46 -9 -9 1 -5 -6 10 -18 41 -34 100 -22 66 12 -19 18 -11 27 26 27 34 0
38 28 8 55 -27 24 -25 32 11 50 46 24 107 165 64 149 -8 -4 -13 -10 -10 -14 3
-5 1 -11 -4 -14 -5 -4 -13 -1 -17 5 -5 8 -3 9 6 4 8 -5 11 -4 6 3 -3 6 3 26
13 43 13 21 18 43 15 59 -4 20 -3 22 5 10 8 -11 10 -7 5 20 -4 27 -3 32 5 20
9 -12 11 -5 9 30 -4 54 -15 55 -39 1 -23 -51 -16 -53 10 -3 11 20 20 33 21 29
0 -12 -39 -85 -50 -92 -5 -3 -10 -14 -10 -24 0 -10 -11 -35 -25 -55 -14 -20
-25 -40 -25 -44 0 -9 41 37 63 71 29 45 32 23 4 -26 -29 -48 -42 -62 -72 -71
-17 -5 -20 -2 -20 19 1 14 10 32 21 41 19 15 19 16 -1 9 -18 -6 -17 -3 5 22
57 63 65 74 48 68 -9 -4 -33 -28 -53 -53 -40 -52 -115 -118 -146 -127 -10 -4
-17 -11 -13 -16 3 -6 13 -8 21 -5 8 3 12 2 8 -3 -3 -5 -27 -17 -54 -26 -39
-13 -48 -20 -44 -34 3 -13 -2 -21 -16 -26 -12 -3 -19 -11 -16 -16 4 -5 1 -9
-5 -9 -6 0 -8 -5 -5 -10 3 -6 -1 -13 -9 -16 -9 -3 -16 -13 -16 -21 0 -11 -7
-13 -25 -9 -34 9 -31 -2 7 -34 26 -22 32 -35 34 -68 1 -28 -2 -39 -11 -36 -7
3 -19 -6 -28 -20 -12 -17 -13 -26 -5 -28 17 -6 0 -28 -23 -28 -14 0 -19 7 -19
30 0 17 4 30 10 30 5 0 16 14 25 30 12 23 13 35 5 50 -13 25 -26 26 -35 3 -6
-16 -8 -15 -16 6 -13 34 9 142 31 148 9 2 21 18 27 34 6 16 20 32 30 36 21 7
53 38 53 52 0 5 24 17 53 27 36 13 70 37 113 79 33 33 73 67 89 75 32 17 74
97 81 155 6 47 -6 97 -25 103 -10 3 -10 0 -2 -16z m-125 -436 c-22 -30 -33
-32 -60 -10 -10 8 -14 13 -7 10 6 -4 24 5 40 18 34 30 52 18 27 -18z m85 -12
c-12 -13 -27 -24 -31 -24 -5 0 -29 -13 -53 -30 -51 -35 -96 -43 -55 -9 27 22
28 21 -40 4 -24 -6 -24 -5 -6 9 11 9 32 16 48 16 15 0 37 9 49 21 26 26 103
59 108 47 2 -5 -7 -20 -20 -34z m-295 24 c-13 -23 -37 -48 -46 -48 -4 0 4 14
19 30 28 31 39 39 27 18z m322 -33 c-11 -8 -16 -15 -12 -15 5 0 3 -7 -4 -15
-7 -8 -16 -12 -21 -10 -4 3 -13 -4 -19 -15 -6 -11 -15 -18 -21 -15 -14 9 -11
25 5 25 8 0 16 3 18 8 4 10 59 52 67 52 3 0 -3 -7 -13 -15z m-226 -84 c-13
-26 -59 -61 -78 -61 -13 0 -13 2 1 18 8 9 15 21 14 25 -2 8 46 34 66 36 4 1 3
-8 -3 -18z m144 0 c3 -4 -6 -6 -19 -3 -20 3 -25 0 -25 -17 0 -13 -5 -19 -14
-15 -8 3 -17 1 -21 -5 -3 -6 -14 -11 -23 -11 -15 1 -15 2 2 15 19 14 18 15 -9
15 -42 0 -18 18 30 23 22 2 48 4 57 5 9 1 19 -2 22 -7z m6 -56 c-1 -5 -10 -13
-21 -17 -15 -6 -18 -4 -13 5 5 8 2 7 -9 -2 -15 -12 -17 -11 -17 2 0 15 23 26
48 23 7 0 13 -5 12 -11z m-105 -75 l30 -20 -37 0 c-31 0 -37 3 -35 20 2 25 5
25 42 0z"/>
        <path fill="#FB2876" d="M630 781 c0 -125 1 -131 20 -131 19 0 21 6 19 66 -2 71 6 87 42 82
22 -3 24 -8 27 -75 3 -66 5 -73 24 -73 19 0 20 5 16 75 -4 83 -18 108 -63 108
-14 0 -33 -9 -40 -19 -14 -17 -15 -14 -13 36 3 45 0 55 -14 58 -16 3 -18 -8
-18 -127z"/>
        <path d="M2070 860 c0 -25 -4 -30 -25 -30 -16 0 -25 -6 -25 -15 0 -9 9 -15 25
-15 24 0 25 -3 25 -55 0 -71 21 -95 84 -95 37 0 43 3 40 18 -4 12 -15 17 -42
17 l-37 0 -3 58 -3 57 41 0 c29 0 40 4 40 15 0 11 -11 15 -40 15 -38 0 -40 2
-40 30 0 23 -4 30 -20 30 -16 0 -20 -7 -20 -30z"/>
        <path d="M330 838 c9 -33 101 -128 122 -128 6 0 -17 26 -50 58 -40 37 -62 65
-62 80 0 12 -4 22 -9 22 -6 0 -6 -13 -1 -32z"/>
        <path d="M923 829 c-34 -12 -29 -36 6 -31 22 3 29 -1 34 -17 6 -26 37 -28 37
-3 0 39 -39 65 -77 51z"/>
        <path d="M1079 829 c-52 -19 -67 -112 -24 -154 19 -20 34 -25 76 -25 42 0 50
3 45 16 -3 9 -6 17 -6 19 0 2 -9 1 -20 -2 -30 -8 -68 5 -80 28 -11 19 -9 20
52 17 l63 -2 -3 34 c-4 57 -51 88 -103 69z m69 -56 c3 -21 -1 -23 -42 -23 -50
0 -51 1 -35 31 15 29 73 23 77 -8z"/>
        <path d="M1275 830 c-35 -13 -49 -39 -49 -90 0 -34 6 -56 19 -70 21 -24 67
-26 89 -5 14 14 15 11 13 -37 -2 -43 1 -53 16 -56 15 -3 17 8 17 127 0 110 -2
131 -15 131 -8 0 -15 -8 -15 -17 0 -15 -1 -15 -12 -1 -17 21 -39 27 -63 18z
m63 -47 c10 -21 10 -73 -1 -90 -10 -16 -49 -17 -65 -1 -7 7 -12 28 -12 48 0
20 5 41 12 48 18 18 56 15 66 -5z"/>
        <path d="M1694 832 c-36 -5 -57 -37 -58 -88 0 -39 4 -50 27 -70 34 -29 117
-35 117 -9 0 11 -11 15 -38 15 -36 0 -72 22 -72 44 0 4 27 6 60 4 l60 -3 0 30
c0 56 -38 86 -96 77z m54 -44 c25 -25 13 -38 -33 -38 -30 0 -45 4 -45 13 0 19
21 37 45 37 12 0 26 -5 33 -12z"/>
        <path d="M1905 833 c-16 -3 -38 -12 -47 -20 -38 -34 -11 -73 60 -88 24 -5 32
-12 30 -23 -3 -13 -15 -17 -56 -17 -43 1 -52 -2 -52 -17 0 -15 9 -18 53 -18
66 0 99 21 95 58 -2 23 -11 30 -53 44 -64 21 -66 42 -3 46 29 2 48 8 52 18 3
8 0 14 -8 14 -8 0 -20 2 -28 3 -7 2 -26 2 -43 0z"/>
        <path d="M2325 835 c-5 -2 -22 -6 -37 -9 -15 -4 -32 -15 -38 -26 -16 -30 4
-58 53 -71 56 -15 60 -18 46 -36 -9 -10 -27 -13 -58 -11 -37 2 -47 -1 -49 -15
-3 -14 5 -17 53 -17 71 0 95 12 95 49 0 35 -15 48 -66 59 -60 12 -52 36 14 40
37 2 52 7 52 18 0 7 -6 14 -14 14 -8 0 -20 2 -28 4 -7 3 -17 3 -23 1z"/>
        <path d="M820 815 c0 -8 9 -15 20 -15 18 0 20 -7 20 -60 0 -53 -2 -60 -20 -60
-11 0 -20 -7 -20 -15 0 -12 13 -15 60 -15 47 0 60 3 60 15 0 9 -10 15 -26 15
-25 0 -26 2 -23 53 4 94 3 97 -36 97 -24 0 -35 -5 -35 -15z"/>
        <path d="M1430 768 c0 -81 16 -112 58 -116 22 -2 34 2 38 12 3 9 11 16 16 16
6 0 8 -7 4 -15 -4 -11 2 -15 24 -15 20 0 30 5 30 15 0 8 -4 15 -10 15 -6 0
-10 32 -10 75 0 68 -2 75 -20 75 -17 0 -19 -8 -22 -66 -3 -70 -18 -94 -52 -81
-13 5 -16 21 -16 77 0 63 -2 70 -20 70 -18 0 -20 -7 -20 -62z"/>
        <path d="M1473 523 l-723 -3 0 -70 0 -70 725 0 725 0 0 75 c0 41 -1 74 -2 73
-2 -2 -328 -4 -725 -5z m-528 -52 c5 1 14 -6 20 -15 8 -13 6 -20 -9 -31 -27
-20 -36 -10 -35 38 0 28 3 36 8 24 4 -10 11 -18 16 -16z m422 17 c-2 -7 0 -25
4 -40 7 -26 5 -28 -19 -28 -20 0 -23 3 -13 9 8 5 11 16 8 25 -4 9 -4 23 -1 31
7 18 28 20 21 3z m253 3 c0 -5 -6 -12 -12 -14 -10 -4 -9 -8 2 -16 10 -7 11
-11 3 -11 -7 0 -13 -7 -13 -15 0 -8 -4 -15 -10 -15 -5 0 -10 7 -10 15 0 8 -4
15 -10 15 -5 0 0 11 12 25 22 26 38 32 38 16z m240 -53 c0 -26 -20 -22 -21 5
l-2 22 -4 -22 c-7 -39 -23 -25 -23 19 l0 41 25 -23 c14 -13 25 -32 25 -42z
m-1047 40 c3 -10 7 -10 20 1 15 12 17 11 17 -10 0 -22 1 -22 13 -4 8 10 19 15
25 11 18 -11 14 -36 -5 -37 -16 0 -16 -1 1 -8 13 -5 16 -10 9 -14 -6 -4 -19 1
-29 10 -12 13 -19 14 -22 5 -5 -17 -39 -15 -46 4 -9 23 -7 54 3 54 5 0 11 -6
14 -12z m267 -8 c0 -5 -8 -11 -17 -11 -17 -1 -17 -2 0 -6 9 -2 17 -10 17 -18
0 -17 -31 -28 -44 -15 -7 7 -2 10 15 11 l24 0 -24 10 c-19 8 -21 12 -11 24 14
17 40 20 40 5z m55 0 c3 -5 -1 -10 -9 -10 -9 0 -16 -7 -16 -15 0 -8 7 -15 16
-15 8 0 12 -5 9 -10 -8 -13 -45 6 -45 23 0 14 20 37 31 37 4 0 11 -4 14 -10z
m73 -9 c3 -10 0 -12 -13 -7 -14 5 -16 2 -12 -14 4 -14 0 -20 -11 -20 -12 0
-17 9 -18 29 -1 26 2 29 24 28 14 -1 28 -9 30 -16z m49 -12 c12 -23 13 -23 13
-3 0 28 31 40 47 19 14 -20 7 -45 -12 -45 -7 0 -16 -6 -19 -12 -5 -10 -7 -10
-12 0 -3 6 -19 12 -35 12 -32 0 -43 29 -11 31 10 0 12 3 5 6 -7 2 -13 9 -13
15 0 17 25 2 37 -23z m181 -1 c2 -16 -1 -28 -7 -28 -6 0 -12 10 -12 23 l-2 22
-4 -22 c-6 -33 -23 -28 -23 6 0 23 4 28 23 27 16 -1 23 -8 25 -28z m62 -4 c0
-31 -24 -63 -37 -50 -4 4 -1 11 7 16 13 8 12 10 -2 10 -12 0 -18 8 -18 23 0
29 6 36 31 34 14 -1 19 -9 19 -33z m180 7 c0 -23 -19 -41 -36 -34 -17 6 -18
50 -1 56 19 7 37 -4 37 -22z m60 12 c0 -8 -4 -12 -9 -8 -5 3 -13 0 -17 -6 -3
-6 0 -15 7 -20 11 -7 9 -9 -6 -9 -15 0 -20 7 -21 29 -1 24 3 29 22 29 14 0 24
-6 24 -15z m151 -33 c5 0 9 12 9 27 0 33 15 21 15 -13 1 -19 -4 -24 -22 -24
-20 0 -23 5 -22 33 2 30 2 30 6 5 2 -16 9 -28 14 -28z m87 17 c2 -19 -1 -27
-12 -27 -10 0 -16 9 -17 23 -1 21 -1 21 -9 -3 -8 -24 -8 -23 -9 7 -1 29 2 32
22 29 15 -2 23 -11 25 -29z m53 1 c5 -21 3 -27 -12 -31 -20 -5 -29 0 -29 20 0
7 8 14 18 14 16 1 16 2 0 6 -23 6 -24 26 -1 21 9 -2 20 -15 24 -30z m57 19
c14 -10 16 -47 2 -47 -5 0 -10 9 -10 20 0 27 -18 25 -23 -2 -3 -17 -5 -15 -6
9 -1 31 9 37 37 20z m62 3 c0 -5 -5 -10 -12 -10 -6 0 -3 -6 7 -14 18 -13 18
-14 -3 -25 -14 -7 -23 -8 -27 -1 -3 5 2 11 12 11 17 1 17 2 1 6 -18 4 -24 24
-11 36 10 11 33 8 33 -3z"/>
        <path d="M930 445 c0 -8 5 -15 10 -15 6 0 10 7 10 15 0 8 -4 15 -10 15 -5 0
-10 -7 -10 -15z"/>
        <path d="M1290 445 c0 -8 5 -15 10 -15 6 0 10 7 10 15 0 8 -4 15 -10 15 -5 0
-10 -7 -10 -15z"/>
        <path d="M1460 445 c0 -8 5 -15 10 -15 6 0 10 7 10 15 0 8 -4 15 -10 15 -5 0
-10 -7 -10 -15z"/>
        <path d="M2706 389 c3 -10 -2 -19 -12 -23 -16 -6 -16 -8 2 -21 10 -8 22 -15
27 -15 12 0 8 35 -8 56 -11 13 -13 14 -9 3z"/>
        <path d="M645 70 c-7 -12 2 -30 16 -30 5 0 9 9 9 20 0 21 -15 27 -25 10z"/>
        <path d="M2326 73 c-12 -12 -6 -33 9 -33 8 0 15 6 15 14 0 17 -14 28 -24 19z"/>
    </g>
</svg>
